<?xml version="1.0" encoding="utf-8" standalone="no"?>
<!DOCTYPE svg PUBLIC "-//W3C//DTD SVG 1.1//EN"
  "http://www.w3.org/Graphics/SVG/1.1/DTD/svg11.dtd">
<!-- Created with matplotlib (https://matplotlib.org/) -->
<svg height="345.6pt" version="1.1" viewBox="0 0 460.8 345.6" width="460.8pt" xmlns="http://www.w3.org/2000/svg" xmlns:xlink="http://www.w3.org/1999/xlink">
 <defs>
  <style type="text/css">
*{stroke-linecap:butt;stroke-linejoin:round;}
  </style>
 </defs>
 <g id="figure_1">
  <g id="patch_1">
   <path d="M 0 345.6 
L 460.8 345.6 
L 460.8 0 
L 0 0 
z
" style="fill:#ffffff;"/>
  </g>
  <g id="axes_1">
   <g id="patch_2">
    <path d="M 57.6 307.584 
L 414.72 307.584 
L 414.72 41.472 
L 57.6 41.472 
z
" style="fill:#ffffff;"/>
   </g>
   <g id="matplotlib.axis_1">
    <g id="xtick_1">
     <g id="line2d_1">
      <defs>
       <path d="M 0 0 
L 0 4.8 
" id="mb61b16573d" style="stroke:#000000;"/>
      </defs>
      <g>
       <use style="stroke:#000000;" x="73.832727" xlink:href="#mb61b16573d" y="307.584"/>
      </g>
     </g>
     <g id="text_1">
      <!-- 0.00 -->
      <defs>
       <path d="M 31.78125 66.40625 
Q 24.171875 66.40625 20.328125 58.90625 
Q 16.5 51.421875 16.5 36.375 
Q 16.5 21.390625 20.328125 13.890625 
Q 24.171875 6.390625 31.78125 6.390625 
Q 39.453125 6.390625 43.28125 13.890625 
Q 47.125 21.390625 47.125 36.375 
Q 47.125 51.421875 43.28125 58.90625 
Q 39.453125 66.40625 31.78125 66.40625 
z
M 31.78125 74.21875 
Q 44.046875 74.21875 50.515625 64.515625 
Q 56.984375 54.828125 56.984375 36.375 
Q 56.984375 17.96875 50.515625 8.265625 
Q 44.046875 -1.421875 31.78125 -1.421875 
Q 19.53125 -1.421875 13.0625 8.265625 
Q 6.59375 17.96875 6.59375 36.375 
Q 6.59375 54.828125 13.0625 64.515625 
Q 19.53125 74.21875 31.78125 74.21875 
z
" id="DejaVuSans-48"/>
       <path d="M 10.6875 12.40625 
L 21 12.40625 
L 21 0 
L 10.6875 0 
z
" id="DejaVuSans-46"/>
      </defs>
      <g transform="translate(59.137415 325.913937)scale(0.132 -0.132)">
       <use xlink:href="#DejaVuSans-48"/>
       <use x="63.623047" xlink:href="#DejaVuSans-46"/>
       <use x="95.410156" xlink:href="#DejaVuSans-48"/>
       <use x="159.033203" xlink:href="#DejaVuSans-48"/>
      </g>
     </g>
    </g>
    <g id="xtick_2">
     <g id="line2d_2">
      <g>
       <use style="stroke:#000000;" x="114.414545" xlink:href="#mb61b16573d" y="307.584"/>
      </g>
     </g>
     <g id="text_2">
      <!-- 0.25 -->
      <defs>
       <path d="M 19.1875 8.296875 
L 53.609375 8.296875 
L 53.609375 0 
L 7.328125 0 
L 7.328125 8.296875 
Q 12.9375 14.109375 22.625 23.890625 
Q 32.328125 33.6875 34.8125 36.53125 
Q 39.546875 41.84375 41.421875 45.53125 
Q 43.3125 49.21875 43.3125 52.78125 
Q 43.3125 58.59375 39.234375 62.25 
Q 35.15625 65.921875 28.609375 65.921875 
Q 23.96875 65.921875 18.8125 64.3125 
Q 13.671875 62.703125 7.8125 59.421875 
L 7.8125 69.390625 
Q 13.765625 71.78125 18.9375 73 
Q 24.125 74.21875 28.421875 74.21875 
Q 39.75 74.21875 46.484375 68.546875 
Q 53.21875 62.890625 53.21875 53.421875 
Q 53.21875 48.921875 51.53125 44.890625 
Q 49.859375 40.875 45.40625 35.40625 
Q 44.1875 33.984375 37.640625 27.21875 
Q 31.109375 20.453125 19.1875 8.296875 
z
" id="DejaVuSans-50"/>
       <path d="M 10.796875 72.90625 
L 49.515625 72.90625 
L 49.515625 64.59375 
L 19.828125 64.59375 
L 19.828125 46.734375 
Q 21.96875 47.46875 24.109375 47.828125 
Q 26.265625 48.1875 28.421875 48.1875 
Q 40.625 48.1875 47.75 41.5 
Q 54.890625 34.8125 54.890625 23.390625 
Q 54.890625 11.625 47.5625 5.09375 
Q 40.234375 -1.421875 26.90625 -1.421875 
Q 22.3125 -1.421875 17.546875 -0.640625 
Q 12.796875 0.140625 7.71875 1.703125 
L 7.71875 11.625 
Q 12.109375 9.234375 16.796875 8.0625 
Q 21.484375 6.890625 26.703125 6.890625 
Q 35.15625 6.890625 40.078125 11.328125 
Q 45.015625 15.765625 45.015625 23.390625 
Q 45.015625 31 40.078125 35.4375 
Q 35.15625 39.890625 26.703125 39.890625 
Q 22.75 39.890625 18.8125 39.015625 
Q 14.890625 38.140625 10.796875 36.28125 
z
" id="DejaVuSans-53"/>
      </defs>
      <g transform="translate(99.719233 325.913937)scale(0.132 -0.132)">
       <use xlink:href="#DejaVuSans-48"/>
       <use x="63.623047" xlink:href="#DejaVuSans-46"/>
       <use x="95.410156" xlink:href="#DejaVuSans-50"/>
       <use x="159.033203" xlink:href="#DejaVuSans-53"/>
      </g>
     </g>
    </g>
    <g id="xtick_3">
     <g id="line2d_3">
      <g>
       <use style="stroke:#000000;" x="154.996364" xlink:href="#mb61b16573d" y="307.584"/>
      </g>
     </g>
     <g id="text_3">
      <!-- 0.50 -->
      <g transform="translate(140.301051 325.913937)scale(0.132 -0.132)">
       <use xlink:href="#DejaVuSans-48"/>
       <use x="63.623047" xlink:href="#DejaVuSans-46"/>
       <use x="95.410156" xlink:href="#DejaVuSans-53"/>
       <use x="159.033203" xlink:href="#DejaVuSans-48"/>
      </g>
     </g>
    </g>
    <g id="xtick_4">
     <g id="line2d_4">
      <g>
       <use style="stroke:#000000;" x="195.578182" xlink:href="#mb61b16573d" y="307.584"/>
      </g>
     </g>
     <g id="text_4">
      <!-- 0.75 -->
      <defs>
       <path d="M 8.203125 72.90625 
L 55.078125 72.90625 
L 55.078125 68.703125 
L 28.609375 0 
L 18.3125 0 
L 43.21875 64.59375 
L 8.203125 64.59375 
z
" id="DejaVuSans-55"/>
      </defs>
      <g transform="translate(180.882869 325.913937)scale(0.132 -0.132)">
       <use xlink:href="#DejaVuSans-48"/>
       <use x="63.623047" xlink:href="#DejaVuSans-46"/>
       <use x="95.410156" xlink:href="#DejaVuSans-55"/>
       <use x="159.033203" xlink:href="#DejaVuSans-53"/>
      </g>
     </g>
    </g>
    <g id="xtick_5">
     <g id="line2d_5">
      <g>
       <use style="stroke:#000000;" x="236.16" xlink:href="#mb61b16573d" y="307.584"/>
      </g>
     </g>
     <g id="text_5">
      <!-- 1.00 -->
      <defs>
       <path d="M 12.40625 8.296875 
L 28.515625 8.296875 
L 28.515625 63.921875 
L 10.984375 60.40625 
L 10.984375 69.390625 
L 28.421875 72.90625 
L 38.28125 72.90625 
L 38.28125 8.296875 
L 54.390625 8.296875 
L 54.390625 0 
L 12.40625 0 
z
" id="DejaVuSans-49"/>
      </defs>
      <g transform="translate(221.464687 325.913937)scale(0.132 -0.132)">
       <use xlink:href="#DejaVuSans-49"/>
       <use x="63.623047" xlink:href="#DejaVuSans-46"/>
       <use x="95.410156" xlink:href="#DejaVuSans-48"/>
       <use x="159.033203" xlink:href="#DejaVuSans-48"/>
      </g>
     </g>
    </g>
    <g id="xtick_6">
     <g id="line2d_6">
      <g>
       <use style="stroke:#000000;" x="276.741818" xlink:href="#mb61b16573d" y="307.584"/>
      </g>
     </g>
     <g id="text_6">
      <!-- 1.25 -->
      <g transform="translate(262.046506 325.913937)scale(0.132 -0.132)">
       <use xlink:href="#DejaVuSans-49"/>
       <use x="63.623047" xlink:href="#DejaVuSans-46"/>
       <use x="95.410156" xlink:href="#DejaVuSans-50"/>
       <use x="159.033203" xlink:href="#DejaVuSans-53"/>
      </g>
     </g>
    </g>
    <g id="xtick_7">
     <g id="line2d_7">
      <g>
       <use style="stroke:#000000;" x="317.323636" xlink:href="#mb61b16573d" y="307.584"/>
      </g>
     </g>
     <g id="text_7">
      <!-- 1.50 -->
      <g transform="translate(302.628324 325.913937)scale(0.132 -0.132)">
       <use xlink:href="#DejaVuSans-49"/>
       <use x="63.623047" xlink:href="#DejaVuSans-46"/>
       <use x="95.410156" xlink:href="#DejaVuSans-53"/>
       <use x="159.033203" xlink:href="#DejaVuSans-48"/>
      </g>
     </g>
    </g>
    <g id="xtick_8">
     <g id="line2d_8">
      <g>
       <use style="stroke:#000000;" x="357.905455" xlink:href="#mb61b16573d" y="307.584"/>
      </g>
     </g>
     <g id="text_8">
      <!-- 1.75 -->
      <g transform="translate(343.210142 325.913937)scale(0.132 -0.132)">
       <use xlink:href="#DejaVuSans-49"/>
       <use x="63.623047" xlink:href="#DejaVuSans-46"/>
       <use x="95.410156" xlink:href="#DejaVuSans-55"/>
       <use x="159.033203" xlink:href="#DejaVuSans-53"/>
      </g>
     </g>
    </g>
    <g id="xtick_9">
     <g id="line2d_9">
      <g>
       <use style="stroke:#000000;" x="398.487273" xlink:href="#mb61b16573d" y="307.584"/>
      </g>
     </g>
     <g id="text_9">
      <!-- 2.00 -->
      <g transform="translate(383.79196 325.913937)scale(0.132 -0.132)">
       <use xlink:href="#DejaVuSans-50"/>
       <use x="63.623047" xlink:href="#DejaVuSans-46"/>
       <use x="95.410156" xlink:href="#DejaVuSans-48"/>
       <use x="159.033203" xlink:href="#DejaVuSans-48"/>
      </g>
     </g>
    </g>
    <g id="text_10">
     <!-- leadtime [MTU] -->
     <defs>
      <path d="M 9.421875 75.984375 
L 18.40625 75.984375 
L 18.40625 0 
L 9.421875 0 
z
" id="DejaVuSans-108"/>
      <path d="M 56.203125 29.59375 
L 56.203125 25.203125 
L 14.890625 25.203125 
Q 15.484375 15.921875 20.484375 11.0625 
Q 25.484375 6.203125 34.421875 6.203125 
Q 39.59375 6.203125 44.453125 7.46875 
Q 49.3125 8.734375 54.109375 11.28125 
L 54.109375 2.78125 
Q 49.265625 0.734375 44.1875 -0.34375 
Q 39.109375 -1.421875 33.890625 -1.421875 
Q 20.796875 -1.421875 13.15625 6.1875 
Q 5.515625 13.8125 5.515625 26.8125 
Q 5.515625 40.234375 12.765625 48.109375 
Q 20.015625 56 32.328125 56 
Q 43.359375 56 49.78125 48.890625 
Q 56.203125 41.796875 56.203125 29.59375 
z
M 47.21875 32.234375 
Q 47.125 39.59375 43.09375 43.984375 
Q 39.0625 48.390625 32.421875 48.390625 
Q 24.90625 48.390625 20.390625 44.140625 
Q 15.875 39.890625 15.1875 32.171875 
z
" id="DejaVuSans-101"/>
      <path d="M 34.28125 27.484375 
Q 23.390625 27.484375 19.1875 25 
Q 14.984375 22.515625 14.984375 16.5 
Q 14.984375 11.71875 18.140625 8.90625 
Q 21.296875 6.109375 26.703125 6.109375 
Q 34.1875 6.109375 38.703125 11.40625 
Q 43.21875 16.703125 43.21875 25.484375 
L 43.21875 27.484375 
z
M 52.203125 31.203125 
L 52.203125 0 
L 43.21875 0 
L 43.21875 8.296875 
Q 40.140625 3.328125 35.546875 0.953125 
Q 30.953125 -1.421875 24.3125 -1.421875 
Q 15.921875 -1.421875 10.953125 3.296875 
Q 6 8.015625 6 15.921875 
Q 6 25.140625 12.171875 29.828125 
Q 18.359375 34.515625 30.609375 34.515625 
L 43.21875 34.515625 
L 43.21875 35.40625 
Q 43.21875 41.609375 39.140625 45 
Q 35.0625 48.390625 27.6875 48.390625 
Q 23 48.390625 18.546875 47.265625 
Q 14.109375 46.140625 10.015625 43.890625 
L 10.015625 52.203125 
Q 14.9375 54.109375 19.578125 55.046875 
Q 24.21875 56 28.609375 56 
Q 40.484375 56 46.34375 49.84375 
Q 52.203125 43.703125 52.203125 31.203125 
z
" id="DejaVuSans-97"/>
      <path d="M 45.40625 46.390625 
L 45.40625 75.984375 
L 54.390625 75.984375 
L 54.390625 0 
L 45.40625 0 
L 45.40625 8.203125 
Q 42.578125 3.328125 38.25 0.953125 
Q 33.9375 -1.421875 27.875 -1.421875 
Q 17.96875 -1.421875 11.734375 6.484375 
Q 5.515625 14.40625 5.515625 27.296875 
Q 5.515625 40.1875 11.734375 48.09375 
Q 17.96875 56 27.875 56 
Q 33.9375 56 38.25 53.625 
Q 42.578125 51.265625 45.40625 46.390625 
z
M 14.796875 27.296875 
Q 14.796875 17.390625 18.875 11.75 
Q 22.953125 6.109375 30.078125 6.109375 
Q 37.203125 6.109375 41.296875 11.75 
Q 45.40625 17.390625 45.40625 27.296875 
Q 45.40625 37.203125 41.296875 42.84375 
Q 37.203125 48.484375 30.078125 48.484375 
Q 22.953125 48.484375 18.875 42.84375 
Q 14.796875 37.203125 14.796875 27.296875 
z
" id="DejaVuSans-100"/>
      <path d="M 18.3125 70.21875 
L 18.3125 54.6875 
L 36.8125 54.6875 
L 36.8125 47.703125 
L 18.3125 47.703125 
L 18.3125 18.015625 
Q 18.3125 11.328125 20.140625 9.421875 
Q 21.96875 7.515625 27.59375 7.515625 
L 36.8125 7.515625 
L 36.8125 0 
L 27.59375 0 
Q 17.1875 0 13.234375 3.875 
Q 9.28125 7.765625 9.28125 18.015625 
L 9.28125 47.703125 
L 2.6875 47.703125 
L 2.6875 54.6875 
L 9.28125 54.6875 
L 9.28125 70.21875 
z
" id="DejaVuSans-116"/>
      <path d="M 9.421875 54.6875 
L 18.40625 54.6875 
L 18.40625 0 
L 9.421875 0 
z
M 9.421875 75.984375 
L 18.40625 75.984375 
L 18.40625 64.59375 
L 9.421875 64.59375 
z
" id="DejaVuSans-105"/>
      <path d="M 52 44.1875 
Q 55.375 50.25 60.0625 53.125 
Q 64.75 56 71.09375 56 
Q 79.640625 56 84.28125 50.015625 
Q 88.921875 44.046875 88.921875 33.015625 
L 88.921875 0 
L 79.890625 0 
L 79.890625 32.71875 
Q 79.890625 40.578125 77.09375 44.375 
Q 74.3125 48.1875 68.609375 48.1875 
Q 61.625 48.1875 57.5625 43.546875 
Q 53.515625 38.921875 53.515625 30.90625 
L 53.515625 0 
L 44.484375 0 
L 44.484375 32.71875 
Q 44.484375 40.625 41.703125 44.40625 
Q 38.921875 48.1875 33.109375 48.1875 
Q 26.21875 48.1875 22.15625 43.53125 
Q 18.109375 38.875 18.109375 30.90625 
L 18.109375 0 
L 9.078125 0 
L 9.078125 54.6875 
L 18.109375 54.6875 
L 18.109375 46.1875 
Q 21.1875 51.21875 25.484375 53.609375 
Q 29.78125 56 35.6875 56 
Q 41.65625 56 45.828125 52.96875 
Q 50 49.953125 52 44.1875 
z
" id="DejaVuSans-109"/>
      <path id="DejaVuSans-32"/>
      <path d="M 8.59375 75.984375 
L 29.296875 75.984375 
L 29.296875 69 
L 17.578125 69 
L 17.578125 -6.203125 
L 29.296875 -6.203125 
L 29.296875 -13.1875 
L 8.59375 -13.1875 
z
" id="DejaVuSans-91"/>
      <path d="M 9.8125 72.90625 
L 24.515625 72.90625 
L 43.109375 23.296875 
L 61.8125 72.90625 
L 76.515625 72.90625 
L 76.515625 0 
L 66.890625 0 
L 66.890625 64.015625 
L 48.09375 14.015625 
L 38.1875 14.015625 
L 19.390625 64.015625 
L 19.390625 0 
L 9.8125 0 
z
" id="DejaVuSans-77"/>
      <path d="M -0.296875 72.90625 
L 61.375 72.90625 
L 61.375 64.59375 
L 35.5 64.59375 
L 35.5 0 
L 25.59375 0 
L 25.59375 64.59375 
L -0.296875 64.59375 
z
" id="DejaVuSans-84"/>
      <path d="M 8.6875 72.90625 
L 18.609375 72.90625 
L 18.609375 28.609375 
Q 18.609375 16.890625 22.84375 11.734375 
Q 27.09375 6.59375 36.625 6.59375 
Q 46.09375 6.59375 50.34375 11.734375 
Q 54.59375 16.890625 54.59375 28.609375 
L 54.59375 72.90625 
L 64.5 72.90625 
L 64.5 27.390625 
Q 64.5 13.140625 57.4375 5.859375 
Q 50.390625 -1.421875 36.625 -1.421875 
Q 22.796875 -1.421875 15.734375 5.859375 
Q 8.6875 13.140625 8.6875 27.390625 
z
" id="DejaVuSans-85"/>
      <path d="M 30.421875 75.984375 
L 30.421875 -13.1875 
L 9.71875 -13.1875 
L 9.71875 -6.203125 
L 21.390625 -6.203125 
L 21.390625 69 
L 9.71875 69 
L 9.71875 75.984375 
z
" id="DejaVuSans-93"/>
     </defs>
     <g transform="translate(180.694125 343.600875)scale(0.144 -0.144)">
      <use xlink:href="#DejaVuSans-108"/>
      <use x="27.783203" xlink:href="#DejaVuSans-101"/>
      <use x="89.306641" xlink:href="#DejaVuSans-97"/>
      <use x="150.585938" xlink:href="#DejaVuSans-100"/>
      <use x="214.0625" xlink:href="#DejaVuSans-116"/>
      <use x="253.271484" xlink:href="#DejaVuSans-105"/>
      <use x="281.054688" xlink:href="#DejaVuSans-109"/>
      <use x="378.466797" xlink:href="#DejaVuSans-101"/>
      <use x="439.990234" xlink:href="#DejaVuSans-32"/>
      <use x="471.777344" xlink:href="#DejaVuSans-91"/>
      <use x="510.791016" xlink:href="#DejaVuSans-77"/>
      <use x="597.070312" xlink:href="#DejaVuSans-84"/>
      <use x="658.154297" xlink:href="#DejaVuSans-85"/>
      <use x="731.347656" xlink:href="#DejaVuSans-93"/>
     </g>
    </g>
   </g>
   <g id="matplotlib.axis_2">
    <g id="ytick_1">
     <g id="line2d_10">
      <defs>
       <path d="M 0 0 
L -4.8 0 
" id="m21a8747d4b" style="stroke:#000000;"/>
      </defs>
      <g>
       <use style="stroke:#000000;" x="57.6" xlink:href="#m21a8747d4b" y="295.488"/>
      </g>
     </g>
     <g id="text_11">
      <!-- 0 -->
      <g transform="translate(40.9015 300.502969)scale(0.132 -0.132)">
       <use xlink:href="#DejaVuSans-48"/>
      </g>
     </g>
    </g>
    <g id="ytick_2">
     <g id="line2d_11">
      <g>
       <use style="stroke:#000000;" x="57.6" xlink:href="#m21a8747d4b" y="247.217433"/>
      </g>
     </g>
     <g id="text_12">
      <!-- 1 -->
      <g transform="translate(40.9015 252.232402)scale(0.132 -0.132)">
       <use xlink:href="#DejaVuSans-49"/>
      </g>
     </g>
    </g>
    <g id="ytick_3">
     <g id="line2d_12">
      <g>
       <use style="stroke:#000000;" x="57.6" xlink:href="#m21a8747d4b" y="198.946867"/>
      </g>
     </g>
     <g id="text_13">
      <!-- 2 -->
      <g transform="translate(40.9015 203.961835)scale(0.132 -0.132)">
       <use xlink:href="#DejaVuSans-50"/>
      </g>
     </g>
    </g>
    <g id="ytick_4">
     <g id="line2d_13">
      <g>
       <use style="stroke:#000000;" x="57.6" xlink:href="#m21a8747d4b" y="150.6763"/>
      </g>
     </g>
     <g id="text_14">
      <!-- 3 -->
      <defs>
       <path d="M 40.578125 39.3125 
Q 47.65625 37.796875 51.625 33 
Q 55.609375 28.21875 55.609375 21.1875 
Q 55.609375 10.40625 48.1875 4.484375 
Q 40.765625 -1.421875 27.09375 -1.421875 
Q 22.515625 -1.421875 17.65625 -0.515625 
Q 12.796875 0.390625 7.625 2.203125 
L 7.625 11.71875 
Q 11.71875 9.328125 16.59375 8.109375 
Q 21.484375 6.890625 26.8125 6.890625 
Q 36.078125 6.890625 40.9375 10.546875 
Q 45.796875 14.203125 45.796875 21.1875 
Q 45.796875 27.640625 41.28125 31.265625 
Q 36.765625 34.90625 28.71875 34.90625 
L 20.21875 34.90625 
L 20.21875 43.015625 
L 29.109375 43.015625 
Q 36.375 43.015625 40.234375 45.921875 
Q 44.09375 48.828125 44.09375 54.296875 
Q 44.09375 59.90625 40.109375 62.90625 
Q 36.140625 65.921875 28.71875 65.921875 
Q 24.65625 65.921875 20.015625 65.03125 
Q 15.375 64.15625 9.8125 62.3125 
L 9.8125 71.09375 
Q 15.4375 72.65625 20.34375 73.4375 
Q 25.25 74.21875 29.59375 74.21875 
Q 40.828125 74.21875 47.359375 69.109375 
Q 53.90625 64.015625 53.90625 55.328125 
Q 53.90625 49.265625 50.4375 45.09375 
Q 46.96875 40.921875 40.578125 39.3125 
z
" id="DejaVuSans-51"/>
      </defs>
      <g transform="translate(40.9015 155.691269)scale(0.132 -0.132)">
       <use xlink:href="#DejaVuSans-51"/>
      </g>
     </g>
    </g>
    <g id="ytick_5">
     <g id="line2d_14">
      <g>
       <use style="stroke:#000000;" x="57.6" xlink:href="#m21a8747d4b" y="102.405733"/>
      </g>
     </g>
     <g id="text_15">
      <!-- 4 -->
      <defs>
       <path d="M 37.796875 64.3125 
L 12.890625 25.390625 
L 37.796875 25.390625 
z
M 35.203125 72.90625 
L 47.609375 72.90625 
L 47.609375 25.390625 
L 58.015625 25.390625 
L 58.015625 17.1875 
L 47.609375 17.1875 
L 47.609375 0 
L 37.796875 0 
L 37.796875 17.1875 
L 4.890625 17.1875 
L 4.890625 26.703125 
z
" id="DejaVuSans-52"/>
      </defs>
      <g transform="translate(40.9015 107.420702)scale(0.132 -0.132)">
       <use xlink:href="#DejaVuSans-52"/>
      </g>
     </g>
    </g>
    <g id="ytick_6">
     <g id="line2d_15">
      <g>
       <use style="stroke:#000000;" x="57.6" xlink:href="#m21a8747d4b" y="54.135167"/>
      </g>
     </g>
     <g id="text_16">
      <!-- 5 -->
      <g transform="translate(40.9015 59.150136)scale(0.132 -0.132)">
       <use xlink:href="#DejaVuSans-53"/>
      </g>
     </g>
    </g>
   </g>
   <g id="line2d_16">
    <path clip-path="url(#pbe3a892cc9)" d="M 73.832727 295.488 
L 90.065455 292.837983 
L 106.298182 291.713597 
L 122.530909 290.413462 
L 138.763636 288.920366 
L 154.996364 287.275293 
L 171.229091 285.546257 
L 187.461818 283.750461 
L 203.694545 281.859189 
L 219.927273 279.725977 
L 236.16 277.282775 
L 252.392727 274.595951 
L 268.625455 271.786276 
L 284.858182 268.941279 
L 301.090909 266.195759 
L 317.323636 263.588515 
L 333.556364 261.151209 
L 349.789091 258.79766 
L 366.021818 256.610787 
L 382.254545 254.60239 
L 398.487273 252.813714 
" style="fill:none;stroke:#000000;stroke-linecap:square;stroke-width:2.5;"/>
   </g>
   <g id="line2d_17">
    <path clip-path="url(#pbe3a892cc9)" d="M 73.832727 295.487995 
L 90.065455 261.775274 
L 106.298182 252.735177 
L 122.530909 245.322675 
L 138.763636 241.633662 
L 154.996364 240.635441 
L 171.229091 241.312492 
L 187.461818 242.708024 
L 203.694545 243.893727 
L 219.927273 244.542835 
L 236.16 244.896897 
L 252.392727 245.271156 
L 268.625455 245.712598 
L 284.858182 246.215748 
L 301.090909 246.773708 
L 317.323636 247.161732 
L 333.556364 247.182309 
L 349.789091 246.765732 
L 366.021818 246.109034 
L 382.254545 245.439355 
L 398.487273 244.934398 
" style="fill:none;stroke:#1b9e77;stroke-linecap:square;stroke-width:2.5;"/>
   </g>
   <g id="line2d_18">
    <path clip-path="url(#pbe3a892cc9)" d="M 73.832727 53.568 
L 90.065455 253.251709 
L 106.298182 259.233163 
L 122.530909 261.806906 
L 138.763636 262.7293 
L 154.996364 263.156174 
L 171.229091 263.415325 
L 187.461818 263.781669 
L 203.694545 264.242583 
L 219.927273 264.577052 
L 236.16 264.732737 
L 252.392727 264.689119 
L 268.625455 264.492558 
L 284.858182 264.122301 
L 301.090909 263.583598 
L 317.323636 262.84316 
L 333.556364 261.928083 
L 349.789091 260.976704 
L 366.021818 260.247775 
L 382.254545 259.878363 
L 398.487273 259.952395 
" style="fill:none;stroke:#1b9e77;stroke-dasharray:9.25,4;stroke-dashoffset:0;stroke-width:2.5;"/>
   </g>
   <g id="line2d_19">
    <path clip-path="url(#pbe3a892cc9)" d="M 73.832727 295.488 
L 90.065455 293.162303 
L 106.298182 292.492864 
L 122.530909 291.712598 
L 138.763636 290.785009 
L 154.996364 289.668026 
L 171.229091 288.329096 
L 187.461818 286.685499 
L 203.694545 284.636156 
L 219.927273 282.027428 
L 236.16 279.026717 
L 252.392727 275.948915 
L 268.625455 273.04155 
L 284.858182 270.482503 
L 301.090909 268.301997 
L 317.323636 266.386583 
L 333.556364 264.670878 
L 349.789091 263.004033 
L 366.021818 261.409735 
L 382.254545 259.853099 
L 398.487273 258.390489 
" style="fill:none;stroke:#d95f02;stroke-linecap:square;stroke-width:2.5;"/>
   </g>
   <g id="line2d_20">
    <path clip-path="url(#pbe3a892cc9)" d="M 73.832727 295.488 
L 90.065455 294.523188 
L 106.298182 293.686805 
L 122.530909 292.794029 
L 138.763636 291.595311 
L 154.996364 290.080234 
L 171.229091 288.320113 
L 187.461818 286.398129 
L 203.694545 284.396348 
L 219.927273 282.405516 
L 236.16 280.436686 
L 252.392727 278.543461 
L 268.625455 276.808051 
L 284.858182 275.119674 
L 301.090909 273.434148 
L 317.323636 271.809228 
L 333.556364 270.275155 
L 349.789091 268.867558 
L 366.021818 267.541972 
L 382.254545 266.241618 
L 398.487273 265.002493 
" style="fill:none;stroke:#d95f02;stroke-dasharray:9.25,4;stroke-dashoffset:0;stroke-width:2.5;"/>
   </g>
   <g id="line2d_21">
    <path clip-path="url(#pbe3a892cc9)" d="M 73.832727 295.488 
L 90.065455 253.8183 
L 106.298182 242.719179 
L 122.530909 239.828071 
L 138.763636 239.789919 
L 154.996364 240.465803 
L 171.229091 241.292571 
L 187.461818 241.994448 
L 203.694545 242.43787 
L 219.927273 242.651544 
L 236.16 242.732166 
L 252.392727 242.771641 
L 268.625455 242.810591 
L 284.858182 242.865331 
L 301.090909 242.893019 
L 317.323636 242.822261 
L 333.556364 242.756647 
L 349.789091 242.783838 
L 366.021818 242.891975 
L 382.254545 242.987656 
L 398.487273 243.042082 
" style="fill:none;stroke:#7570b3;stroke-linecap:square;stroke-width:2.5;"/>
   </g>
   <g id="line2d_22">
    <path clip-path="url(#pbe3a892cc9)" d="M 73.832727 150.6763 
L 90.065455 227.27396 
L 106.298182 238.776507 
L 122.530909 245.233012 
L 138.763636 249.82776 
L 154.996364 253.331699 
L 171.229091 256.022083 
L 187.461818 258.072076 
L 203.694545 259.562039 
L 219.927273 260.568692 
L 236.16 261.17461 
L 252.392727 261.494537 
L 268.625455 261.629221 
L 284.858182 261.63549 
L 301.090909 261.537875 
L 317.323636 261.409247 
L 333.556364 261.24294 
L 349.789091 261.079849 
L 366.021818 260.984834 
L 382.254545 260.924301 
L 398.487273 260.981649 
" style="fill:none;stroke:#7570b3;stroke-dasharray:9.25,4;stroke-dashoffset:0;stroke-width:2.5;"/>
   </g>
   <g id="patch_3">
    <path d="M 57.6 307.584 
L 57.6 41.472 
" style="fill:none;stroke:#000000;stroke-linecap:square;stroke-linejoin:miter;"/>
   </g>
   <g id="patch_4">
    <path d="M 57.6 307.584 
L 414.72 307.584 
" style="fill:none;stroke:#000000;stroke-linecap:square;stroke-linejoin:miter;"/>
   </g>
   <g id="text_17">
    <!-- n_ens:4 -->
    <defs>
     <path d="M 54.890625 33.015625 
L 54.890625 0 
L 45.90625 0 
L 45.90625 32.71875 
Q 45.90625 40.484375 42.875 44.328125 
Q 39.84375 48.1875 33.796875 48.1875 
Q 26.515625 48.1875 22.3125 43.546875 
Q 18.109375 38.921875 18.109375 30.90625 
L 18.109375 0 
L 9.078125 0 
L 9.078125 54.6875 
L 18.109375 54.6875 
L 18.109375 46.1875 
Q 21.34375 51.125 25.703125 53.5625 
Q 30.078125 56 35.796875 56 
Q 45.21875 56 50.046875 50.171875 
Q 54.890625 44.34375 54.890625 33.015625 
z
" id="DejaVuSans-110"/>
     <path d="M 50.984375 -16.609375 
L 50.984375 -23.578125 
L -0.984375 -23.578125 
L -0.984375 -16.609375 
z
" id="DejaVuSans-95"/>
     <path d="M 44.28125 53.078125 
L 44.28125 44.578125 
Q 40.484375 46.53125 36.375 47.5 
Q 32.28125 48.484375 27.875 48.484375 
Q 21.1875 48.484375 17.84375 46.4375 
Q 14.5 44.390625 14.5 40.28125 
Q 14.5 37.15625 16.890625 35.375 
Q 19.28125 33.59375 26.515625 31.984375 
L 29.59375 31.296875 
Q 39.15625 29.25 43.1875 25.515625 
Q 47.21875 21.78125 47.21875 15.09375 
Q 47.21875 7.46875 41.1875 3.015625 
Q 35.15625 -1.421875 24.609375 -1.421875 
Q 20.21875 -1.421875 15.453125 -0.5625 
Q 10.6875 0.296875 5.421875 2 
L 5.421875 11.28125 
Q 10.40625 8.6875 15.234375 7.390625 
Q 20.0625 6.109375 24.8125 6.109375 
Q 31.15625 6.109375 34.5625 8.28125 
Q 37.984375 10.453125 37.984375 14.40625 
Q 37.984375 18.0625 35.515625 20.015625 
Q 33.0625 21.96875 24.703125 23.78125 
L 21.578125 24.515625 
Q 13.234375 26.265625 9.515625 29.90625 
Q 5.8125 33.546875 5.8125 39.890625 
Q 5.8125 47.609375 11.28125 51.796875 
Q 16.75 56 26.8125 56 
Q 31.78125 56 36.171875 55.265625 
Q 40.578125 54.546875 44.28125 53.078125 
z
" id="DejaVuSans-115"/>
     <path d="M 11.71875 12.40625 
L 22.015625 12.40625 
L 22.015625 0 
L 11.71875 0 
z
M 11.71875 51.703125 
L 22.015625 51.703125 
L 22.015625 39.3125 
L 11.71875 39.3125 
z
" id="DejaVuSans-58"/>
    </defs>
    <g transform="translate(208.2465 35.472)scale(0.144 -0.144)">
     <use xlink:href="#DejaVuSans-110"/>
     <use x="63.378906" xlink:href="#DejaVuSans-95"/>
     <use x="113.378906" xlink:href="#DejaVuSans-101"/>
     <use x="174.902344" xlink:href="#DejaVuSans-110"/>
     <use x="238.28125" xlink:href="#DejaVuSans-115"/>
     <use x="290.380859" xlink:href="#DejaVuSans-58"/>
     <use x="324.072266" xlink:href="#DejaVuSans-52"/>
    </g>
   </g>
   <g id="legend_1">
    <g id="patch_5">
     <path d="M 215.744438 187.657875 
L 405.48 187.657875 
Q 408.12 187.657875 408.12 185.017875 
L 408.12 50.712 
Q 408.12 48.072 405.48 48.072 
L 215.744438 48.072 
Q 213.104438 48.072 213.104438 50.712 
L 213.104438 185.017875 
Q 213.104438 187.657875 215.744438 187.657875 
z
" style="fill:#ffffff;opacity:0.8;stroke:#cccccc;stroke-linejoin:miter;stroke-width:0.8;"/>
    </g>
    <g id="line2d_23">
     <path d="M 218.384438 58.761937 
L 244.784438 58.761937 
" style="fill:none;stroke:#000000;stroke-linecap:square;stroke-width:2.5;"/>
    </g>
    <g id="line2d_24"/>
    <g id="text_18">
     <!-- rmse ctrl -->
     <defs>
      <path d="M 41.109375 46.296875 
Q 39.59375 47.171875 37.8125 47.578125 
Q 36.03125 48 33.890625 48 
Q 26.265625 48 22.1875 43.046875 
Q 18.109375 38.09375 18.109375 28.8125 
L 18.109375 0 
L 9.078125 0 
L 9.078125 54.6875 
L 18.109375 54.6875 
L 18.109375 46.1875 
Q 20.953125 51.171875 25.484375 53.578125 
Q 30.03125 56 36.53125 56 
Q 37.453125 56 38.578125 55.875 
Q 39.703125 55.765625 41.0625 55.515625 
z
" id="DejaVuSans-114"/>
      <path d="M 48.78125 52.59375 
L 48.78125 44.1875 
Q 44.96875 46.296875 41.140625 47.34375 
Q 37.3125 48.390625 33.40625 48.390625 
Q 24.65625 48.390625 19.8125 42.84375 
Q 14.984375 37.3125 14.984375 27.296875 
Q 14.984375 17.28125 19.8125 11.734375 
Q 24.65625 6.203125 33.40625 6.203125 
Q 37.3125 6.203125 41.140625 7.25 
Q 44.96875 8.296875 48.78125 10.40625 
L 48.78125 2.09375 
Q 45.015625 0.34375 40.984375 -0.53125 
Q 36.96875 -1.421875 32.421875 -1.421875 
Q 20.0625 -1.421875 12.78125 6.34375 
Q 5.515625 14.109375 5.515625 27.296875 
Q 5.515625 40.671875 12.859375 48.328125 
Q 20.21875 56 33.015625 56 
Q 37.15625 56 41.109375 55.140625 
Q 45.0625 54.296875 48.78125 52.59375 
z
" id="DejaVuSans-99"/>
     </defs>
     <g transform="translate(255.344438 63.381937)scale(0.132 -0.132)">
      <use xlink:href="#DejaVuSans-114"/>
      <use x="41.097656" xlink:href="#DejaVuSans-109"/>
      <use x="138.509766" xlink:href="#DejaVuSans-115"/>
      <use x="190.609375" xlink:href="#DejaVuSans-101"/>
      <use x="252.132812" xlink:href="#DejaVuSans-32"/>
      <use x="283.919922" xlink:href="#DejaVuSans-99"/>
      <use x="338.900391" xlink:href="#DejaVuSans-116"/>
      <use x="378.109375" xlink:href="#DejaVuSans-114"/>
      <use x="419.222656" xlink:href="#DejaVuSans-108"/>
     </g>
    </g>
    <g id="line2d_25">
     <path d="M 218.384438 78.137063 
L 244.784438 78.137063 
" style="fill:none;stroke:#1b9e77;stroke-linecap:square;stroke-width:2.5;"/>
    </g>
    <g id="line2d_26"/>
    <g id="text_19">
     <!-- rmse ensmean svd -->
     <defs>
      <path d="M 2.984375 54.6875 
L 12.5 54.6875 
L 29.59375 8.796875 
L 46.6875 54.6875 
L 56.203125 54.6875 
L 35.6875 0 
L 23.484375 0 
z
" id="DejaVuSans-118"/>
     </defs>
     <g transform="translate(255.344438 82.757063)scale(0.132 -0.132)">
      <use xlink:href="#DejaVuSans-114"/>
      <use x="41.097656" xlink:href="#DejaVuSans-109"/>
      <use x="138.509766" xlink:href="#DejaVuSans-115"/>
      <use x="190.609375" xlink:href="#DejaVuSans-101"/>
      <use x="252.132812" xlink:href="#DejaVuSans-32"/>
      <use x="283.919922" xlink:href="#DejaVuSans-101"/>
      <use x="345.443359" xlink:href="#DejaVuSans-110"/>
      <use x="408.822266" xlink:href="#DejaVuSans-115"/>
      <use x="460.921875" xlink:href="#DejaVuSans-109"/>
      <use x="558.333984" xlink:href="#DejaVuSans-101"/>
      <use x="619.857422" xlink:href="#DejaVuSans-97"/>
      <use x="681.136719" xlink:href="#DejaVuSans-110"/>
      <use x="744.515625" xlink:href="#DejaVuSans-32"/>
      <use x="776.302734" xlink:href="#DejaVuSans-115"/>
      <use x="828.402344" xlink:href="#DejaVuSans-118"/>
      <use x="887.582031" xlink:href="#DejaVuSans-100"/>
     </g>
    </g>
    <g id="line2d_27">
     <path d="M 218.384438 97.512187 
L 244.784438 97.512187 
" style="fill:none;stroke:#1b9e77;stroke-dasharray:9.25,4;stroke-dashoffset:0;stroke-width:2.5;"/>
    </g>
    <g id="line2d_28"/>
    <g id="text_20">
     <!-- spread svd -->
     <defs>
      <path d="M 18.109375 8.203125 
L 18.109375 -20.796875 
L 9.078125 -20.796875 
L 9.078125 54.6875 
L 18.109375 54.6875 
L 18.109375 46.390625 
Q 20.953125 51.265625 25.265625 53.625 
Q 29.59375 56 35.59375 56 
Q 45.5625 56 51.78125 48.09375 
Q 58.015625 40.1875 58.015625 27.296875 
Q 58.015625 14.40625 51.78125 6.484375 
Q 45.5625 -1.421875 35.59375 -1.421875 
Q 29.59375 -1.421875 25.265625 0.953125 
Q 20.953125 3.328125 18.109375 8.203125 
z
M 48.6875 27.296875 
Q 48.6875 37.203125 44.609375 42.84375 
Q 40.53125 48.484375 33.40625 48.484375 
Q 26.265625 48.484375 22.1875 42.84375 
Q 18.109375 37.203125 18.109375 27.296875 
Q 18.109375 17.390625 22.1875 11.75 
Q 26.265625 6.109375 33.40625 6.109375 
Q 40.53125 6.109375 44.609375 11.75 
Q 48.6875 17.390625 48.6875 27.296875 
z
" id="DejaVuSans-112"/>
     </defs>
     <g transform="translate(255.344438 102.132187)scale(0.132 -0.132)">
      <use xlink:href="#DejaVuSans-115"/>
      <use x="52.099609" xlink:href="#DejaVuSans-112"/>
      <use x="115.576172" xlink:href="#DejaVuSans-114"/>
      <use x="156.658203" xlink:href="#DejaVuSans-101"/>
      <use x="218.181641" xlink:href="#DejaVuSans-97"/>
      <use x="279.460938" xlink:href="#DejaVuSans-100"/>
      <use x="342.9375" xlink:href="#DejaVuSans-32"/>
      <use x="374.724609" xlink:href="#DejaVuSans-115"/>
      <use x="426.824219" xlink:href="#DejaVuSans-118"/>
      <use x="486.003906" xlink:href="#DejaVuSans-100"/>
     </g>
    </g>
    <g id="line2d_29">
     <path d="M 218.384438 116.887313 
L 244.784438 116.887313 
" style="fill:none;stroke:#d95f02;stroke-linecap:square;stroke-width:2.5;"/>
    </g>
    <g id="line2d_30"/>
    <g id="text_21">
     <!-- rmse ensmean netens -->
     <g transform="translate(255.344438 121.507313)scale(0.132 -0.132)">
      <use xlink:href="#DejaVuSans-114"/>
      <use x="41.097656" xlink:href="#DejaVuSans-109"/>
      <use x="138.509766" xlink:href="#DejaVuSans-115"/>
      <use x="190.609375" xlink:href="#DejaVuSans-101"/>
      <use x="252.132812" xlink:href="#DejaVuSans-32"/>
      <use x="283.919922" xlink:href="#DejaVuSans-101"/>
      <use x="345.443359" xlink:href="#DejaVuSans-110"/>
      <use x="408.822266" xlink:href="#DejaVuSans-115"/>
      <use x="460.921875" xlink:href="#DejaVuSans-109"/>
      <use x="558.333984" xlink:href="#DejaVuSans-101"/>
      <use x="619.857422" xlink:href="#DejaVuSans-97"/>
      <use x="681.136719" xlink:href="#DejaVuSans-110"/>
      <use x="744.515625" xlink:href="#DejaVuSans-32"/>
      <use x="776.302734" xlink:href="#DejaVuSans-110"/>
      <use x="839.681641" xlink:href="#DejaVuSans-101"/>
      <use x="901.205078" xlink:href="#DejaVuSans-116"/>
      <use x="940.414062" xlink:href="#DejaVuSans-101"/>
      <use x="1001.9375" xlink:href="#DejaVuSans-110"/>
      <use x="1065.316406" xlink:href="#DejaVuSans-115"/>
     </g>
    </g>
    <g id="line2d_31">
     <path d="M 218.384438 136.262437 
L 244.784438 136.262437 
" style="fill:none;stroke:#d95f02;stroke-dasharray:9.25,4;stroke-dashoffset:0;stroke-width:2.5;"/>
    </g>
    <g id="line2d_32"/>
    <g id="text_22">
     <!-- spread netens -->
     <g transform="translate(255.344438 140.882437)scale(0.132 -0.132)">
      <use xlink:href="#DejaVuSans-115"/>
      <use x="52.099609" xlink:href="#DejaVuSans-112"/>
      <use x="115.576172" xlink:href="#DejaVuSans-114"/>
      <use x="156.658203" xlink:href="#DejaVuSans-101"/>
      <use x="218.181641" xlink:href="#DejaVuSans-97"/>
      <use x="279.460938" xlink:href="#DejaVuSans-100"/>
      <use x="342.9375" xlink:href="#DejaVuSans-32"/>
      <use x="374.724609" xlink:href="#DejaVuSans-110"/>
      <use x="438.103516" xlink:href="#DejaVuSans-101"/>
      <use x="499.626953" xlink:href="#DejaVuSans-116"/>
      <use x="538.835938" xlink:href="#DejaVuSans-101"/>
      <use x="600.359375" xlink:href="#DejaVuSans-110"/>
      <use x="663.738281" xlink:href="#DejaVuSans-115"/>
     </g>
    </g>
    <g id="line2d_33">
     <path d="M 218.384438 155.637563 
L 244.784438 155.637563 
" style="fill:none;stroke:#7570b3;stroke-linecap:square;stroke-width:2.5;"/>
    </g>
    <g id="line2d_34"/>
    <g id="text_23">
     <!-- rmse randpert -->
     <g transform="translate(255.344438 160.257563)scale(0.132 -0.132)">
      <use xlink:href="#DejaVuSans-114"/>
      <use x="41.097656" xlink:href="#DejaVuSans-109"/>
      <use x="138.509766" xlink:href="#DejaVuSans-115"/>
      <use x="190.609375" xlink:href="#DejaVuSans-101"/>
      <use x="252.132812" xlink:href="#DejaVuSans-32"/>
      <use x="283.919922" xlink:href="#DejaVuSans-114"/>
      <use x="325.033203" xlink:href="#DejaVuSans-97"/>
      <use x="386.3125" xlink:href="#DejaVuSans-110"/>
      <use x="449.691406" xlink:href="#DejaVuSans-100"/>
      <use x="513.167969" xlink:href="#DejaVuSans-112"/>
      <use x="576.644531" xlink:href="#DejaVuSans-101"/>
      <use x="638.167969" xlink:href="#DejaVuSans-114"/>
      <use x="679.28125" xlink:href="#DejaVuSans-116"/>
     </g>
    </g>
    <g id="line2d_35">
     <path d="M 218.384438 175.012687 
L 244.784438 175.012687 
" style="fill:none;stroke:#7570b3;stroke-dasharray:9.25,4;stroke-dashoffset:0;stroke-width:2.5;"/>
    </g>
    <g id="line2d_36"/>
    <g id="text_24">
     <!-- spread randpert -->
     <g transform="translate(255.344438 179.632687)scale(0.132 -0.132)">
      <use xlink:href="#DejaVuSans-115"/>
      <use x="52.099609" xlink:href="#DejaVuSans-112"/>
      <use x="115.576172" xlink:href="#DejaVuSans-114"/>
      <use x="156.658203" xlink:href="#DejaVuSans-101"/>
      <use x="218.181641" xlink:href="#DejaVuSans-97"/>
      <use x="279.460938" xlink:href="#DejaVuSans-100"/>
      <use x="342.9375" xlink:href="#DejaVuSans-32"/>
      <use x="374.724609" xlink:href="#DejaVuSans-114"/>
      <use x="415.837891" xlink:href="#DejaVuSans-97"/>
      <use x="477.117188" xlink:href="#DejaVuSans-110"/>
      <use x="540.496094" xlink:href="#DejaVuSans-100"/>
      <use x="603.972656" xlink:href="#DejaVuSans-112"/>
      <use x="667.449219" xlink:href="#DejaVuSans-101"/>
      <use x="728.972656" xlink:href="#DejaVuSans-114"/>
      <use x="770.085938" xlink:href="#DejaVuSans-116"/>
     </g>
    </g>
   </g>
  </g>
 </g>
 <defs>
  <clipPath id="pbe3a892cc9">
   <rect height="266.112" width="357.12" x="57.6" y="41.472"/>
  </clipPath>
 </defs>
</svg>
