<?xml version="1.0" encoding="utf-8" standalone="no"?>
<!DOCTYPE svg PUBLIC "-//W3C//DTD SVG 1.1//EN"
  "http://www.w3.org/Graphics/SVG/1.1/DTD/svg11.dtd">
<!-- Created with matplotlib (https://matplotlib.org/) -->
<svg height="345.6pt" version="1.1" viewBox="0 0 460.8 345.6" width="460.8pt" xmlns="http://www.w3.org/2000/svg" xmlns:xlink="http://www.w3.org/1999/xlink">
 <defs>
  <style type="text/css">
*{stroke-linecap:butt;stroke-linejoin:round;}
  </style>
 </defs>
 <g id="figure_1">
  <g id="patch_1">
   <path d="M 0 345.6 
L 460.8 345.6 
L 460.8 0 
L 0 0 
z
" style="fill:#ffffff;"/>
  </g>
  <g id="axes_1">
   <g id="patch_2">
    <path d="M 57.6 307.584 
L 414.72 307.584 
L 414.72 41.472 
L 57.6 41.472 
z
" style="fill:#ffffff;"/>
   </g>
   <g id="matplotlib.axis_1">
    <g id="xtick_1">
     <g id="line2d_1">
      <defs>
       <path d="M 0 0 
L 0 3.5 
" id="m333d4a2f22" style="stroke:#000000;stroke-width:0.8;"/>
      </defs>
      <g>
       <use style="stroke:#000000;stroke-width:0.8;" x="73.832727" xlink:href="#m333d4a2f22" y="307.584"/>
      </g>
     </g>
     <g id="text_1">
      <!-- 0 -->
      <defs>
       <path d="M 31.78125 66.40625 
Q 24.171875 66.40625 20.328125 58.90625 
Q 16.5 51.421875 16.5 36.375 
Q 16.5 21.390625 20.328125 13.890625 
Q 24.171875 6.390625 31.78125 6.390625 
Q 39.453125 6.390625 43.28125 13.890625 
Q 47.125 21.390625 47.125 36.375 
Q 47.125 51.421875 43.28125 58.90625 
Q 39.453125 66.40625 31.78125 66.40625 
z
M 31.78125 74.21875 
Q 44.046875 74.21875 50.515625 64.515625 
Q 56.984375 54.828125 56.984375 36.375 
Q 56.984375 17.96875 50.515625 8.265625 
Q 44.046875 -1.421875 31.78125 -1.421875 
Q 19.53125 -1.421875 13.0625 8.265625 
Q 6.59375 17.96875 6.59375 36.375 
Q 6.59375 54.828125 13.0625 64.515625 
Q 19.53125 74.21875 31.78125 74.21875 
z
" id="DejaVuSans-48"/>
      </defs>
      <g transform="translate(70.651477 322.182437)scale(0.1 -0.1)">
       <use xlink:href="#DejaVuSans-48"/>
      </g>
     </g>
    </g>
    <g id="xtick_2">
     <g id="line2d_2">
      <g>
       <use style="stroke:#000000;stroke-width:0.8;" x="130.789665" xlink:href="#m333d4a2f22" y="307.584"/>
      </g>
     </g>
     <g id="text_2">
      <!-- 20 -->
      <defs>
       <path d="M 19.1875 8.296875 
L 53.609375 8.296875 
L 53.609375 0 
L 7.328125 0 
L 7.328125 8.296875 
Q 12.9375 14.109375 22.625 23.890625 
Q 32.328125 33.6875 34.8125 36.53125 
Q 39.546875 41.84375 41.421875 45.53125 
Q 43.3125 49.21875 43.3125 52.78125 
Q 43.3125 58.59375 39.234375 62.25 
Q 35.15625 65.921875 28.609375 65.921875 
Q 23.96875 65.921875 18.8125 64.3125 
Q 13.671875 62.703125 7.8125 59.421875 
L 7.8125 69.390625 
Q 13.765625 71.78125 18.9375 73 
Q 24.125 74.21875 28.421875 74.21875 
Q 39.75 74.21875 46.484375 68.546875 
Q 53.21875 62.890625 53.21875 53.421875 
Q 53.21875 48.921875 51.53125 44.890625 
Q 49.859375 40.875 45.40625 35.40625 
Q 44.1875 33.984375 37.640625 27.21875 
Q 31.109375 20.453125 19.1875 8.296875 
z
" id="DejaVuSans-50"/>
      </defs>
      <g transform="translate(124.427165 322.182437)scale(0.1 -0.1)">
       <use xlink:href="#DejaVuSans-50"/>
       <use x="63.623047" xlink:href="#DejaVuSans-48"/>
      </g>
     </g>
    </g>
    <g id="xtick_3">
     <g id="line2d_3">
      <g>
       <use style="stroke:#000000;stroke-width:0.8;" x="187.746603" xlink:href="#m333d4a2f22" y="307.584"/>
      </g>
     </g>
     <g id="text_3">
      <!-- 40 -->
      <defs>
       <path d="M 37.796875 64.3125 
L 12.890625 25.390625 
L 37.796875 25.390625 
z
M 35.203125 72.90625 
L 47.609375 72.90625 
L 47.609375 25.390625 
L 58.015625 25.390625 
L 58.015625 17.1875 
L 47.609375 17.1875 
L 47.609375 0 
L 37.796875 0 
L 37.796875 17.1875 
L 4.890625 17.1875 
L 4.890625 26.703125 
z
" id="DejaVuSans-52"/>
      </defs>
      <g transform="translate(181.384103 322.182437)scale(0.1 -0.1)">
       <use xlink:href="#DejaVuSans-52"/>
       <use x="63.623047" xlink:href="#DejaVuSans-48"/>
      </g>
     </g>
    </g>
    <g id="xtick_4">
     <g id="line2d_4">
      <g>
       <use style="stroke:#000000;stroke-width:0.8;" x="244.703541" xlink:href="#m333d4a2f22" y="307.584"/>
      </g>
     </g>
     <g id="text_4">
      <!-- 60 -->
      <defs>
       <path d="M 33.015625 40.375 
Q 26.375 40.375 22.484375 35.828125 
Q 18.609375 31.296875 18.609375 23.390625 
Q 18.609375 15.53125 22.484375 10.953125 
Q 26.375 6.390625 33.015625 6.390625 
Q 39.65625 6.390625 43.53125 10.953125 
Q 47.40625 15.53125 47.40625 23.390625 
Q 47.40625 31.296875 43.53125 35.828125 
Q 39.65625 40.375 33.015625 40.375 
z
M 52.59375 71.296875 
L 52.59375 62.3125 
Q 48.875 64.0625 45.09375 64.984375 
Q 41.3125 65.921875 37.59375 65.921875 
Q 27.828125 65.921875 22.671875 59.328125 
Q 17.53125 52.734375 16.796875 39.40625 
Q 19.671875 43.65625 24.015625 45.921875 
Q 28.375 48.1875 33.59375 48.1875 
Q 44.578125 48.1875 50.953125 41.515625 
Q 57.328125 34.859375 57.328125 23.390625 
Q 57.328125 12.15625 50.6875 5.359375 
Q 44.046875 -1.421875 33.015625 -1.421875 
Q 20.359375 -1.421875 13.671875 8.265625 
Q 6.984375 17.96875 6.984375 36.375 
Q 6.984375 53.65625 15.1875 63.9375 
Q 23.390625 74.21875 37.203125 74.21875 
Q 40.921875 74.21875 44.703125 73.484375 
Q 48.484375 72.75 52.59375 71.296875 
z
" id="DejaVuSans-54"/>
      </defs>
      <g transform="translate(238.341041 322.182437)scale(0.1 -0.1)">
       <use xlink:href="#DejaVuSans-54"/>
       <use x="63.623047" xlink:href="#DejaVuSans-48"/>
      </g>
     </g>
    </g>
    <g id="xtick_5">
     <g id="line2d_5">
      <g>
       <use style="stroke:#000000;stroke-width:0.8;" x="301.660478" xlink:href="#m333d4a2f22" y="307.584"/>
      </g>
     </g>
     <g id="text_5">
      <!-- 80 -->
      <defs>
       <path d="M 31.78125 34.625 
Q 24.75 34.625 20.71875 30.859375 
Q 16.703125 27.09375 16.703125 20.515625 
Q 16.703125 13.921875 20.71875 10.15625 
Q 24.75 6.390625 31.78125 6.390625 
Q 38.8125 6.390625 42.859375 10.171875 
Q 46.921875 13.96875 46.921875 20.515625 
Q 46.921875 27.09375 42.890625 30.859375 
Q 38.875 34.625 31.78125 34.625 
z
M 21.921875 38.8125 
Q 15.578125 40.375 12.03125 44.71875 
Q 8.5 49.078125 8.5 55.328125 
Q 8.5 64.0625 14.71875 69.140625 
Q 20.953125 74.21875 31.78125 74.21875 
Q 42.671875 74.21875 48.875 69.140625 
Q 55.078125 64.0625 55.078125 55.328125 
Q 55.078125 49.078125 51.53125 44.71875 
Q 48 40.375 41.703125 38.8125 
Q 48.828125 37.15625 52.796875 32.3125 
Q 56.78125 27.484375 56.78125 20.515625 
Q 56.78125 9.90625 50.3125 4.234375 
Q 43.84375 -1.421875 31.78125 -1.421875 
Q 19.734375 -1.421875 13.25 4.234375 
Q 6.78125 9.90625 6.78125 20.515625 
Q 6.78125 27.484375 10.78125 32.3125 
Q 14.796875 37.15625 21.921875 38.8125 
z
M 18.3125 54.390625 
Q 18.3125 48.734375 21.84375 45.5625 
Q 25.390625 42.390625 31.78125 42.390625 
Q 38.140625 42.390625 41.71875 45.5625 
Q 45.3125 48.734375 45.3125 54.390625 
Q 45.3125 60.0625 41.71875 63.234375 
Q 38.140625 66.40625 31.78125 66.40625 
Q 25.390625 66.40625 21.84375 63.234375 
Q 18.3125 60.0625 18.3125 54.390625 
z
" id="DejaVuSans-56"/>
      </defs>
      <g transform="translate(295.297978 322.182437)scale(0.1 -0.1)">
       <use xlink:href="#DejaVuSans-56"/>
       <use x="63.623047" xlink:href="#DejaVuSans-48"/>
      </g>
     </g>
    </g>
    <g id="xtick_6">
     <g id="line2d_6">
      <g>
       <use style="stroke:#000000;stroke-width:0.8;" x="358.617416" xlink:href="#m333d4a2f22" y="307.584"/>
      </g>
     </g>
     <g id="text_6">
      <!-- 100 -->
      <defs>
       <path d="M 12.40625 8.296875 
L 28.515625 8.296875 
L 28.515625 63.921875 
L 10.984375 60.40625 
L 10.984375 69.390625 
L 28.421875 72.90625 
L 38.28125 72.90625 
L 38.28125 8.296875 
L 54.390625 8.296875 
L 54.390625 0 
L 12.40625 0 
z
" id="DejaVuSans-49"/>
      </defs>
      <g transform="translate(349.073666 322.182437)scale(0.1 -0.1)">
       <use xlink:href="#DejaVuSans-49"/>
       <use x="63.623047" xlink:href="#DejaVuSans-48"/>
       <use x="127.246094" xlink:href="#DejaVuSans-48"/>
      </g>
     </g>
    </g>
   </g>
   <g id="matplotlib.axis_2">
    <g id="ytick_1">
     <g id="line2d_7">
      <defs>
       <path d="M 0 0 
L -3.5 0 
" id="m932ed9d950" style="stroke:#000000;stroke-width:0.8;"/>
      </defs>
      <g>
       <use style="stroke:#000000;stroke-width:0.8;" x="57.6" xlink:href="#m932ed9d950" y="295.488"/>
      </g>
     </g>
     <g id="text_7">
      <!-- 0 -->
      <g transform="translate(44.2375 299.287219)scale(0.1 -0.1)">
       <use xlink:href="#DejaVuSans-48"/>
      </g>
     </g>
    </g>
    <g id="ytick_2">
     <g id="line2d_8">
      <g>
       <use style="stroke:#000000;stroke-width:0.8;" x="57.6" xlink:href="#m932ed9d950" y="247.66861"/>
      </g>
     </g>
     <g id="text_8">
      <!-- 2000 -->
      <g transform="translate(25.15 251.467829)scale(0.1 -0.1)">
       <use xlink:href="#DejaVuSans-50"/>
       <use x="63.623047" xlink:href="#DejaVuSans-48"/>
       <use x="127.246094" xlink:href="#DejaVuSans-48"/>
       <use x="190.869141" xlink:href="#DejaVuSans-48"/>
      </g>
     </g>
    </g>
    <g id="ytick_3">
     <g id="line2d_9">
      <g>
       <use style="stroke:#000000;stroke-width:0.8;" x="57.6" xlink:href="#m932ed9d950" y="199.849221"/>
      </g>
     </g>
     <g id="text_9">
      <!-- 4000 -->
      <g transform="translate(25.15 203.648439)scale(0.1 -0.1)">
       <use xlink:href="#DejaVuSans-52"/>
       <use x="63.623047" xlink:href="#DejaVuSans-48"/>
       <use x="127.246094" xlink:href="#DejaVuSans-48"/>
       <use x="190.869141" xlink:href="#DejaVuSans-48"/>
      </g>
     </g>
    </g>
    <g id="ytick_4">
     <g id="line2d_10">
      <g>
       <use style="stroke:#000000;stroke-width:0.8;" x="57.6" xlink:href="#m932ed9d950" y="152.029831"/>
      </g>
     </g>
     <g id="text_10">
      <!-- 6000 -->
      <g transform="translate(25.15 155.82905)scale(0.1 -0.1)">
       <use xlink:href="#DejaVuSans-54"/>
       <use x="63.623047" xlink:href="#DejaVuSans-48"/>
       <use x="127.246094" xlink:href="#DejaVuSans-48"/>
       <use x="190.869141" xlink:href="#DejaVuSans-48"/>
      </g>
     </g>
    </g>
    <g id="ytick_5">
     <g id="line2d_11">
      <g>
       <use style="stroke:#000000;stroke-width:0.8;" x="57.6" xlink:href="#m932ed9d950" y="104.210441"/>
      </g>
     </g>
     <g id="text_11">
      <!-- 8000 -->
      <g transform="translate(25.15 108.00966)scale(0.1 -0.1)">
       <use xlink:href="#DejaVuSans-56"/>
       <use x="63.623047" xlink:href="#DejaVuSans-48"/>
       <use x="127.246094" xlink:href="#DejaVuSans-48"/>
       <use x="190.869141" xlink:href="#DejaVuSans-48"/>
      </g>
     </g>
    </g>
    <g id="ytick_6">
     <g id="line2d_12">
      <g>
       <use style="stroke:#000000;stroke-width:0.8;" x="57.6" xlink:href="#m932ed9d950" y="56.391051"/>
      </g>
     </g>
     <g id="text_12">
      <!-- 10000 -->
      <g transform="translate(18.7875 60.19027)scale(0.1 -0.1)">
       <use xlink:href="#DejaVuSans-49"/>
       <use x="63.623047" xlink:href="#DejaVuSans-48"/>
       <use x="127.246094" xlink:href="#DejaVuSans-48"/>
       <use x="190.869141" xlink:href="#DejaVuSans-48"/>
       <use x="254.492188" xlink:href="#DejaVuSans-48"/>
      </g>
     </g>
    </g>
   </g>
   <g id="line2d_13">
    <path clip-path="url(#pb74848cf63)" d="M 73.832727 295.488 
L 90.919809 292.788353 
L 108.00689 290.880129 
L 125.093971 289.054766 
L 142.181053 287.009534 
L 159.268134 285.034576 
L 176.355215 283.056142 
L 193.442297 281.348918 
L 210.529378 279.590481 
L 227.616459 277.907806 
L 244.703541 276.058518 
L 261.790622 274.32783 
L 278.877703 272.475305 
L 295.964785 270.522864 
L 313.051866 268.320498 
L 330.138947 266.179206 
L 347.226029 264.01471 
L 364.31311 261.892223 
L 381.400191 259.824206 
L 398.487273 257.937585 
" style="fill:none;stroke:#000000;stroke-linecap:square;stroke-width:1.5;"/>
   </g>
   <g id="line2d_14">
    <path clip-path="url(#pb74848cf63)" d="M 73.832727 295.487999 
L 90.919809 289.672411 
L 108.00689 288.618499 
L 125.093971 287.080232 
L 142.181053 285.454289 
L 159.268134 283.728802 
L 176.355215 281.898745 
L 193.442297 280.203085 
L 210.529378 278.5202 
L 227.616459 276.841886 
L 244.703541 275.086666 
L 261.790622 273.437541 
L 278.877703 271.836621 
L 295.964785 270.121361 
L 313.051866 268.339534 
L 330.138947 266.575706 
L 347.226029 264.990066 
L 364.31311 263.30544 
L 381.400191 261.707302 
L 398.487273 260.162961 
" style="fill:none;stroke:#1b9e77;stroke-linecap:square;stroke-width:1.5;"/>
   </g>
   <g id="line2d_15">
    <path clip-path="url(#pb74848cf63)" d="M 73.832727 295.488 
L 90.919809 249.605905 
L 108.00689 247.295487 
L 125.093971 242.822358 
L 142.181053 238.514223 
L 159.268134 234.461774 
L 176.355215 231.498634 
L 193.442297 228.979541 
L 210.529378 227.418175 
L 227.616459 225.842632 
L 244.703541 224.677023 
L 261.790622 223.437118 
L 278.877703 222.811199 
L 295.964785 221.995624 
L 313.051866 221.401859 
L 330.138947 220.64072 
L 347.226029 220.353619 
L 364.31311 219.85185 
L 381.400191 219.493034 
L 398.487273 218.971552 
" style="fill:none;stroke:#7570b3;stroke-linecap:square;stroke-width:1.5;"/>
   </g>
   <g id="line2d_16">
    <path clip-path="url(#pb74848cf63)" d="M 73.832727 295.488 
L 90.919809 292.800996 
L 108.00689 291.040606 
L 125.093971 289.272606 
L 142.181053 287.36582 
L 159.268134 285.510077 
L 176.355215 283.698904 
L 193.442297 282.054729 
L 210.529378 280.449787 
L 227.616459 278.898452 
L 244.703541 277.342713 
L 261.790622 275.869139 
L 278.877703 274.429048 
L 295.964785 272.970918 
L 313.051866 271.50184 
L 330.138947 270.069376 
L 347.226029 268.723764 
L 364.31311 267.372152 
L 381.400191 266.027542 
L 398.487273 264.682924 
" style="fill:none;stroke:#d95f02;stroke-linecap:square;stroke-width:1.5;"/>
   </g>
   <g id="line2d_17">
    <path clip-path="url(#pb74848cf63)" d="M 73.832727 295.488 
L 90.919809 290.376353 
L 108.00689 287.035664 
L 125.093971 283.871084 
L 142.181053 281.538365 
L 159.268134 279.336645 
L 176.355215 277.757188 
L 193.442297 276.287979 
L 210.529378 275.186115 
L 227.616459 274.058419 
L 244.703541 273.260927 
L 261.790622 272.465211 
L 278.877703 271.88381 
L 295.964785 271.189939 
L 313.051866 270.698967 
L 330.138947 270.137606 
L 347.226029 269.714855 
L 364.31311 269.203137 
L 381.400191 268.88753 
L 398.487273 268.518139 
" style="fill:none;stroke:#1f77b4;stroke-linecap:square;stroke-width:1.5;"/>
   </g>
   <g id="line2d_18">
    <path clip-path="url(#pb74848cf63)" d="M 73.832727 284.72082 
L 90.919809 291.845228 
L 108.00689 291.5946 
L 125.093971 290.931793 
L 142.181053 290.052158 
L 159.268134 289.12534 
L 176.355215 288.21077 
L 193.442297 287.328391 
L 210.529378 286.447182 
L 227.616459 285.570958 
L 244.703541 284.666377 
L 261.790622 283.693275 
L 278.877703 282.622588 
L 295.964785 281.475913 
L 313.051866 280.30128 
L 330.138947 279.131152 
L 347.226029 278.008473 
L 364.31311 276.939659 
L 381.400191 275.944044 
L 398.487273 275.009805 
" style="fill:none;stroke:#1b9e77;stroke-dasharray:5.55,2.4;stroke-dashoffset:0;stroke-width:1.5;"/>
   </g>
   <g id="line2d_19">
    <path clip-path="url(#pb74848cf63)" d="M 73.832727 53.568 
L 90.919809 274.666139 
L 108.00689 274.118463 
L 125.093971 271.939864 
L 142.181053 269.777827 
L 159.268134 268.22915 
L 176.355215 267.321705 
L 193.442297 266.84072 
L 210.529378 266.565661 
L 227.616459 266.406584 
L 244.703541 266.313041 
L 261.790622 266.264404 
L 278.877703 266.242235 
L 295.964785 266.244091 
L 313.051866 266.237882 
L 330.138947 266.257704 
L 347.226029 266.27207 
L 364.31311 266.290741 
L 381.400191 266.306226 
L 398.487273 266.303359 
" style="fill:none;stroke:#7570b3;stroke-dasharray:5.55,2.4;stroke-dashoffset:0;stroke-width:1.5;"/>
   </g>
   <g id="line2d_20">
    <path clip-path="url(#pb74848cf63)" d="M 73.832727 295.488 
L 90.919809 294.712531 
L 108.00689 294.12254 
L 125.093971 293.410332 
L 142.181053 292.581032 
L 159.268134 291.731667 
L 176.355215 290.875014 
L 193.442297 290.012702 
L 210.529378 289.124892 
L 227.616459 288.152131 
L 244.703541 287.123329 
L 261.790622 286.032581 
L 278.877703 284.879735 
L 295.964785 283.688962 
L 313.051866 282.480661 
L 330.138947 281.262045 
L 347.226029 280.056166 
L 364.31311 278.850926 
L 381.400191 277.619047 
L 398.487273 276.419266 
" style="fill:none;stroke:#d95f02;stroke-dasharray:5.55,2.4;stroke-dashoffset:0;stroke-width:1.5;"/>
   </g>
   <g id="line2d_21">
    <path clip-path="url(#pb74848cf63)" d="M 73.832727 295.488 
L 90.919809 292.737049 
L 108.00689 290.906316 
L 125.093971 289.030258 
L 142.181053 287.006797 
L 159.268134 284.951429 
L 176.355215 282.912979 
L 193.442297 281.000191 
L 210.529378 279.164761 
L 227.616459 277.23636 
L 244.703541 275.259804 
L 261.790622 273.231411 
L 278.877703 271.241041 
L 295.964785 269.123284 
L 313.051866 267.017488 
L 330.138947 264.894812 
L 347.226029 262.963858 
L 364.31311 261.000588 
L 381.400191 259.074006 
L 398.487273 257.136069 
" style="fill:none;stroke:#ff7f0e;stroke-linecap:square;stroke-width:1.5;"/>
   </g>
   <g id="line2d_22">
    <path clip-path="url(#pb74848cf63)" d="M 73.832727 295.488 
L 90.919809 292.646353 
L 108.00689 290.766162 
L 125.093971 288.840201 
L 142.181053 286.718181 
L 159.268134 284.702888 
L 176.355215 282.74462 
L 193.442297 280.963307 
L 210.529378 279.153195 
L 227.616459 277.462081 
L 244.703541 275.758368 
L 261.790622 274.198248 
L 278.877703 272.594454 
L 295.964785 271.046757 
L 313.051866 269.440286 
L 330.138947 267.901313 
L 347.226029 266.314178 
L 364.31311 264.743818 
L 381.400191 263.108112 
L 398.487273 261.513479 
" style="fill:none;stroke:#2ca02c;stroke-linecap:square;stroke-width:1.5;"/>
   </g>
   <g id="patch_3">
    <path d="M 57.6 307.584 
L 57.6 41.472 
" style="fill:none;stroke:#000000;stroke-linecap:square;stroke-linejoin:miter;stroke-width:0.8;"/>
   </g>
   <g id="patch_4">
    <path d="M 414.72 307.584 
L 414.72 41.472 
" style="fill:none;stroke:#000000;stroke-linecap:square;stroke-linejoin:miter;stroke-width:0.8;"/>
   </g>
   <g id="patch_5">
    <path d="M 57.6 307.584 
L 414.72 307.584 
" style="fill:none;stroke:#000000;stroke-linecap:square;stroke-linejoin:miter;stroke-width:0.8;"/>
   </g>
   <g id="patch_6">
    <path d="M 57.6 41.472 
L 414.72 41.472 
" style="fill:none;stroke:#000000;stroke-linecap:square;stroke-linejoin:miter;stroke-width:0.8;"/>
   </g>
   <g id="legend_1">
    <g id="patch_7">
     <path d="M 263.980938 196.25325 
L 407.72 196.25325 
Q 409.72 196.25325 409.72 194.25325 
L 409.72 48.472 
Q 409.72 46.472 407.72 46.472 
L 263.980938 46.472 
Q 261.980938 46.472 261.980938 48.472 
L 261.980938 194.25325 
Q 261.980938 196.25325 263.980938 196.25325 
z
" style="fill:#ffffff;opacity:0.8;stroke:#cccccc;stroke-linejoin:miter;"/>
    </g>
    <g id="line2d_23">
     <path d="M 265.980938 54.570437 
L 285.980938 54.570437 
" style="fill:none;stroke:#000000;stroke-linecap:square;stroke-width:1.5;"/>
    </g>
    <g id="line2d_24"/>
    <g id="text_13">
     <!-- rmse ctrl -->
     <defs>
      <path d="M 41.109375 46.296875 
Q 39.59375 47.171875 37.8125 47.578125 
Q 36.03125 48 33.890625 48 
Q 26.265625 48 22.1875 43.046875 
Q 18.109375 38.09375 18.109375 28.8125 
L 18.109375 0 
L 9.078125 0 
L 9.078125 54.6875 
L 18.109375 54.6875 
L 18.109375 46.1875 
Q 20.953125 51.171875 25.484375 53.578125 
Q 30.03125 56 36.53125 56 
Q 37.453125 56 38.578125 55.875 
Q 39.703125 55.765625 41.0625 55.515625 
z
" id="DejaVuSans-114"/>
      <path d="M 52 44.1875 
Q 55.375 50.25 60.0625 53.125 
Q 64.75 56 71.09375 56 
Q 79.640625 56 84.28125 50.015625 
Q 88.921875 44.046875 88.921875 33.015625 
L 88.921875 0 
L 79.890625 0 
L 79.890625 32.71875 
Q 79.890625 40.578125 77.09375 44.375 
Q 74.3125 48.1875 68.609375 48.1875 
Q 61.625 48.1875 57.5625 43.546875 
Q 53.515625 38.921875 53.515625 30.90625 
L 53.515625 0 
L 44.484375 0 
L 44.484375 32.71875 
Q 44.484375 40.625 41.703125 44.40625 
Q 38.921875 48.1875 33.109375 48.1875 
Q 26.21875 48.1875 22.15625 43.53125 
Q 18.109375 38.875 18.109375 30.90625 
L 18.109375 0 
L 9.078125 0 
L 9.078125 54.6875 
L 18.109375 54.6875 
L 18.109375 46.1875 
Q 21.1875 51.21875 25.484375 53.609375 
Q 29.78125 56 35.6875 56 
Q 41.65625 56 45.828125 52.96875 
Q 50 49.953125 52 44.1875 
z
" id="DejaVuSans-109"/>
      <path d="M 44.28125 53.078125 
L 44.28125 44.578125 
Q 40.484375 46.53125 36.375 47.5 
Q 32.28125 48.484375 27.875 48.484375 
Q 21.1875 48.484375 17.84375 46.4375 
Q 14.5 44.390625 14.5 40.28125 
Q 14.5 37.15625 16.890625 35.375 
Q 19.28125 33.59375 26.515625 31.984375 
L 29.59375 31.296875 
Q 39.15625 29.25 43.1875 25.515625 
Q 47.21875 21.78125 47.21875 15.09375 
Q 47.21875 7.46875 41.1875 3.015625 
Q 35.15625 -1.421875 24.609375 -1.421875 
Q 20.21875 -1.421875 15.453125 -0.5625 
Q 10.6875 0.296875 5.421875 2 
L 5.421875 11.28125 
Q 10.40625 8.6875 15.234375 7.390625 
Q 20.0625 6.109375 24.8125 6.109375 
Q 31.15625 6.109375 34.5625 8.28125 
Q 37.984375 10.453125 37.984375 14.40625 
Q 37.984375 18.0625 35.515625 20.015625 
Q 33.0625 21.96875 24.703125 23.78125 
L 21.578125 24.515625 
Q 13.234375 26.265625 9.515625 29.90625 
Q 5.8125 33.546875 5.8125 39.890625 
Q 5.8125 47.609375 11.28125 51.796875 
Q 16.75 56 26.8125 56 
Q 31.78125 56 36.171875 55.265625 
Q 40.578125 54.546875 44.28125 53.078125 
z
" id="DejaVuSans-115"/>
      <path d="M 56.203125 29.59375 
L 56.203125 25.203125 
L 14.890625 25.203125 
Q 15.484375 15.921875 20.484375 11.0625 
Q 25.484375 6.203125 34.421875 6.203125 
Q 39.59375 6.203125 44.453125 7.46875 
Q 49.3125 8.734375 54.109375 11.28125 
L 54.109375 2.78125 
Q 49.265625 0.734375 44.1875 -0.34375 
Q 39.109375 -1.421875 33.890625 -1.421875 
Q 20.796875 -1.421875 13.15625 6.1875 
Q 5.515625 13.8125 5.515625 26.8125 
Q 5.515625 40.234375 12.765625 48.109375 
Q 20.015625 56 32.328125 56 
Q 43.359375 56 49.78125 48.890625 
Q 56.203125 41.796875 56.203125 29.59375 
z
M 47.21875 32.234375 
Q 47.125 39.59375 43.09375 43.984375 
Q 39.0625 48.390625 32.421875 48.390625 
Q 24.90625 48.390625 20.390625 44.140625 
Q 15.875 39.890625 15.1875 32.171875 
z
" id="DejaVuSans-101"/>
      <path id="DejaVuSans-32"/>
      <path d="M 48.78125 52.59375 
L 48.78125 44.1875 
Q 44.96875 46.296875 41.140625 47.34375 
Q 37.3125 48.390625 33.40625 48.390625 
Q 24.65625 48.390625 19.8125 42.84375 
Q 14.984375 37.3125 14.984375 27.296875 
Q 14.984375 17.28125 19.8125 11.734375 
Q 24.65625 6.203125 33.40625 6.203125 
Q 37.3125 6.203125 41.140625 7.25 
Q 44.96875 8.296875 48.78125 10.40625 
L 48.78125 2.09375 
Q 45.015625 0.34375 40.984375 -0.53125 
Q 36.96875 -1.421875 32.421875 -1.421875 
Q 20.0625 -1.421875 12.78125 6.34375 
Q 5.515625 14.109375 5.515625 27.296875 
Q 5.515625 40.671875 12.859375 48.328125 
Q 20.21875 56 33.015625 56 
Q 37.15625 56 41.109375 55.140625 
Q 45.0625 54.296875 48.78125 52.59375 
z
" id="DejaVuSans-99"/>
      <path d="M 18.3125 70.21875 
L 18.3125 54.6875 
L 36.8125 54.6875 
L 36.8125 47.703125 
L 18.3125 47.703125 
L 18.3125 18.015625 
Q 18.3125 11.328125 20.140625 9.421875 
Q 21.96875 7.515625 27.59375 7.515625 
L 36.8125 7.515625 
L 36.8125 0 
L 27.59375 0 
Q 17.1875 0 13.234375 3.875 
Q 9.28125 7.765625 9.28125 18.015625 
L 9.28125 47.703125 
L 2.6875 47.703125 
L 2.6875 54.6875 
L 9.28125 54.6875 
L 9.28125 70.21875 
z
" id="DejaVuSans-116"/>
      <path d="M 9.421875 75.984375 
L 18.40625 75.984375 
L 18.40625 0 
L 9.421875 0 
z
" id="DejaVuSans-108"/>
     </defs>
     <g transform="translate(293.980938 58.070437)scale(0.1 -0.1)">
      <use xlink:href="#DejaVuSans-114"/>
      <use x="41.097656" xlink:href="#DejaVuSans-109"/>
      <use x="138.509766" xlink:href="#DejaVuSans-115"/>
      <use x="190.609375" xlink:href="#DejaVuSans-101"/>
      <use x="252.132812" xlink:href="#DejaVuSans-32"/>
      <use x="283.919922" xlink:href="#DejaVuSans-99"/>
      <use x="338.900391" xlink:href="#DejaVuSans-116"/>
      <use x="378.109375" xlink:href="#DejaVuSans-114"/>
      <use x="419.222656" xlink:href="#DejaVuSans-108"/>
     </g>
    </g>
    <g id="line2d_25">
     <path d="M 265.980938 69.248562 
L 285.980938 69.248562 
" style="fill:none;stroke:#1b9e77;stroke-linecap:square;stroke-width:1.5;"/>
    </g>
    <g id="line2d_26"/>
    <g id="text_14">
     <!-- rmse ensmean svd -->
     <defs>
      <path d="M 54.890625 33.015625 
L 54.890625 0 
L 45.90625 0 
L 45.90625 32.71875 
Q 45.90625 40.484375 42.875 44.328125 
Q 39.84375 48.1875 33.796875 48.1875 
Q 26.515625 48.1875 22.3125 43.546875 
Q 18.109375 38.921875 18.109375 30.90625 
L 18.109375 0 
L 9.078125 0 
L 9.078125 54.6875 
L 18.109375 54.6875 
L 18.109375 46.1875 
Q 21.34375 51.125 25.703125 53.5625 
Q 30.078125 56 35.796875 56 
Q 45.21875 56 50.046875 50.171875 
Q 54.890625 44.34375 54.890625 33.015625 
z
" id="DejaVuSans-110"/>
      <path d="M 34.28125 27.484375 
Q 23.390625 27.484375 19.1875 25 
Q 14.984375 22.515625 14.984375 16.5 
Q 14.984375 11.71875 18.140625 8.90625 
Q 21.296875 6.109375 26.703125 6.109375 
Q 34.1875 6.109375 38.703125 11.40625 
Q 43.21875 16.703125 43.21875 25.484375 
L 43.21875 27.484375 
z
M 52.203125 31.203125 
L 52.203125 0 
L 43.21875 0 
L 43.21875 8.296875 
Q 40.140625 3.328125 35.546875 0.953125 
Q 30.953125 -1.421875 24.3125 -1.421875 
Q 15.921875 -1.421875 10.953125 3.296875 
Q 6 8.015625 6 15.921875 
Q 6 25.140625 12.171875 29.828125 
Q 18.359375 34.515625 30.609375 34.515625 
L 43.21875 34.515625 
L 43.21875 35.40625 
Q 43.21875 41.609375 39.140625 45 
Q 35.0625 48.390625 27.6875 48.390625 
Q 23 48.390625 18.546875 47.265625 
Q 14.109375 46.140625 10.015625 43.890625 
L 10.015625 52.203125 
Q 14.9375 54.109375 19.578125 55.046875 
Q 24.21875 56 28.609375 56 
Q 40.484375 56 46.34375 49.84375 
Q 52.203125 43.703125 52.203125 31.203125 
z
" id="DejaVuSans-97"/>
      <path d="M 2.984375 54.6875 
L 12.5 54.6875 
L 29.59375 8.796875 
L 46.6875 54.6875 
L 56.203125 54.6875 
L 35.6875 0 
L 23.484375 0 
z
" id="DejaVuSans-118"/>
      <path d="M 45.40625 46.390625 
L 45.40625 75.984375 
L 54.390625 75.984375 
L 54.390625 0 
L 45.40625 0 
L 45.40625 8.203125 
Q 42.578125 3.328125 38.25 0.953125 
Q 33.9375 -1.421875 27.875 -1.421875 
Q 17.96875 -1.421875 11.734375 6.484375 
Q 5.515625 14.40625 5.515625 27.296875 
Q 5.515625 40.1875 11.734375 48.09375 
Q 17.96875 56 27.875 56 
Q 33.9375 56 38.25 53.625 
Q 42.578125 51.265625 45.40625 46.390625 
z
M 14.796875 27.296875 
Q 14.796875 17.390625 18.875 11.75 
Q 22.953125 6.109375 30.078125 6.109375 
Q 37.203125 6.109375 41.296875 11.75 
Q 45.40625 17.390625 45.40625 27.296875 
Q 45.40625 37.203125 41.296875 42.84375 
Q 37.203125 48.484375 30.078125 48.484375 
Q 22.953125 48.484375 18.875 42.84375 
Q 14.796875 37.203125 14.796875 27.296875 
z
" id="DejaVuSans-100"/>
     </defs>
     <g transform="translate(293.980938 72.748562)scale(0.1 -0.1)">
      <use xlink:href="#DejaVuSans-114"/>
      <use x="41.097656" xlink:href="#DejaVuSans-109"/>
      <use x="138.509766" xlink:href="#DejaVuSans-115"/>
      <use x="190.609375" xlink:href="#DejaVuSans-101"/>
      <use x="252.132812" xlink:href="#DejaVuSans-32"/>
      <use x="283.919922" xlink:href="#DejaVuSans-101"/>
      <use x="345.443359" xlink:href="#DejaVuSans-110"/>
      <use x="408.822266" xlink:href="#DejaVuSans-115"/>
      <use x="460.921875" xlink:href="#DejaVuSans-109"/>
      <use x="558.333984" xlink:href="#DejaVuSans-101"/>
      <use x="619.857422" xlink:href="#DejaVuSans-97"/>
      <use x="681.136719" xlink:href="#DejaVuSans-110"/>
      <use x="744.515625" xlink:href="#DejaVuSans-32"/>
      <use x="776.302734" xlink:href="#DejaVuSans-115"/>
      <use x="828.402344" xlink:href="#DejaVuSans-118"/>
      <use x="887.582031" xlink:href="#DejaVuSans-100"/>
     </g>
    </g>
    <g id="line2d_27">
     <path d="M 265.980938 83.926688 
L 285.980938 83.926688 
" style="fill:none;stroke:#7570b3;stroke-linecap:square;stroke-width:1.5;"/>
    </g>
    <g id="line2d_28"/>
    <g id="text_15">
     <!-- rmse ensmean rand -->
     <g transform="translate(293.980938 87.426688)scale(0.1 -0.1)">
      <use xlink:href="#DejaVuSans-114"/>
      <use x="41.097656" xlink:href="#DejaVuSans-109"/>
      <use x="138.509766" xlink:href="#DejaVuSans-115"/>
      <use x="190.609375" xlink:href="#DejaVuSans-101"/>
      <use x="252.132812" xlink:href="#DejaVuSans-32"/>
      <use x="283.919922" xlink:href="#DejaVuSans-101"/>
      <use x="345.443359" xlink:href="#DejaVuSans-110"/>
      <use x="408.822266" xlink:href="#DejaVuSans-115"/>
      <use x="460.921875" xlink:href="#DejaVuSans-109"/>
      <use x="558.333984" xlink:href="#DejaVuSans-101"/>
      <use x="619.857422" xlink:href="#DejaVuSans-97"/>
      <use x="681.136719" xlink:href="#DejaVuSans-110"/>
      <use x="744.515625" xlink:href="#DejaVuSans-32"/>
      <use x="776.302734" xlink:href="#DejaVuSans-114"/>
      <use x="817.416016" xlink:href="#DejaVuSans-97"/>
      <use x="878.695312" xlink:href="#DejaVuSans-110"/>
      <use x="942.074219" xlink:href="#DejaVuSans-100"/>
     </g>
    </g>
    <g id="line2d_29">
     <path d="M 265.980938 98.604812 
L 285.980938 98.604812 
" style="fill:none;stroke:#d95f02;stroke-linecap:square;stroke-width:1.5;"/>
    </g>
    <g id="line2d_30"/>
    <g id="text_16">
     <!-- rmse ensmean netens -->
     <g transform="translate(293.980938 102.104812)scale(0.1 -0.1)">
      <use xlink:href="#DejaVuSans-114"/>
      <use x="41.097656" xlink:href="#DejaVuSans-109"/>
      <use x="138.509766" xlink:href="#DejaVuSans-115"/>
      <use x="190.609375" xlink:href="#DejaVuSans-101"/>
      <use x="252.132812" xlink:href="#DejaVuSans-32"/>
      <use x="283.919922" xlink:href="#DejaVuSans-101"/>
      <use x="345.443359" xlink:href="#DejaVuSans-110"/>
      <use x="408.822266" xlink:href="#DejaVuSans-115"/>
      <use x="460.921875" xlink:href="#DejaVuSans-109"/>
      <use x="558.333984" xlink:href="#DejaVuSans-101"/>
      <use x="619.857422" xlink:href="#DejaVuSans-97"/>
      <use x="681.136719" xlink:href="#DejaVuSans-110"/>
      <use x="744.515625" xlink:href="#DejaVuSans-32"/>
      <use x="776.302734" xlink:href="#DejaVuSans-110"/>
      <use x="839.681641" xlink:href="#DejaVuSans-101"/>
      <use x="901.205078" xlink:href="#DejaVuSans-116"/>
      <use x="940.414062" xlink:href="#DejaVuSans-101"/>
      <use x="1001.9375" xlink:href="#DejaVuSans-110"/>
      <use x="1065.316406" xlink:href="#DejaVuSans-115"/>
     </g>
    </g>
    <g id="line2d_31">
     <path d="M 265.980938 113.282938 
L 285.980938 113.282938 
" style="fill:none;stroke:#1f77b4;stroke-linecap:square;stroke-width:1.5;"/>
    </g>
    <g id="line2d_32"/>
    <g id="text_17">
     <!-- rmse persistence -->
     <defs>
      <path d="M 18.109375 8.203125 
L 18.109375 -20.796875 
L 9.078125 -20.796875 
L 9.078125 54.6875 
L 18.109375 54.6875 
L 18.109375 46.390625 
Q 20.953125 51.265625 25.265625 53.625 
Q 29.59375 56 35.59375 56 
Q 45.5625 56 51.78125 48.09375 
Q 58.015625 40.1875 58.015625 27.296875 
Q 58.015625 14.40625 51.78125 6.484375 
Q 45.5625 -1.421875 35.59375 -1.421875 
Q 29.59375 -1.421875 25.265625 0.953125 
Q 20.953125 3.328125 18.109375 8.203125 
z
M 48.6875 27.296875 
Q 48.6875 37.203125 44.609375 42.84375 
Q 40.53125 48.484375 33.40625 48.484375 
Q 26.265625 48.484375 22.1875 42.84375 
Q 18.109375 37.203125 18.109375 27.296875 
Q 18.109375 17.390625 22.1875 11.75 
Q 26.265625 6.109375 33.40625 6.109375 
Q 40.53125 6.109375 44.609375 11.75 
Q 48.6875 17.390625 48.6875 27.296875 
z
" id="DejaVuSans-112"/>
      <path d="M 9.421875 54.6875 
L 18.40625 54.6875 
L 18.40625 0 
L 9.421875 0 
z
M 9.421875 75.984375 
L 18.40625 75.984375 
L 18.40625 64.59375 
L 9.421875 64.59375 
z
" id="DejaVuSans-105"/>
     </defs>
     <g transform="translate(293.980938 116.782938)scale(0.1 -0.1)">
      <use xlink:href="#DejaVuSans-114"/>
      <use x="41.097656" xlink:href="#DejaVuSans-109"/>
      <use x="138.509766" xlink:href="#DejaVuSans-115"/>
      <use x="190.609375" xlink:href="#DejaVuSans-101"/>
      <use x="252.132812" xlink:href="#DejaVuSans-32"/>
      <use x="283.919922" xlink:href="#DejaVuSans-112"/>
      <use x="347.396484" xlink:href="#DejaVuSans-101"/>
      <use x="408.919922" xlink:href="#DejaVuSans-114"/>
      <use x="450.033203" xlink:href="#DejaVuSans-115"/>
      <use x="502.132812" xlink:href="#DejaVuSans-105"/>
      <use x="529.916016" xlink:href="#DejaVuSans-115"/>
      <use x="582.015625" xlink:href="#DejaVuSans-116"/>
      <use x="621.224609" xlink:href="#DejaVuSans-101"/>
      <use x="682.748047" xlink:href="#DejaVuSans-110"/>
      <use x="746.126953" xlink:href="#DejaVuSans-99"/>
      <use x="801.107422" xlink:href="#DejaVuSans-101"/>
     </g>
    </g>
    <g id="line2d_33">
     <path d="M 265.980938 127.961062 
L 285.980938 127.961062 
" style="fill:none;stroke:#1b9e77;stroke-dasharray:5.55,2.4;stroke-dashoffset:0;stroke-width:1.5;"/>
    </g>
    <g id="line2d_34"/>
    <g id="text_18">
     <!-- spread svd -->
     <g transform="translate(293.980938 131.461062)scale(0.1 -0.1)">
      <use xlink:href="#DejaVuSans-115"/>
      <use x="52.099609" xlink:href="#DejaVuSans-112"/>
      <use x="115.576172" xlink:href="#DejaVuSans-114"/>
      <use x="156.658203" xlink:href="#DejaVuSans-101"/>
      <use x="218.181641" xlink:href="#DejaVuSans-97"/>
      <use x="279.460938" xlink:href="#DejaVuSans-100"/>
      <use x="342.9375" xlink:href="#DejaVuSans-32"/>
      <use x="374.724609" xlink:href="#DejaVuSans-115"/>
      <use x="426.824219" xlink:href="#DejaVuSans-118"/>
      <use x="486.003906" xlink:href="#DejaVuSans-100"/>
     </g>
    </g>
    <g id="line2d_35">
     <path d="M 265.980938 142.639187 
L 285.980938 142.639187 
" style="fill:none;stroke:#7570b3;stroke-dasharray:5.55,2.4;stroke-dashoffset:0;stroke-width:1.5;"/>
    </g>
    <g id="line2d_36"/>
    <g id="text_19">
     <!-- spread rand -->
     <g transform="translate(293.980938 146.139187)scale(0.1 -0.1)">
      <use xlink:href="#DejaVuSans-115"/>
      <use x="52.099609" xlink:href="#DejaVuSans-112"/>
      <use x="115.576172" xlink:href="#DejaVuSans-114"/>
      <use x="156.658203" xlink:href="#DejaVuSans-101"/>
      <use x="218.181641" xlink:href="#DejaVuSans-97"/>
      <use x="279.460938" xlink:href="#DejaVuSans-100"/>
      <use x="342.9375" xlink:href="#DejaVuSans-32"/>
      <use x="374.724609" xlink:href="#DejaVuSans-114"/>
      <use x="415.837891" xlink:href="#DejaVuSans-97"/>
      <use x="477.117188" xlink:href="#DejaVuSans-110"/>
      <use x="540.496094" xlink:href="#DejaVuSans-100"/>
     </g>
    </g>
    <g id="line2d_37">
     <path d="M 265.980938 157.317312 
L 285.980938 157.317312 
" style="fill:none;stroke:#d95f02;stroke-dasharray:5.55,2.4;stroke-dashoffset:0;stroke-width:1.5;"/>
    </g>
    <g id="line2d_38"/>
    <g id="text_20">
     <!-- spread netens -->
     <g transform="translate(293.980938 160.817312)scale(0.1 -0.1)">
      <use xlink:href="#DejaVuSans-115"/>
      <use x="52.099609" xlink:href="#DejaVuSans-112"/>
      <use x="115.576172" xlink:href="#DejaVuSans-114"/>
      <use x="156.658203" xlink:href="#DejaVuSans-101"/>
      <use x="218.181641" xlink:href="#DejaVuSans-97"/>
      <use x="279.460938" xlink:href="#DejaVuSans-100"/>
      <use x="342.9375" xlink:href="#DejaVuSans-32"/>
      <use x="374.724609" xlink:href="#DejaVuSans-110"/>
      <use x="438.103516" xlink:href="#DejaVuSans-101"/>
      <use x="499.626953" xlink:href="#DejaVuSans-116"/>
      <use x="538.835938" xlink:href="#DejaVuSans-101"/>
      <use x="600.359375" xlink:href="#DejaVuSans-110"/>
      <use x="663.738281" xlink:href="#DejaVuSans-115"/>
     </g>
    </g>
    <g id="line2d_39">
     <path d="M 265.980938 171.995437 
L 285.980938 171.995437 
" style="fill:none;stroke:#ff7f0e;stroke-linecap:square;stroke-width:1.5;"/>
    </g>
    <g id="line2d_40"/>
    <g id="text_21">
     <!-- 0 -->
     <g transform="translate(293.980938 175.495437)scale(0.1 -0.1)">
      <use xlink:href="#DejaVuSans-48"/>
     </g>
    </g>
    <g id="line2d_41">
     <path d="M 265.980938 186.673562 
L 285.980938 186.673562 
" style="fill:none;stroke:#2ca02c;stroke-linecap:square;stroke-width:1.5;"/>
    </g>
    <g id="line2d_42"/>
    <g id="text_22">
     <!-- 1 -->
     <g transform="translate(293.980938 190.173562)scale(0.1 -0.1)">
      <use xlink:href="#DejaVuSans-49"/>
     </g>
    </g>
   </g>
  </g>
 </g>
 <defs>
  <clipPath id="pb74848cf63">
   <rect height="266.112" width="357.12" x="57.6" y="41.472"/>
  </clipPath>
 </defs>
</svg>
