<?xml version="1.0" encoding="utf-8" standalone="no"?>
<!DOCTYPE svg PUBLIC "-//W3C//DTD SVG 1.1//EN"
  "http://www.w3.org/Graphics/SVG/1.1/DTD/svg11.dtd">
<!-- Created with matplotlib (https://matplotlib.org/) -->
<svg height="236.419125pt" version="1.1" viewBox="0 0 487.602187 236.419125" width="487.602187pt" xmlns="http://www.w3.org/2000/svg" xmlns:xlink="http://www.w3.org/1999/xlink">
 <defs>
  <style type="text/css">
*{stroke-linecap:butt;stroke-linejoin:round;}
  </style>
 </defs>
 <g id="figure_1">
  <g id="patch_1">
   <path d="M 0 236.419125 
L 487.602187 236.419125 
L 487.602187 0 
L 0 0 
z
" style="fill:#ffffff;"/>
  </g>
  <g id="axes_1">
   <g id="patch_2">
    <path d="M 61.902188 190.2075 
L 480.402188 190.2075 
L 480.402188 23.8875 
L 61.902188 23.8875 
z
" style="fill:#ffffff;"/>
   </g>
   <g id="line2d_1">
    <path clip-path="url(#pb9570ca522)" d="M 61.902188 98.942941 
L 480.402188 98.942941 
" style="fill:none;stroke:#000000;stroke-linecap:square;"/>
   </g>
   <g id="PolyCollection_1">
    <defs>
     <path d="M 80.924915 -137.476219 
L 80.924915 -137.476219 
L 110.190649 -133.041248 
L 139.456383 -136.642513 
L 168.722118 -137.028953 
L 197.987852 -135.825721 
L 227.253586 -134.242435 
L 256.51932 -132.874881 
L 285.785055 -131.81151 
L 315.050789 -131.167993 
L 344.316523 -131.134654 
L 373.582257 -131.118326 
L 402.847992 -131.361615 
L 432.113726 -131.73641 
L 461.37946 -132.170609 
L 461.37946 -133.21415 
L 461.37946 -133.21415 
L 432.113726 -132.734373 
L 402.847992 -132.336951 
L 373.582257 -132.121815 
L 344.316523 -132.137777 
L 315.050789 -132.119644 
L 285.785055 -132.70224 
L 256.51932 -133.659204 
L 227.253586 -135.021012 
L 197.987852 -136.556309 
L 168.722118 -137.651239 
L 139.456383 -137.144628 
L 110.190649 -133.53589 
L 80.924915 -137.476219 
z
" id="mccb228ce83" style="stroke:#1b9e77;stroke-opacity:0.5;stroke-width:0.8;"/>
    </defs>
    <g clip-path="url(#pb9570ca522)">
     <use style="fill:#1b9e77;fill-opacity:0.5;stroke:#1b9e77;stroke-opacity:0.5;stroke-width:0.8;" x="0" xlink:href="#mccb228ce83" y="236.419125"/>
    </g>
   </g>
   <g id="PolyCollection_2">
    <defs>
     <path d="M 80.924915 -137.476219 
L 80.924915 -137.476219 
L 110.190649 -144.432728 
L 139.456383 -145.135588 
L 168.722118 -145.839837 
L 197.987852 -145.73702 
L 227.253586 -145.374379 
L 256.51932 -145.347685 
L 285.785055 -145.646022 
L 315.050789 -145.934456 
L 344.316523 -146.249374 
L 373.582257 -146.771746 
L 402.847992 -147.728804 
L 432.113726 -148.886892 
L 461.37946 -150.050199 
L 461.37946 -152.255657 
L 461.37946 -152.255657 
L 432.113726 -150.981006 
L 402.847992 -149.636283 
L 373.582257 -148.551948 
L 344.316523 -148.013617 
L 315.050789 -147.481608 
L 285.785055 -147.11226 
L 256.51932 -146.733506 
L 227.253586 -146.574248 
L 197.987852 -146.694438 
L 168.722118 -146.669509 
L 139.456383 -145.713162 
L 110.190649 -144.820193 
L 80.924915 -137.476219 
z
" id="me1240a4dab" style="stroke:#7570b3;stroke-opacity:0.5;stroke-width:0.8;"/>
    </defs>
    <g clip-path="url(#pb9570ca522)">
     <use style="fill:#7570b3;fill-opacity:0.5;stroke:#7570b3;stroke-opacity:0.5;stroke-width:0.8;" x="0" xlink:href="#me1240a4dab" y="236.419125"/>
    </g>
   </g>
   <g id="PolyCollection_3">
    <defs>
     <path d="M 80.924915 -137.476184 
L 80.924915 -137.476184 
L 110.190649 -148.547442 
L 139.456383 -145.670532 
L 168.722118 -145.93219 
L 197.987852 -146.948305 
L 227.253586 -148.18819 
L 256.51932 -149.554367 
L 285.785055 -150.770141 
L 315.050789 -151.700711 
L 344.316523 -152.101406 
L 373.582257 -152.552929 
L 402.847992 -153.3527 
L 432.113726 -154.159685 
L 461.37946 -154.844726 
L 461.37946 -157.126621 
L 461.37946 -157.126621 
L 432.113726 -156.210468 
L 402.847992 -155.29239 
L 373.582257 -154.40127 
L 344.316523 -153.852192 
L 315.050789 -153.336124 
L 285.785055 -152.32719 
L 256.51932 -150.967391 
L 227.253586 -149.48476 
L 197.987852 -148.029001 
L 168.722118 -146.816294 
L 139.456383 -146.336174 
L 110.190649 -149.081983 
L 80.924915 -137.476184 
z
" id="m632190dff0" style="stroke:#d95f02;stroke-opacity:0.5;stroke-width:0.8;"/>
    </defs>
    <g clip-path="url(#pb9570ca522)">
     <use style="fill:#d95f02;fill-opacity:0.5;stroke:#d95f02;stroke-opacity:0.5;stroke-width:0.8;" x="0" xlink:href="#m632190dff0" y="236.419125"/>
    </g>
   </g>
   <g id="PolyCollection_4">
    <path clip-path="url(#pb9570ca522)" d="M 80.924915 162.166991 
L 80.924915 162.248168 
L 110.190649 79.013154 
L 139.456383 55.30163 
L 168.722118 48.010882 
L 197.987852 51.373335 
L 227.253586 57.445781 
L 256.51932 62.377071 
L 285.785055 65.674071 
L 315.050789 68.098843 
L 344.316523 70.366438 
L 373.582257 72.561638 
L 402.847992 74.583656 
L 432.113726 76.277072 
L 461.37946 77.92636 
L 461.37946 76.789501 
L 461.37946 76.789501 
L 432.113726 75.26572 
L 402.847992 73.516636 
L 373.582257 71.531979 
L 344.316523 69.317809 
L 315.050789 67.037567 
L 285.785055 64.564728 
L 256.51932 61.22557 
L 227.253586 56.392529 
L 197.987852 50.334165 
L 168.722118 47.084565 
L 139.456383 54.480723 
L 110.190649 78.512233 
L 80.924915 162.166991 
z
" style="fill:#1b9e77;fill-opacity:0.5;stroke:#1b9e77;stroke-dasharray:2.96,1.28;stroke-dashoffset:0;stroke-opacity:0.5;stroke-width:0.8;"/>
   </g>
   <g id="PolyCollection_5">
    <path clip-path="url(#pb9570ca522)" d="M 80.924915 94.670916 
L 80.924915 94.750464 
L 110.190649 91.123404 
L 139.456383 74.392887 
L 168.722118 74.813155 
L 197.987852 85.812055 
L 227.253586 99.219431 
L 256.51932 110.938438 
L 285.785055 120.130234 
L 315.050789 127.856998 
L 344.316523 135.033309 
L 373.582257 141.808116 
L 402.847992 148.419008 
L 432.113726 154.891934 
L 461.37946 161.225884 
L 461.37946 159.831417 
L 461.37946 159.831417 
L 432.113726 153.565521 
L 402.847992 147.171737 
L 373.582257 140.640148 
L 344.316523 133.826123 
L 315.050789 126.696926 
L 285.785055 118.951734 
L 256.51932 109.705887 
L 227.253586 98.008429 
L 197.987852 84.670474 
L 168.722118 73.81658 
L 139.456383 73.562101 
L 110.190649 90.5413 
L 80.924915 94.670916 
z
" style="fill:#7570b3;fill-opacity:0.5;stroke:#7570b3;stroke-dasharray:2.96,1.28;stroke-dashoffset:0;stroke-opacity:0.5;stroke-width:0.8;"/>
   </g>
   <g id="PolyCollection_6">
    <path clip-path="url(#pb9570ca522)" d="M 80.924915 31.4475 
L 80.924915 31.4475 
L 110.190649 111.124331 
L 139.456383 118.177352 
L 168.722118 125.877814 
L 197.987852 133.568229 
L 227.253586 140.946336 
L 256.51932 147.75311 
L 285.785055 153.730311 
L 315.050789 159.051092 
L 344.316523 163.930567 
L 373.582257 168.508911 
L 402.847992 173.188093 
L 432.113726 177.931923 
L 461.37946 182.6475 
L 461.37946 181.511109 
L 461.37946 181.511109 
L 432.113726 176.897528 
L 402.847992 172.201823 
L 373.582257 167.71628 
L 344.316523 163.163811 
L 315.050789 158.277562 
L 285.785055 153.027486 
L 256.51932 147.114319 
L 227.253586 140.416221 
L 197.987852 133.120673 
L 168.722118 125.519058 
L 139.456383 117.871138 
L 110.190649 110.903707 
L 80.924915 31.4475 
z
" style="fill:#d95f02;fill-opacity:0.5;stroke:#d95f02;stroke-dasharray:2.96,1.28;stroke-dashoffset:0;stroke-opacity:0.5;stroke-width:0.8;"/>
   </g>
   <g id="matplotlib.axis_1">
    <g id="xtick_1">
     <g id="line2d_2">
      <defs>
       <path d="M 0 0 
L 0 4.8 
" id="mda13595b4b" style="stroke:#000000;"/>
      </defs>
      <g>
       <use style="stroke:#000000;" x="80.924915" xlink:href="#mda13595b4b" y="190.2075"/>
      </g>
     </g>
     <g id="text_1">
      <!-- 0 -->
      <defs>
       <path d="M 31.78125 66.40625 
Q 24.171875 66.40625 20.328125 58.90625 
Q 16.5 51.421875 16.5 36.375 
Q 16.5 21.390625 20.328125 13.890625 
Q 24.171875 6.390625 31.78125 6.390625 
Q 39.453125 6.390625 43.28125 13.890625 
Q 47.125 21.390625 47.125 36.375 
Q 47.125 51.421875 43.28125 58.90625 
Q 39.453125 66.40625 31.78125 66.40625 
z
M 31.78125 74.21875 
Q 44.046875 74.21875 50.515625 64.515625 
Q 56.984375 54.828125 56.984375 36.375 
Q 56.984375 17.96875 50.515625 8.265625 
Q 44.046875 -1.421875 31.78125 -1.421875 
Q 19.53125 -1.421875 13.0625 8.265625 
Q 6.59375 17.96875 6.59375 36.375 
Q 6.59375 54.828125 13.0625 64.515625 
Q 19.53125 74.21875 31.78125 74.21875 
z
" id="DejaVuSans-48"/>
      </defs>
      <g transform="translate(76.725665 208.537437)scale(0.132 -0.132)">
       <use xlink:href="#DejaVuSans-48"/>
      </g>
     </g>
    </g>
    <g id="xtick_2">
     <g id="line2d_3">
      <g>
       <use style="stroke:#000000;" x="141.895194" xlink:href="#mda13595b4b" y="190.2075"/>
      </g>
     </g>
     <g id="text_2">
      <!-- 50 -->
      <defs>
       <path d="M 10.796875 72.90625 
L 49.515625 72.90625 
L 49.515625 64.59375 
L 19.828125 64.59375 
L 19.828125 46.734375 
Q 21.96875 47.46875 24.109375 47.828125 
Q 26.265625 48.1875 28.421875 48.1875 
Q 40.625 48.1875 47.75 41.5 
Q 54.890625 34.8125 54.890625 23.390625 
Q 54.890625 11.625 47.5625 5.09375 
Q 40.234375 -1.421875 26.90625 -1.421875 
Q 22.3125 -1.421875 17.546875 -0.640625 
Q 12.796875 0.140625 7.71875 1.703125 
L 7.71875 11.625 
Q 12.109375 9.234375 16.796875 8.0625 
Q 21.484375 6.890625 26.703125 6.890625 
Q 35.15625 6.890625 40.078125 11.328125 
Q 45.015625 15.765625 45.015625 23.390625 
Q 45.015625 31 40.078125 35.4375 
Q 35.15625 39.890625 26.703125 39.890625 
Q 22.75 39.890625 18.8125 39.015625 
Q 14.890625 38.140625 10.796875 36.28125 
z
" id="DejaVuSans-53"/>
      </defs>
      <g transform="translate(133.496694 208.537437)scale(0.132 -0.132)">
       <use xlink:href="#DejaVuSans-53"/>
       <use x="63.623047" xlink:href="#DejaVuSans-48"/>
      </g>
     </g>
    </g>
    <g id="xtick_3">
     <g id="line2d_4">
      <g>
       <use style="stroke:#000000;" x="202.865474" xlink:href="#mda13595b4b" y="190.2075"/>
      </g>
     </g>
     <g id="text_3">
      <!-- 100 -->
      <defs>
       <path d="M 12.40625 8.296875 
L 28.515625 8.296875 
L 28.515625 63.921875 
L 10.984375 60.40625 
L 10.984375 69.390625 
L 28.421875 72.90625 
L 38.28125 72.90625 
L 38.28125 8.296875 
L 54.390625 8.296875 
L 54.390625 0 
L 12.40625 0 
z
" id="DejaVuSans-49"/>
      </defs>
      <g transform="translate(190.267724 208.537437)scale(0.132 -0.132)">
       <use xlink:href="#DejaVuSans-49"/>
       <use x="63.623047" xlink:href="#DejaVuSans-48"/>
       <use x="127.246094" xlink:href="#DejaVuSans-48"/>
      </g>
     </g>
    </g>
    <g id="xtick_4">
     <g id="line2d_5">
      <g>
       <use style="stroke:#000000;" x="263.835754" xlink:href="#mda13595b4b" y="190.2075"/>
      </g>
     </g>
     <g id="text_4">
      <!-- 150 -->
      <g transform="translate(251.238004 208.537437)scale(0.132 -0.132)">
       <use xlink:href="#DejaVuSans-49"/>
       <use x="63.623047" xlink:href="#DejaVuSans-53"/>
       <use x="127.246094" xlink:href="#DejaVuSans-48"/>
      </g>
     </g>
    </g>
    <g id="xtick_5">
     <g id="line2d_6">
      <g>
       <use style="stroke:#000000;" x="324.806034" xlink:href="#mda13595b4b" y="190.2075"/>
      </g>
     </g>
     <g id="text_5">
      <!-- 200 -->
      <defs>
       <path d="M 19.1875 8.296875 
L 53.609375 8.296875 
L 53.609375 0 
L 7.328125 0 
L 7.328125 8.296875 
Q 12.9375 14.109375 22.625 23.890625 
Q 32.328125 33.6875 34.8125 36.53125 
Q 39.546875 41.84375 41.421875 45.53125 
Q 43.3125 49.21875 43.3125 52.78125 
Q 43.3125 58.59375 39.234375 62.25 
Q 35.15625 65.921875 28.609375 65.921875 
Q 23.96875 65.921875 18.8125 64.3125 
Q 13.671875 62.703125 7.8125 59.421875 
L 7.8125 69.390625 
Q 13.765625 71.78125 18.9375 73 
Q 24.125 74.21875 28.421875 74.21875 
Q 39.75 74.21875 46.484375 68.546875 
Q 53.21875 62.890625 53.21875 53.421875 
Q 53.21875 48.921875 51.53125 44.890625 
Q 49.859375 40.875 45.40625 35.40625 
Q 44.1875 33.984375 37.640625 27.21875 
Q 31.109375 20.453125 19.1875 8.296875 
z
" id="DejaVuSans-50"/>
      </defs>
      <g transform="translate(312.208284 208.537437)scale(0.132 -0.132)">
       <use xlink:href="#DejaVuSans-50"/>
       <use x="63.623047" xlink:href="#DejaVuSans-48"/>
       <use x="127.246094" xlink:href="#DejaVuSans-48"/>
      </g>
     </g>
    </g>
    <g id="xtick_6">
     <g id="line2d_7">
      <g>
       <use style="stroke:#000000;" x="385.776313" xlink:href="#mda13595b4b" y="190.2075"/>
      </g>
     </g>
     <g id="text_6">
      <!-- 250 -->
      <g transform="translate(373.178563 208.537437)scale(0.132 -0.132)">
       <use xlink:href="#DejaVuSans-50"/>
       <use x="63.623047" xlink:href="#DejaVuSans-53"/>
       <use x="127.246094" xlink:href="#DejaVuSans-48"/>
      </g>
     </g>
    </g>
    <g id="xtick_7">
     <g id="line2d_8">
      <g>
       <use style="stroke:#000000;" x="446.746593" xlink:href="#mda13595b4b" y="190.2075"/>
      </g>
     </g>
     <g id="text_7">
      <!-- 300 -->
      <defs>
       <path d="M 40.578125 39.3125 
Q 47.65625 37.796875 51.625 33 
Q 55.609375 28.21875 55.609375 21.1875 
Q 55.609375 10.40625 48.1875 4.484375 
Q 40.765625 -1.421875 27.09375 -1.421875 
Q 22.515625 -1.421875 17.65625 -0.515625 
Q 12.796875 0.390625 7.625 2.203125 
L 7.625 11.71875 
Q 11.71875 9.328125 16.59375 8.109375 
Q 21.484375 6.890625 26.8125 6.890625 
Q 36.078125 6.890625 40.9375 10.546875 
Q 45.796875 14.203125 45.796875 21.1875 
Q 45.796875 27.640625 41.28125 31.265625 
Q 36.765625 34.90625 28.71875 34.90625 
L 20.21875 34.90625 
L 20.21875 43.015625 
L 29.109375 43.015625 
Q 36.375 43.015625 40.234375 45.921875 
Q 44.09375 48.828125 44.09375 54.296875 
Q 44.09375 59.90625 40.109375 62.90625 
Q 36.140625 65.921875 28.71875 65.921875 
Q 24.65625 65.921875 20.015625 65.03125 
Q 15.375 64.15625 9.8125 62.3125 
L 9.8125 71.09375 
Q 15.4375 72.65625 20.34375 73.4375 
Q 25.25 74.21875 29.59375 74.21875 
Q 40.828125 74.21875 47.359375 69.109375 
Q 53.90625 64.015625 53.90625 55.328125 
Q 53.90625 49.265625 50.4375 45.09375 
Q 46.96875 40.921875 40.578125 39.3125 
z
" id="DejaVuSans-51"/>
      </defs>
      <g transform="translate(434.148843 208.537437)scale(0.132 -0.132)">
       <use xlink:href="#DejaVuSans-51"/>
       <use x="63.623047" xlink:href="#DejaVuSans-48"/>
       <use x="127.246094" xlink:href="#DejaVuSans-48"/>
      </g>
     </g>
    </g>
    <g id="text_8">
     <!-- leadtime [h] -->
     <defs>
      <path d="M 9.421875 75.984375 
L 18.40625 75.984375 
L 18.40625 0 
L 9.421875 0 
z
" id="DejaVuSans-108"/>
      <path d="M 56.203125 29.59375 
L 56.203125 25.203125 
L 14.890625 25.203125 
Q 15.484375 15.921875 20.484375 11.0625 
Q 25.484375 6.203125 34.421875 6.203125 
Q 39.59375 6.203125 44.453125 7.46875 
Q 49.3125 8.734375 54.109375 11.28125 
L 54.109375 2.78125 
Q 49.265625 0.734375 44.1875 -0.34375 
Q 39.109375 -1.421875 33.890625 -1.421875 
Q 20.796875 -1.421875 13.15625 6.1875 
Q 5.515625 13.8125 5.515625 26.8125 
Q 5.515625 40.234375 12.765625 48.109375 
Q 20.015625 56 32.328125 56 
Q 43.359375 56 49.78125 48.890625 
Q 56.203125 41.796875 56.203125 29.59375 
z
M 47.21875 32.234375 
Q 47.125 39.59375 43.09375 43.984375 
Q 39.0625 48.390625 32.421875 48.390625 
Q 24.90625 48.390625 20.390625 44.140625 
Q 15.875 39.890625 15.1875 32.171875 
z
" id="DejaVuSans-101"/>
      <path d="M 34.28125 27.484375 
Q 23.390625 27.484375 19.1875 25 
Q 14.984375 22.515625 14.984375 16.5 
Q 14.984375 11.71875 18.140625 8.90625 
Q 21.296875 6.109375 26.703125 6.109375 
Q 34.1875 6.109375 38.703125 11.40625 
Q 43.21875 16.703125 43.21875 25.484375 
L 43.21875 27.484375 
z
M 52.203125 31.203125 
L 52.203125 0 
L 43.21875 0 
L 43.21875 8.296875 
Q 40.140625 3.328125 35.546875 0.953125 
Q 30.953125 -1.421875 24.3125 -1.421875 
Q 15.921875 -1.421875 10.953125 3.296875 
Q 6 8.015625 6 15.921875 
Q 6 25.140625 12.171875 29.828125 
Q 18.359375 34.515625 30.609375 34.515625 
L 43.21875 34.515625 
L 43.21875 35.40625 
Q 43.21875 41.609375 39.140625 45 
Q 35.0625 48.390625 27.6875 48.390625 
Q 23 48.390625 18.546875 47.265625 
Q 14.109375 46.140625 10.015625 43.890625 
L 10.015625 52.203125 
Q 14.9375 54.109375 19.578125 55.046875 
Q 24.21875 56 28.609375 56 
Q 40.484375 56 46.34375 49.84375 
Q 52.203125 43.703125 52.203125 31.203125 
z
" id="DejaVuSans-97"/>
      <path d="M 45.40625 46.390625 
L 45.40625 75.984375 
L 54.390625 75.984375 
L 54.390625 0 
L 45.40625 0 
L 45.40625 8.203125 
Q 42.578125 3.328125 38.25 0.953125 
Q 33.9375 -1.421875 27.875 -1.421875 
Q 17.96875 -1.421875 11.734375 6.484375 
Q 5.515625 14.40625 5.515625 27.296875 
Q 5.515625 40.1875 11.734375 48.09375 
Q 17.96875 56 27.875 56 
Q 33.9375 56 38.25 53.625 
Q 42.578125 51.265625 45.40625 46.390625 
z
M 14.796875 27.296875 
Q 14.796875 17.390625 18.875 11.75 
Q 22.953125 6.109375 30.078125 6.109375 
Q 37.203125 6.109375 41.296875 11.75 
Q 45.40625 17.390625 45.40625 27.296875 
Q 45.40625 37.203125 41.296875 42.84375 
Q 37.203125 48.484375 30.078125 48.484375 
Q 22.953125 48.484375 18.875 42.84375 
Q 14.796875 37.203125 14.796875 27.296875 
z
" id="DejaVuSans-100"/>
      <path d="M 18.3125 70.21875 
L 18.3125 54.6875 
L 36.8125 54.6875 
L 36.8125 47.703125 
L 18.3125 47.703125 
L 18.3125 18.015625 
Q 18.3125 11.328125 20.140625 9.421875 
Q 21.96875 7.515625 27.59375 7.515625 
L 36.8125 7.515625 
L 36.8125 0 
L 27.59375 0 
Q 17.1875 0 13.234375 3.875 
Q 9.28125 7.765625 9.28125 18.015625 
L 9.28125 47.703125 
L 2.6875 47.703125 
L 2.6875 54.6875 
L 9.28125 54.6875 
L 9.28125 70.21875 
z
" id="DejaVuSans-116"/>
      <path d="M 9.421875 54.6875 
L 18.40625 54.6875 
L 18.40625 0 
L 9.421875 0 
z
M 9.421875 75.984375 
L 18.40625 75.984375 
L 18.40625 64.59375 
L 9.421875 64.59375 
z
" id="DejaVuSans-105"/>
      <path d="M 52 44.1875 
Q 55.375 50.25 60.0625 53.125 
Q 64.75 56 71.09375 56 
Q 79.640625 56 84.28125 50.015625 
Q 88.921875 44.046875 88.921875 33.015625 
L 88.921875 0 
L 79.890625 0 
L 79.890625 32.71875 
Q 79.890625 40.578125 77.09375 44.375 
Q 74.3125 48.1875 68.609375 48.1875 
Q 61.625 48.1875 57.5625 43.546875 
Q 53.515625 38.921875 53.515625 30.90625 
L 53.515625 0 
L 44.484375 0 
L 44.484375 32.71875 
Q 44.484375 40.625 41.703125 44.40625 
Q 38.921875 48.1875 33.109375 48.1875 
Q 26.21875 48.1875 22.15625 43.53125 
Q 18.109375 38.875 18.109375 30.90625 
L 18.109375 0 
L 9.078125 0 
L 9.078125 54.6875 
L 18.109375 54.6875 
L 18.109375 46.1875 
Q 21.1875 51.21875 25.484375 53.609375 
Q 29.78125 56 35.6875 56 
Q 41.65625 56 45.828125 52.96875 
Q 50 49.953125 52 44.1875 
z
" id="DejaVuSans-109"/>
      <path id="DejaVuSans-32"/>
      <path d="M 8.59375 75.984375 
L 29.296875 75.984375 
L 29.296875 69 
L 17.578125 69 
L 17.578125 -6.203125 
L 29.296875 -6.203125 
L 29.296875 -13.1875 
L 8.59375 -13.1875 
z
" id="DejaVuSans-91"/>
      <path d="M 54.890625 33.015625 
L 54.890625 0 
L 45.90625 0 
L 45.90625 32.71875 
Q 45.90625 40.484375 42.875 44.328125 
Q 39.84375 48.1875 33.796875 48.1875 
Q 26.515625 48.1875 22.3125 43.546875 
Q 18.109375 38.921875 18.109375 30.90625 
L 18.109375 0 
L 9.078125 0 
L 9.078125 75.984375 
L 18.109375 75.984375 
L 18.109375 46.1875 
Q 21.34375 51.125 25.703125 53.5625 
Q 30.078125 56 35.796875 56 
Q 45.21875 56 50.046875 50.171875 
Q 54.890625 44.34375 54.890625 33.015625 
z
" id="DejaVuSans-104"/>
      <path d="M 30.421875 75.984375 
L 30.421875 -13.1875 
L 9.71875 -13.1875 
L 9.71875 -6.203125 
L 21.390625 -6.203125 
L 21.390625 69 
L 9.71875 69 
L 9.71875 75.984375 
z
" id="DejaVuSans-93"/>
     </defs>
     <g transform="translate(227.002688 226.224375)scale(0.144 -0.144)">
      <use xlink:href="#DejaVuSans-108"/>
      <use x="27.783203" xlink:href="#DejaVuSans-101"/>
      <use x="89.306641" xlink:href="#DejaVuSans-97"/>
      <use x="150.585938" xlink:href="#DejaVuSans-100"/>
      <use x="214.0625" xlink:href="#DejaVuSans-116"/>
      <use x="253.271484" xlink:href="#DejaVuSans-105"/>
      <use x="281.054688" xlink:href="#DejaVuSans-109"/>
      <use x="378.466797" xlink:href="#DejaVuSans-101"/>
      <use x="439.990234" xlink:href="#DejaVuSans-32"/>
      <use x="471.777344" xlink:href="#DejaVuSans-91"/>
      <use x="510.791016" xlink:href="#DejaVuSans-104"/>
      <use x="574.169922" xlink:href="#DejaVuSans-93"/>
     </g>
    </g>
   </g>
   <g id="matplotlib.axis_2">
    <g id="ytick_1">
     <g id="line2d_9">
      <defs>
       <path d="M 0 0 
L -4.8 0 
" id="md80af8f46a" style="stroke:#000000;"/>
      </defs>
      <g>
       <use style="stroke:#000000;" x="61.902188" xlink:href="#md80af8f46a" y="171.356721"/>
      </g>
     </g>
     <g id="text_9">
      <!-- −40 -->
      <defs>
       <path d="M 10.59375 35.5 
L 73.1875 35.5 
L 73.1875 27.203125 
L 10.59375 27.203125 
z
" id="DejaVuSans-8722"/>
       <path d="M 37.796875 64.3125 
L 12.890625 25.390625 
L 37.796875 25.390625 
z
M 35.203125 72.90625 
L 47.609375 72.90625 
L 47.609375 25.390625 
L 58.015625 25.390625 
L 58.015625 17.1875 
L 47.609375 17.1875 
L 47.609375 0 
L 37.796875 0 
L 37.796875 17.1875 
L 4.890625 17.1875 
L 4.890625 26.703125 
z
" id="DejaVuSans-52"/>
      </defs>
      <g transform="translate(25.744 176.37169)scale(0.132 -0.132)">
       <use xlink:href="#DejaVuSans-8722"/>
       <use x="83.789062" xlink:href="#DejaVuSans-52"/>
       <use x="147.412109" xlink:href="#DejaVuSans-48"/>
      </g>
     </g>
    </g>
    <g id="ytick_2">
     <g id="line2d_10">
      <g>
       <use style="stroke:#000000;" x="61.902188" xlink:href="#md80af8f46a" y="135.149831"/>
      </g>
     </g>
     <g id="text_10">
      <!-- −20 -->
      <g transform="translate(25.744 140.164799)scale(0.132 -0.132)">
       <use xlink:href="#DejaVuSans-8722"/>
       <use x="83.789062" xlink:href="#DejaVuSans-50"/>
       <use x="147.412109" xlink:href="#DejaVuSans-48"/>
      </g>
     </g>
    </g>
    <g id="ytick_3">
     <g id="line2d_11">
      <g>
       <use style="stroke:#000000;" x="61.902188" xlink:href="#md80af8f46a" y="98.942941"/>
      </g>
     </g>
     <g id="text_11">
      <!-- 0 -->
      <g transform="translate(45.203688 103.957909)scale(0.132 -0.132)">
       <use xlink:href="#DejaVuSans-48"/>
      </g>
     </g>
    </g>
    <g id="ytick_4">
     <g id="line2d_12">
      <g>
       <use style="stroke:#000000;" x="61.902188" xlink:href="#md80af8f46a" y="62.736051"/>
      </g>
     </g>
     <g id="text_12">
      <!-- 20 -->
      <g transform="translate(36.805188 67.751019)scale(0.132 -0.132)">
       <use xlink:href="#DejaVuSans-50"/>
       <use x="63.623047" xlink:href="#DejaVuSans-48"/>
      </g>
     </g>
    </g>
    <g id="ytick_5">
     <g id="line2d_13">
      <g>
       <use style="stroke:#000000;" x="61.902188" xlink:href="#md80af8f46a" y="26.529161"/>
      </g>
     </g>
     <g id="text_13">
      <!-- 40 -->
      <g transform="translate(36.805188 31.544129)scale(0.132 -0.132)">
       <use xlink:href="#DejaVuSans-52"/>
       <use x="63.623047" xlink:href="#DejaVuSans-48"/>
      </g>
     </g>
    </g>
    <g id="text_14">
     <!-- rmse | spread [$m$] -->
     <defs>
      <path d="M 41.109375 46.296875 
Q 39.59375 47.171875 37.8125 47.578125 
Q 36.03125 48 33.890625 48 
Q 26.265625 48 22.1875 43.046875 
Q 18.109375 38.09375 18.109375 28.8125 
L 18.109375 0 
L 9.078125 0 
L 9.078125 54.6875 
L 18.109375 54.6875 
L 18.109375 46.1875 
Q 20.953125 51.171875 25.484375 53.578125 
Q 30.03125 56 36.53125 56 
Q 37.453125 56 38.578125 55.875 
Q 39.703125 55.765625 41.0625 55.515625 
z
" id="DejaVuSans-114"/>
      <path d="M 44.28125 53.078125 
L 44.28125 44.578125 
Q 40.484375 46.53125 36.375 47.5 
Q 32.28125 48.484375 27.875 48.484375 
Q 21.1875 48.484375 17.84375 46.4375 
Q 14.5 44.390625 14.5 40.28125 
Q 14.5 37.15625 16.890625 35.375 
Q 19.28125 33.59375 26.515625 31.984375 
L 29.59375 31.296875 
Q 39.15625 29.25 43.1875 25.515625 
Q 47.21875 21.78125 47.21875 15.09375 
Q 47.21875 7.46875 41.1875 3.015625 
Q 35.15625 -1.421875 24.609375 -1.421875 
Q 20.21875 -1.421875 15.453125 -0.5625 
Q 10.6875 0.296875 5.421875 2 
L 5.421875 11.28125 
Q 10.40625 8.6875 15.234375 7.390625 
Q 20.0625 6.109375 24.8125 6.109375 
Q 31.15625 6.109375 34.5625 8.28125 
Q 37.984375 10.453125 37.984375 14.40625 
Q 37.984375 18.0625 35.515625 20.015625 
Q 33.0625 21.96875 24.703125 23.78125 
L 21.578125 24.515625 
Q 13.234375 26.265625 9.515625 29.90625 
Q 5.8125 33.546875 5.8125 39.890625 
Q 5.8125 47.609375 11.28125 51.796875 
Q 16.75 56 26.8125 56 
Q 31.78125 56 36.171875 55.265625 
Q 40.578125 54.546875 44.28125 53.078125 
z
" id="DejaVuSans-115"/>
      <path d="M 21 76.421875 
L 21 -23.578125 
L 12.703125 -23.578125 
L 12.703125 76.421875 
z
" id="DejaVuSans-124"/>
      <path d="M 18.109375 8.203125 
L 18.109375 -20.796875 
L 9.078125 -20.796875 
L 9.078125 54.6875 
L 18.109375 54.6875 
L 18.109375 46.390625 
Q 20.953125 51.265625 25.265625 53.625 
Q 29.59375 56 35.59375 56 
Q 45.5625 56 51.78125 48.09375 
Q 58.015625 40.1875 58.015625 27.296875 
Q 58.015625 14.40625 51.78125 6.484375 
Q 45.5625 -1.421875 35.59375 -1.421875 
Q 29.59375 -1.421875 25.265625 0.953125 
Q 20.953125 3.328125 18.109375 8.203125 
z
M 48.6875 27.296875 
Q 48.6875 37.203125 44.609375 42.84375 
Q 40.53125 48.484375 33.40625 48.484375 
Q 26.265625 48.484375 22.1875 42.84375 
Q 18.109375 37.203125 18.109375 27.296875 
Q 18.109375 17.390625 22.1875 11.75 
Q 26.265625 6.109375 33.40625 6.109375 
Q 40.53125 6.109375 44.609375 11.75 
Q 48.6875 17.390625 48.6875 27.296875 
z
" id="DejaVuSans-112"/>
      <path d="M 89.796875 33.015625 
L 83.40625 0 
L 74.421875 0 
L 80.71875 32.71875 
Q 81.109375 34.8125 81.296875 36.328125 
Q 81.5 37.84375 81.5 38.921875 
Q 81.5 43.3125 79.046875 45.75 
Q 76.609375 48.1875 72.21875 48.1875 
Q 65.671875 48.1875 60.546875 43.28125 
Q 55.421875 38.375 53.90625 30.515625 
L 47.90625 0 
L 38.921875 0 
L 45.3125 32.71875 
Q 45.703125 34.515625 45.890625 36.046875 
Q 46.09375 37.59375 46.09375 38.8125 
Q 46.09375 43.265625 43.65625 45.71875 
Q 41.21875 48.1875 36.921875 48.1875 
Q 30.28125 48.1875 25.140625 43.28125 
Q 20.015625 38.375 18.5 30.515625 
L 12.5 0 
L 3.515625 0 
L 14.203125 54.6875 
L 23.1875 54.6875 
L 21.484375 46.1875 
Q 25.140625 50.984375 30.046875 53.484375 
Q 34.96875 56 40.578125 56 
Q 46.53125 56 50.359375 52.875 
Q 54.203125 49.75 54.984375 44.1875 
Q 59.078125 49.953125 64.46875 52.96875 
Q 69.875 56 75.875 56 
Q 82.90625 56 86.734375 51.953125 
Q 90.578125 47.90625 90.578125 40.484375 
Q 90.578125 38.875 90.375 36.9375 
Q 90.1875 35.015625 89.796875 33.015625 
z
" id="DejaVuSans-Oblique-109"/>
     </defs>
     <g transform="translate(18.288 171.8475)rotate(-90)scale(0.144 -0.144)">
      <use transform="translate(0 0.578125)" xlink:href="#DejaVuSans-114"/>
      <use transform="translate(41.113281 0.578125)" xlink:href="#DejaVuSans-109"/>
      <use transform="translate(138.525391 0.578125)" xlink:href="#DejaVuSans-115"/>
      <use transform="translate(190.625 0.578125)" xlink:href="#DejaVuSans-101"/>
      <use transform="translate(252.148438 0.578125)" xlink:href="#DejaVuSans-32"/>
      <use transform="translate(283.935547 0.578125)" xlink:href="#DejaVuSans-124"/>
      <use transform="translate(317.626953 0.578125)" xlink:href="#DejaVuSans-32"/>
      <use transform="translate(349.414062 0.578125)" xlink:href="#DejaVuSans-115"/>
      <use transform="translate(401.513672 0.578125)" xlink:href="#DejaVuSans-112"/>
      <use transform="translate(464.990234 0.578125)" xlink:href="#DejaVuSans-114"/>
      <use transform="translate(506.103516 0.578125)" xlink:href="#DejaVuSans-101"/>
      <use transform="translate(567.626953 0.578125)" xlink:href="#DejaVuSans-97"/>
      <use transform="translate(628.90625 0.578125)" xlink:href="#DejaVuSans-100"/>
      <use transform="translate(692.382812 0.578125)" xlink:href="#DejaVuSans-32"/>
      <use transform="translate(724.169922 0.578125)" xlink:href="#DejaVuSans-91"/>
      <use transform="translate(763.183594 0.578125)" xlink:href="#DejaVuSans-Oblique-109"/>
      <use transform="translate(860.595703 0.578125)" xlink:href="#DejaVuSans-93"/>
     </g>
    </g>
   </g>
   <g id="line2d_14">
    <path clip-path="url(#pb9570ca522)" d="M 80.924915 98.942906 
L 110.190649 103.133782 
L 139.456383 99.518227 
L 168.722118 99.071573 
L 197.987852 100.223291 
L 227.253586 101.790877 
L 256.51932 103.164749 
L 285.785055 104.172038 
L 315.050789 104.771812 
L 344.316523 104.808352 
L 373.582257 104.802115 
L 402.847992 104.581715 
L 432.113726 104.182554 
L 461.37946 103.745842 
" style="fill:none;stroke:#1b9e77;stroke-linecap:square;stroke-width:2.5;"/>
   </g>
   <g id="line2d_15">
    <path clip-path="url(#pb9570ca522)" d="M 80.924915 98.942906 
L 110.190649 91.789364 
L 139.456383 90.998221 
L 168.722118 90.167277 
L 197.987852 90.203758 
L 227.253586 90.439526 
L 256.51932 90.396164 
L 285.785055 90.063978 
L 315.050789 89.700813 
L 344.316523 89.298044 
L 373.582257 88.787789 
L 402.847992 87.739225 
L 432.113726 86.450054 
L 461.37946 85.263988 
" style="fill:none;stroke:#7570b3;stroke-linecap:square;stroke-width:2.5;"/>
   </g>
   <g id="line2d_16">
    <path clip-path="url(#pb9570ca522)" d="M 80.924915 98.942941 
L 110.190649 87.598522 
L 139.456383 90.422935 
L 168.722118 90.038645 
L 197.987852 88.923407 
L 227.253586 87.59159 
L 256.51932 86.174356 
L 285.785055 84.834881 
L 315.050789 83.871943 
L 344.316523 83.432632 
L 373.582257 82.928614 
L 402.847992 82.100451 
L 432.113726 81.210442 
L 461.37946 80.461087 
" style="fill:none;stroke:#d95f02;stroke-linecap:square;stroke-width:2.5;"/>
   </g>
   <g id="line2d_17">
    <path clip-path="url(#pb9570ca522)" d="M 80.924915 162.208649 
L 110.190649 78.754056 
L 139.456383 54.875931 
L 168.722118 47.554629 
L 197.987852 50.839811 
L 227.253586 56.909224 
L 256.51932 61.813816 
L 285.785055 65.120288 
L 315.050789 67.571551 
L 344.316523 69.827742 
L 373.582257 72.029452 
L 402.847992 74.051153 
L 432.113726 75.783426 
L 461.37946 77.349415 
" style="fill:none;stroke:#1b9e77;stroke-dasharray:9.25,4;stroke-dashoffset:0;stroke-width:2.5;"/>
   </g>
   <g id="line2d_18">
    <path clip-path="url(#pb9570ca522)" d="M 80.924915 94.713208 
L 110.190649 90.822545 
L 139.456383 73.95886 
L 168.722118 74.301876 
L 197.987852 85.247976 
L 227.253586 98.631995 
L 256.51932 110.304168 
L 285.785055 119.563305 
L 315.050789 127.304428 
L 344.316523 134.426366 
L 373.582257 141.21261 
L 402.847992 147.810714 
L 432.113726 154.230031 
L 461.37946 160.499391 
" style="fill:none;stroke:#7570b3;stroke-dasharray:9.25,4;stroke-dashoffset:0;stroke-width:2.5;"/>
   </g>
   <g id="line2d_19">
    <path clip-path="url(#pb9570ca522)" d="M 80.924915 31.4475 
L 110.190649 111.011429 
L 139.456383 118.02587 
L 168.722118 125.690188 
L 197.987852 133.351105 
L 227.253586 140.665712 
L 256.51932 147.433293 
L 285.785055 153.385957 
L 315.050789 158.675818 
L 344.316523 163.541565 
L 373.582257 168.126099 
L 402.847992 172.702501 
L 432.113726 177.389545 
L 461.37946 182.092917 
" style="fill:none;stroke:#d95f02;stroke-dasharray:9.25,4;stroke-dashoffset:0;stroke-width:2.5;"/>
   </g>
   <g id="patch_3">
    <path d="M 61.902188 190.2075 
L 61.902188 23.8875 
" style="fill:none;stroke:#000000;stroke-linecap:square;stroke-linejoin:miter;"/>
   </g>
   <g id="patch_4">
    <path d="M 61.902188 190.2075 
L 480.402188 190.2075 
" style="fill:none;stroke:#000000;stroke-linecap:square;stroke-linejoin:miter;"/>
   </g>
   <g id="text_15">
    <!-- n_ens:10 -->
    <defs>
     <path d="M 54.890625 33.015625 
L 54.890625 0 
L 45.90625 0 
L 45.90625 32.71875 
Q 45.90625 40.484375 42.875 44.328125 
Q 39.84375 48.1875 33.796875 48.1875 
Q 26.515625 48.1875 22.3125 43.546875 
Q 18.109375 38.921875 18.109375 30.90625 
L 18.109375 0 
L 9.078125 0 
L 9.078125 54.6875 
L 18.109375 54.6875 
L 18.109375 46.1875 
Q 21.34375 51.125 25.703125 53.5625 
Q 30.078125 56 35.796875 56 
Q 45.21875 56 50.046875 50.171875 
Q 54.890625 44.34375 54.890625 33.015625 
z
" id="DejaVuSans-110"/>
     <path d="M 50.984375 -16.609375 
L 50.984375 -23.578125 
L -0.984375 -23.578125 
L -0.984375 -16.609375 
z
" id="DejaVuSans-95"/>
     <path d="M 11.71875 12.40625 
L 22.015625 12.40625 
L 22.015625 0 
L 11.71875 0 
z
M 11.71875 51.703125 
L 22.015625 51.703125 
L 22.015625 39.3125 
L 11.71875 39.3125 
z
" id="DejaVuSans-58"/>
    </defs>
    <g transform="translate(238.657688 17.8875)scale(0.144 -0.144)">
     <use xlink:href="#DejaVuSans-110"/>
     <use x="63.378906" xlink:href="#DejaVuSans-95"/>
     <use x="113.378906" xlink:href="#DejaVuSans-101"/>
     <use x="174.902344" xlink:href="#DejaVuSans-110"/>
     <use x="238.28125" xlink:href="#DejaVuSans-115"/>
     <use x="290.380859" xlink:href="#DejaVuSans-58"/>
     <use x="324.072266" xlink:href="#DejaVuSans-49"/>
     <use x="387.695312" xlink:href="#DejaVuSans-48"/>
    </g>
   </g>
   <g id="legend_1">
    <g id="patch_5">
     <path d="M 70.298828 184.2099 
L 226.376996 184.2099 
Q 228.776036 184.2099 228.776036 181.81086 
L 228.776036 101.360553 
Q 228.776036 98.961513 226.376996 98.961513 
L 70.298828 98.961513 
Q 67.899788 98.961513 67.899788 101.360553 
L 67.899788 181.81086 
Q 67.899788 184.2099 70.298828 184.2099 
z
" style="fill:#ffffff;opacity:0.4;stroke:#cccccc;stroke-linejoin:miter;stroke-width:0.8;"/>
    </g>
    <g id="line2d_20">
     <path d="M 72.697868 108.675751 
L 96.688267 108.675751 
" style="fill:none;stroke:#1b9e77;stroke-linecap:square;stroke-width:2.5;"/>
    </g>
    <g id="line2d_21"/>
    <g id="text_16">
     <!-- rmse svd-rand -->
     <defs>
      <path d="M 2.984375 54.6875 
L 12.5 54.6875 
L 29.59375 8.796875 
L 46.6875 54.6875 
L 56.203125 54.6875 
L 35.6875 0 
L 23.484375 0 
z
" id="DejaVuSans-118"/>
      <path d="M 4.890625 31.390625 
L 31.203125 31.390625 
L 31.203125 23.390625 
L 4.890625 23.390625 
z
" id="DejaVuSans-45"/>
     </defs>
     <g transform="translate(106.284428 112.874071)scale(0.119952 -0.119952)">
      <use xlink:href="#DejaVuSans-114"/>
      <use x="41.097656" xlink:href="#DejaVuSans-109"/>
      <use x="138.509766" xlink:href="#DejaVuSans-115"/>
      <use x="190.609375" xlink:href="#DejaVuSans-101"/>
      <use x="252.132812" xlink:href="#DejaVuSans-32"/>
      <use x="283.919922" xlink:href="#DejaVuSans-115"/>
      <use x="336.019531" xlink:href="#DejaVuSans-118"/>
      <use x="395.199219" xlink:href="#DejaVuSans-100"/>
      <use x="458.675781" xlink:href="#DejaVuSans-45"/>
      <use x="494.759766" xlink:href="#DejaVuSans-114"/>
      <use x="535.873047" xlink:href="#DejaVuSans-97"/>
      <use x="597.152344" xlink:href="#DejaVuSans-110"/>
      <use x="660.53125" xlink:href="#DejaVuSans-100"/>
     </g>
    </g>
    <g id="line2d_22">
     <path d="M 72.697868 121.484375 
L 96.688267 121.484375 
" style="fill:none;stroke:#7570b3;stroke-linecap:square;stroke-width:2.5;"/>
    </g>
    <g id="line2d_23"/>
    <g id="text_17">
     <!-- rmse svd-netens -->
     <g transform="translate(106.284428 125.682695)scale(0.119952 -0.119952)">
      <use xlink:href="#DejaVuSans-114"/>
      <use x="41.097656" xlink:href="#DejaVuSans-109"/>
      <use x="138.509766" xlink:href="#DejaVuSans-115"/>
      <use x="190.609375" xlink:href="#DejaVuSans-101"/>
      <use x="252.132812" xlink:href="#DejaVuSans-32"/>
      <use x="283.919922" xlink:href="#DejaVuSans-115"/>
      <use x="336.019531" xlink:href="#DejaVuSans-118"/>
      <use x="395.199219" xlink:href="#DejaVuSans-100"/>
      <use x="458.675781" xlink:href="#DejaVuSans-45"/>
      <use x="494.759766" xlink:href="#DejaVuSans-110"/>
      <use x="558.138672" xlink:href="#DejaVuSans-101"/>
      <use x="619.662109" xlink:href="#DejaVuSans-116"/>
      <use x="658.871094" xlink:href="#DejaVuSans-101"/>
      <use x="720.394531" xlink:href="#DejaVuSans-110"/>
      <use x="783.773438" xlink:href="#DejaVuSans-115"/>
     </g>
    </g>
    <g id="line2d_24">
     <path d="M 72.697868 134.293 
L 96.688267 134.293 
" style="fill:none;stroke:#d95f02;stroke-linecap:square;stroke-width:2.5;"/>
    </g>
    <g id="line2d_25"/>
    <g id="text_18">
     <!-- rmse rand-netens -->
     <g transform="translate(106.284428 138.49132)scale(0.119952 -0.119952)">
      <use xlink:href="#DejaVuSans-114"/>
      <use x="41.097656" xlink:href="#DejaVuSans-109"/>
      <use x="138.509766" xlink:href="#DejaVuSans-115"/>
      <use x="190.609375" xlink:href="#DejaVuSans-101"/>
      <use x="252.132812" xlink:href="#DejaVuSans-32"/>
      <use x="283.919922" xlink:href="#DejaVuSans-114"/>
      <use x="325.033203" xlink:href="#DejaVuSans-97"/>
      <use x="386.3125" xlink:href="#DejaVuSans-110"/>
      <use x="449.691406" xlink:href="#DejaVuSans-100"/>
      <use x="513.167969" xlink:href="#DejaVuSans-45"/>
      <use x="549.251953" xlink:href="#DejaVuSans-110"/>
      <use x="612.630859" xlink:href="#DejaVuSans-101"/>
      <use x="674.154297" xlink:href="#DejaVuSans-116"/>
      <use x="713.363281" xlink:href="#DejaVuSans-101"/>
      <use x="774.886719" xlink:href="#DejaVuSans-110"/>
      <use x="838.265625" xlink:href="#DejaVuSans-115"/>
     </g>
    </g>
    <g id="line2d_26">
     <path d="M 72.697868 147.101624 
L 96.688267 147.101624 
" style="fill:none;stroke:#1b9e77;stroke-dasharray:9.25,4;stroke-dashoffset:0;stroke-width:2.5;"/>
    </g>
    <g id="line2d_27"/>
    <g id="text_19">
     <!-- spread svd-rand -->
     <g transform="translate(106.284428 151.299944)scale(0.119952 -0.119952)">
      <use xlink:href="#DejaVuSans-115"/>
      <use x="52.099609" xlink:href="#DejaVuSans-112"/>
      <use x="115.576172" xlink:href="#DejaVuSans-114"/>
      <use x="156.658203" xlink:href="#DejaVuSans-101"/>
      <use x="218.181641" xlink:href="#DejaVuSans-97"/>
      <use x="279.460938" xlink:href="#DejaVuSans-100"/>
      <use x="342.9375" xlink:href="#DejaVuSans-32"/>
      <use x="374.724609" xlink:href="#DejaVuSans-115"/>
      <use x="426.824219" xlink:href="#DejaVuSans-118"/>
      <use x="486.003906" xlink:href="#DejaVuSans-100"/>
      <use x="549.480469" xlink:href="#DejaVuSans-45"/>
      <use x="585.564453" xlink:href="#DejaVuSans-114"/>
      <use x="626.677734" xlink:href="#DejaVuSans-97"/>
      <use x="687.957031" xlink:href="#DejaVuSans-110"/>
      <use x="751.335938" xlink:href="#DejaVuSans-100"/>
     </g>
    </g>
    <g id="line2d_28">
     <path d="M 72.697868 159.910249 
L 96.688267 159.910249 
" style="fill:none;stroke:#7570b3;stroke-dasharray:9.25,4;stroke-dashoffset:0;stroke-width:2.5;"/>
    </g>
    <g id="line2d_29"/>
    <g id="text_20">
     <!-- spread svd-netens -->
     <g transform="translate(106.284428 164.108569)scale(0.119952 -0.119952)">
      <use xlink:href="#DejaVuSans-115"/>
      <use x="52.099609" xlink:href="#DejaVuSans-112"/>
      <use x="115.576172" xlink:href="#DejaVuSans-114"/>
      <use x="156.658203" xlink:href="#DejaVuSans-101"/>
      <use x="218.181641" xlink:href="#DejaVuSans-97"/>
      <use x="279.460938" xlink:href="#DejaVuSans-100"/>
      <use x="342.9375" xlink:href="#DejaVuSans-32"/>
      <use x="374.724609" xlink:href="#DejaVuSans-115"/>
      <use x="426.824219" xlink:href="#DejaVuSans-118"/>
      <use x="486.003906" xlink:href="#DejaVuSans-100"/>
      <use x="549.480469" xlink:href="#DejaVuSans-45"/>
      <use x="585.564453" xlink:href="#DejaVuSans-110"/>
      <use x="648.943359" xlink:href="#DejaVuSans-101"/>
      <use x="710.466797" xlink:href="#DejaVuSans-116"/>
      <use x="749.675781" xlink:href="#DejaVuSans-101"/>
      <use x="811.199219" xlink:href="#DejaVuSans-110"/>
      <use x="874.578125" xlink:href="#DejaVuSans-115"/>
     </g>
    </g>
    <g id="line2d_30">
     <path d="M 72.697868 172.718873 
L 96.688267 172.718873 
" style="fill:none;stroke:#d95f02;stroke-dasharray:9.25,4;stroke-dashoffset:0;stroke-width:2.5;"/>
    </g>
    <g id="line2d_31"/>
    <g id="text_21">
     <!-- spread rand-netens -->
     <g transform="translate(106.284428 176.917193)scale(0.119952 -0.119952)">
      <use xlink:href="#DejaVuSans-115"/>
      <use x="52.099609" xlink:href="#DejaVuSans-112"/>
      <use x="115.576172" xlink:href="#DejaVuSans-114"/>
      <use x="156.658203" xlink:href="#DejaVuSans-101"/>
      <use x="218.181641" xlink:href="#DejaVuSans-97"/>
      <use x="279.460938" xlink:href="#DejaVuSans-100"/>
      <use x="342.9375" xlink:href="#DejaVuSans-32"/>
      <use x="374.724609" xlink:href="#DejaVuSans-114"/>
      <use x="415.837891" xlink:href="#DejaVuSans-97"/>
      <use x="477.117188" xlink:href="#DejaVuSans-110"/>
      <use x="540.496094" xlink:href="#DejaVuSans-100"/>
      <use x="603.972656" xlink:href="#DejaVuSans-45"/>
      <use x="640.056641" xlink:href="#DejaVuSans-110"/>
      <use x="703.435547" xlink:href="#DejaVuSans-101"/>
      <use x="764.958984" xlink:href="#DejaVuSans-116"/>
      <use x="804.167969" xlink:href="#DejaVuSans-101"/>
      <use x="865.691406" xlink:href="#DejaVuSans-110"/>
      <use x="929.070312" xlink:href="#DejaVuSans-115"/>
     </g>
    </g>
   </g>
  </g>
 </g>
 <defs>
  <clipPath id="pb9570ca522">
   <rect height="166.32" width="418.5" x="61.902188" y="23.8875"/>
  </clipPath>
 </defs>
</svg>
