<?xml version="1.0" encoding="utf-8" standalone="no"?>
<!DOCTYPE svg PUBLIC "-//W3C//DTD SVG 1.1//EN"
  "http://www.w3.org/Graphics/SVG/1.1/DTD/svg11.dtd">
<!-- Created with matplotlib (https://matplotlib.org/) -->
<svg height="222.467625pt" version="1.1" viewBox="0 0 499.588312 222.467625" width="499.588312pt" xmlns="http://www.w3.org/2000/svg" xmlns:xlink="http://www.w3.org/1999/xlink">
 <defs>
  <style type="text/css">
*{stroke-linecap:butt;stroke-linejoin:round;}
  </style>
 </defs>
 <g id="figure_1">
  <g id="patch_1">
   <path d="M 0 222.467625 
L 499.588312 222.467625 
L 499.588312 0 
L 0 0 
z
" style="fill:#ffffff;"/>
  </g>
  <g id="axes_1">
   <g id="patch_2">
    <path d="M 73.888313 176.256 
L 492.388312 176.256 
L 492.388312 9.936 
L 73.888313 9.936 
z
" style="fill:#ffffff;"/>
   </g>
   <g id="matplotlib.axis_1">
    <g id="xtick_1">
     <g id="line2d_1">
      <defs>
       <path d="M 0 0 
L 0 4.8 
" id="m53d360cd95" style="stroke:#000000;"/>
      </defs>
      <g>
       <use style="stroke:#000000;" x="92.91104" xlink:href="#m53d360cd95" y="176.256"/>
      </g>
     </g>
     <g id="text_1">
      <!-- 0 -->
      <defs>
       <path d="M 31.78125 66.40625 
Q 24.171875 66.40625 20.328125 58.90625 
Q 16.5 51.421875 16.5 36.375 
Q 16.5 21.390625 20.328125 13.890625 
Q 24.171875 6.390625 31.78125 6.390625 
Q 39.453125 6.390625 43.28125 13.890625 
Q 47.125 21.390625 47.125 36.375 
Q 47.125 51.421875 43.28125 58.90625 
Q 39.453125 66.40625 31.78125 66.40625 
z
M 31.78125 74.21875 
Q 44.046875 74.21875 50.515625 64.515625 
Q 56.984375 54.828125 56.984375 36.375 
Q 56.984375 17.96875 50.515625 8.265625 
Q 44.046875 -1.421875 31.78125 -1.421875 
Q 19.53125 -1.421875 13.0625 8.265625 
Q 6.59375 17.96875 6.59375 36.375 
Q 6.59375 54.828125 13.0625 64.515625 
Q 19.53125 74.21875 31.78125 74.21875 
z
" id="DejaVuSans-48"/>
      </defs>
      <g transform="translate(88.71179 194.585938)scale(0.132 -0.132)">
       <use xlink:href="#DejaVuSans-48"/>
      </g>
     </g>
    </g>
    <g id="xtick_2">
     <g id="line2d_2">
      <g>
       <use style="stroke:#000000;" x="159.657451" xlink:href="#m53d360cd95" y="176.256"/>
      </g>
     </g>
     <g id="text_2">
      <!-- 20 -->
      <defs>
       <path d="M 19.1875 8.296875 
L 53.609375 8.296875 
L 53.609375 0 
L 7.328125 0 
L 7.328125 8.296875 
Q 12.9375 14.109375 22.625 23.890625 
Q 32.328125 33.6875 34.8125 36.53125 
Q 39.546875 41.84375 41.421875 45.53125 
Q 43.3125 49.21875 43.3125 52.78125 
Q 43.3125 58.59375 39.234375 62.25 
Q 35.15625 65.921875 28.609375 65.921875 
Q 23.96875 65.921875 18.8125 64.3125 
Q 13.671875 62.703125 7.8125 59.421875 
L 7.8125 69.390625 
Q 13.765625 71.78125 18.9375 73 
Q 24.125 74.21875 28.421875 74.21875 
Q 39.75 74.21875 46.484375 68.546875 
Q 53.21875 62.890625 53.21875 53.421875 
Q 53.21875 48.921875 51.53125 44.890625 
Q 49.859375 40.875 45.40625 35.40625 
Q 44.1875 33.984375 37.640625 27.21875 
Q 31.109375 20.453125 19.1875 8.296875 
z
" id="DejaVuSans-50"/>
      </defs>
      <g transform="translate(151.258951 194.585938)scale(0.132 -0.132)">
       <use xlink:href="#DejaVuSans-50"/>
       <use x="63.623047" xlink:href="#DejaVuSans-48"/>
      </g>
     </g>
    </g>
    <g id="xtick_3">
     <g id="line2d_3">
      <g>
       <use style="stroke:#000000;" x="226.403863" xlink:href="#m53d360cd95" y="176.256"/>
      </g>
     </g>
     <g id="text_3">
      <!-- 40 -->
      <defs>
       <path d="M 37.796875 64.3125 
L 12.890625 25.390625 
L 37.796875 25.390625 
z
M 35.203125 72.90625 
L 47.609375 72.90625 
L 47.609375 25.390625 
L 58.015625 25.390625 
L 58.015625 17.1875 
L 47.609375 17.1875 
L 47.609375 0 
L 37.796875 0 
L 37.796875 17.1875 
L 4.890625 17.1875 
L 4.890625 26.703125 
z
" id="DejaVuSans-52"/>
      </defs>
      <g transform="translate(218.005363 194.585938)scale(0.132 -0.132)">
       <use xlink:href="#DejaVuSans-52"/>
       <use x="63.623047" xlink:href="#DejaVuSans-48"/>
      </g>
     </g>
    </g>
    <g id="xtick_4">
     <g id="line2d_4">
      <g>
       <use style="stroke:#000000;" x="293.150274" xlink:href="#m53d360cd95" y="176.256"/>
      </g>
     </g>
     <g id="text_4">
      <!-- 60 -->
      <defs>
       <path d="M 33.015625 40.375 
Q 26.375 40.375 22.484375 35.828125 
Q 18.609375 31.296875 18.609375 23.390625 
Q 18.609375 15.53125 22.484375 10.953125 
Q 26.375 6.390625 33.015625 6.390625 
Q 39.65625 6.390625 43.53125 10.953125 
Q 47.40625 15.53125 47.40625 23.390625 
Q 47.40625 31.296875 43.53125 35.828125 
Q 39.65625 40.375 33.015625 40.375 
z
M 52.59375 71.296875 
L 52.59375 62.3125 
Q 48.875 64.0625 45.09375 64.984375 
Q 41.3125 65.921875 37.59375 65.921875 
Q 27.828125 65.921875 22.671875 59.328125 
Q 17.53125 52.734375 16.796875 39.40625 
Q 19.671875 43.65625 24.015625 45.921875 
Q 28.375 48.1875 33.59375 48.1875 
Q 44.578125 48.1875 50.953125 41.515625 
Q 57.328125 34.859375 57.328125 23.390625 
Q 57.328125 12.15625 50.6875 5.359375 
Q 44.046875 -1.421875 33.015625 -1.421875 
Q 20.359375 -1.421875 13.671875 8.265625 
Q 6.984375 17.96875 6.984375 36.375 
Q 6.984375 53.65625 15.1875 63.9375 
Q 23.390625 74.21875 37.203125 74.21875 
Q 40.921875 74.21875 44.703125 73.484375 
Q 48.484375 72.75 52.59375 71.296875 
z
" id="DejaVuSans-54"/>
      </defs>
      <g transform="translate(284.751774 194.585938)scale(0.132 -0.132)">
       <use xlink:href="#DejaVuSans-54"/>
       <use x="63.623047" xlink:href="#DejaVuSans-48"/>
      </g>
     </g>
    </g>
    <g id="xtick_5">
     <g id="line2d_5">
      <g>
       <use style="stroke:#000000;" x="359.896686" xlink:href="#m53d360cd95" y="176.256"/>
      </g>
     </g>
     <g id="text_5">
      <!-- 80 -->
      <defs>
       <path d="M 31.78125 34.625 
Q 24.75 34.625 20.71875 30.859375 
Q 16.703125 27.09375 16.703125 20.515625 
Q 16.703125 13.921875 20.71875 10.15625 
Q 24.75 6.390625 31.78125 6.390625 
Q 38.8125 6.390625 42.859375 10.171875 
Q 46.921875 13.96875 46.921875 20.515625 
Q 46.921875 27.09375 42.890625 30.859375 
Q 38.875 34.625 31.78125 34.625 
z
M 21.921875 38.8125 
Q 15.578125 40.375 12.03125 44.71875 
Q 8.5 49.078125 8.5 55.328125 
Q 8.5 64.0625 14.71875 69.140625 
Q 20.953125 74.21875 31.78125 74.21875 
Q 42.671875 74.21875 48.875 69.140625 
Q 55.078125 64.0625 55.078125 55.328125 
Q 55.078125 49.078125 51.53125 44.71875 
Q 48 40.375 41.703125 38.8125 
Q 48.828125 37.15625 52.796875 32.3125 
Q 56.78125 27.484375 56.78125 20.515625 
Q 56.78125 9.90625 50.3125 4.234375 
Q 43.84375 -1.421875 31.78125 -1.421875 
Q 19.734375 -1.421875 13.25 4.234375 
Q 6.78125 9.90625 6.78125 20.515625 
Q 6.78125 27.484375 10.78125 32.3125 
Q 14.796875 37.15625 21.921875 38.8125 
z
M 18.3125 54.390625 
Q 18.3125 48.734375 21.84375 45.5625 
Q 25.390625 42.390625 31.78125 42.390625 
Q 38.140625 42.390625 41.71875 45.5625 
Q 45.3125 48.734375 45.3125 54.390625 
Q 45.3125 60.0625 41.71875 63.234375 
Q 38.140625 66.40625 31.78125 66.40625 
Q 25.390625 66.40625 21.84375 63.234375 
Q 18.3125 60.0625 18.3125 54.390625 
z
" id="DejaVuSans-56"/>
      </defs>
      <g transform="translate(351.498186 194.585938)scale(0.132 -0.132)">
       <use xlink:href="#DejaVuSans-56"/>
       <use x="63.623047" xlink:href="#DejaVuSans-48"/>
      </g>
     </g>
    </g>
    <g id="xtick_6">
     <g id="line2d_6">
      <g>
       <use style="stroke:#000000;" x="426.643097" xlink:href="#m53d360cd95" y="176.256"/>
      </g>
     </g>
     <g id="text_6">
      <!-- 100 -->
      <defs>
       <path d="M 12.40625 8.296875 
L 28.515625 8.296875 
L 28.515625 63.921875 
L 10.984375 60.40625 
L 10.984375 69.390625 
L 28.421875 72.90625 
L 38.28125 72.90625 
L 38.28125 8.296875 
L 54.390625 8.296875 
L 54.390625 0 
L 12.40625 0 
z
" id="DejaVuSans-49"/>
      </defs>
      <g transform="translate(414.045347 194.585938)scale(0.132 -0.132)">
       <use xlink:href="#DejaVuSans-49"/>
       <use x="63.623047" xlink:href="#DejaVuSans-48"/>
       <use x="127.246094" xlink:href="#DejaVuSans-48"/>
      </g>
     </g>
    </g>
    <g id="text_7">
     <!-- leadtime [h] -->
     <defs>
      <path d="M 9.421875 75.984375 
L 18.40625 75.984375 
L 18.40625 0 
L 9.421875 0 
z
" id="DejaVuSans-108"/>
      <path d="M 56.203125 29.59375 
L 56.203125 25.203125 
L 14.890625 25.203125 
Q 15.484375 15.921875 20.484375 11.0625 
Q 25.484375 6.203125 34.421875 6.203125 
Q 39.59375 6.203125 44.453125 7.46875 
Q 49.3125 8.734375 54.109375 11.28125 
L 54.109375 2.78125 
Q 49.265625 0.734375 44.1875 -0.34375 
Q 39.109375 -1.421875 33.890625 -1.421875 
Q 20.796875 -1.421875 13.15625 6.1875 
Q 5.515625 13.8125 5.515625 26.8125 
Q 5.515625 40.234375 12.765625 48.109375 
Q 20.015625 56 32.328125 56 
Q 43.359375 56 49.78125 48.890625 
Q 56.203125 41.796875 56.203125 29.59375 
z
M 47.21875 32.234375 
Q 47.125 39.59375 43.09375 43.984375 
Q 39.0625 48.390625 32.421875 48.390625 
Q 24.90625 48.390625 20.390625 44.140625 
Q 15.875 39.890625 15.1875 32.171875 
z
" id="DejaVuSans-101"/>
      <path d="M 34.28125 27.484375 
Q 23.390625 27.484375 19.1875 25 
Q 14.984375 22.515625 14.984375 16.5 
Q 14.984375 11.71875 18.140625 8.90625 
Q 21.296875 6.109375 26.703125 6.109375 
Q 34.1875 6.109375 38.703125 11.40625 
Q 43.21875 16.703125 43.21875 25.484375 
L 43.21875 27.484375 
z
M 52.203125 31.203125 
L 52.203125 0 
L 43.21875 0 
L 43.21875 8.296875 
Q 40.140625 3.328125 35.546875 0.953125 
Q 30.953125 -1.421875 24.3125 -1.421875 
Q 15.921875 -1.421875 10.953125 3.296875 
Q 6 8.015625 6 15.921875 
Q 6 25.140625 12.171875 29.828125 
Q 18.359375 34.515625 30.609375 34.515625 
L 43.21875 34.515625 
L 43.21875 35.40625 
Q 43.21875 41.609375 39.140625 45 
Q 35.0625 48.390625 27.6875 48.390625 
Q 23 48.390625 18.546875 47.265625 
Q 14.109375 46.140625 10.015625 43.890625 
L 10.015625 52.203125 
Q 14.9375 54.109375 19.578125 55.046875 
Q 24.21875 56 28.609375 56 
Q 40.484375 56 46.34375 49.84375 
Q 52.203125 43.703125 52.203125 31.203125 
z
" id="DejaVuSans-97"/>
      <path d="M 45.40625 46.390625 
L 45.40625 75.984375 
L 54.390625 75.984375 
L 54.390625 0 
L 45.40625 0 
L 45.40625 8.203125 
Q 42.578125 3.328125 38.25 0.953125 
Q 33.9375 -1.421875 27.875 -1.421875 
Q 17.96875 -1.421875 11.734375 6.484375 
Q 5.515625 14.40625 5.515625 27.296875 
Q 5.515625 40.1875 11.734375 48.09375 
Q 17.96875 56 27.875 56 
Q 33.9375 56 38.25 53.625 
Q 42.578125 51.265625 45.40625 46.390625 
z
M 14.796875 27.296875 
Q 14.796875 17.390625 18.875 11.75 
Q 22.953125 6.109375 30.078125 6.109375 
Q 37.203125 6.109375 41.296875 11.75 
Q 45.40625 17.390625 45.40625 27.296875 
Q 45.40625 37.203125 41.296875 42.84375 
Q 37.203125 48.484375 30.078125 48.484375 
Q 22.953125 48.484375 18.875 42.84375 
Q 14.796875 37.203125 14.796875 27.296875 
z
" id="DejaVuSans-100"/>
      <path d="M 18.3125 70.21875 
L 18.3125 54.6875 
L 36.8125 54.6875 
L 36.8125 47.703125 
L 18.3125 47.703125 
L 18.3125 18.015625 
Q 18.3125 11.328125 20.140625 9.421875 
Q 21.96875 7.515625 27.59375 7.515625 
L 36.8125 7.515625 
L 36.8125 0 
L 27.59375 0 
Q 17.1875 0 13.234375 3.875 
Q 9.28125 7.765625 9.28125 18.015625 
L 9.28125 47.703125 
L 2.6875 47.703125 
L 2.6875 54.6875 
L 9.28125 54.6875 
L 9.28125 70.21875 
z
" id="DejaVuSans-116"/>
      <path d="M 9.421875 54.6875 
L 18.40625 54.6875 
L 18.40625 0 
L 9.421875 0 
z
M 9.421875 75.984375 
L 18.40625 75.984375 
L 18.40625 64.59375 
L 9.421875 64.59375 
z
" id="DejaVuSans-105"/>
      <path d="M 52 44.1875 
Q 55.375 50.25 60.0625 53.125 
Q 64.75 56 71.09375 56 
Q 79.640625 56 84.28125 50.015625 
Q 88.921875 44.046875 88.921875 33.015625 
L 88.921875 0 
L 79.890625 0 
L 79.890625 32.71875 
Q 79.890625 40.578125 77.09375 44.375 
Q 74.3125 48.1875 68.609375 48.1875 
Q 61.625 48.1875 57.5625 43.546875 
Q 53.515625 38.921875 53.515625 30.90625 
L 53.515625 0 
L 44.484375 0 
L 44.484375 32.71875 
Q 44.484375 40.625 41.703125 44.40625 
Q 38.921875 48.1875 33.109375 48.1875 
Q 26.21875 48.1875 22.15625 43.53125 
Q 18.109375 38.875 18.109375 30.90625 
L 18.109375 0 
L 9.078125 0 
L 9.078125 54.6875 
L 18.109375 54.6875 
L 18.109375 46.1875 
Q 21.1875 51.21875 25.484375 53.609375 
Q 29.78125 56 35.6875 56 
Q 41.65625 56 45.828125 52.96875 
Q 50 49.953125 52 44.1875 
z
" id="DejaVuSans-109"/>
      <path id="DejaVuSans-32"/>
      <path d="M 8.59375 75.984375 
L 29.296875 75.984375 
L 29.296875 69 
L 17.578125 69 
L 17.578125 -6.203125 
L 29.296875 -6.203125 
L 29.296875 -13.1875 
L 8.59375 -13.1875 
z
" id="DejaVuSans-91"/>
      <path d="M 54.890625 33.015625 
L 54.890625 0 
L 45.90625 0 
L 45.90625 32.71875 
Q 45.90625 40.484375 42.875 44.328125 
Q 39.84375 48.1875 33.796875 48.1875 
Q 26.515625 48.1875 22.3125 43.546875 
Q 18.109375 38.921875 18.109375 30.90625 
L 18.109375 0 
L 9.078125 0 
L 9.078125 75.984375 
L 18.109375 75.984375 
L 18.109375 46.1875 
Q 21.34375 51.125 25.703125 53.5625 
Q 30.078125 56 35.796875 56 
Q 45.21875 56 50.046875 50.171875 
Q 54.890625 44.34375 54.890625 33.015625 
z
" id="DejaVuSans-104"/>
      <path d="M 30.421875 75.984375 
L 30.421875 -13.1875 
L 9.71875 -13.1875 
L 9.71875 -6.203125 
L 21.390625 -6.203125 
L 21.390625 69 
L 9.71875 69 
L 9.71875 75.984375 
z
" id="DejaVuSans-93"/>
     </defs>
     <g transform="translate(238.988812 212.272875)scale(0.144 -0.144)">
      <use xlink:href="#DejaVuSans-108"/>
      <use x="27.783203" xlink:href="#DejaVuSans-101"/>
      <use x="89.306641" xlink:href="#DejaVuSans-97"/>
      <use x="150.585938" xlink:href="#DejaVuSans-100"/>
      <use x="214.0625" xlink:href="#DejaVuSans-116"/>
      <use x="253.271484" xlink:href="#DejaVuSans-105"/>
      <use x="281.054688" xlink:href="#DejaVuSans-109"/>
      <use x="378.466797" xlink:href="#DejaVuSans-101"/>
      <use x="439.990234" xlink:href="#DejaVuSans-32"/>
      <use x="471.777344" xlink:href="#DejaVuSans-91"/>
      <use x="510.791016" xlink:href="#DejaVuSans-104"/>
      <use x="574.169922" xlink:href="#DejaVuSans-93"/>
     </g>
    </g>
   </g>
   <g id="matplotlib.axis_2">
    <g id="ytick_1">
     <g id="line2d_7">
      <defs>
       <path d="M 0 0 
L -4.8 0 
" id="m041267e5cf" style="stroke:#000000;"/>
      </defs>
      <g>
       <use style="stroke:#000000;" x="73.888313" xlink:href="#m041267e5cf" y="162.353576"/>
      </g>
     </g>
     <g id="text_8">
      <!-- −0.25 -->
      <defs>
       <path d="M 10.59375 35.5 
L 73.1875 35.5 
L 73.1875 27.203125 
L 10.59375 27.203125 
z
" id="DejaVuSans-8722"/>
       <path d="M 10.6875 12.40625 
L 21 12.40625 
L 21 0 
L 10.6875 0 
z
" id="DejaVuSans-46"/>
       <path d="M 10.796875 72.90625 
L 49.515625 72.90625 
L 49.515625 64.59375 
L 19.828125 64.59375 
L 19.828125 46.734375 
Q 21.96875 47.46875 24.109375 47.828125 
Q 26.265625 48.1875 28.421875 48.1875 
Q 40.625 48.1875 47.75 41.5 
Q 54.890625 34.8125 54.890625 23.390625 
Q 54.890625 11.625 47.5625 5.09375 
Q 40.234375 -1.421875 26.90625 -1.421875 
Q 22.3125 -1.421875 17.546875 -0.640625 
Q 12.796875 0.140625 7.71875 1.703125 
L 7.71875 11.625 
Q 12.109375 9.234375 16.796875 8.0625 
Q 21.484375 6.890625 26.703125 6.890625 
Q 35.15625 6.890625 40.078125 11.328125 
Q 45.015625 15.765625 45.015625 23.390625 
Q 45.015625 31 40.078125 35.4375 
Q 35.15625 39.890625 26.703125 39.890625 
Q 22.75 39.890625 18.8125 39.015625 
Q 14.890625 38.140625 10.796875 36.28125 
z
" id="DejaVuSans-53"/>
      </defs>
      <g transform="translate(25.1365 167.368545)scale(0.132 -0.132)">
       <use xlink:href="#DejaVuSans-8722"/>
       <use x="83.789062" xlink:href="#DejaVuSans-48"/>
       <use x="147.412109" xlink:href="#DejaVuSans-46"/>
       <use x="179.199219" xlink:href="#DejaVuSans-50"/>
       <use x="242.822266" xlink:href="#DejaVuSans-53"/>
      </g>
     </g>
    </g>
    <g id="ytick_2">
     <g id="line2d_8">
      <g>
       <use style="stroke:#000000;" x="73.888313" xlink:href="#m041267e5cf" y="129.314052"/>
      </g>
     </g>
     <g id="text_9">
      <!-- 0.00 -->
      <g transform="translate(36.197688 134.329021)scale(0.132 -0.132)">
       <use xlink:href="#DejaVuSans-48"/>
       <use x="63.623047" xlink:href="#DejaVuSans-46"/>
       <use x="95.410156" xlink:href="#DejaVuSans-48"/>
       <use x="159.033203" xlink:href="#DejaVuSans-48"/>
      </g>
     </g>
    </g>
    <g id="ytick_3">
     <g id="line2d_9">
      <g>
       <use style="stroke:#000000;" x="73.888313" xlink:href="#m041267e5cf" y="96.274528"/>
      </g>
     </g>
     <g id="text_10">
      <!-- 0.25 -->
      <g transform="translate(36.197688 101.289497)scale(0.132 -0.132)">
       <use xlink:href="#DejaVuSans-48"/>
       <use x="63.623047" xlink:href="#DejaVuSans-46"/>
       <use x="95.410156" xlink:href="#DejaVuSans-50"/>
       <use x="159.033203" xlink:href="#DejaVuSans-53"/>
      </g>
     </g>
    </g>
    <g id="ytick_4">
     <g id="line2d_10">
      <g>
       <use style="stroke:#000000;" x="73.888313" xlink:href="#m041267e5cf" y="63.235004"/>
      </g>
     </g>
     <g id="text_11">
      <!-- 0.50 -->
      <g transform="translate(36.197688 68.249973)scale(0.132 -0.132)">
       <use xlink:href="#DejaVuSans-48"/>
       <use x="63.623047" xlink:href="#DejaVuSans-46"/>
       <use x="95.410156" xlink:href="#DejaVuSans-53"/>
       <use x="159.033203" xlink:href="#DejaVuSans-48"/>
      </g>
     </g>
    </g>
    <g id="ytick_5">
     <g id="line2d_11">
      <g>
       <use style="stroke:#000000;" x="73.888313" xlink:href="#m041267e5cf" y="30.19548"/>
      </g>
     </g>
     <g id="text_12">
      <!-- 0.75 -->
      <defs>
       <path d="M 8.203125 72.90625 
L 55.078125 72.90625 
L 55.078125 68.703125 
L 28.609375 0 
L 18.3125 0 
L 43.21875 64.59375 
L 8.203125 64.59375 
z
" id="DejaVuSans-55"/>
      </defs>
      <g transform="translate(36.197688 35.210449)scale(0.132 -0.132)">
       <use xlink:href="#DejaVuSans-48"/>
       <use x="63.623047" xlink:href="#DejaVuSans-46"/>
       <use x="95.410156" xlink:href="#DejaVuSans-55"/>
       <use x="159.033203" xlink:href="#DejaVuSans-53"/>
      </g>
     </g>
    </g>
    <g id="text_13">
     <!-- spread error correlation -->
     <defs>
      <path d="M 44.28125 53.078125 
L 44.28125 44.578125 
Q 40.484375 46.53125 36.375 47.5 
Q 32.28125 48.484375 27.875 48.484375 
Q 21.1875 48.484375 17.84375 46.4375 
Q 14.5 44.390625 14.5 40.28125 
Q 14.5 37.15625 16.890625 35.375 
Q 19.28125 33.59375 26.515625 31.984375 
L 29.59375 31.296875 
Q 39.15625 29.25 43.1875 25.515625 
Q 47.21875 21.78125 47.21875 15.09375 
Q 47.21875 7.46875 41.1875 3.015625 
Q 35.15625 -1.421875 24.609375 -1.421875 
Q 20.21875 -1.421875 15.453125 -0.5625 
Q 10.6875 0.296875 5.421875 2 
L 5.421875 11.28125 
Q 10.40625 8.6875 15.234375 7.390625 
Q 20.0625 6.109375 24.8125 6.109375 
Q 31.15625 6.109375 34.5625 8.28125 
Q 37.984375 10.453125 37.984375 14.40625 
Q 37.984375 18.0625 35.515625 20.015625 
Q 33.0625 21.96875 24.703125 23.78125 
L 21.578125 24.515625 
Q 13.234375 26.265625 9.515625 29.90625 
Q 5.8125 33.546875 5.8125 39.890625 
Q 5.8125 47.609375 11.28125 51.796875 
Q 16.75 56 26.8125 56 
Q 31.78125 56 36.171875 55.265625 
Q 40.578125 54.546875 44.28125 53.078125 
z
" id="DejaVuSans-115"/>
      <path d="M 18.109375 8.203125 
L 18.109375 -20.796875 
L 9.078125 -20.796875 
L 9.078125 54.6875 
L 18.109375 54.6875 
L 18.109375 46.390625 
Q 20.953125 51.265625 25.265625 53.625 
Q 29.59375 56 35.59375 56 
Q 45.5625 56 51.78125 48.09375 
Q 58.015625 40.1875 58.015625 27.296875 
Q 58.015625 14.40625 51.78125 6.484375 
Q 45.5625 -1.421875 35.59375 -1.421875 
Q 29.59375 -1.421875 25.265625 0.953125 
Q 20.953125 3.328125 18.109375 8.203125 
z
M 48.6875 27.296875 
Q 48.6875 37.203125 44.609375 42.84375 
Q 40.53125 48.484375 33.40625 48.484375 
Q 26.265625 48.484375 22.1875 42.84375 
Q 18.109375 37.203125 18.109375 27.296875 
Q 18.109375 17.390625 22.1875 11.75 
Q 26.265625 6.109375 33.40625 6.109375 
Q 40.53125 6.109375 44.609375 11.75 
Q 48.6875 17.390625 48.6875 27.296875 
z
" id="DejaVuSans-112"/>
      <path d="M 41.109375 46.296875 
Q 39.59375 47.171875 37.8125 47.578125 
Q 36.03125 48 33.890625 48 
Q 26.265625 48 22.1875 43.046875 
Q 18.109375 38.09375 18.109375 28.8125 
L 18.109375 0 
L 9.078125 0 
L 9.078125 54.6875 
L 18.109375 54.6875 
L 18.109375 46.1875 
Q 20.953125 51.171875 25.484375 53.578125 
Q 30.03125 56 36.53125 56 
Q 37.453125 56 38.578125 55.875 
Q 39.703125 55.765625 41.0625 55.515625 
z
" id="DejaVuSans-114"/>
      <path d="M 30.609375 48.390625 
Q 23.390625 48.390625 19.1875 42.75 
Q 14.984375 37.109375 14.984375 27.296875 
Q 14.984375 17.484375 19.15625 11.84375 
Q 23.34375 6.203125 30.609375 6.203125 
Q 37.796875 6.203125 41.984375 11.859375 
Q 46.1875 17.53125 46.1875 27.296875 
Q 46.1875 37.015625 41.984375 42.703125 
Q 37.796875 48.390625 30.609375 48.390625 
z
M 30.609375 56 
Q 42.328125 56 49.015625 48.375 
Q 55.71875 40.765625 55.71875 27.296875 
Q 55.71875 13.875 49.015625 6.21875 
Q 42.328125 -1.421875 30.609375 -1.421875 
Q 18.84375 -1.421875 12.171875 6.21875 
Q 5.515625 13.875 5.515625 27.296875 
Q 5.515625 40.765625 12.171875 48.375 
Q 18.84375 56 30.609375 56 
z
" id="DejaVuSans-111"/>
      <path d="M 48.78125 52.59375 
L 48.78125 44.1875 
Q 44.96875 46.296875 41.140625 47.34375 
Q 37.3125 48.390625 33.40625 48.390625 
Q 24.65625 48.390625 19.8125 42.84375 
Q 14.984375 37.3125 14.984375 27.296875 
Q 14.984375 17.28125 19.8125 11.734375 
Q 24.65625 6.203125 33.40625 6.203125 
Q 37.3125 6.203125 41.140625 7.25 
Q 44.96875 8.296875 48.78125 10.40625 
L 48.78125 2.09375 
Q 45.015625 0.34375 40.984375 -0.53125 
Q 36.96875 -1.421875 32.421875 -1.421875 
Q 20.0625 -1.421875 12.78125 6.34375 
Q 5.515625 14.109375 5.515625 27.296875 
Q 5.515625 40.671875 12.859375 48.328125 
Q 20.21875 56 33.015625 56 
Q 37.15625 56 41.109375 55.140625 
Q 45.0625 54.296875 48.78125 52.59375 
z
" id="DejaVuSans-99"/>
      <path d="M 54.890625 33.015625 
L 54.890625 0 
L 45.90625 0 
L 45.90625 32.71875 
Q 45.90625 40.484375 42.875 44.328125 
Q 39.84375 48.1875 33.796875 48.1875 
Q 26.515625 48.1875 22.3125 43.546875 
Q 18.109375 38.921875 18.109375 30.90625 
L 18.109375 0 
L 9.078125 0 
L 9.078125 54.6875 
L 18.109375 54.6875 
L 18.109375 46.1875 
Q 21.34375 51.125 25.703125 53.5625 
Q 30.078125 56 35.796875 56 
Q 45.21875 56 50.046875 50.171875 
Q 54.890625 44.34375 54.890625 33.015625 
z
" id="DejaVuSans-110"/>
     </defs>
     <g transform="translate(18.14175 178.992)rotate(-90)scale(0.144 -0.144)">
      <use xlink:href="#DejaVuSans-115"/>
      <use x="52.099609" xlink:href="#DejaVuSans-112"/>
      <use x="115.576172" xlink:href="#DejaVuSans-114"/>
      <use x="156.658203" xlink:href="#DejaVuSans-101"/>
      <use x="218.181641" xlink:href="#DejaVuSans-97"/>
      <use x="279.460938" xlink:href="#DejaVuSans-100"/>
      <use x="342.9375" xlink:href="#DejaVuSans-32"/>
      <use x="374.724609" xlink:href="#DejaVuSans-101"/>
      <use x="436.248047" xlink:href="#DejaVuSans-114"/>
      <use x="477.345703" xlink:href="#DejaVuSans-114"/>
      <use x="518.427734" xlink:href="#DejaVuSans-111"/>
      <use x="579.609375" xlink:href="#DejaVuSans-114"/>
      <use x="620.722656" xlink:href="#DejaVuSans-32"/>
      <use x="652.509766" xlink:href="#DejaVuSans-99"/>
      <use x="707.490234" xlink:href="#DejaVuSans-111"/>
      <use x="768.671875" xlink:href="#DejaVuSans-114"/>
      <use x="809.769531" xlink:href="#DejaVuSans-114"/>
      <use x="850.851562" xlink:href="#DejaVuSans-101"/>
      <use x="912.375" xlink:href="#DejaVuSans-108"/>
      <use x="940.158203" xlink:href="#DejaVuSans-97"/>
      <use x="1001.4375" xlink:href="#DejaVuSans-116"/>
      <use x="1040.646484" xlink:href="#DejaVuSans-105"/>
      <use x="1068.429688" xlink:href="#DejaVuSans-111"/>
      <use x="1129.611328" xlink:href="#DejaVuSans-110"/>
     </g>
    </g>
   </g>
   <g id="line2d_12">
    <path clip-path="url(#p7385518029)" d="M 92.91104 129.314052 
L 112.934963 99.207442 
L 132.958887 92.462227 
L 152.98281 94.206433 
L 173.006734 95.590245 
L 193.030657 100.829246 
L 213.05458 102.074509 
L 233.078504 101.881116 
L 253.102427 102.136342 
L 273.126351 97.96991 
L 293.150274 90.987058 
L 313.174198 81.667124 
L 333.198121 76.417511 
L 353.222045 75.392207 
L 373.245968 76.83153 
L 393.269891 78.630508 
L 413.293815 81.589306 
L 433.317738 83.75065 
L 453.341662 84.05864 
L 473.365585 82.944846 
" style="fill:none;stroke:#1b9e77;stroke-linecap:square;stroke-opacity:0.9;stroke-width:2.5;"/>
   </g>
   <g id="line2d_13">
    <path clip-path="url(#p7385518029)" d="M 92.91104 129.314052 
L 112.934963 70.207709 
L 132.958887 85.16584 
L 152.98281 91.045444 
L 173.006734 95.296775 
L 193.030657 101.307409 
L 213.05458 103.22223 
L 233.078504 102.220774 
L 253.102427 100.975147 
L 273.126351 94.549942 
L 293.150274 85.610639 
L 313.174198 75.358388 
L 333.198121 71.763036 
L 353.222045 73.713377 
L 373.245968 76.541106 
L 393.269891 78.47574 
L 413.293815 81.480425 
L 433.317738 83.594109 
L 453.341662 84.158284 
L 473.365585 83.461986 
" style="fill:none;stroke:#7570b3;stroke-linecap:square;stroke-opacity:0.9;stroke-width:2.5;"/>
   </g>
   <g id="line2d_14">
    <path clip-path="url(#p7385518029)" d="M 92.91104 129.314052 
L 112.934963 99.467138 
L 132.958887 93.764895 
L 152.98281 95.751653 
L 173.006734 98.164508 
L 193.030657 102.713487 
L 213.05458 103.71362 
L 233.078504 99.655087 
L 253.102427 94.118671 
L 273.126351 85.199396 
L 293.150274 76.150335 
L 313.174198 68.004856 
L 333.198121 65.394939 
L 353.222045 65.659558 
L 373.245968 70.193087 
L 393.269891 74.637582 
L 413.293815 80.239178 
L 433.317738 83.641763 
L 453.341662 85.841481 
L 473.365585 86.334739 
" style="fill:none;stroke:#1b9e77;stroke-linecap:square;stroke-opacity:0.9;stroke-width:2.5;"/>
   </g>
   <g id="line2d_15">
    <path clip-path="url(#p7385518029)" d="M 92.91104 129.314052 
L 112.934963 68.172954 
L 132.958887 82.888512 
L 152.98281 89.130412 
L 173.006734 92.42585 
L 193.030657 97.616303 
L 213.05458 99.937019 
L 233.078504 98.149907 
L 253.102427 93.923999 
L 273.126351 86.187689 
L 293.150274 77.048491 
L 313.174198 68.113161 
L 333.198121 64.45903 
L 353.222045 64.613108 
L 373.245968 68.45372 
L 393.269891 71.855389 
L 413.293815 76.958132 
L 433.317738 80.039845 
L 453.341662 82.703586 
L 473.365585 83.726916 
" style="fill:none;stroke:#7570b3;stroke-linecap:square;stroke-opacity:0.9;stroke-width:2.5;"/>
   </g>
   <g id="line2d_16">
    <path clip-path="url(#p7385518029)" d="M 92.91104 129.314052 
L 112.934963 97.000257 
L 132.958887 90.515398 
L 152.98281 89.30304 
L 173.006734 88.68157 
L 193.030657 90.491634 
L 213.05458 89.396872 
L 233.078504 84.078929 
L 253.102427 74.615255 
L 273.126351 66.829706 
L 293.150274 62.430075 
L 313.174198 57.468406 
L 333.198121 55.340332 
L 353.222045 54.555961 
L 373.245968 56.781478 
L 393.269891 58.342345 
L 413.293815 62.393709 
L 433.317738 65.527058 
L 453.341662 69.592717 
L 473.365585 72.50386 
" style="fill:none;stroke:#1b9e77;stroke-linecap:square;stroke-opacity:0.9;stroke-width:2.5;"/>
   </g>
   <g id="line2d_17">
    <path clip-path="url(#p7385518029)" d="M 92.91104 129.314052 
L 112.934963 63.470671 
L 132.958887 80.746452 
L 152.98281 84.559596 
L 173.006734 83.712718 
L 193.030657 84.380296 
L 213.05458 83.497625 
L 233.078504 79.404748 
L 253.102427 71.194952 
L 273.126351 62.619743 
L 293.150274 57.254363 
L 313.174198 52.000659 
L 333.198121 48.7299 
L 353.222045 46.985701 
L 373.245968 48.523718 
L 393.269891 50.717024 
L 413.293815 54.739448 
L 433.317738 57.759423 
L 453.341662 61.583815 
L 473.365585 64.361681 
" style="fill:none;stroke:#7570b3;stroke-linecap:square;stroke-opacity:0.9;stroke-width:2.5;"/>
   </g>
   <g id="line2d_18">
    <path clip-path="url(#p7385518029)" d="M 92.91104 129.314052 
L 112.934963 92.756291 
L 132.958887 85.599534 
L 152.98281 82.885144 
L 173.006734 78.784024 
L 193.030657 74.96056 
L 213.05458 70.459933 
L 233.078504 62.760988 
L 253.102427 55.715186 
L 273.126351 51.46693 
L 293.150274 49.581246 
L 313.174198 47.793335 
L 333.198121 47.760752 
L 353.222045 47.710245 
L 373.245968 49.242108 
L 393.269891 50.913424 
L 413.293815 54.494264 
L 433.317738 57.119385 
L 453.341662 60.614301 
L 473.365585 62.615474 
" style="fill:none;stroke:#1b9e77;stroke-linecap:square;stroke-opacity:0.9;stroke-width:2.5;"/>
   </g>
   <g id="line2d_19">
    <path clip-path="url(#p7385518029)" d="M 92.91104 129.314052 
L 112.934963 59.393962 
L 132.958887 71.172518 
L 152.98281 69.626328 
L 173.006734 64.39486 
L 193.030657 61.090485 
L 213.05458 57.570327 
L 233.078504 52.988063 
L 253.102427 48.210481 
L 273.126351 45.735552 
L 293.150274 46.538354 
L 313.174198 46.51469 
L 333.198121 46.812408 
L 353.222045 46.031056 
L 373.245968 46.886975 
L 393.269891 46.330435 
L 413.293815 47.488623 
L 433.317738 48.07215 
L 453.341662 50.565214 
L 473.365585 51.675515 
" style="fill:none;stroke:#7570b3;stroke-linecap:square;stroke-opacity:0.9;stroke-width:2.5;"/>
   </g>
   <g id="line2d_20">
    <path clip-path="url(#p7385518029)" d="M 92.91104 129.314052 
L 112.934963 83.290324 
L 132.958887 75.619251 
L 152.98281 68.869559 
L 173.006734 61.966648 
L 193.030657 58.460922 
L 213.05458 55.587497 
L 233.078504 51.799155 
L 253.102427 49.451525 
L 273.126351 49.20351 
L 293.150274 51.890929 
L 313.174198 52.631558 
L 333.198121 53.438671 
L 353.222045 52.832887 
L 373.245968 53.641206 
L 393.269891 53.477171 
L 413.293815 54.915169 
L 433.317738 55.280768 
L 453.341662 57.136517 
L 473.365585 57.136175 
" style="fill:none;stroke:#1b9e77;stroke-linecap:square;stroke-opacity:0.9;stroke-width:2.5;"/>
   </g>
   <g id="line2d_21">
    <path clip-path="url(#p7385518029)" d="M 92.91104 129.314052 
L 112.934963 49.259192 
L 132.958887 58.450964 
L 152.98281 50.782104 
L 173.006734 47.897328 
L 193.030657 47.22079 
L 213.05458 51.838741 
L 233.078504 54.385039 
L 253.102427 58.125012 
L 273.126351 58.157455 
L 293.150274 59.657711 
L 313.174198 56.050985 
L 333.198121 53.739325 
L 353.222045 49.046406 
L 373.245968 47.815161 
L 393.269891 44.690602 
L 413.293815 44.262126 
L 433.317738 42.86114 
L 453.341662 43.630819 
L 473.365585 42.884392 
" style="fill:none;stroke:#7570b3;stroke-linecap:square;stroke-opacity:0.9;stroke-width:2.5;"/>
   </g>
   <g id="line2d_22">
    <path clip-path="url(#p7385518029)" d="M 92.91104 129.314052 
L 112.934963 75.748914 
L 132.958887 64.037166 
L 152.98281 55.484647 
L 173.006734 49.678896 
L 193.030657 49.374644 
L 213.05458 50.765712 
L 233.078504 51.543797 
L 253.102427 53.257195 
L 273.126351 55.751054 
L 293.150274 57.908317 
L 313.174198 57.070791 
L 333.198121 57.075184 
L 353.222045 55.972064 
L 373.245968 55.989075 
L 393.269891 54.489239 
L 413.293815 55.07582 
L 433.317738 54.54067 
L 453.341662 55.333137 
L 473.365585 55.051681 
" style="fill:none;stroke:#1b9e77;stroke-linecap:square;stroke-opacity:0.9;stroke-width:2.5;"/>
   </g>
   <g id="line2d_23">
    <path clip-path="url(#p7385518029)" d="M 92.91104 129.314052 
L 112.934963 27.932435 
L 132.958887 38.769228 
L 152.98281 39.441578 
L 173.006734 33.528331 
L 193.030657 24.357512 
L 213.05458 20.990876 
L 233.078504 18.705762 
L 253.102427 18.128329 
L 273.126351 17.496 
L 293.150274 17.927919 
L 313.174198 18.443256 
L 333.198121 19.022586 
L 353.222045 19.500844 
L 373.245968 20.204677 
L 393.269891 21.435429 
L 413.293815 23.281351 
L 433.317738 25.955952 
L 453.341662 29.569622 
L 473.365585 34.00655 
" style="fill:none;stroke:#7570b3;stroke-linecap:square;stroke-opacity:0.9;stroke-width:2.5;"/>
   </g>
   <g id="line2d_24">
    <path clip-path="url(#p7385518029)" d="M 92.91104 129.314052 
L 112.934963 53.759891 
L 132.958887 48.864572 
L 152.98281 44.802174 
L 173.006734 45.783902 
L 193.030657 49.018009 
L 213.05458 54.477187 
L 233.078504 58.742185 
L 253.102427 63.943232 
L 273.126351 65.559901 
L 293.150274 67.311985 
L 313.174198 66.311113 
L 333.198121 67.259345 
L 353.222045 66.14101 
L 373.245968 67.149195 
L 393.269891 65.759429 
L 413.293815 66.861268 
L 433.317738 66.723648 
L 453.341662 68.42 
L 473.365585 67.713185 
" style="fill:none;stroke:#1b9e77;stroke-linecap:square;stroke-opacity:0.9;stroke-width:2.5;"/>
   </g>
   <g id="line2d_25">
    <path clip-path="url(#p7385518029)" d="M 92.91104 129.314052 
L 112.934963 158.452875 
L 132.958887 120.25759 
L 152.98281 95.34009 
L 173.006734 84.909641 
L 193.030657 79.571629 
L 213.05458 79.057125 
L 233.078504 86.017626 
L 253.102427 94.357737 
L 273.126351 103.397288 
L 293.150274 110.362264 
L 313.174198 113.938869 
L 333.198121 116.61712 
L 353.222045 117.244527 
L 373.245968 117.512953 
L 393.269891 116.978453 
L 413.293815 118.762088 
L 433.317738 119.060088 
L 453.341662 120.805424 
L 473.365585 122.332991 
" style="fill:none;stroke:#7570b3;stroke-linecap:square;stroke-opacity:0.9;stroke-width:2.5;"/>
   </g>
   <g id="line2d_26">
    <path clip-path="url(#p7385518029)" d="M 92.91104 129.314052 
L 112.934963 29.764937 
L 132.958887 38.272135 
L 152.98281 42.921987 
L 173.006734 54.461093 
L 193.030657 63.015581 
L 213.05458 71.471976 
L 233.078504 70.003819 
L 253.102427 69.768203 
L 273.126351 64.848417 
L 293.150274 64.282876 
L 313.174198 59.793643 
L 333.198121 59.320456 
L 353.222045 56.272554 
L 373.245968 56.886546 
L 393.269891 54.405533 
L 413.293815 54.883768 
L 433.317738 53.233425 
L 453.341662 53.856375 
L 473.365585 51.591978 
" style="fill:none;stroke:#1b9e77;stroke-linecap:square;stroke-opacity:0.9;stroke-width:2.5;"/>
   </g>
   <g id="line2d_27">
    <path clip-path="url(#p7385518029)" d="M 92.91104 129.314052 
L 112.934963 131.870695 
L 132.958887 163.057637 
L 152.98281 168.696 
L 173.006734 167.519624 
L 193.030657 164.430807 
L 213.05458 160.983711 
L 233.078504 157.174756 
L 253.102427 152.246162 
L 273.126351 147.731364 
L 293.150274 141.462169 
L 313.174198 136.151738 
L 333.198121 130.199547 
L 353.222045 125.931154 
L 373.245968 121.644334 
L 393.269891 119.464698 
L 413.293815 116.576591 
L 433.317738 113.36662 
L 453.341662 110.747508 
L 473.365585 107.519945 
" style="fill:none;stroke:#7570b3;stroke-linecap:square;stroke-opacity:0.9;stroke-width:2.5;"/>
   </g>
   <g id="line2d_28">
    <path clip-path="url(#p7385518029)" d="M 92.91104 129.314052 
L 112.934963 44.590324 
L 132.958887 44.470405 
L 152.98281 41.338589 
L 173.006734 43.611878 
L 193.030657 44.225591 
L 213.05458 42.16407 
L 233.078504 40.363363 
L 253.102427 38.721686 
L 273.126351 38.828702 
L 293.150274 41.070297 
L 313.174198 43.095333 
L 333.198121 46.113558 
L 353.222045 47.48612 
L 373.245968 49.727991 
L 393.269891 51.942924 
L 413.293815 56.090362 
L 433.317738 59.5967 
L 453.341662 64.159768 
L 473.365585 67.397503 
" style="fill:none;stroke:#d95f02;stroke-linecap:square;stroke-opacity:0.9;stroke-width:2.5;"/>
   </g>
   <g id="patch_3">
    <path d="M 73.888313 176.256 
L 73.888313 9.936 
" style="fill:none;stroke:#000000;stroke-linecap:square;stroke-linejoin:miter;"/>
   </g>
   <g id="patch_4">
    <path d="M 73.888313 176.256 
L 492.388312 176.256 
" style="fill:none;stroke:#000000;stroke-linecap:square;stroke-linejoin:miter;"/>
   </g>
  </g>
 </g>
 <defs>
  <clipPath id="p7385518029">
   <rect height="166.32" width="418.5" x="73.888313" y="9.936"/>
  </clipPath>
 </defs>
</svg>
