<?xml version="1.0" encoding="utf-8" standalone="no"?>
<!DOCTYPE svg PUBLIC "-//W3C//DTD SVG 1.1//EN"
  "http://www.w3.org/Graphics/SVG/1.1/DTD/svg11.dtd">
<!-- Created with matplotlib (https://matplotlib.org/) -->
<svg height="236.419125pt" version="1.1" viewBox="0 0 498.016687 236.419125" width="498.016687pt" xmlns="http://www.w3.org/2000/svg" xmlns:xlink="http://www.w3.org/1999/xlink">
 <defs>
  <style type="text/css">
*{stroke-linecap:butt;stroke-linejoin:round;}
  </style>
 </defs>
 <g id="figure_1">
  <g id="patch_1">
   <path d="M 0 236.419125 
L 498.016687 236.419125 
L 498.016687 0 
L 0 0 
z
" style="fill:#ffffff;"/>
  </g>
  <g id="axes_1">
   <g id="patch_2">
    <path d="M 72.316688 190.2075 
L 490.816688 190.2075 
L 490.816688 23.8875 
L 72.316688 23.8875 
z
" style="fill:#ffffff;"/>
   </g>
   <g id="line2d_1">
    <path clip-path="url(#p7b0076b987)" d="M 72.316688 141.526684 
L 490.816688 141.526684 
" style="fill:none;stroke:#000000;stroke-linecap:square;"/>
   </g>
   <g id="PolyCollection_1">
    <defs>
     <path d="M 91.339415 -94.892539 
L 91.339415 -94.892537 
L 111.363338 -90.276771 
L 131.387262 -92.298741 
L 151.411185 -93.292048 
L 171.435109 -94.288884 
L 191.459032 -94.504359 
L 211.482955 -94.824224 
L 231.506879 -94.979587 
L 251.530802 -95.229696 
L 271.554726 -95.32441 
L 291.578649 -95.685052 
L 311.602573 -95.606596 
L 331.626496 -95.731271 
L 351.65042 -95.468584 
L 371.674343 -95.593399 
L 391.698266 -95.432092 
L 411.72219 -95.009044 
L 431.746113 -94.378289 
L 451.770037 -94.271077 
L 471.79396 -93.817109 
L 471.79396 -99.374163 
L 471.79396 -99.374163 
L 451.770037 -99.484655 
L 431.746113 -99.37563 
L 411.72219 -99.098957 
L 391.698266 -98.884747 
L 371.674343 -98.541852 
L 351.65042 -98.164184 
L 331.626496 -97.724686 
L 311.602573 -97.488684 
L 291.578649 -97.241884 
L 271.554726 -96.682945 
L 251.530802 -96.431799 
L 231.506879 -96.01481 
L 211.482955 -95.698576 
L 191.459032 -95.240969 
L 171.435109 -94.914073 
L 151.411185 -93.803618 
L 131.387262 -92.684319 
L 111.363338 -90.580036 
L 91.339415 -94.892539 
z
" id="m22c391cec6" style="stroke:#1b9e77;stroke-opacity:0.5;stroke-width:0.8;"/>
    </defs>
    <g clip-path="url(#p7b0076b987)">
     <use style="fill:#1b9e77;fill-opacity:0.5;stroke:#1b9e77;stroke-opacity:0.5;stroke-width:0.8;" x="0" xlink:href="#m22c391cec6" y="236.419125"/>
    </g>
   </g>
   <g id="PolyCollection_2">
    <defs>
     <path d="M 91.339415 -94.892539 
L 91.339415 -94.892537 
L 111.363338 -98.049967 
L 131.387262 -101.265844 
L 151.411185 -102.415884 
L 171.435109 -104.86413 
L 191.459032 -106.831307 
L 211.482955 -111.519317 
L 231.506879 -114.87185 
L 251.530802 -120.033239 
L 271.554726 -124.77378 
L 291.578649 -131.377563 
L 311.602573 -136.614295 
L 331.626496 -142.57415 
L 351.65042 -148.689699 
L 371.674343 -156.871815 
L 391.698266 -164.021793 
L 411.72219 -171.217508 
L 431.746113 -179.124491 
L 451.770037 -187.939303 
L 471.79396 -194.91859 
L 471.79396 -204.971625 
L 471.79396 -204.971625 
L 451.770037 -197.959 
L 431.746113 -188.664295 
L 411.72219 -180.097164 
L 391.698266 -172.556879 
L 371.674343 -164.547242 
L 351.65042 -155.984973 
L 331.626496 -149.464871 
L 311.602573 -142.959927 
L 291.578649 -137.425503 
L 271.554726 -130.29758 
L 251.530802 -124.874545 
L 231.506879 -119.04146 
L 211.482955 -115.108917 
L 191.459032 -109.770909 
L 171.435109 -106.98909 
L 151.411185 -104.062586 
L 131.387262 -102.234238 
L 111.363338 -98.438413 
L 91.339415 -94.892539 
z
" id="m823c760a13" style="stroke:#7570b3;stroke-opacity:0.5;stroke-width:0.8;"/>
    </defs>
    <g clip-path="url(#p7b0076b987)">
     <use style="fill:#7570b3;fill-opacity:0.5;stroke:#7570b3;stroke-opacity:0.5;stroke-width:0.8;" x="0" xlink:href="#m823c760a13" y="236.419125"/>
    </g>
   </g>
   <g id="PolyCollection_3">
    <defs>
     <path d="M 91.339415 -94.892441 
L 91.339415 -94.892441 
L 111.363338 -102.47772 
L 131.387262 -103.6671 
L 151.411185 -103.835981 
L 171.435109 -105.174838 
L 191.459032 -106.96571 
L 211.482955 -111.339064 
L 231.506879 -114.525063 
L 251.530802 -119.193985 
L 271.554726 -123.616037 
L 291.578649 -129.873902 
L 311.602573 -134.951722 
L 331.626496 -140.563021 
L 351.65042 -146.951608 
L 371.674343 -154.724755 
L 391.698266 -161.766941 
L 411.72219 -169.112327 
L 431.746113 -177.651281 
L 451.770037 -185.784807 
L 471.79396 -193.300562 
L 471.79396 -203.24768 
L 471.79396 -203.24768 
L 451.770037 -195.52285 
L 431.746113 -186.642394 
L 411.72219 -178.58901 
L 391.698266 -170.259443 
L 371.674343 -162.654206 
L 351.65042 -154.052453 
L 331.626496 -147.496813 
L 311.602573 -141.27126 
L 291.578649 -135.418102 
L 271.554726 -128.680817 
L 251.530802 -123.632692 
L 231.506879 -118.246238 
L 211.482955 -114.469433 
L 191.459032 -109.759701 
L 171.435109 -107.29945 
L 151.411185 -105.328599 
L 131.387262 -104.61422 
L 111.363338 -102.98037 
L 91.339415 -94.892441 
z
" id="m2133e56954" style="stroke:#d95f02;stroke-opacity:0.5;stroke-width:0.8;"/>
    </defs>
    <g clip-path="url(#p7b0076b987)">
     <use style="fill:#d95f02;fill-opacity:0.5;stroke:#d95f02;stroke-opacity:0.5;stroke-width:0.8;" x="0" xlink:href="#m2133e56954" y="236.419125"/>
    </g>
   </g>
   <g id="PolyCollection_4">
    <path clip-path="url(#p7b0076b987)" d="M 91.339415 182.565852 
L 91.339415 182.6475 
L 111.363338 151.103617 
L 131.387262 140.227283 
L 151.411185 134.931068 
L 171.435109 135.795919 
L 191.459032 138.672689 
L 211.482955 140.995905 
L 231.506879 142.221488 
L 251.530802 142.830852 
L 271.554726 143.266301 
L 291.578649 143.408223 
L 311.602573 143.732015 
L 331.626496 144.113391 
L 351.65042 144.683884 
L 371.674343 145.560808 
L 391.698266 145.926791 
L 411.72219 147.025933 
L 431.746113 148.399169 
L 451.770037 149.367404 
L 471.79396 149.742553 
L 471.79396 141.89575 
L 471.79396 141.89575 
L 451.770037 141.324687 
L 431.746113 140.53089 
L 411.72219 139.134492 
L 391.698266 138.769604 
L 371.674343 138.454627 
L 351.65042 138.435095 
L 331.626496 138.633734 
L 311.602573 139.389123 
L 291.578649 140.119995 
L 271.554726 140.488793 
L 251.530802 140.919405 
L 231.506879 140.590877 
L 211.482955 139.647868 
L 191.459032 137.600942 
L 171.435109 134.984093 
L 151.411185 134.173538 
L 131.387262 139.551094 
L 111.363338 150.785206 
L 91.339415 182.565852 
z
" style="fill:#1b9e77;fill-opacity:0.5;stroke:#1b9e77;stroke-dasharray:2.96,1.28;stroke-dashoffset:0;stroke-opacity:0.5;stroke-width:0.8;"/>
   </g>
   <g id="PolyCollection_5">
    <path clip-path="url(#p7b0076b987)" d="M 91.339415 134.470065 
L 91.339415 134.552334 
L 111.363338 141.188303 
L 131.387262 135.829205 
L 151.411185 129.35173 
L 171.435109 130.515334 
L 191.459032 137.640919 
L 211.482955 147.362431 
L 231.506879 157.193794 
L 251.530802 166.042352 
L 271.554726 173.408443 
L 291.578649 178.647408 
L 311.602573 180.992801 
L 331.626496 180.305815 
L 351.65042 177.217198 
L 371.674343 172.600388 
L 391.698266 168.857213 
L 411.72219 165.800078 
L 431.746113 165.351247 
L 451.770037 167.310193 
L 471.79396 170.393211 
L 471.79396 159.818943 
L 471.79396 159.818943 
L 451.770037 156.597214 
L 431.746113 155.446936 
L 411.72219 156.738293 
L 391.698266 159.31687 
L 371.674343 163.905371 
L 351.65042 169.070363 
L 331.626496 173.062333 
L 311.602573 175.153663 
L 291.578649 173.959539 
L 271.554726 170.017476 
L 251.530802 163.430759 
L 231.506879 155.097693 
L 211.482955 145.623312 
L 191.459032 136.102944 
L 171.435109 129.079207 
L 151.411185 127.798364 
L 131.387262 134.585078 
L 111.363338 140.638238 
L 91.339415 134.470065 
z
" style="fill:#7570b3;fill-opacity:0.5;stroke:#7570b3;stroke-dasharray:2.96,1.28;stroke-dashoffset:0;stroke-opacity:0.5;stroke-width:0.8;"/>
   </g>
   <g id="PolyCollection_6">
    <path clip-path="url(#p7b0076b987)" d="M 91.339415 93.432967 
L 91.339415 93.432967 
L 111.363338 131.665047 
L 131.387262 137.232121 
L 151.411185 136.126179 
L 171.435109 136.587667 
L 191.459032 140.949 
L 211.482955 148.37719 
L 231.506879 157.029406 
L 251.530802 165.330669 
L 271.554726 172.550349 
L 291.578649 177.707414 
L 311.602573 180.203029 
L 331.626496 179.512684 
L 351.65042 175.86824 
L 371.674343 171.21247 
L 391.698266 166.523211 
L 411.72219 163.102839 
L 431.746113 161.81428 
L 451.770037 162.40006 
L 471.79396 164.592678 
L 471.79396 156.230772 
L 471.79396 156.230772 
L 451.770037 154.231428 
L 431.746113 153.569901 
L 411.72219 156.050201 
L 391.698266 159.431259 
L 371.674343 164.243697 
L 351.65042 169.341291 
L 331.626496 173.814901 
L 311.602573 175.695443 
L 291.578649 174.370925 
L 271.554726 170.092668 
L 251.530802 163.487113 
L 231.506879 155.474999 
L 211.482955 146.968649 
L 191.459032 139.56342 
L 171.435109 135.257477 
L 151.411185 134.870551 
L 131.387262 136.384672 
L 111.363338 131.330942 
L 91.339415 93.432967 
z
" style="fill:#d95f02;fill-opacity:0.5;stroke:#d95f02;stroke-dasharray:2.96,1.28;stroke-dashoffset:0;stroke-opacity:0.5;stroke-width:0.8;"/>
   </g>
   <g id="matplotlib.axis_1">
    <g id="xtick_1">
     <g id="line2d_2">
      <defs>
       <path d="M 0 0 
L 0 4.8 
" id="mc5e0bbd47a" style="stroke:#000000;"/>
      </defs>
      <g>
       <use style="stroke:#000000;" x="91.339415" xlink:href="#mc5e0bbd47a" y="190.2075"/>
      </g>
     </g>
     <g id="text_1">
      <!-- 0 -->
      <defs>
       <path d="M 31.78125 66.40625 
Q 24.171875 66.40625 20.328125 58.90625 
Q 16.5 51.421875 16.5 36.375 
Q 16.5 21.390625 20.328125 13.890625 
Q 24.171875 6.390625 31.78125 6.390625 
Q 39.453125 6.390625 43.28125 13.890625 
Q 47.125 21.390625 47.125 36.375 
Q 47.125 51.421875 43.28125 58.90625 
Q 39.453125 66.40625 31.78125 66.40625 
z
M 31.78125 74.21875 
Q 44.046875 74.21875 50.515625 64.515625 
Q 56.984375 54.828125 56.984375 36.375 
Q 56.984375 17.96875 50.515625 8.265625 
Q 44.046875 -1.421875 31.78125 -1.421875 
Q 19.53125 -1.421875 13.0625 8.265625 
Q 6.59375 17.96875 6.59375 36.375 
Q 6.59375 54.828125 13.0625 64.515625 
Q 19.53125 74.21875 31.78125 74.21875 
z
" id="DejaVuSans-48"/>
      </defs>
      <g transform="translate(87.140165 208.537437)scale(0.132 -0.132)">
       <use xlink:href="#DejaVuSans-48"/>
      </g>
     </g>
    </g>
    <g id="xtick_2">
     <g id="line2d_3">
      <g>
       <use style="stroke:#000000;" x="158.085826" xlink:href="#mc5e0bbd47a" y="190.2075"/>
      </g>
     </g>
     <g id="text_2">
      <!-- 20 -->
      <defs>
       <path d="M 19.1875 8.296875 
L 53.609375 8.296875 
L 53.609375 0 
L 7.328125 0 
L 7.328125 8.296875 
Q 12.9375 14.109375 22.625 23.890625 
Q 32.328125 33.6875 34.8125 36.53125 
Q 39.546875 41.84375 41.421875 45.53125 
Q 43.3125 49.21875 43.3125 52.78125 
Q 43.3125 58.59375 39.234375 62.25 
Q 35.15625 65.921875 28.609375 65.921875 
Q 23.96875 65.921875 18.8125 64.3125 
Q 13.671875 62.703125 7.8125 59.421875 
L 7.8125 69.390625 
Q 13.765625 71.78125 18.9375 73 
Q 24.125 74.21875 28.421875 74.21875 
Q 39.75 74.21875 46.484375 68.546875 
Q 53.21875 62.890625 53.21875 53.421875 
Q 53.21875 48.921875 51.53125 44.890625 
Q 49.859375 40.875 45.40625 35.40625 
Q 44.1875 33.984375 37.640625 27.21875 
Q 31.109375 20.453125 19.1875 8.296875 
z
" id="DejaVuSans-50"/>
      </defs>
      <g transform="translate(149.687326 208.537437)scale(0.132 -0.132)">
       <use xlink:href="#DejaVuSans-50"/>
       <use x="63.623047" xlink:href="#DejaVuSans-48"/>
      </g>
     </g>
    </g>
    <g id="xtick_3">
     <g id="line2d_4">
      <g>
       <use style="stroke:#000000;" x="224.832238" xlink:href="#mc5e0bbd47a" y="190.2075"/>
      </g>
     </g>
     <g id="text_3">
      <!-- 40 -->
      <defs>
       <path d="M 37.796875 64.3125 
L 12.890625 25.390625 
L 37.796875 25.390625 
z
M 35.203125 72.90625 
L 47.609375 72.90625 
L 47.609375 25.390625 
L 58.015625 25.390625 
L 58.015625 17.1875 
L 47.609375 17.1875 
L 47.609375 0 
L 37.796875 0 
L 37.796875 17.1875 
L 4.890625 17.1875 
L 4.890625 26.703125 
z
" id="DejaVuSans-52"/>
      </defs>
      <g transform="translate(216.433738 208.537437)scale(0.132 -0.132)">
       <use xlink:href="#DejaVuSans-52"/>
       <use x="63.623047" xlink:href="#DejaVuSans-48"/>
      </g>
     </g>
    </g>
    <g id="xtick_4">
     <g id="line2d_5">
      <g>
       <use style="stroke:#000000;" x="291.578649" xlink:href="#mc5e0bbd47a" y="190.2075"/>
      </g>
     </g>
     <g id="text_4">
      <!-- 60 -->
      <defs>
       <path d="M 33.015625 40.375 
Q 26.375 40.375 22.484375 35.828125 
Q 18.609375 31.296875 18.609375 23.390625 
Q 18.609375 15.53125 22.484375 10.953125 
Q 26.375 6.390625 33.015625 6.390625 
Q 39.65625 6.390625 43.53125 10.953125 
Q 47.40625 15.53125 47.40625 23.390625 
Q 47.40625 31.296875 43.53125 35.828125 
Q 39.65625 40.375 33.015625 40.375 
z
M 52.59375 71.296875 
L 52.59375 62.3125 
Q 48.875 64.0625 45.09375 64.984375 
Q 41.3125 65.921875 37.59375 65.921875 
Q 27.828125 65.921875 22.671875 59.328125 
Q 17.53125 52.734375 16.796875 39.40625 
Q 19.671875 43.65625 24.015625 45.921875 
Q 28.375 48.1875 33.59375 48.1875 
Q 44.578125 48.1875 50.953125 41.515625 
Q 57.328125 34.859375 57.328125 23.390625 
Q 57.328125 12.15625 50.6875 5.359375 
Q 44.046875 -1.421875 33.015625 -1.421875 
Q 20.359375 -1.421875 13.671875 8.265625 
Q 6.984375 17.96875 6.984375 36.375 
Q 6.984375 53.65625 15.1875 63.9375 
Q 23.390625 74.21875 37.203125 74.21875 
Q 40.921875 74.21875 44.703125 73.484375 
Q 48.484375 72.75 52.59375 71.296875 
z
" id="DejaVuSans-54"/>
      </defs>
      <g transform="translate(283.180149 208.537437)scale(0.132 -0.132)">
       <use xlink:href="#DejaVuSans-54"/>
       <use x="63.623047" xlink:href="#DejaVuSans-48"/>
      </g>
     </g>
    </g>
    <g id="xtick_5">
     <g id="line2d_6">
      <g>
       <use style="stroke:#000000;" x="358.325061" xlink:href="#mc5e0bbd47a" y="190.2075"/>
      </g>
     </g>
     <g id="text_5">
      <!-- 80 -->
      <defs>
       <path d="M 31.78125 34.625 
Q 24.75 34.625 20.71875 30.859375 
Q 16.703125 27.09375 16.703125 20.515625 
Q 16.703125 13.921875 20.71875 10.15625 
Q 24.75 6.390625 31.78125 6.390625 
Q 38.8125 6.390625 42.859375 10.171875 
Q 46.921875 13.96875 46.921875 20.515625 
Q 46.921875 27.09375 42.890625 30.859375 
Q 38.875 34.625 31.78125 34.625 
z
M 21.921875 38.8125 
Q 15.578125 40.375 12.03125 44.71875 
Q 8.5 49.078125 8.5 55.328125 
Q 8.5 64.0625 14.71875 69.140625 
Q 20.953125 74.21875 31.78125 74.21875 
Q 42.671875 74.21875 48.875 69.140625 
Q 55.078125 64.0625 55.078125 55.328125 
Q 55.078125 49.078125 51.53125 44.71875 
Q 48 40.375 41.703125 38.8125 
Q 48.828125 37.15625 52.796875 32.3125 
Q 56.78125 27.484375 56.78125 20.515625 
Q 56.78125 9.90625 50.3125 4.234375 
Q 43.84375 -1.421875 31.78125 -1.421875 
Q 19.734375 -1.421875 13.25 4.234375 
Q 6.78125 9.90625 6.78125 20.515625 
Q 6.78125 27.484375 10.78125 32.3125 
Q 14.796875 37.15625 21.921875 38.8125 
z
M 18.3125 54.390625 
Q 18.3125 48.734375 21.84375 45.5625 
Q 25.390625 42.390625 31.78125 42.390625 
Q 38.140625 42.390625 41.71875 45.5625 
Q 45.3125 48.734375 45.3125 54.390625 
Q 45.3125 60.0625 41.71875 63.234375 
Q 38.140625 66.40625 31.78125 66.40625 
Q 25.390625 66.40625 21.84375 63.234375 
Q 18.3125 60.0625 18.3125 54.390625 
z
" id="DejaVuSans-56"/>
      </defs>
      <g transform="translate(349.926561 208.537437)scale(0.132 -0.132)">
       <use xlink:href="#DejaVuSans-56"/>
       <use x="63.623047" xlink:href="#DejaVuSans-48"/>
      </g>
     </g>
    </g>
    <g id="xtick_6">
     <g id="line2d_7">
      <g>
       <use style="stroke:#000000;" x="425.071472" xlink:href="#mc5e0bbd47a" y="190.2075"/>
      </g>
     </g>
     <g id="text_6">
      <!-- 100 -->
      <defs>
       <path d="M 12.40625 8.296875 
L 28.515625 8.296875 
L 28.515625 63.921875 
L 10.984375 60.40625 
L 10.984375 69.390625 
L 28.421875 72.90625 
L 38.28125 72.90625 
L 38.28125 8.296875 
L 54.390625 8.296875 
L 54.390625 0 
L 12.40625 0 
z
" id="DejaVuSans-49"/>
      </defs>
      <g transform="translate(412.473722 208.537437)scale(0.132 -0.132)">
       <use xlink:href="#DejaVuSans-49"/>
       <use x="63.623047" xlink:href="#DejaVuSans-48"/>
       <use x="127.246094" xlink:href="#DejaVuSans-48"/>
      </g>
     </g>
    </g>
    <g id="text_7">
     <!-- leadtime [h] -->
     <defs>
      <path d="M 9.421875 75.984375 
L 18.40625 75.984375 
L 18.40625 0 
L 9.421875 0 
z
" id="DejaVuSans-108"/>
      <path d="M 56.203125 29.59375 
L 56.203125 25.203125 
L 14.890625 25.203125 
Q 15.484375 15.921875 20.484375 11.0625 
Q 25.484375 6.203125 34.421875 6.203125 
Q 39.59375 6.203125 44.453125 7.46875 
Q 49.3125 8.734375 54.109375 11.28125 
L 54.109375 2.78125 
Q 49.265625 0.734375 44.1875 -0.34375 
Q 39.109375 -1.421875 33.890625 -1.421875 
Q 20.796875 -1.421875 13.15625 6.1875 
Q 5.515625 13.8125 5.515625 26.8125 
Q 5.515625 40.234375 12.765625 48.109375 
Q 20.015625 56 32.328125 56 
Q 43.359375 56 49.78125 48.890625 
Q 56.203125 41.796875 56.203125 29.59375 
z
M 47.21875 32.234375 
Q 47.125 39.59375 43.09375 43.984375 
Q 39.0625 48.390625 32.421875 48.390625 
Q 24.90625 48.390625 20.390625 44.140625 
Q 15.875 39.890625 15.1875 32.171875 
z
" id="DejaVuSans-101"/>
      <path d="M 34.28125 27.484375 
Q 23.390625 27.484375 19.1875 25 
Q 14.984375 22.515625 14.984375 16.5 
Q 14.984375 11.71875 18.140625 8.90625 
Q 21.296875 6.109375 26.703125 6.109375 
Q 34.1875 6.109375 38.703125 11.40625 
Q 43.21875 16.703125 43.21875 25.484375 
L 43.21875 27.484375 
z
M 52.203125 31.203125 
L 52.203125 0 
L 43.21875 0 
L 43.21875 8.296875 
Q 40.140625 3.328125 35.546875 0.953125 
Q 30.953125 -1.421875 24.3125 -1.421875 
Q 15.921875 -1.421875 10.953125 3.296875 
Q 6 8.015625 6 15.921875 
Q 6 25.140625 12.171875 29.828125 
Q 18.359375 34.515625 30.609375 34.515625 
L 43.21875 34.515625 
L 43.21875 35.40625 
Q 43.21875 41.609375 39.140625 45 
Q 35.0625 48.390625 27.6875 48.390625 
Q 23 48.390625 18.546875 47.265625 
Q 14.109375 46.140625 10.015625 43.890625 
L 10.015625 52.203125 
Q 14.9375 54.109375 19.578125 55.046875 
Q 24.21875 56 28.609375 56 
Q 40.484375 56 46.34375 49.84375 
Q 52.203125 43.703125 52.203125 31.203125 
z
" id="DejaVuSans-97"/>
      <path d="M 45.40625 46.390625 
L 45.40625 75.984375 
L 54.390625 75.984375 
L 54.390625 0 
L 45.40625 0 
L 45.40625 8.203125 
Q 42.578125 3.328125 38.25 0.953125 
Q 33.9375 -1.421875 27.875 -1.421875 
Q 17.96875 -1.421875 11.734375 6.484375 
Q 5.515625 14.40625 5.515625 27.296875 
Q 5.515625 40.1875 11.734375 48.09375 
Q 17.96875 56 27.875 56 
Q 33.9375 56 38.25 53.625 
Q 42.578125 51.265625 45.40625 46.390625 
z
M 14.796875 27.296875 
Q 14.796875 17.390625 18.875 11.75 
Q 22.953125 6.109375 30.078125 6.109375 
Q 37.203125 6.109375 41.296875 11.75 
Q 45.40625 17.390625 45.40625 27.296875 
Q 45.40625 37.203125 41.296875 42.84375 
Q 37.203125 48.484375 30.078125 48.484375 
Q 22.953125 48.484375 18.875 42.84375 
Q 14.796875 37.203125 14.796875 27.296875 
z
" id="DejaVuSans-100"/>
      <path d="M 18.3125 70.21875 
L 18.3125 54.6875 
L 36.8125 54.6875 
L 36.8125 47.703125 
L 18.3125 47.703125 
L 18.3125 18.015625 
Q 18.3125 11.328125 20.140625 9.421875 
Q 21.96875 7.515625 27.59375 7.515625 
L 36.8125 7.515625 
L 36.8125 0 
L 27.59375 0 
Q 17.1875 0 13.234375 3.875 
Q 9.28125 7.765625 9.28125 18.015625 
L 9.28125 47.703125 
L 2.6875 47.703125 
L 2.6875 54.6875 
L 9.28125 54.6875 
L 9.28125 70.21875 
z
" id="DejaVuSans-116"/>
      <path d="M 9.421875 54.6875 
L 18.40625 54.6875 
L 18.40625 0 
L 9.421875 0 
z
M 9.421875 75.984375 
L 18.40625 75.984375 
L 18.40625 64.59375 
L 9.421875 64.59375 
z
" id="DejaVuSans-105"/>
      <path d="M 52 44.1875 
Q 55.375 50.25 60.0625 53.125 
Q 64.75 56 71.09375 56 
Q 79.640625 56 84.28125 50.015625 
Q 88.921875 44.046875 88.921875 33.015625 
L 88.921875 0 
L 79.890625 0 
L 79.890625 32.71875 
Q 79.890625 40.578125 77.09375 44.375 
Q 74.3125 48.1875 68.609375 48.1875 
Q 61.625 48.1875 57.5625 43.546875 
Q 53.515625 38.921875 53.515625 30.90625 
L 53.515625 0 
L 44.484375 0 
L 44.484375 32.71875 
Q 44.484375 40.625 41.703125 44.40625 
Q 38.921875 48.1875 33.109375 48.1875 
Q 26.21875 48.1875 22.15625 43.53125 
Q 18.109375 38.875 18.109375 30.90625 
L 18.109375 0 
L 9.078125 0 
L 9.078125 54.6875 
L 18.109375 54.6875 
L 18.109375 46.1875 
Q 21.1875 51.21875 25.484375 53.609375 
Q 29.78125 56 35.6875 56 
Q 41.65625 56 45.828125 52.96875 
Q 50 49.953125 52 44.1875 
z
" id="DejaVuSans-109"/>
      <path id="DejaVuSans-32"/>
      <path d="M 8.59375 75.984375 
L 29.296875 75.984375 
L 29.296875 69 
L 17.578125 69 
L 17.578125 -6.203125 
L 29.296875 -6.203125 
L 29.296875 -13.1875 
L 8.59375 -13.1875 
z
" id="DejaVuSans-91"/>
      <path d="M 54.890625 33.015625 
L 54.890625 0 
L 45.90625 0 
L 45.90625 32.71875 
Q 45.90625 40.484375 42.875 44.328125 
Q 39.84375 48.1875 33.796875 48.1875 
Q 26.515625 48.1875 22.3125 43.546875 
Q 18.109375 38.921875 18.109375 30.90625 
L 18.109375 0 
L 9.078125 0 
L 9.078125 75.984375 
L 18.109375 75.984375 
L 18.109375 46.1875 
Q 21.34375 51.125 25.703125 53.5625 
Q 30.078125 56 35.796875 56 
Q 45.21875 56 50.046875 50.171875 
Q 54.890625 44.34375 54.890625 33.015625 
z
" id="DejaVuSans-104"/>
      <path d="M 30.421875 75.984375 
L 30.421875 -13.1875 
L 9.71875 -13.1875 
L 9.71875 -6.203125 
L 21.390625 -6.203125 
L 21.390625 69 
L 9.71875 69 
L 9.71875 75.984375 
z
" id="DejaVuSans-93"/>
     </defs>
     <g transform="translate(237.417188 226.224375)scale(0.144 -0.144)">
      <use xlink:href="#DejaVuSans-108"/>
      <use x="27.783203" xlink:href="#DejaVuSans-101"/>
      <use x="89.306641" xlink:href="#DejaVuSans-97"/>
      <use x="150.585938" xlink:href="#DejaVuSans-100"/>
      <use x="214.0625" xlink:href="#DejaVuSans-116"/>
      <use x="253.271484" xlink:href="#DejaVuSans-105"/>
      <use x="281.054688" xlink:href="#DejaVuSans-109"/>
      <use x="378.466797" xlink:href="#DejaVuSans-101"/>
      <use x="439.990234" xlink:href="#DejaVuSans-32"/>
      <use x="471.777344" xlink:href="#DejaVuSans-91"/>
      <use x="510.791016" xlink:href="#DejaVuSans-104"/>
      <use x="574.169922" xlink:href="#DejaVuSans-93"/>
     </g>
    </g>
   </g>
   <g id="matplotlib.axis_2">
    <g id="ytick_1">
     <g id="line2d_8">
      <defs>
       <path d="M 0 0 
L -4.8 0 
" id="me1cf3de67c" style="stroke:#000000;"/>
      </defs>
      <g>
       <use style="stroke:#000000;" x="72.316688" xlink:href="#me1cf3de67c" y="189.059177"/>
      </g>
     </g>
     <g id="text_8">
      <!-- −100 -->
      <defs>
       <path d="M 10.59375 35.5 
L 73.1875 35.5 
L 73.1875 27.203125 
L 10.59375 27.203125 
z
" id="DejaVuSans-8722"/>
      </defs>
      <g transform="translate(27.76 194.074146)scale(0.132 -0.132)">
       <use xlink:href="#DejaVuSans-8722"/>
       <use x="83.789062" xlink:href="#DejaVuSans-49"/>
       <use x="147.412109" xlink:href="#DejaVuSans-48"/>
       <use x="211.035156" xlink:href="#DejaVuSans-48"/>
      </g>
     </g>
    </g>
    <g id="ytick_2">
     <g id="line2d_9">
      <g>
       <use style="stroke:#000000;" x="72.316688" xlink:href="#me1cf3de67c" y="141.526684"/>
      </g>
     </g>
     <g id="text_9">
      <!-- 0 -->
      <g transform="translate(55.618188 146.541652)scale(0.132 -0.132)">
       <use xlink:href="#DejaVuSans-48"/>
      </g>
     </g>
    </g>
    <g id="ytick_3">
     <g id="line2d_10">
      <g>
       <use style="stroke:#000000;" x="72.316688" xlink:href="#me1cf3de67c" y="93.99419"/>
      </g>
     </g>
     <g id="text_10">
      <!-- 100 -->
      <g transform="translate(38.821188 99.009159)scale(0.132 -0.132)">
       <use xlink:href="#DejaVuSans-49"/>
       <use x="63.623047" xlink:href="#DejaVuSans-48"/>
       <use x="127.246094" xlink:href="#DejaVuSans-48"/>
      </g>
     </g>
    </g>
    <g id="ytick_4">
     <g id="line2d_11">
      <g>
       <use style="stroke:#000000;" x="72.316688" xlink:href="#me1cf3de67c" y="46.461696"/>
      </g>
     </g>
     <g id="text_11">
      <!-- 200 -->
      <g transform="translate(38.821188 51.476665)scale(0.132 -0.132)">
       <use xlink:href="#DejaVuSans-50"/>
       <use x="63.623047" xlink:href="#DejaVuSans-48"/>
       <use x="127.246094" xlink:href="#DejaVuSans-48"/>
      </g>
     </g>
    </g>
    <g id="text_12">
     <!-- rmse | spread [$m^2/s^2$] -->
     <defs>
      <path d="M 41.109375 46.296875 
Q 39.59375 47.171875 37.8125 47.578125 
Q 36.03125 48 33.890625 48 
Q 26.265625 48 22.1875 43.046875 
Q 18.109375 38.09375 18.109375 28.8125 
L 18.109375 0 
L 9.078125 0 
L 9.078125 54.6875 
L 18.109375 54.6875 
L 18.109375 46.1875 
Q 20.953125 51.171875 25.484375 53.578125 
Q 30.03125 56 36.53125 56 
Q 37.453125 56 38.578125 55.875 
Q 39.703125 55.765625 41.0625 55.515625 
z
" id="DejaVuSans-114"/>
      <path d="M 44.28125 53.078125 
L 44.28125 44.578125 
Q 40.484375 46.53125 36.375 47.5 
Q 32.28125 48.484375 27.875 48.484375 
Q 21.1875 48.484375 17.84375 46.4375 
Q 14.5 44.390625 14.5 40.28125 
Q 14.5 37.15625 16.890625 35.375 
Q 19.28125 33.59375 26.515625 31.984375 
L 29.59375 31.296875 
Q 39.15625 29.25 43.1875 25.515625 
Q 47.21875 21.78125 47.21875 15.09375 
Q 47.21875 7.46875 41.1875 3.015625 
Q 35.15625 -1.421875 24.609375 -1.421875 
Q 20.21875 -1.421875 15.453125 -0.5625 
Q 10.6875 0.296875 5.421875 2 
L 5.421875 11.28125 
Q 10.40625 8.6875 15.234375 7.390625 
Q 20.0625 6.109375 24.8125 6.109375 
Q 31.15625 6.109375 34.5625 8.28125 
Q 37.984375 10.453125 37.984375 14.40625 
Q 37.984375 18.0625 35.515625 20.015625 
Q 33.0625 21.96875 24.703125 23.78125 
L 21.578125 24.515625 
Q 13.234375 26.265625 9.515625 29.90625 
Q 5.8125 33.546875 5.8125 39.890625 
Q 5.8125 47.609375 11.28125 51.796875 
Q 16.75 56 26.8125 56 
Q 31.78125 56 36.171875 55.265625 
Q 40.578125 54.546875 44.28125 53.078125 
z
" id="DejaVuSans-115"/>
      <path d="M 21 76.421875 
L 21 -23.578125 
L 12.703125 -23.578125 
L 12.703125 76.421875 
z
" id="DejaVuSans-124"/>
      <path d="M 18.109375 8.203125 
L 18.109375 -20.796875 
L 9.078125 -20.796875 
L 9.078125 54.6875 
L 18.109375 54.6875 
L 18.109375 46.390625 
Q 20.953125 51.265625 25.265625 53.625 
Q 29.59375 56 35.59375 56 
Q 45.5625 56 51.78125 48.09375 
Q 58.015625 40.1875 58.015625 27.296875 
Q 58.015625 14.40625 51.78125 6.484375 
Q 45.5625 -1.421875 35.59375 -1.421875 
Q 29.59375 -1.421875 25.265625 0.953125 
Q 20.953125 3.328125 18.109375 8.203125 
z
M 48.6875 27.296875 
Q 48.6875 37.203125 44.609375 42.84375 
Q 40.53125 48.484375 33.40625 48.484375 
Q 26.265625 48.484375 22.1875 42.84375 
Q 18.109375 37.203125 18.109375 27.296875 
Q 18.109375 17.390625 22.1875 11.75 
Q 26.265625 6.109375 33.40625 6.109375 
Q 40.53125 6.109375 44.609375 11.75 
Q 48.6875 17.390625 48.6875 27.296875 
z
" id="DejaVuSans-112"/>
      <path d="M 89.796875 33.015625 
L 83.40625 0 
L 74.421875 0 
L 80.71875 32.71875 
Q 81.109375 34.8125 81.296875 36.328125 
Q 81.5 37.84375 81.5 38.921875 
Q 81.5 43.3125 79.046875 45.75 
Q 76.609375 48.1875 72.21875 48.1875 
Q 65.671875 48.1875 60.546875 43.28125 
Q 55.421875 38.375 53.90625 30.515625 
L 47.90625 0 
L 38.921875 0 
L 45.3125 32.71875 
Q 45.703125 34.515625 45.890625 36.046875 
Q 46.09375 37.59375 46.09375 38.8125 
Q 46.09375 43.265625 43.65625 45.71875 
Q 41.21875 48.1875 36.921875 48.1875 
Q 30.28125 48.1875 25.140625 43.28125 
Q 20.015625 38.375 18.5 30.515625 
L 12.5 0 
L 3.515625 0 
L 14.203125 54.6875 
L 23.1875 54.6875 
L 21.484375 46.1875 
Q 25.140625 50.984375 30.046875 53.484375 
Q 34.96875 56 40.578125 56 
Q 46.53125 56 50.359375 52.875 
Q 54.203125 49.75 54.984375 44.1875 
Q 59.078125 49.953125 64.46875 52.96875 
Q 69.875 56 75.875 56 
Q 82.90625 56 86.734375 51.953125 
Q 90.578125 47.90625 90.578125 40.484375 
Q 90.578125 38.875 90.375 36.9375 
Q 90.1875 35.015625 89.796875 33.015625 
z
" id="DejaVuSans-Oblique-109"/>
      <path d="M 25.390625 72.90625 
L 33.6875 72.90625 
L 8.296875 -9.28125 
L 0 -9.28125 
z
" id="DejaVuSans-47"/>
      <path d="M 50 53.078125 
L 48.296875 44.578125 
Q 44.734375 46.53125 40.765625 47.5 
Q 36.8125 48.484375 32.625 48.484375 
Q 25.53125 48.484375 21.453125 46.0625 
Q 17.390625 43.65625 17.390625 39.5 
Q 17.390625 34.671875 26.859375 32.078125 
Q 27.59375 31.890625 27.9375 31.78125 
L 30.8125 30.90625 
Q 39.796875 28.421875 42.796875 25.6875 
Q 45.796875 22.953125 45.796875 18.21875 
Q 45.796875 9.515625 38.890625 4.046875 
Q 31.984375 -1.421875 20.796875 -1.421875 
Q 16.453125 -1.421875 11.671875 -0.578125 
Q 6.890625 0.25 1.125 2 
L 2.875 11.28125 
Q 7.8125 8.734375 12.59375 7.421875 
Q 17.390625 6.109375 21.78125 6.109375 
Q 28.375 6.109375 32.5 8.9375 
Q 36.625 11.765625 36.625 16.109375 
Q 36.625 20.796875 25.78125 23.6875 
L 24.859375 23.921875 
L 21.78125 24.703125 
Q 14.9375 26.515625 11.765625 29.46875 
Q 8.59375 32.421875 8.59375 37.015625 
Q 8.59375 45.75 15.15625 50.875 
Q 21.734375 56 33.015625 56 
Q 37.453125 56 41.671875 55.265625 
Q 45.90625 54.546875 50 53.078125 
z
" id="DejaVuSans-Oblique-115"/>
     </defs>
     <g transform="translate(20.304 185.5275)rotate(-90)scale(0.144 -0.144)">
      <use transform="translate(0 0.765625)" xlink:href="#DejaVuSans-114"/>
      <use transform="translate(41.113281 0.765625)" xlink:href="#DejaVuSans-109"/>
      <use transform="translate(138.525391 0.765625)" xlink:href="#DejaVuSans-115"/>
      <use transform="translate(190.625 0.765625)" xlink:href="#DejaVuSans-101"/>
      <use transform="translate(252.148438 0.765625)" xlink:href="#DejaVuSans-32"/>
      <use transform="translate(283.935547 0.765625)" xlink:href="#DejaVuSans-124"/>
      <use transform="translate(317.626953 0.765625)" xlink:href="#DejaVuSans-32"/>
      <use transform="translate(349.414062 0.765625)" xlink:href="#DejaVuSans-115"/>
      <use transform="translate(401.513672 0.765625)" xlink:href="#DejaVuSans-112"/>
      <use transform="translate(464.990234 0.765625)" xlink:href="#DejaVuSans-114"/>
      <use transform="translate(506.103516 0.765625)" xlink:href="#DejaVuSans-101"/>
      <use transform="translate(567.626953 0.765625)" xlink:href="#DejaVuSans-97"/>
      <use transform="translate(628.90625 0.765625)" xlink:href="#DejaVuSans-100"/>
      <use transform="translate(692.382812 0.765625)" xlink:href="#DejaVuSans-32"/>
      <use transform="translate(724.169922 0.765625)" xlink:href="#DejaVuSans-91"/>
      <use transform="translate(763.183594 0.765625)" xlink:href="#DejaVuSans-Oblique-109"/>
      <use transform="translate(865.245599 39.046875)scale(0.7)" xlink:href="#DejaVuSans-50"/>
      <use transform="translate(912.516107 0.765625)" xlink:href="#DejaVuSans-47"/>
      <use transform="translate(946.207513 0.765625)" xlink:href="#DejaVuSans-Oblique-115"/>
      <use transform="translate(1002.957018 39.046875)scale(0.7)" xlink:href="#DejaVuSans-50"/>
      <use transform="translate(1050.227526 0.765625)" xlink:href="#DejaVuSans-93"/>
     </g>
    </g>
   </g>
   <g id="line2d_12">
    <path clip-path="url(#p7b0076b987)" d="M 91.339415 141.526587 
L 111.363338 145.992066 
L 131.387262 143.923289 
L 151.411185 142.875782 
L 171.435109 141.832341 
L 191.459032 141.540887 
L 211.482955 141.142583 
L 231.506879 140.943344 
L 251.530802 140.586723 
L 271.554726 140.398824 
L 291.578649 139.921317 
L 311.602573 139.846586 
L 331.626496 139.717726 
L 351.65042 139.552369 
L 371.674343 139.373231 
L 391.698266 139.323941 
L 411.72219 139.416167 
L 431.746113 139.520396 
L 451.770037 139.703722 
L 471.79396 139.932998 
" style="fill:none;stroke:#1b9e77;stroke-linecap:square;stroke-width:2.5;"/>
   </g>
   <g id="line2d_13">
    <path clip-path="url(#p7b0076b987)" d="M 91.339415 141.526587 
L 111.363338 138.172255 
L 131.387262 134.67968 
L 151.411185 133.162938 
L 171.435109 130.468491 
L 191.459032 128.118523 
L 211.482955 123.213678 
L 231.506879 119.463551 
L 251.530802 114.08785 
L 271.554726 109.036519 
L 291.578649 102.01434 
L 311.602573 96.676907 
L 331.626496 90.486474 
L 351.65042 83.931304 
L 371.674343 75.715793 
L 391.698266 68.084629 
L 411.72219 60.682474 
L 431.746113 52.372433 
L 451.770037 43.81351 
L 471.79396 36.525173 
" style="fill:none;stroke:#7570b3;stroke-linecap:square;stroke-width:2.5;"/>
   </g>
   <g id="line2d_14">
    <path clip-path="url(#p7b0076b987)" d="M 91.339415 141.526684 
L 111.363338 133.706873 
L 131.387262 132.283074 
L 151.411185 131.813839 
L 171.435109 130.162834 
L 191.459032 128.10432 
L 211.482955 123.597778 
L 231.506879 120.04689 
L 251.530802 115.027811 
L 271.554726 110.164379 
L 291.578649 103.619706 
L 311.602573 98.357005 
L 331.626496 92.295431 
L 351.65042 85.905619 
L 371.674343 77.869246 
L 391.698266 70.287372 
L 411.72219 62.79299 
L 431.746113 54.378721 
L 451.770037 45.636472 
L 471.79396 38.118859 
" style="fill:none;stroke:#d95f02;stroke-linecap:square;stroke-width:2.5;"/>
   </g>
   <g id="line2d_15">
    <path clip-path="url(#p7b0076b987)" d="M 91.339415 182.603614 
L 111.363338 150.941808 
L 131.387262 139.905614 
L 151.411185 134.557556 
L 171.435109 135.370773 
L 191.459032 138.096074 
L 211.482955 140.326775 
L 231.506879 141.391442 
L 251.530802 141.840852 
L 271.554726 141.886977 
L 291.578649 141.795884 
L 311.602573 141.566497 
L 331.626496 141.509506 
L 351.65042 141.614929 
L 371.674343 141.923994 
L 391.698266 142.454449 
L 411.72219 143.272204 
L 431.746113 144.331003 
L 451.770037 145.242566 
L 471.79396 145.944403 
" style="fill:none;stroke:#1b9e77;stroke-dasharray:9.25,4;stroke-dashoffset:0;stroke-width:2.5;"/>
   </g>
   <g id="line2d_16">
    <path clip-path="url(#p7b0076b987)" d="M 91.339415 134.509897 
L 111.363338 140.915623 
L 131.387262 135.201709 
L 151.411185 128.548219 
L 171.435109 129.785354 
L 191.459032 136.867578 
L 211.482955 146.463514 
L 231.506879 156.117366 
L 251.530802 164.735809 
L 271.554726 171.674716 
L 291.578649 176.351597 
L 311.602573 178.036429 
L 331.626496 176.63098 
L 351.65042 172.821728 
L 371.674343 168.126447 
L 391.698266 163.954003 
L 411.72219 161.285071 
L 431.746113 160.619194 
L 451.770037 161.879043 
L 471.79396 164.946042 
" style="fill:none;stroke:#7570b3;stroke-dasharray:9.25,4;stroke-dashoffset:0;stroke-width:2.5;"/>
   </g>
   <g id="line2d_17">
    <path clip-path="url(#p7b0076b987)" d="M 91.339415 93.432967 
L 111.363338 131.500499 
L 131.387262 136.822779 
L 151.411185 135.517346 
L 171.435109 135.941264 
L 191.459032 140.298187 
L 211.482955 147.663423 
L 231.506879 156.252608 
L 251.530802 164.421641 
L 271.554726 171.314423 
L 291.578649 176.082397 
L 311.602573 177.996616 
L 331.626496 176.648158 
L 351.65042 172.733482 
L 371.674343 167.729136 
L 391.698266 163.026237 
L 411.72219 159.53955 
L 431.746113 157.814875 
L 451.770037 158.16316 
L 471.79396 160.528323 
" style="fill:none;stroke:#d95f02;stroke-dasharray:9.25,4;stroke-dashoffset:0;stroke-width:2.5;"/>
   </g>
   <g id="patch_3">
    <path d="M 72.316688 190.2075 
L 72.316688 23.8875 
" style="fill:none;stroke:#000000;stroke-linecap:square;stroke-linejoin:miter;"/>
   </g>
   <g id="patch_4">
    <path d="M 72.316688 190.2075 
L 490.816687 190.2075 
" style="fill:none;stroke:#000000;stroke-linecap:square;stroke-linejoin:miter;"/>
   </g>
   <g id="text_13">
    <!-- n_ens:20 -->
    <defs>
     <path d="M 54.890625 33.015625 
L 54.890625 0 
L 45.90625 0 
L 45.90625 32.71875 
Q 45.90625 40.484375 42.875 44.328125 
Q 39.84375 48.1875 33.796875 48.1875 
Q 26.515625 48.1875 22.3125 43.546875 
Q 18.109375 38.921875 18.109375 30.90625 
L 18.109375 0 
L 9.078125 0 
L 9.078125 54.6875 
L 18.109375 54.6875 
L 18.109375 46.1875 
Q 21.34375 51.125 25.703125 53.5625 
Q 30.078125 56 35.796875 56 
Q 45.21875 56 50.046875 50.171875 
Q 54.890625 44.34375 54.890625 33.015625 
z
" id="DejaVuSans-110"/>
     <path d="M 50.984375 -16.609375 
L 50.984375 -23.578125 
L -0.984375 -23.578125 
L -0.984375 -16.609375 
z
" id="DejaVuSans-95"/>
     <path d="M 11.71875 12.40625 
L 22.015625 12.40625 
L 22.015625 0 
L 11.71875 0 
z
M 11.71875 51.703125 
L 22.015625 51.703125 
L 22.015625 39.3125 
L 11.71875 39.3125 
z
" id="DejaVuSans-58"/>
    </defs>
    <g transform="translate(249.072187 17.8875)scale(0.144 -0.144)">
     <use xlink:href="#DejaVuSans-110"/>
     <use x="63.378906" xlink:href="#DejaVuSans-95"/>
     <use x="113.378906" xlink:href="#DejaVuSans-101"/>
     <use x="174.902344" xlink:href="#DejaVuSans-110"/>
     <use x="238.28125" xlink:href="#DejaVuSans-115"/>
     <use x="290.380859" xlink:href="#DejaVuSans-58"/>
     <use x="324.072266" xlink:href="#DejaVuSans-50"/>
     <use x="387.695312" xlink:href="#DejaVuSans-48"/>
    </g>
   </g>
   <g id="legend_1">
    <g id="patch_5">
     <path d="M 80.713328 115.133487 
L 236.791496 115.133487 
Q 239.190536 115.133487 239.190536 112.734447 
L 239.190536 32.28414 
Q 239.190536 29.8851 236.791496 29.8851 
L 80.713328 29.8851 
Q 78.314288 29.8851 78.314288 32.28414 
L 78.314288 112.734447 
Q 78.314288 115.133487 80.713328 115.133487 
z
" style="fill:#ffffff;opacity:0.4;stroke:#cccccc;stroke-linejoin:miter;stroke-width:0.8;"/>
    </g>
    <g id="line2d_18">
     <path d="M 83.112368 39.599338 
L 107.102767 39.599338 
" style="fill:none;stroke:#1b9e77;stroke-linecap:square;stroke-width:2.5;"/>
    </g>
    <g id="line2d_19"/>
    <g id="text_14">
     <!-- rmse svd-rand -->
     <defs>
      <path d="M 2.984375 54.6875 
L 12.5 54.6875 
L 29.59375 8.796875 
L 46.6875 54.6875 
L 56.203125 54.6875 
L 35.6875 0 
L 23.484375 0 
z
" id="DejaVuSans-118"/>
      <path d="M 4.890625 31.390625 
L 31.203125 31.390625 
L 31.203125 23.390625 
L 4.890625 23.390625 
z
" id="DejaVuSans-45"/>
     </defs>
     <g transform="translate(116.698928 43.797658)scale(0.119952 -0.119952)">
      <use xlink:href="#DejaVuSans-114"/>
      <use x="41.097656" xlink:href="#DejaVuSans-109"/>
      <use x="138.509766" xlink:href="#DejaVuSans-115"/>
      <use x="190.609375" xlink:href="#DejaVuSans-101"/>
      <use x="252.132812" xlink:href="#DejaVuSans-32"/>
      <use x="283.919922" xlink:href="#DejaVuSans-115"/>
      <use x="336.019531" xlink:href="#DejaVuSans-118"/>
      <use x="395.199219" xlink:href="#DejaVuSans-100"/>
      <use x="458.675781" xlink:href="#DejaVuSans-45"/>
      <use x="494.759766" xlink:href="#DejaVuSans-114"/>
      <use x="535.873047" xlink:href="#DejaVuSans-97"/>
      <use x="597.152344" xlink:href="#DejaVuSans-110"/>
      <use x="660.53125" xlink:href="#DejaVuSans-100"/>
     </g>
    </g>
    <g id="line2d_20">
     <path d="M 83.112368 52.407962 
L 107.102767 52.407962 
" style="fill:none;stroke:#7570b3;stroke-linecap:square;stroke-width:2.5;"/>
    </g>
    <g id="line2d_21"/>
    <g id="text_15">
     <!-- rmse svd-netens -->
     <g transform="translate(116.698928 56.606282)scale(0.119952 -0.119952)">
      <use xlink:href="#DejaVuSans-114"/>
      <use x="41.097656" xlink:href="#DejaVuSans-109"/>
      <use x="138.509766" xlink:href="#DejaVuSans-115"/>
      <use x="190.609375" xlink:href="#DejaVuSans-101"/>
      <use x="252.132812" xlink:href="#DejaVuSans-32"/>
      <use x="283.919922" xlink:href="#DejaVuSans-115"/>
      <use x="336.019531" xlink:href="#DejaVuSans-118"/>
      <use x="395.199219" xlink:href="#DejaVuSans-100"/>
      <use x="458.675781" xlink:href="#DejaVuSans-45"/>
      <use x="494.759766" xlink:href="#DejaVuSans-110"/>
      <use x="558.138672" xlink:href="#DejaVuSans-101"/>
      <use x="619.662109" xlink:href="#DejaVuSans-116"/>
      <use x="658.871094" xlink:href="#DejaVuSans-101"/>
      <use x="720.394531" xlink:href="#DejaVuSans-110"/>
      <use x="783.773438" xlink:href="#DejaVuSans-115"/>
     </g>
    </g>
    <g id="line2d_22">
     <path d="M 83.112368 65.216587 
L 107.102767 65.216587 
" style="fill:none;stroke:#d95f02;stroke-linecap:square;stroke-width:2.5;"/>
    </g>
    <g id="line2d_23"/>
    <g id="text_16">
     <!-- rmse rand-netens -->
     <g transform="translate(116.698928 69.414907)scale(0.119952 -0.119952)">
      <use xlink:href="#DejaVuSans-114"/>
      <use x="41.097656" xlink:href="#DejaVuSans-109"/>
      <use x="138.509766" xlink:href="#DejaVuSans-115"/>
      <use x="190.609375" xlink:href="#DejaVuSans-101"/>
      <use x="252.132812" xlink:href="#DejaVuSans-32"/>
      <use x="283.919922" xlink:href="#DejaVuSans-114"/>
      <use x="325.033203" xlink:href="#DejaVuSans-97"/>
      <use x="386.3125" xlink:href="#DejaVuSans-110"/>
      <use x="449.691406" xlink:href="#DejaVuSans-100"/>
      <use x="513.167969" xlink:href="#DejaVuSans-45"/>
      <use x="549.251953" xlink:href="#DejaVuSans-110"/>
      <use x="612.630859" xlink:href="#DejaVuSans-101"/>
      <use x="674.154297" xlink:href="#DejaVuSans-116"/>
      <use x="713.363281" xlink:href="#DejaVuSans-101"/>
      <use x="774.886719" xlink:href="#DejaVuSans-110"/>
      <use x="838.265625" xlink:href="#DejaVuSans-115"/>
     </g>
    </g>
    <g id="line2d_24">
     <path d="M 83.112368 78.025211 
L 107.102767 78.025211 
" style="fill:none;stroke:#1b9e77;stroke-dasharray:9.25,4;stroke-dashoffset:0;stroke-width:2.5;"/>
    </g>
    <g id="line2d_25"/>
    <g id="text_17">
     <!-- spread svd-rand -->
     <g transform="translate(116.698928 82.223531)scale(0.119952 -0.119952)">
      <use xlink:href="#DejaVuSans-115"/>
      <use x="52.099609" xlink:href="#DejaVuSans-112"/>
      <use x="115.576172" xlink:href="#DejaVuSans-114"/>
      <use x="156.658203" xlink:href="#DejaVuSans-101"/>
      <use x="218.181641" xlink:href="#DejaVuSans-97"/>
      <use x="279.460938" xlink:href="#DejaVuSans-100"/>
      <use x="342.9375" xlink:href="#DejaVuSans-32"/>
      <use x="374.724609" xlink:href="#DejaVuSans-115"/>
      <use x="426.824219" xlink:href="#DejaVuSans-118"/>
      <use x="486.003906" xlink:href="#DejaVuSans-100"/>
      <use x="549.480469" xlink:href="#DejaVuSans-45"/>
      <use x="585.564453" xlink:href="#DejaVuSans-114"/>
      <use x="626.677734" xlink:href="#DejaVuSans-97"/>
      <use x="687.957031" xlink:href="#DejaVuSans-110"/>
      <use x="751.335938" xlink:href="#DejaVuSans-100"/>
     </g>
    </g>
    <g id="line2d_26">
     <path d="M 83.112368 90.833836 
L 107.102767 90.833836 
" style="fill:none;stroke:#7570b3;stroke-dasharray:9.25,4;stroke-dashoffset:0;stroke-width:2.5;"/>
    </g>
    <g id="line2d_27"/>
    <g id="text_18">
     <!-- spread svd-netens -->
     <g transform="translate(116.698928 95.032156)scale(0.119952 -0.119952)">
      <use xlink:href="#DejaVuSans-115"/>
      <use x="52.099609" xlink:href="#DejaVuSans-112"/>
      <use x="115.576172" xlink:href="#DejaVuSans-114"/>
      <use x="156.658203" xlink:href="#DejaVuSans-101"/>
      <use x="218.181641" xlink:href="#DejaVuSans-97"/>
      <use x="279.460938" xlink:href="#DejaVuSans-100"/>
      <use x="342.9375" xlink:href="#DejaVuSans-32"/>
      <use x="374.724609" xlink:href="#DejaVuSans-115"/>
      <use x="426.824219" xlink:href="#DejaVuSans-118"/>
      <use x="486.003906" xlink:href="#DejaVuSans-100"/>
      <use x="549.480469" xlink:href="#DejaVuSans-45"/>
      <use x="585.564453" xlink:href="#DejaVuSans-110"/>
      <use x="648.943359" xlink:href="#DejaVuSans-101"/>
      <use x="710.466797" xlink:href="#DejaVuSans-116"/>
      <use x="749.675781" xlink:href="#DejaVuSans-101"/>
      <use x="811.199219" xlink:href="#DejaVuSans-110"/>
      <use x="874.578125" xlink:href="#DejaVuSans-115"/>
     </g>
    </g>
    <g id="line2d_28">
     <path d="M 83.112368 103.64246 
L 107.102767 103.64246 
" style="fill:none;stroke:#d95f02;stroke-dasharray:9.25,4;stroke-dashoffset:0;stroke-width:2.5;"/>
    </g>
    <g id="line2d_29"/>
    <g id="text_19">
     <!-- spread rand-netens -->
     <g transform="translate(116.698928 107.84078)scale(0.119952 -0.119952)">
      <use xlink:href="#DejaVuSans-115"/>
      <use x="52.099609" xlink:href="#DejaVuSans-112"/>
      <use x="115.576172" xlink:href="#DejaVuSans-114"/>
      <use x="156.658203" xlink:href="#DejaVuSans-101"/>
      <use x="218.181641" xlink:href="#DejaVuSans-97"/>
      <use x="279.460938" xlink:href="#DejaVuSans-100"/>
      <use x="342.9375" xlink:href="#DejaVuSans-32"/>
      <use x="374.724609" xlink:href="#DejaVuSans-114"/>
      <use x="415.837891" xlink:href="#DejaVuSans-97"/>
      <use x="477.117188" xlink:href="#DejaVuSans-110"/>
      <use x="540.496094" xlink:href="#DejaVuSans-100"/>
      <use x="603.972656" xlink:href="#DejaVuSans-45"/>
      <use x="640.056641" xlink:href="#DejaVuSans-110"/>
      <use x="703.435547" xlink:href="#DejaVuSans-101"/>
      <use x="764.958984" xlink:href="#DejaVuSans-116"/>
      <use x="804.167969" xlink:href="#DejaVuSans-101"/>
      <use x="865.691406" xlink:href="#DejaVuSans-110"/>
      <use x="929.070312" xlink:href="#DejaVuSans-115"/>
     </g>
    </g>
   </g>
  </g>
 </g>
 <defs>
  <clipPath id="p7b0076b987">
   <rect height="166.32" width="418.5" x="72.316688" y="23.8875"/>
  </clipPath>
 </defs>
</svg>
