<?xml version="1.0" encoding="utf-8" standalone="no"?>
<!DOCTYPE svg PUBLIC "-//W3C//DTD SVG 1.1//EN"
  "http://www.w3.org/Graphics/SVG/1.1/DTD/svg11.dtd">
<!-- Created with matplotlib (https://matplotlib.org/) -->
<svg height="222.467625pt" version="1.1" viewBox="0 0 491.189812 222.467625" width="491.189812pt" xmlns="http://www.w3.org/2000/svg" xmlns:xlink="http://www.w3.org/1999/xlink">
 <defs>
  <style type="text/css">
*{stroke-linecap:butt;stroke-linejoin:round;}
  </style>
 </defs>
 <g id="figure_1">
  <g id="patch_1">
   <path d="M 0 222.467625 
L 491.189812 222.467625 
L 491.189812 0 
L 0 0 
z
" style="fill:#ffffff;"/>
  </g>
  <g id="axes_1">
   <g id="patch_2">
    <path d="M 65.489813 176.256 
L 483.989813 176.256 
L 483.989813 9.936 
L 65.489813 9.936 
z
" style="fill:#ffffff;"/>
   </g>
   <g id="matplotlib.axis_1">
    <g id="xtick_1">
     <g id="line2d_1">
      <defs>
       <path d="M 0 0 
L 0 4.8 
" id="m6428192aaf" style="stroke:#000000;"/>
      </defs>
      <g>
       <use style="stroke:#000000;" x="84.51254" xlink:href="#m6428192aaf" y="176.256"/>
      </g>
     </g>
     <g id="text_1">
      <!-- 0.00 -->
      <defs>
       <path d="M 31.78125 66.40625 
Q 24.171875 66.40625 20.328125 58.90625 
Q 16.5 51.421875 16.5 36.375 
Q 16.5 21.390625 20.328125 13.890625 
Q 24.171875 6.390625 31.78125 6.390625 
Q 39.453125 6.390625 43.28125 13.890625 
Q 47.125 21.390625 47.125 36.375 
Q 47.125 51.421875 43.28125 58.90625 
Q 39.453125 66.40625 31.78125 66.40625 
z
M 31.78125 74.21875 
Q 44.046875 74.21875 50.515625 64.515625 
Q 56.984375 54.828125 56.984375 36.375 
Q 56.984375 17.96875 50.515625 8.265625 
Q 44.046875 -1.421875 31.78125 -1.421875 
Q 19.53125 -1.421875 13.0625 8.265625 
Q 6.59375 17.96875 6.59375 36.375 
Q 6.59375 54.828125 13.0625 64.515625 
Q 19.53125 74.21875 31.78125 74.21875 
z
" id="DejaVuSans-48"/>
       <path d="M 10.6875 12.40625 
L 21 12.40625 
L 21 0 
L 10.6875 0 
z
" id="DejaVuSans-46"/>
      </defs>
      <g transform="translate(69.817227 194.585938)scale(0.132 -0.132)">
       <use xlink:href="#DejaVuSans-48"/>
       <use x="63.623047" xlink:href="#DejaVuSans-46"/>
       <use x="95.410156" xlink:href="#DejaVuSans-48"/>
       <use x="159.033203" xlink:href="#DejaVuSans-48"/>
      </g>
     </g>
    </g>
    <g id="xtick_2">
     <g id="line2d_2">
      <g>
       <use style="stroke:#000000;" x="132.069358" xlink:href="#m6428192aaf" y="176.256"/>
      </g>
     </g>
     <g id="text_2">
      <!-- 0.25 -->
      <defs>
       <path d="M 19.1875 8.296875 
L 53.609375 8.296875 
L 53.609375 0 
L 7.328125 0 
L 7.328125 8.296875 
Q 12.9375 14.109375 22.625 23.890625 
Q 32.328125 33.6875 34.8125 36.53125 
Q 39.546875 41.84375 41.421875 45.53125 
Q 43.3125 49.21875 43.3125 52.78125 
Q 43.3125 58.59375 39.234375 62.25 
Q 35.15625 65.921875 28.609375 65.921875 
Q 23.96875 65.921875 18.8125 64.3125 
Q 13.671875 62.703125 7.8125 59.421875 
L 7.8125 69.390625 
Q 13.765625 71.78125 18.9375 73 
Q 24.125 74.21875 28.421875 74.21875 
Q 39.75 74.21875 46.484375 68.546875 
Q 53.21875 62.890625 53.21875 53.421875 
Q 53.21875 48.921875 51.53125 44.890625 
Q 49.859375 40.875 45.40625 35.40625 
Q 44.1875 33.984375 37.640625 27.21875 
Q 31.109375 20.453125 19.1875 8.296875 
z
" id="DejaVuSans-50"/>
       <path d="M 10.796875 72.90625 
L 49.515625 72.90625 
L 49.515625 64.59375 
L 19.828125 64.59375 
L 19.828125 46.734375 
Q 21.96875 47.46875 24.109375 47.828125 
Q 26.265625 48.1875 28.421875 48.1875 
Q 40.625 48.1875 47.75 41.5 
Q 54.890625 34.8125 54.890625 23.390625 
Q 54.890625 11.625 47.5625 5.09375 
Q 40.234375 -1.421875 26.90625 -1.421875 
Q 22.3125 -1.421875 17.546875 -0.640625 
Q 12.796875 0.140625 7.71875 1.703125 
L 7.71875 11.625 
Q 12.109375 9.234375 16.796875 8.0625 
Q 21.484375 6.890625 26.703125 6.890625 
Q 35.15625 6.890625 40.078125 11.328125 
Q 45.015625 15.765625 45.015625 23.390625 
Q 45.015625 31 40.078125 35.4375 
Q 35.15625 39.890625 26.703125 39.890625 
Q 22.75 39.890625 18.8125 39.015625 
Q 14.890625 38.140625 10.796875 36.28125 
z
" id="DejaVuSans-53"/>
      </defs>
      <g transform="translate(117.374045 194.585938)scale(0.132 -0.132)">
       <use xlink:href="#DejaVuSans-48"/>
       <use x="63.623047" xlink:href="#DejaVuSans-46"/>
       <use x="95.410156" xlink:href="#DejaVuSans-50"/>
       <use x="159.033203" xlink:href="#DejaVuSans-53"/>
      </g>
     </g>
    </g>
    <g id="xtick_3">
     <g id="line2d_3">
      <g>
       <use style="stroke:#000000;" x="179.626176" xlink:href="#m6428192aaf" y="176.256"/>
      </g>
     </g>
     <g id="text_3">
      <!-- 0.50 -->
      <g transform="translate(164.930864 194.585938)scale(0.132 -0.132)">
       <use xlink:href="#DejaVuSans-48"/>
       <use x="63.623047" xlink:href="#DejaVuSans-46"/>
       <use x="95.410156" xlink:href="#DejaVuSans-53"/>
       <use x="159.033203" xlink:href="#DejaVuSans-48"/>
      </g>
     </g>
    </g>
    <g id="xtick_4">
     <g id="line2d_4">
      <g>
       <use style="stroke:#000000;" x="227.182994" xlink:href="#m6428192aaf" y="176.256"/>
      </g>
     </g>
     <g id="text_4">
      <!-- 0.75 -->
      <defs>
       <path d="M 8.203125 72.90625 
L 55.078125 72.90625 
L 55.078125 68.703125 
L 28.609375 0 
L 18.3125 0 
L 43.21875 64.59375 
L 8.203125 64.59375 
z
" id="DejaVuSans-55"/>
      </defs>
      <g transform="translate(212.487682 194.585938)scale(0.132 -0.132)">
       <use xlink:href="#DejaVuSans-48"/>
       <use x="63.623047" xlink:href="#DejaVuSans-46"/>
       <use x="95.410156" xlink:href="#DejaVuSans-55"/>
       <use x="159.033203" xlink:href="#DejaVuSans-53"/>
      </g>
     </g>
    </g>
    <g id="xtick_5">
     <g id="line2d_5">
      <g>
       <use style="stroke:#000000;" x="274.739812" xlink:href="#m6428192aaf" y="176.256"/>
      </g>
     </g>
     <g id="text_5">
      <!-- 1.00 -->
      <defs>
       <path d="M 12.40625 8.296875 
L 28.515625 8.296875 
L 28.515625 63.921875 
L 10.984375 60.40625 
L 10.984375 69.390625 
L 28.421875 72.90625 
L 38.28125 72.90625 
L 38.28125 8.296875 
L 54.390625 8.296875 
L 54.390625 0 
L 12.40625 0 
z
" id="DejaVuSans-49"/>
      </defs>
      <g transform="translate(260.0445 194.585938)scale(0.132 -0.132)">
       <use xlink:href="#DejaVuSans-49"/>
       <use x="63.623047" xlink:href="#DejaVuSans-46"/>
       <use x="95.410156" xlink:href="#DejaVuSans-48"/>
       <use x="159.033203" xlink:href="#DejaVuSans-48"/>
      </g>
     </g>
    </g>
    <g id="xtick_6">
     <g id="line2d_6">
      <g>
       <use style="stroke:#000000;" x="322.296631" xlink:href="#m6428192aaf" y="176.256"/>
      </g>
     </g>
     <g id="text_6">
      <!-- 1.25 -->
      <g transform="translate(307.601318 194.585938)scale(0.132 -0.132)">
       <use xlink:href="#DejaVuSans-49"/>
       <use x="63.623047" xlink:href="#DejaVuSans-46"/>
       <use x="95.410156" xlink:href="#DejaVuSans-50"/>
       <use x="159.033203" xlink:href="#DejaVuSans-53"/>
      </g>
     </g>
    </g>
    <g id="xtick_7">
     <g id="line2d_7">
      <g>
       <use style="stroke:#000000;" x="369.853449" xlink:href="#m6428192aaf" y="176.256"/>
      </g>
     </g>
     <g id="text_7">
      <!-- 1.50 -->
      <g transform="translate(355.158136 194.585938)scale(0.132 -0.132)">
       <use xlink:href="#DejaVuSans-49"/>
       <use x="63.623047" xlink:href="#DejaVuSans-46"/>
       <use x="95.410156" xlink:href="#DejaVuSans-53"/>
       <use x="159.033203" xlink:href="#DejaVuSans-48"/>
      </g>
     </g>
    </g>
    <g id="xtick_8">
     <g id="line2d_8">
      <g>
       <use style="stroke:#000000;" x="417.410267" xlink:href="#m6428192aaf" y="176.256"/>
      </g>
     </g>
     <g id="text_8">
      <!-- 1.75 -->
      <g transform="translate(402.714955 194.585938)scale(0.132 -0.132)">
       <use xlink:href="#DejaVuSans-49"/>
       <use x="63.623047" xlink:href="#DejaVuSans-46"/>
       <use x="95.410156" xlink:href="#DejaVuSans-55"/>
       <use x="159.033203" xlink:href="#DejaVuSans-53"/>
      </g>
     </g>
    </g>
    <g id="xtick_9">
     <g id="line2d_9">
      <g>
       <use style="stroke:#000000;" x="464.967085" xlink:href="#m6428192aaf" y="176.256"/>
      </g>
     </g>
     <g id="text_9">
      <!-- 2.00 -->
      <g transform="translate(450.271773 194.585938)scale(0.132 -0.132)">
       <use xlink:href="#DejaVuSans-50"/>
       <use x="63.623047" xlink:href="#DejaVuSans-46"/>
       <use x="95.410156" xlink:href="#DejaVuSans-48"/>
       <use x="159.033203" xlink:href="#DejaVuSans-48"/>
      </g>
     </g>
    </g>
    <g id="text_10">
     <!-- leadtime [MTU] -->
     <defs>
      <path d="M 9.421875 75.984375 
L 18.40625 75.984375 
L 18.40625 0 
L 9.421875 0 
z
" id="DejaVuSans-108"/>
      <path d="M 56.203125 29.59375 
L 56.203125 25.203125 
L 14.890625 25.203125 
Q 15.484375 15.921875 20.484375 11.0625 
Q 25.484375 6.203125 34.421875 6.203125 
Q 39.59375 6.203125 44.453125 7.46875 
Q 49.3125 8.734375 54.109375 11.28125 
L 54.109375 2.78125 
Q 49.265625 0.734375 44.1875 -0.34375 
Q 39.109375 -1.421875 33.890625 -1.421875 
Q 20.796875 -1.421875 13.15625 6.1875 
Q 5.515625 13.8125 5.515625 26.8125 
Q 5.515625 40.234375 12.765625 48.109375 
Q 20.015625 56 32.328125 56 
Q 43.359375 56 49.78125 48.890625 
Q 56.203125 41.796875 56.203125 29.59375 
z
M 47.21875 32.234375 
Q 47.125 39.59375 43.09375 43.984375 
Q 39.0625 48.390625 32.421875 48.390625 
Q 24.90625 48.390625 20.390625 44.140625 
Q 15.875 39.890625 15.1875 32.171875 
z
" id="DejaVuSans-101"/>
      <path d="M 34.28125 27.484375 
Q 23.390625 27.484375 19.1875 25 
Q 14.984375 22.515625 14.984375 16.5 
Q 14.984375 11.71875 18.140625 8.90625 
Q 21.296875 6.109375 26.703125 6.109375 
Q 34.1875 6.109375 38.703125 11.40625 
Q 43.21875 16.703125 43.21875 25.484375 
L 43.21875 27.484375 
z
M 52.203125 31.203125 
L 52.203125 0 
L 43.21875 0 
L 43.21875 8.296875 
Q 40.140625 3.328125 35.546875 0.953125 
Q 30.953125 -1.421875 24.3125 -1.421875 
Q 15.921875 -1.421875 10.953125 3.296875 
Q 6 8.015625 6 15.921875 
Q 6 25.140625 12.171875 29.828125 
Q 18.359375 34.515625 30.609375 34.515625 
L 43.21875 34.515625 
L 43.21875 35.40625 
Q 43.21875 41.609375 39.140625 45 
Q 35.0625 48.390625 27.6875 48.390625 
Q 23 48.390625 18.546875 47.265625 
Q 14.109375 46.140625 10.015625 43.890625 
L 10.015625 52.203125 
Q 14.9375 54.109375 19.578125 55.046875 
Q 24.21875 56 28.609375 56 
Q 40.484375 56 46.34375 49.84375 
Q 52.203125 43.703125 52.203125 31.203125 
z
" id="DejaVuSans-97"/>
      <path d="M 45.40625 46.390625 
L 45.40625 75.984375 
L 54.390625 75.984375 
L 54.390625 0 
L 45.40625 0 
L 45.40625 8.203125 
Q 42.578125 3.328125 38.25 0.953125 
Q 33.9375 -1.421875 27.875 -1.421875 
Q 17.96875 -1.421875 11.734375 6.484375 
Q 5.515625 14.40625 5.515625 27.296875 
Q 5.515625 40.1875 11.734375 48.09375 
Q 17.96875 56 27.875 56 
Q 33.9375 56 38.25 53.625 
Q 42.578125 51.265625 45.40625 46.390625 
z
M 14.796875 27.296875 
Q 14.796875 17.390625 18.875 11.75 
Q 22.953125 6.109375 30.078125 6.109375 
Q 37.203125 6.109375 41.296875 11.75 
Q 45.40625 17.390625 45.40625 27.296875 
Q 45.40625 37.203125 41.296875 42.84375 
Q 37.203125 48.484375 30.078125 48.484375 
Q 22.953125 48.484375 18.875 42.84375 
Q 14.796875 37.203125 14.796875 27.296875 
z
" id="DejaVuSans-100"/>
      <path d="M 18.3125 70.21875 
L 18.3125 54.6875 
L 36.8125 54.6875 
L 36.8125 47.703125 
L 18.3125 47.703125 
L 18.3125 18.015625 
Q 18.3125 11.328125 20.140625 9.421875 
Q 21.96875 7.515625 27.59375 7.515625 
L 36.8125 7.515625 
L 36.8125 0 
L 27.59375 0 
Q 17.1875 0 13.234375 3.875 
Q 9.28125 7.765625 9.28125 18.015625 
L 9.28125 47.703125 
L 2.6875 47.703125 
L 2.6875 54.6875 
L 9.28125 54.6875 
L 9.28125 70.21875 
z
" id="DejaVuSans-116"/>
      <path d="M 9.421875 54.6875 
L 18.40625 54.6875 
L 18.40625 0 
L 9.421875 0 
z
M 9.421875 75.984375 
L 18.40625 75.984375 
L 18.40625 64.59375 
L 9.421875 64.59375 
z
" id="DejaVuSans-105"/>
      <path d="M 52 44.1875 
Q 55.375 50.25 60.0625 53.125 
Q 64.75 56 71.09375 56 
Q 79.640625 56 84.28125 50.015625 
Q 88.921875 44.046875 88.921875 33.015625 
L 88.921875 0 
L 79.890625 0 
L 79.890625 32.71875 
Q 79.890625 40.578125 77.09375 44.375 
Q 74.3125 48.1875 68.609375 48.1875 
Q 61.625 48.1875 57.5625 43.546875 
Q 53.515625 38.921875 53.515625 30.90625 
L 53.515625 0 
L 44.484375 0 
L 44.484375 32.71875 
Q 44.484375 40.625 41.703125 44.40625 
Q 38.921875 48.1875 33.109375 48.1875 
Q 26.21875 48.1875 22.15625 43.53125 
Q 18.109375 38.875 18.109375 30.90625 
L 18.109375 0 
L 9.078125 0 
L 9.078125 54.6875 
L 18.109375 54.6875 
L 18.109375 46.1875 
Q 21.1875 51.21875 25.484375 53.609375 
Q 29.78125 56 35.6875 56 
Q 41.65625 56 45.828125 52.96875 
Q 50 49.953125 52 44.1875 
z
" id="DejaVuSans-109"/>
      <path id="DejaVuSans-32"/>
      <path d="M 8.59375 75.984375 
L 29.296875 75.984375 
L 29.296875 69 
L 17.578125 69 
L 17.578125 -6.203125 
L 29.296875 -6.203125 
L 29.296875 -13.1875 
L 8.59375 -13.1875 
z
" id="DejaVuSans-91"/>
      <path d="M 9.8125 72.90625 
L 24.515625 72.90625 
L 43.109375 23.296875 
L 61.8125 72.90625 
L 76.515625 72.90625 
L 76.515625 0 
L 66.890625 0 
L 66.890625 64.015625 
L 48.09375 14.015625 
L 38.1875 14.015625 
L 19.390625 64.015625 
L 19.390625 0 
L 9.8125 0 
z
" id="DejaVuSans-77"/>
      <path d="M -0.296875 72.90625 
L 61.375 72.90625 
L 61.375 64.59375 
L 35.5 64.59375 
L 35.5 0 
L 25.59375 0 
L 25.59375 64.59375 
L -0.296875 64.59375 
z
" id="DejaVuSans-84"/>
      <path d="M 8.6875 72.90625 
L 18.609375 72.90625 
L 18.609375 28.609375 
Q 18.609375 16.890625 22.84375 11.734375 
Q 27.09375 6.59375 36.625 6.59375 
Q 46.09375 6.59375 50.34375 11.734375 
Q 54.59375 16.890625 54.59375 28.609375 
L 54.59375 72.90625 
L 64.5 72.90625 
L 64.5 27.390625 
Q 64.5 13.140625 57.4375 5.859375 
Q 50.390625 -1.421875 36.625 -1.421875 
Q 22.796875 -1.421875 15.734375 5.859375 
Q 8.6875 13.140625 8.6875 27.390625 
z
" id="DejaVuSans-85"/>
      <path d="M 30.421875 75.984375 
L 30.421875 -13.1875 
L 9.71875 -13.1875 
L 9.71875 -6.203125 
L 21.390625 -6.203125 
L 21.390625 69 
L 9.71875 69 
L 9.71875 75.984375 
z
" id="DejaVuSans-93"/>
     </defs>
     <g transform="translate(219.273938 212.272875)scale(0.144 -0.144)">
      <use xlink:href="#DejaVuSans-108"/>
      <use x="27.783203" xlink:href="#DejaVuSans-101"/>
      <use x="89.306641" xlink:href="#DejaVuSans-97"/>
      <use x="150.585938" xlink:href="#DejaVuSans-100"/>
      <use x="214.0625" xlink:href="#DejaVuSans-116"/>
      <use x="253.271484" xlink:href="#DejaVuSans-105"/>
      <use x="281.054688" xlink:href="#DejaVuSans-109"/>
      <use x="378.466797" xlink:href="#DejaVuSans-101"/>
      <use x="439.990234" xlink:href="#DejaVuSans-32"/>
      <use x="471.777344" xlink:href="#DejaVuSans-91"/>
      <use x="510.791016" xlink:href="#DejaVuSans-77"/>
      <use x="597.070312" xlink:href="#DejaVuSans-84"/>
      <use x="658.154297" xlink:href="#DejaVuSans-85"/>
      <use x="731.347656" xlink:href="#DejaVuSans-93"/>
     </g>
    </g>
   </g>
   <g id="matplotlib.axis_2">
    <g id="ytick_1">
     <g id="line2d_10">
      <defs>
       <path d="M 0 0 
L -4.8 0 
" id="m4fcf6b3df9" style="stroke:#000000;"/>
      </defs>
      <g>
       <use style="stroke:#000000;" x="65.489813" xlink:href="#m4fcf6b3df9" y="157.386919"/>
      </g>
     </g>
     <g id="text_11">
      <!-- −0.5 -->
      <defs>
       <path d="M 10.59375 35.5 
L 73.1875 35.5 
L 73.1875 27.203125 
L 10.59375 27.203125 
z
" id="DejaVuSans-8722"/>
      </defs>
      <g transform="translate(25.1365 162.401888)scale(0.132 -0.132)">
       <use xlink:href="#DejaVuSans-8722"/>
       <use x="83.789062" xlink:href="#DejaVuSans-48"/>
       <use x="147.412109" xlink:href="#DejaVuSans-46"/>
       <use x="179.199219" xlink:href="#DejaVuSans-53"/>
      </g>
     </g>
    </g>
    <g id="ytick_2">
     <g id="line2d_11">
      <g>
       <use style="stroke:#000000;" x="65.489813" xlink:href="#m4fcf6b3df9" y="109.556383"/>
      </g>
     </g>
     <g id="text_12">
      <!-- 0.0 -->
      <g transform="translate(36.197688 114.571352)scale(0.132 -0.132)">
       <use xlink:href="#DejaVuSans-48"/>
       <use x="63.623047" xlink:href="#DejaVuSans-46"/>
       <use x="95.410156" xlink:href="#DejaVuSans-48"/>
      </g>
     </g>
    </g>
    <g id="ytick_3">
     <g id="line2d_12">
      <g>
       <use style="stroke:#000000;" x="65.489813" xlink:href="#m4fcf6b3df9" y="61.725847"/>
      </g>
     </g>
     <g id="text_13">
      <!-- 0.5 -->
      <g transform="translate(36.197688 66.740816)scale(0.132 -0.132)">
       <use xlink:href="#DejaVuSans-48"/>
       <use x="63.623047" xlink:href="#DejaVuSans-46"/>
       <use x="95.410156" xlink:href="#DejaVuSans-53"/>
      </g>
     </g>
    </g>
    <g id="ytick_4">
     <g id="line2d_13">
      <g>
       <use style="stroke:#000000;" x="65.489813" xlink:href="#m4fcf6b3df9" y="13.895311"/>
      </g>
     </g>
     <g id="text_14">
      <!-- 1.0 -->
      <g transform="translate(36.197688 18.910279)scale(0.132 -0.132)">
       <use xlink:href="#DejaVuSans-49"/>
       <use x="63.623047" xlink:href="#DejaVuSans-46"/>
       <use x="95.410156" xlink:href="#DejaVuSans-48"/>
      </g>
     </g>
    </g>
    <g id="text_15">
     <!-- spread error correlation -->
     <defs>
      <path d="M 44.28125 53.078125 
L 44.28125 44.578125 
Q 40.484375 46.53125 36.375 47.5 
Q 32.28125 48.484375 27.875 48.484375 
Q 21.1875 48.484375 17.84375 46.4375 
Q 14.5 44.390625 14.5 40.28125 
Q 14.5 37.15625 16.890625 35.375 
Q 19.28125 33.59375 26.515625 31.984375 
L 29.59375 31.296875 
Q 39.15625 29.25 43.1875 25.515625 
Q 47.21875 21.78125 47.21875 15.09375 
Q 47.21875 7.46875 41.1875 3.015625 
Q 35.15625 -1.421875 24.609375 -1.421875 
Q 20.21875 -1.421875 15.453125 -0.5625 
Q 10.6875 0.296875 5.421875 2 
L 5.421875 11.28125 
Q 10.40625 8.6875 15.234375 7.390625 
Q 20.0625 6.109375 24.8125 6.109375 
Q 31.15625 6.109375 34.5625 8.28125 
Q 37.984375 10.453125 37.984375 14.40625 
Q 37.984375 18.0625 35.515625 20.015625 
Q 33.0625 21.96875 24.703125 23.78125 
L 21.578125 24.515625 
Q 13.234375 26.265625 9.515625 29.90625 
Q 5.8125 33.546875 5.8125 39.890625 
Q 5.8125 47.609375 11.28125 51.796875 
Q 16.75 56 26.8125 56 
Q 31.78125 56 36.171875 55.265625 
Q 40.578125 54.546875 44.28125 53.078125 
z
" id="DejaVuSans-115"/>
      <path d="M 18.109375 8.203125 
L 18.109375 -20.796875 
L 9.078125 -20.796875 
L 9.078125 54.6875 
L 18.109375 54.6875 
L 18.109375 46.390625 
Q 20.953125 51.265625 25.265625 53.625 
Q 29.59375 56 35.59375 56 
Q 45.5625 56 51.78125 48.09375 
Q 58.015625 40.1875 58.015625 27.296875 
Q 58.015625 14.40625 51.78125 6.484375 
Q 45.5625 -1.421875 35.59375 -1.421875 
Q 29.59375 -1.421875 25.265625 0.953125 
Q 20.953125 3.328125 18.109375 8.203125 
z
M 48.6875 27.296875 
Q 48.6875 37.203125 44.609375 42.84375 
Q 40.53125 48.484375 33.40625 48.484375 
Q 26.265625 48.484375 22.1875 42.84375 
Q 18.109375 37.203125 18.109375 27.296875 
Q 18.109375 17.390625 22.1875 11.75 
Q 26.265625 6.109375 33.40625 6.109375 
Q 40.53125 6.109375 44.609375 11.75 
Q 48.6875 17.390625 48.6875 27.296875 
z
" id="DejaVuSans-112"/>
      <path d="M 41.109375 46.296875 
Q 39.59375 47.171875 37.8125 47.578125 
Q 36.03125 48 33.890625 48 
Q 26.265625 48 22.1875 43.046875 
Q 18.109375 38.09375 18.109375 28.8125 
L 18.109375 0 
L 9.078125 0 
L 9.078125 54.6875 
L 18.109375 54.6875 
L 18.109375 46.1875 
Q 20.953125 51.171875 25.484375 53.578125 
Q 30.03125 56 36.53125 56 
Q 37.453125 56 38.578125 55.875 
Q 39.703125 55.765625 41.0625 55.515625 
z
" id="DejaVuSans-114"/>
      <path d="M 30.609375 48.390625 
Q 23.390625 48.390625 19.1875 42.75 
Q 14.984375 37.109375 14.984375 27.296875 
Q 14.984375 17.484375 19.15625 11.84375 
Q 23.34375 6.203125 30.609375 6.203125 
Q 37.796875 6.203125 41.984375 11.859375 
Q 46.1875 17.53125 46.1875 27.296875 
Q 46.1875 37.015625 41.984375 42.703125 
Q 37.796875 48.390625 30.609375 48.390625 
z
M 30.609375 56 
Q 42.328125 56 49.015625 48.375 
Q 55.71875 40.765625 55.71875 27.296875 
Q 55.71875 13.875 49.015625 6.21875 
Q 42.328125 -1.421875 30.609375 -1.421875 
Q 18.84375 -1.421875 12.171875 6.21875 
Q 5.515625 13.875 5.515625 27.296875 
Q 5.515625 40.765625 12.171875 48.375 
Q 18.84375 56 30.609375 56 
z
" id="DejaVuSans-111"/>
      <path d="M 48.78125 52.59375 
L 48.78125 44.1875 
Q 44.96875 46.296875 41.140625 47.34375 
Q 37.3125 48.390625 33.40625 48.390625 
Q 24.65625 48.390625 19.8125 42.84375 
Q 14.984375 37.3125 14.984375 27.296875 
Q 14.984375 17.28125 19.8125 11.734375 
Q 24.65625 6.203125 33.40625 6.203125 
Q 37.3125 6.203125 41.140625 7.25 
Q 44.96875 8.296875 48.78125 10.40625 
L 48.78125 2.09375 
Q 45.015625 0.34375 40.984375 -0.53125 
Q 36.96875 -1.421875 32.421875 -1.421875 
Q 20.0625 -1.421875 12.78125 6.34375 
Q 5.515625 14.109375 5.515625 27.296875 
Q 5.515625 40.671875 12.859375 48.328125 
Q 20.21875 56 33.015625 56 
Q 37.15625 56 41.109375 55.140625 
Q 45.0625 54.296875 48.78125 52.59375 
z
" id="DejaVuSans-99"/>
      <path d="M 54.890625 33.015625 
L 54.890625 0 
L 45.90625 0 
L 45.90625 32.71875 
Q 45.90625 40.484375 42.875 44.328125 
Q 39.84375 48.1875 33.796875 48.1875 
Q 26.515625 48.1875 22.3125 43.546875 
Q 18.109375 38.921875 18.109375 30.90625 
L 18.109375 0 
L 9.078125 0 
L 9.078125 54.6875 
L 18.109375 54.6875 
L 18.109375 46.1875 
Q 21.34375 51.125 25.703125 53.5625 
Q 30.078125 56 35.796875 56 
Q 45.21875 56 50.046875 50.171875 
Q 54.890625 44.34375 54.890625 33.015625 
z
" id="DejaVuSans-110"/>
     </defs>
     <g transform="translate(18.14175 178.992)rotate(-90)scale(0.144 -0.144)">
      <use xlink:href="#DejaVuSans-115"/>
      <use x="52.099609" xlink:href="#DejaVuSans-112"/>
      <use x="115.576172" xlink:href="#DejaVuSans-114"/>
      <use x="156.658203" xlink:href="#DejaVuSans-101"/>
      <use x="218.181641" xlink:href="#DejaVuSans-97"/>
      <use x="279.460938" xlink:href="#DejaVuSans-100"/>
      <use x="342.9375" xlink:href="#DejaVuSans-32"/>
      <use x="374.724609" xlink:href="#DejaVuSans-101"/>
      <use x="436.248047" xlink:href="#DejaVuSans-114"/>
      <use x="477.345703" xlink:href="#DejaVuSans-114"/>
      <use x="518.427734" xlink:href="#DejaVuSans-111"/>
      <use x="579.609375" xlink:href="#DejaVuSans-114"/>
      <use x="620.722656" xlink:href="#DejaVuSans-32"/>
      <use x="652.509766" xlink:href="#DejaVuSans-99"/>
      <use x="707.490234" xlink:href="#DejaVuSans-111"/>
      <use x="768.671875" xlink:href="#DejaVuSans-114"/>
      <use x="809.769531" xlink:href="#DejaVuSans-114"/>
      <use x="850.851562" xlink:href="#DejaVuSans-101"/>
      <use x="912.375" xlink:href="#DejaVuSans-108"/>
      <use x="940.158203" xlink:href="#DejaVuSans-97"/>
      <use x="1001.4375" xlink:href="#DejaVuSans-116"/>
      <use x="1040.646484" xlink:href="#DejaVuSans-105"/>
      <use x="1068.429688" xlink:href="#DejaVuSans-111"/>
      <use x="1129.611328" xlink:href="#DejaVuSans-110"/>
     </g>
    </g>
   </g>
   <g id="line2d_14">
    <path clip-path="url(#p91a68e04b4)" d="M 84.51254 109.556383 
L 103.535267 117.154144 
L 122.557994 124.00933 
L 141.580722 125.319063 
L 160.603449 127.762886 
L 179.626176 127.789333 
L 198.648903 124.877904 
L 217.671631 120.804358 
L 236.694358 119.368845 
L 255.717085 114.403738 
L 274.739812 106.128153 
L 293.76254 96.933815 
L 312.785267 90.391363 
L 331.807994 85.191264 
L 350.830722 82.057294 
L 369.853449 79.898023 
L 388.876176 77.331732 
L 407.898903 74.896323 
L 426.921631 74.896095 
L 445.944358 76.608166 
L 464.967085 76.967054 
" style="fill:none;stroke:#1b9e77;stroke-linecap:square;stroke-opacity:0.9;stroke-width:2.5;"/>
   </g>
   <g id="line2d_15">
    <path clip-path="url(#p91a68e04b4)" d="M 84.51254 109.556383 
L 103.535267 127.272051 
L 122.557994 111.273196 
L 141.580722 94.431871 
L 160.603449 78.260064 
L 179.626176 66.250656 
L 198.648903 58.438323 
L 217.671631 52.578125 
L 236.694358 47.979587 
L 255.717085 44.585628 
L 274.739812 41.836085 
L 293.76254 38.820809 
L 312.785267 37.443042 
L 331.807994 37.39829 
L 350.830722 38.370091 
L 369.853449 40.362812 
L 388.876176 42.026685 
L 407.898903 42.272961 
L 426.921631 43.79051 
L 445.944358 46.147174 
L 464.967085 48.273427 
" style="fill:none;stroke:#7570b3;stroke-linecap:square;stroke-opacity:0.9;stroke-width:2.5;"/>
   </g>
   <g id="line2d_16">
    <path clip-path="url(#p91a68e04b4)" d="M 84.51254 109.556383 
L 103.535267 126.135711 
L 122.557994 129.560175 
L 141.580722 130.960865 
L 160.603449 133.876865 
L 179.626176 135.332005 
L 198.648903 134.098621 
L 217.671631 129.549199 
L 236.694358 125.4962 
L 255.717085 119.873726 
L 274.739812 112.180367 
L 293.76254 103.305932 
L 312.785267 96.730774 
L 331.807994 90.574418 
L 350.830722 86.565243 
L 369.853449 84.236774 
L 388.876176 80.924949 
L 407.898903 77.648319 
L 426.921631 77.303109 
L 445.944358 78.001539 
L 464.967085 77.038658 
" style="fill:none;stroke:#1b9e77;stroke-linecap:square;stroke-opacity:0.9;stroke-width:2.5;"/>
   </g>
   <g id="line2d_17">
    <path clip-path="url(#p91a68e04b4)" d="M 84.51254 109.556383 
L 103.535267 122.823047 
L 122.557994 106.1898 
L 141.580722 89.328611 
L 160.603449 74.455276 
L 179.626176 65.167653 
L 198.648903 57.74229 
L 217.671631 52.322515 
L 236.694358 48.113367 
L 255.717085 44.540282 
L 274.739812 41.31687 
L 293.76254 37.945881 
L 312.785267 36.19657 
L 331.807994 35.688313 
L 350.830722 36.388178 
L 369.853449 38.048029 
L 388.876176 39.76885 
L 407.898903 40.165077 
L 426.921631 40.984532 
L 445.944358 42.774941 
L 464.967085 44.007021 
" style="fill:none;stroke:#7570b3;stroke-linecap:square;stroke-opacity:0.9;stroke-width:2.5;"/>
   </g>
   <g id="line2d_18">
    <path clip-path="url(#p91a68e04b4)" d="M 84.51254 109.556383 
L 103.535267 119.199687 
L 122.557994 122.834827 
L 141.580722 124.293034 
L 160.603449 126.00997 
L 179.626176 126.280066 
L 198.648903 124.212478 
L 217.671631 119.932804 
L 236.694358 118.063689 
L 255.717085 112.330567 
L 274.739812 103.631494 
L 293.76254 94.814875 
L 312.785267 88.652493 
L 331.807994 82.375983 
L 350.830722 77.996974 
L 369.853449 74.788661 
L 388.876176 71.811422 
L 407.898903 69.864291 
L 426.921631 70.215224 
L 445.944358 70.475057 
L 464.967085 69.679508 
" style="fill:none;stroke:#1b9e77;stroke-linecap:square;stroke-opacity:0.9;stroke-width:2.5;"/>
   </g>
   <g id="line2d_19">
    <path clip-path="url(#p91a68e04b4)" d="M 84.51254 109.556383 
L 103.535267 125.755004 
L 122.557994 107.824115 
L 141.580722 90.546506 
L 160.603449 75.509674 
L 179.626176 65.132938 
L 198.648903 58.0302 
L 217.671631 52.528198 
L 236.694358 48.135899 
L 255.717085 44.051776 
L 274.739812 40.757454 
L 293.76254 37.12788 
L 312.785267 34.471119 
L 331.807994 33.123556 
L 350.830722 33.56264 
L 369.853449 35.017673 
L 388.876176 36.442135 
L 407.898903 37.166189 
L 426.921631 37.865063 
L 445.944358 39.264164 
L 464.967085 40.798154 
" style="fill:none;stroke:#7570b3;stroke-linecap:square;stroke-opacity:0.9;stroke-width:2.5;"/>
   </g>
   <g id="line2d_20">
    <path clip-path="url(#p91a68e04b4)" d="M 84.51254 109.556383 
L 103.535267 120.156331 
L 122.557994 124.237222 
L 141.580722 121.882567 
L 160.603449 120.520453 
L 179.626176 117.832787 
L 198.648903 114.038522 
L 217.671631 107.771778 
L 236.694358 103.272169 
L 255.717085 99.735675 
L 274.739812 95.227895 
L 293.76254 91.040305 
L 312.785267 87.222506 
L 331.807994 83.009824 
L 350.830722 79.876956 
L 369.853449 77.310941 
L 388.876176 74.63211 
L 407.898903 72.813714 
L 426.921631 72.279381 
L 445.944358 72.994878 
L 464.967085 73.417155 
" style="fill:none;stroke:#1b9e77;stroke-linecap:square;stroke-opacity:0.9;stroke-width:2.5;"/>
   </g>
   <g id="line2d_21">
    <path clip-path="url(#p91a68e04b4)" d="M 84.51254 109.556383 
L 103.535267 129.957834 
L 122.557994 113.313188 
L 141.580722 94.803382 
L 160.603449 77.025132 
L 179.626176 65.335399 
L 198.648903 57.336561 
L 217.671631 50.284985 
L 236.694358 45.081705 
L 255.717085 39.628419 
L 274.739812 34.605929 
L 293.76254 30.550291 
L 312.785267 28.500841 
L 331.807994 27.582892 
L 350.830722 28.112799 
L 369.853449 29.632188 
L 388.876176 31.640808 
L 407.898903 33.744222 
L 426.921631 35.333053 
L 445.944358 36.780556 
L 464.967085 38.860067 
" style="fill:none;stroke:#7570b3;stroke-linecap:square;stroke-opacity:0.9;stroke-width:2.5;"/>
   </g>
   <g id="line2d_22">
    <path clip-path="url(#p91a68e04b4)" d="M 84.51254 109.556383 
L 103.535267 105.103121 
L 122.557994 76.949995 
L 141.580722 47.805105 
L 160.603449 38.473868 
L 179.626176 37.549526 
L 198.648903 40.276355 
L 217.671631 43.801616 
L 236.694358 48.774027 
L 255.717085 54.232455 
L 274.739812 60.008804 
L 293.76254 64.460501 
L 312.785267 67.637621 
L 331.807994 68.327379 
L 350.830722 66.63179 
L 369.853449 66.245186 
L 388.876176 66.727414 
L 407.898903 67.309359 
L 426.921631 68.798692 
L 445.944358 70.249874 
L 464.967085 70.528198 
" style="fill:none;stroke:#1b9e77;stroke-linecap:square;stroke-opacity:0.9;stroke-width:2.5;"/>
   </g>
   <g id="line2d_23">
    <path clip-path="url(#p91a68e04b4)" d="M 84.51254 109.556383 
L 103.535267 128.663561 
L 122.557994 111.532996 
L 141.580722 94.364886 
L 160.603449 74.305437 
L 179.626176 55.91076 
L 198.648903 42.667035 
L 217.671631 33.723254 
L 236.694358 29.159267 
L 255.717085 25.370989 
L 274.739812 23.105992 
L 293.76254 22.097681 
L 312.785267 22.268192 
L 331.807994 23.247177 
L 350.830722 24.597526 
L 369.853449 26.375116 
L 388.876176 28.286028 
L 407.898903 30.36296 
L 426.921631 32.708418 
L 445.944358 35.465051 
L 464.967085 37.885518 
" style="fill:none;stroke:#7570b3;stroke-linecap:square;stroke-opacity:0.9;stroke-width:2.5;"/>
   </g>
   <g id="line2d_24">
    <path clip-path="url(#p91a68e04b4)" d="M 84.51254 109.556383 
L 103.535267 28.875555 
L 122.557994 19.757167 
L 141.580722 19.634279 
L 160.603449 22.557616 
L 179.626176 26.459466 
L 198.648903 30.81713 
L 217.671631 35.321873 
L 236.694358 40.260257 
L 255.717085 45.895212 
L 274.739812 49.976843 
L 293.76254 50.696482 
L 312.785267 52.112641 
L 331.807994 53.654509 
L 350.830722 52.964968 
L 369.853449 53.258041 
L 388.876176 56.318306 
L 407.898903 58.457626 
L 426.921631 59.475036 
L 445.944358 60.44206 
L 464.967085 60.534518 
" style="fill:none;stroke:#1b9e77;stroke-linecap:square;stroke-opacity:0.9;stroke-width:2.5;"/>
   </g>
   <g id="line2d_25">
    <path clip-path="url(#p91a68e04b4)" d="M 84.51254 109.556383 
L 103.535267 131.593875 
L 122.557994 103.915841 
L 141.580722 67.187088 
L 160.603449 40.915878 
L 179.626176 29.659444 
L 198.648903 24.338701 
L 217.671631 23.001193 
L 236.694358 24.462468 
L 255.717085 25.81401 
L 274.739812 26.106283 
L 293.76254 26.087151 
L 312.785267 26.255152 
L 331.807994 27.543367 
L 350.830722 29.018649 
L 369.853449 30.61377 
L 388.876176 33.985913 
L 407.898903 38.206739 
L 426.921631 44.019326 
L 445.944358 49.873546 
L 464.967085 53.340682 
" style="fill:none;stroke:#7570b3;stroke-linecap:square;stroke-opacity:0.9;stroke-width:2.5;"/>
   </g>
   <g id="line2d_26">
    <path clip-path="url(#p91a68e04b4)" d="M 84.51254 109.556383 
L 103.535267 17.496 
L 122.557994 25.306564 
L 141.580722 52.119773 
L 160.603449 69.273492 
L 179.626176 73.877183 
L 198.648903 76.066958 
L 217.671631 76.124184 
L 236.694358 78.11141 
L 255.717085 77.377353 
L 274.739812 74.656435 
L 293.76254 71.581971 
L 312.785267 68.546346 
L 331.807994 64.703757 
L 350.830722 61.866516 
L 369.853449 64.822277 
L 388.876176 70.814152 
L 407.898903 71.926575 
L 426.921631 75.870373 
L 445.944358 80.609852 
L 464.967085 81.719824 
" style="fill:none;stroke:#1b9e77;stroke-linecap:square;stroke-opacity:0.9;stroke-width:2.5;"/>
   </g>
   <g id="line2d_27">
    <path clip-path="url(#p91a68e04b4)" d="M 84.51254 109.556383 
L 103.535267 87.311978 
L 122.557994 45.528262 
L 141.580722 34.630136 
L 160.603449 34.919384 
L 179.626176 37.728156 
L 198.648903 38.997651 
L 217.671631 42.355017 
L 236.694358 46.042153 
L 255.717085 50.687251 
L 274.739812 58.851809 
L 293.76254 69.998818 
L 312.785267 81.80634 
L 331.807994 88.998911 
L 350.830722 88.851159 
L 369.853449 92.147063 
L 388.876176 100.717732 
L 407.898903 107.922802 
L 426.921631 108.982895 
L 445.944358 106.882814 
L 464.967085 104.783172 
" style="fill:none;stroke:#7570b3;stroke-linecap:square;stroke-opacity:0.9;stroke-width:2.5;"/>
   </g>
   <g id="line2d_28">
    <path clip-path="url(#p91a68e04b4)" d="M 84.51254 109.556383 
L 103.535267 31.602999 
L 122.557994 152.790792 
L 141.580722 168.153899 
L 160.603449 168.225894 
L 179.626176 168.696 
L 198.648903 165.658058 
L 217.671631 160.776699 
L 236.694358 155.351716 
L 255.717085 151.951185 
L 274.739812 147.101537 
L 293.76254 144.044524 
L 312.785267 139.653874 
L 331.807994 130.945794 
L 350.830722 114.49736 
L 369.853449 102.282004 
L 388.876176 102.230042 
L 407.898903 105.563363 
L 426.921631 104.552515 
L 445.944358 100.457808 
L 464.967085 95.387234 
" style="fill:none;stroke:#1b9e77;stroke-linecap:square;stroke-opacity:0.9;stroke-width:2.5;"/>
   </g>
   <g id="line2d_29">
    <path clip-path="url(#p91a68e04b4)" d="M 84.51254 109.556383 
L 103.535267 65.55034 
L 122.557994 53.749156 
L 141.580722 60.360985 
L 160.603449 66.773238 
L 179.626176 71.827409 
L 198.648903 77.734575 
L 217.671631 82.958595 
L 236.694358 83.083796 
L 255.717085 85.276579 
L 274.739812 91.898014 
L 293.76254 97.808626 
L 312.785267 102.426187 
L 331.807994 107.194557 
L 350.830722 109.323566 
L 369.853449 110.393017 
L 388.876176 111.271533 
L 407.898903 115.072103 
L 426.921631 115.95695 
L 445.944358 112.174476 
L 464.967085 110.519164 
" style="fill:none;stroke:#7570b3;stroke-linecap:square;stroke-opacity:0.9;stroke-width:2.5;"/>
   </g>
   <g id="line2d_30">
    <path clip-path="url(#p91a68e04b4)" d="M 84.51254 109.556383 
L 103.535267 29.524914 
L 122.557994 35.106191 
L 141.580722 50.147096 
L 160.603449 69.071634 
L 179.626176 76.558547 
L 198.648903 75.211938 
L 217.671631 68.576782 
L 236.694358 60.312382 
L 255.717085 51.447123 
L 274.739812 44.437737 
L 293.76254 38.045109 
L 312.785267 33.190892 
L 331.807994 30.305812 
L 350.830722 28.731966 
L 369.853449 27.871277 
L 388.876176 27.032798 
L 407.898903 27.999443 
L 426.921631 28.525521 
L 445.944358 27.836582 
L 464.967085 28.280945 
" style="fill:none;stroke:#d95f02;stroke-linecap:square;stroke-opacity:0.9;stroke-width:2.5;"/>
   </g>
   <g id="patch_3">
    <path d="M 65.489813 176.256 
L 65.489813 9.936 
" style="fill:none;stroke:#000000;stroke-linecap:square;stroke-linejoin:miter;"/>
   </g>
   <g id="patch_4">
    <path d="M 65.489812 176.256 
L 483.989813 176.256 
" style="fill:none;stroke:#000000;stroke-linecap:square;stroke-linejoin:miter;"/>
   </g>
  </g>
 </g>
 <defs>
  <clipPath id="p91a68e04b4">
   <rect height="166.32" width="418.5" x="65.489813" y="9.936"/>
  </clipPath>
 </defs>
</svg>
