<?xml version="1.0" encoding="utf-8" standalone="no"?>
<!DOCTYPE svg PUBLIC "-//W3C//DTD SVG 1.1//EN"
  "http://www.w3.org/Graphics/SVG/1.1/DTD/svg11.dtd">
<!-- Created with matplotlib (https://matplotlib.org/) -->
<svg height="236.419125pt" version="1.1" viewBox="0 0 499.588312 236.419125" width="499.588312pt" xmlns="http://www.w3.org/2000/svg" xmlns:xlink="http://www.w3.org/1999/xlink">
 <defs>
  <style type="text/css">
*{stroke-linecap:butt;stroke-linejoin:round;}
  </style>
 </defs>
 <g id="figure_1">
  <g id="patch_1">
   <path d="M 0 236.419125 
L 499.588312 236.419125 
L 499.588312 0 
L 0 0 
z
" style="fill:#ffffff;"/>
  </g>
  <g id="axes_1">
   <g id="patch_2">
    <path d="M 73.888313 190.2075 
L 492.388312 190.2075 
L 492.388312 23.8875 
L 73.888313 23.8875 
z
" style="fill:#ffffff;"/>
   </g>
   <g id="line2d_1">
    <path clip-path="url(#pa20e20bb5f)" d="M 73.888313 58.184836 
L 492.388312 58.184836 
" style="fill:none;stroke:#000000;stroke-linecap:square;"/>
   </g>
   <g id="PolyCollection_1">
    <defs>
     <path d="M 92.91104 -188.710184 
L 92.91104 -166.983547 
L 112.934963 -141.987868 
L 132.958887 -119.493583 
L 152.98281 -98.505995 
L 173.006734 -83.222547 
L 193.030657 -76.160655 
L 213.05458 -74.385977 
L 233.078504 -74.426663 
L 253.102427 -77.206155 
L 273.126351 -83.093973 
L 293.150274 -89.529934 
L 313.174198 -94.015819 
L 333.198121 -100.9587 
L 353.222045 -106.918119 
L 373.245968 -110.996156 
L 393.269891 -116.543267 
L 413.293815 -122.575074 
L 433.317738 -123.544497 
L 453.341662 -124.879751 
L 473.365585 -127.439582 
L 473.365585 -141.529594 
L 473.365585 -141.529594 
L 453.341662 -138.577122 
L 433.317738 -137.790784 
L 413.293815 -136.844425 
L 393.269891 -131.900821 
L 373.245968 -126.776338 
L 353.222045 -121.474868 
L 333.198121 -117.531209 
L 313.174198 -112.14654 
L 293.150274 -108.494533 
L 273.126351 -101.989767 
L 253.102427 -97.230653 
L 233.078504 -96.042691 
L 213.05458 -95.957511 
L 193.030657 -98.085422 
L 173.006734 -103.974804 
L 152.98281 -117.853064 
L 132.958887 -139.815705 
L 112.934963 -162.133485 
L 92.91104 -188.710184 
z
" id="md8bb21fbd1" style="stroke:#1b9e77;stroke-opacity:0.5;stroke-width:0.8;"/>
    </defs>
    <g clip-path="url(#pa20e20bb5f)">
     <use style="fill:#1b9e77;fill-opacity:0.5;stroke:#1b9e77;stroke-opacity:0.5;stroke-width:0.8;" x="0" xlink:href="#md8bb21fbd1" y="236.419125"/>
    </g>
   </g>
   <g id="PolyCollection_2">
    <defs>
     <path d="M 92.91104 -70.174897 
L 92.91104 -53.771625 
L 112.934963 -56.275723 
L 132.958887 -72.290464 
L 152.98281 -90.494604 
L 173.006734 -97.265665 
L 193.030657 -96.248515 
L 213.05458 -93.894276 
L 233.078504 -89.521017 
L 253.102427 -86.770992 
L 273.126351 -86.898256 
L 293.150274 -90.40776 
L 313.174198 -93.831036 
L 333.198121 -97.357508 
L 353.222045 -100.369433 
L 373.245968 -101.746494 
L 393.269891 -105.052732 
L 413.293815 -111.265905 
L 433.317738 -111.625814 
L 453.341662 -110.167998 
L 473.365585 -111.38928 
L 473.365585 -126.95736 
L 473.365585 -126.95736 
L 453.341662 -124.767012 
L 433.317738 -126.572791 
L 413.293815 -125.997846 
L 393.269891 -121.147153 
L 373.245968 -118.829229 
L 353.222045 -117.559482 
L 333.198121 -113.849183 
L 313.174198 -111.186425 
L 293.150274 -108.1965 
L 273.126351 -106.804122 
L 253.102427 -105.656197 
L 233.078504 -110.22251 
L 213.05458 -115.822967 
L 193.030657 -118.102814 
L 173.006734 -119.312307 
L 152.98281 -110.181824 
L 132.958887 -89.563662 
L 112.934963 -72.424678 
L 92.91104 -70.174897 
z
" id="m7e95dd940d" style="stroke:#7570b3;stroke-opacity:0.5;stroke-width:0.8;"/>
    </defs>
    <g clip-path="url(#pa20e20bb5f)">
     <use style="fill:#7570b3;fill-opacity:0.5;stroke:#7570b3;stroke-opacity:0.5;stroke-width:0.8;" x="0" xlink:href="#m7e95dd940d" y="236.419125"/>
    </g>
   </g>
   <g id="PolyCollection_3">
    <defs>
     <path d="M 92.91104 -70.240147 
L 92.91104 -54.284501 
L 112.934963 -82.431677 
L 132.958887 -122.399756 
L 152.98281 -163.641864 
L 173.006734 -185.690458 
L 193.030657 -192.983461 
L 213.05458 -192.403706 
L 233.078504 -187.52035 
L 253.102427 -182.594631 
L 273.126351 -178.694891 
L 293.150274 -175.865142 
L 313.174198 -173.399611 
L 333.198121 -172.026737 
L 353.222045 -169.764013 
L 373.245968 -166.710589 
L 393.269891 -164.194286 
L 413.293815 -164.501849 
L 433.317738 -164.23738 
L 453.341662 -161.264768 
L 473.365585 -160.017928 
L 473.365585 -166.151047 
L 473.365585 -166.151047 
L 453.341662 -167.407134 
L 433.317738 -169.704544 
L 413.293815 -169.83456 
L 393.269891 -169.542428 
L 373.245968 -172.30355 
L 353.222045 -175.17576 
L 333.198121 -177.871069 
L 313.174198 -179.965074 
L 293.150274 -182.902326 
L 273.126351 -186.878014 
L 253.102427 -191.857876 
L 233.078504 -198.581975 
L 213.05458 -203.31908 
L 193.030657 -204.971625 
L 173.006734 -198.528828 
L 152.98281 -177.405706 
L 132.958887 -137.209645 
L 112.934963 -98.453152 
L 92.91104 -70.240147 
z
" id="mf61cbad052" style="stroke:#d95f02;stroke-opacity:0.5;stroke-width:0.8;"/>
    </defs>
    <g clip-path="url(#pa20e20bb5f)">
     <use style="fill:#d95f02;fill-opacity:0.5;stroke:#d95f02;stroke-opacity:0.5;stroke-width:0.8;" x="0" xlink:href="#mf61cbad052" y="236.419125"/>
    </g>
   </g>
   <g id="matplotlib.axis_1">
    <g id="xtick_1">
     <g id="line2d_2">
      <defs>
       <path d="M 0 0 
L 0 4.8 
" id="md488de2153" style="stroke:#000000;"/>
      </defs>
      <g>
       <use style="stroke:#000000;" x="122.946925" xlink:href="#md488de2153" y="190.2075"/>
      </g>
     </g>
     <g id="text_1">
      <!-- 0.25 -->
      <defs>
       <path d="M 31.78125 66.40625 
Q 24.171875 66.40625 20.328125 58.90625 
Q 16.5 51.421875 16.5 36.375 
Q 16.5 21.390625 20.328125 13.890625 
Q 24.171875 6.390625 31.78125 6.390625 
Q 39.453125 6.390625 43.28125 13.890625 
Q 47.125 21.390625 47.125 36.375 
Q 47.125 51.421875 43.28125 58.90625 
Q 39.453125 66.40625 31.78125 66.40625 
z
M 31.78125 74.21875 
Q 44.046875 74.21875 50.515625 64.515625 
Q 56.984375 54.828125 56.984375 36.375 
Q 56.984375 17.96875 50.515625 8.265625 
Q 44.046875 -1.421875 31.78125 -1.421875 
Q 19.53125 -1.421875 13.0625 8.265625 
Q 6.59375 17.96875 6.59375 36.375 
Q 6.59375 54.828125 13.0625 64.515625 
Q 19.53125 74.21875 31.78125 74.21875 
z
" id="DejaVuSans-48"/>
       <path d="M 10.6875 12.40625 
L 21 12.40625 
L 21 0 
L 10.6875 0 
z
" id="DejaVuSans-46"/>
       <path d="M 19.1875 8.296875 
L 53.609375 8.296875 
L 53.609375 0 
L 7.328125 0 
L 7.328125 8.296875 
Q 12.9375 14.109375 22.625 23.890625 
Q 32.328125 33.6875 34.8125 36.53125 
Q 39.546875 41.84375 41.421875 45.53125 
Q 43.3125 49.21875 43.3125 52.78125 
Q 43.3125 58.59375 39.234375 62.25 
Q 35.15625 65.921875 28.609375 65.921875 
Q 23.96875 65.921875 18.8125 64.3125 
Q 13.671875 62.703125 7.8125 59.421875 
L 7.8125 69.390625 
Q 13.765625 71.78125 18.9375 73 
Q 24.125 74.21875 28.421875 74.21875 
Q 39.75 74.21875 46.484375 68.546875 
Q 53.21875 62.890625 53.21875 53.421875 
Q 53.21875 48.921875 51.53125 44.890625 
Q 49.859375 40.875 45.40625 35.40625 
Q 44.1875 33.984375 37.640625 27.21875 
Q 31.109375 20.453125 19.1875 8.296875 
z
" id="DejaVuSans-50"/>
       <path d="M 10.796875 72.90625 
L 49.515625 72.90625 
L 49.515625 64.59375 
L 19.828125 64.59375 
L 19.828125 46.734375 
Q 21.96875 47.46875 24.109375 47.828125 
Q 26.265625 48.1875 28.421875 48.1875 
Q 40.625 48.1875 47.75 41.5 
Q 54.890625 34.8125 54.890625 23.390625 
Q 54.890625 11.625 47.5625 5.09375 
Q 40.234375 -1.421875 26.90625 -1.421875 
Q 22.3125 -1.421875 17.546875 -0.640625 
Q 12.796875 0.140625 7.71875 1.703125 
L 7.71875 11.625 
Q 12.109375 9.234375 16.796875 8.0625 
Q 21.484375 6.890625 26.703125 6.890625 
Q 35.15625 6.890625 40.078125 11.328125 
Q 45.015625 15.765625 45.015625 23.390625 
Q 45.015625 31 40.078125 35.4375 
Q 35.15625 39.890625 26.703125 39.890625 
Q 22.75 39.890625 18.8125 39.015625 
Q 14.890625 38.140625 10.796875 36.28125 
z
" id="DejaVuSans-53"/>
      </defs>
      <g transform="translate(108.251612 208.537437)scale(0.132 -0.132)">
       <use xlink:href="#DejaVuSans-48"/>
       <use x="63.623047" xlink:href="#DejaVuSans-46"/>
       <use x="95.410156" xlink:href="#DejaVuSans-50"/>
       <use x="159.033203" xlink:href="#DejaVuSans-53"/>
      </g>
     </g>
    </g>
    <g id="xtick_2">
     <g id="line2d_3">
      <g>
       <use style="stroke:#000000;" x="173.006734" xlink:href="#md488de2153" y="190.2075"/>
      </g>
     </g>
     <g id="text_2">
      <!-- 0.50 -->
      <g transform="translate(158.311421 208.537437)scale(0.132 -0.132)">
       <use xlink:href="#DejaVuSans-48"/>
       <use x="63.623047" xlink:href="#DejaVuSans-46"/>
       <use x="95.410156" xlink:href="#DejaVuSans-53"/>
       <use x="159.033203" xlink:href="#DejaVuSans-48"/>
      </g>
     </g>
    </g>
    <g id="xtick_3">
     <g id="line2d_4">
      <g>
       <use style="stroke:#000000;" x="223.066542" xlink:href="#md488de2153" y="190.2075"/>
      </g>
     </g>
     <g id="text_3">
      <!-- 0.75 -->
      <defs>
       <path d="M 8.203125 72.90625 
L 55.078125 72.90625 
L 55.078125 68.703125 
L 28.609375 0 
L 18.3125 0 
L 43.21875 64.59375 
L 8.203125 64.59375 
z
" id="DejaVuSans-55"/>
      </defs>
      <g transform="translate(208.37123 208.537437)scale(0.132 -0.132)">
       <use xlink:href="#DejaVuSans-48"/>
       <use x="63.623047" xlink:href="#DejaVuSans-46"/>
       <use x="95.410156" xlink:href="#DejaVuSans-55"/>
       <use x="159.033203" xlink:href="#DejaVuSans-53"/>
      </g>
     </g>
    </g>
    <g id="xtick_4">
     <g id="line2d_5">
      <g>
       <use style="stroke:#000000;" x="273.126351" xlink:href="#md488de2153" y="190.2075"/>
      </g>
     </g>
     <g id="text_4">
      <!-- 1.00 -->
      <defs>
       <path d="M 12.40625 8.296875 
L 28.515625 8.296875 
L 28.515625 63.921875 
L 10.984375 60.40625 
L 10.984375 69.390625 
L 28.421875 72.90625 
L 38.28125 72.90625 
L 38.28125 8.296875 
L 54.390625 8.296875 
L 54.390625 0 
L 12.40625 0 
z
" id="DejaVuSans-49"/>
      </defs>
      <g transform="translate(258.431038 208.537437)scale(0.132 -0.132)">
       <use xlink:href="#DejaVuSans-49"/>
       <use x="63.623047" xlink:href="#DejaVuSans-46"/>
       <use x="95.410156" xlink:href="#DejaVuSans-48"/>
       <use x="159.033203" xlink:href="#DejaVuSans-48"/>
      </g>
     </g>
    </g>
    <g id="xtick_5">
     <g id="line2d_6">
      <g>
       <use style="stroke:#000000;" x="323.186159" xlink:href="#md488de2153" y="190.2075"/>
      </g>
     </g>
     <g id="text_5">
      <!-- 1.25 -->
      <g transform="translate(308.490847 208.537437)scale(0.132 -0.132)">
       <use xlink:href="#DejaVuSans-49"/>
       <use x="63.623047" xlink:href="#DejaVuSans-46"/>
       <use x="95.410156" xlink:href="#DejaVuSans-50"/>
       <use x="159.033203" xlink:href="#DejaVuSans-53"/>
      </g>
     </g>
    </g>
    <g id="xtick_6">
     <g id="line2d_7">
      <g>
       <use style="stroke:#000000;" x="373.245968" xlink:href="#md488de2153" y="190.2075"/>
      </g>
     </g>
     <g id="text_6">
      <!-- 1.50 -->
      <g transform="translate(358.550656 208.537437)scale(0.132 -0.132)">
       <use xlink:href="#DejaVuSans-49"/>
       <use x="63.623047" xlink:href="#DejaVuSans-46"/>
       <use x="95.410156" xlink:href="#DejaVuSans-53"/>
       <use x="159.033203" xlink:href="#DejaVuSans-48"/>
      </g>
     </g>
    </g>
    <g id="xtick_7">
     <g id="line2d_8">
      <g>
       <use style="stroke:#000000;" x="423.305777" xlink:href="#md488de2153" y="190.2075"/>
      </g>
     </g>
     <g id="text_7">
      <!-- 1.75 -->
      <g transform="translate(408.610464 208.537437)scale(0.132 -0.132)">
       <use xlink:href="#DejaVuSans-49"/>
       <use x="63.623047" xlink:href="#DejaVuSans-46"/>
       <use x="95.410156" xlink:href="#DejaVuSans-55"/>
       <use x="159.033203" xlink:href="#DejaVuSans-53"/>
      </g>
     </g>
    </g>
    <g id="xtick_8">
     <g id="line2d_9">
      <g>
       <use style="stroke:#000000;" x="473.365585" xlink:href="#md488de2153" y="190.2075"/>
      </g>
     </g>
     <g id="text_8">
      <!-- 2.00 -->
      <g transform="translate(458.670273 208.537437)scale(0.132 -0.132)">
       <use xlink:href="#DejaVuSans-50"/>
       <use x="63.623047" xlink:href="#DejaVuSans-46"/>
       <use x="95.410156" xlink:href="#DejaVuSans-48"/>
       <use x="159.033203" xlink:href="#DejaVuSans-48"/>
      </g>
     </g>
    </g>
    <g id="text_9">
     <!-- leadtime [MTU] -->
     <defs>
      <path d="M 9.421875 75.984375 
L 18.40625 75.984375 
L 18.40625 0 
L 9.421875 0 
z
" id="DejaVuSans-108"/>
      <path d="M 56.203125 29.59375 
L 56.203125 25.203125 
L 14.890625 25.203125 
Q 15.484375 15.921875 20.484375 11.0625 
Q 25.484375 6.203125 34.421875 6.203125 
Q 39.59375 6.203125 44.453125 7.46875 
Q 49.3125 8.734375 54.109375 11.28125 
L 54.109375 2.78125 
Q 49.265625 0.734375 44.1875 -0.34375 
Q 39.109375 -1.421875 33.890625 -1.421875 
Q 20.796875 -1.421875 13.15625 6.1875 
Q 5.515625 13.8125 5.515625 26.8125 
Q 5.515625 40.234375 12.765625 48.109375 
Q 20.015625 56 32.328125 56 
Q 43.359375 56 49.78125 48.890625 
Q 56.203125 41.796875 56.203125 29.59375 
z
M 47.21875 32.234375 
Q 47.125 39.59375 43.09375 43.984375 
Q 39.0625 48.390625 32.421875 48.390625 
Q 24.90625 48.390625 20.390625 44.140625 
Q 15.875 39.890625 15.1875 32.171875 
z
" id="DejaVuSans-101"/>
      <path d="M 34.28125 27.484375 
Q 23.390625 27.484375 19.1875 25 
Q 14.984375 22.515625 14.984375 16.5 
Q 14.984375 11.71875 18.140625 8.90625 
Q 21.296875 6.109375 26.703125 6.109375 
Q 34.1875 6.109375 38.703125 11.40625 
Q 43.21875 16.703125 43.21875 25.484375 
L 43.21875 27.484375 
z
M 52.203125 31.203125 
L 52.203125 0 
L 43.21875 0 
L 43.21875 8.296875 
Q 40.140625 3.328125 35.546875 0.953125 
Q 30.953125 -1.421875 24.3125 -1.421875 
Q 15.921875 -1.421875 10.953125 3.296875 
Q 6 8.015625 6 15.921875 
Q 6 25.140625 12.171875 29.828125 
Q 18.359375 34.515625 30.609375 34.515625 
L 43.21875 34.515625 
L 43.21875 35.40625 
Q 43.21875 41.609375 39.140625 45 
Q 35.0625 48.390625 27.6875 48.390625 
Q 23 48.390625 18.546875 47.265625 
Q 14.109375 46.140625 10.015625 43.890625 
L 10.015625 52.203125 
Q 14.9375 54.109375 19.578125 55.046875 
Q 24.21875 56 28.609375 56 
Q 40.484375 56 46.34375 49.84375 
Q 52.203125 43.703125 52.203125 31.203125 
z
" id="DejaVuSans-97"/>
      <path d="M 45.40625 46.390625 
L 45.40625 75.984375 
L 54.390625 75.984375 
L 54.390625 0 
L 45.40625 0 
L 45.40625 8.203125 
Q 42.578125 3.328125 38.25 0.953125 
Q 33.9375 -1.421875 27.875 -1.421875 
Q 17.96875 -1.421875 11.734375 6.484375 
Q 5.515625 14.40625 5.515625 27.296875 
Q 5.515625 40.1875 11.734375 48.09375 
Q 17.96875 56 27.875 56 
Q 33.9375 56 38.25 53.625 
Q 42.578125 51.265625 45.40625 46.390625 
z
M 14.796875 27.296875 
Q 14.796875 17.390625 18.875 11.75 
Q 22.953125 6.109375 30.078125 6.109375 
Q 37.203125 6.109375 41.296875 11.75 
Q 45.40625 17.390625 45.40625 27.296875 
Q 45.40625 37.203125 41.296875 42.84375 
Q 37.203125 48.484375 30.078125 48.484375 
Q 22.953125 48.484375 18.875 42.84375 
Q 14.796875 37.203125 14.796875 27.296875 
z
" id="DejaVuSans-100"/>
      <path d="M 18.3125 70.21875 
L 18.3125 54.6875 
L 36.8125 54.6875 
L 36.8125 47.703125 
L 18.3125 47.703125 
L 18.3125 18.015625 
Q 18.3125 11.328125 20.140625 9.421875 
Q 21.96875 7.515625 27.59375 7.515625 
L 36.8125 7.515625 
L 36.8125 0 
L 27.59375 0 
Q 17.1875 0 13.234375 3.875 
Q 9.28125 7.765625 9.28125 18.015625 
L 9.28125 47.703125 
L 2.6875 47.703125 
L 2.6875 54.6875 
L 9.28125 54.6875 
L 9.28125 70.21875 
z
" id="DejaVuSans-116"/>
      <path d="M 9.421875 54.6875 
L 18.40625 54.6875 
L 18.40625 0 
L 9.421875 0 
z
M 9.421875 75.984375 
L 18.40625 75.984375 
L 18.40625 64.59375 
L 9.421875 64.59375 
z
" id="DejaVuSans-105"/>
      <path d="M 52 44.1875 
Q 55.375 50.25 60.0625 53.125 
Q 64.75 56 71.09375 56 
Q 79.640625 56 84.28125 50.015625 
Q 88.921875 44.046875 88.921875 33.015625 
L 88.921875 0 
L 79.890625 0 
L 79.890625 32.71875 
Q 79.890625 40.578125 77.09375 44.375 
Q 74.3125 48.1875 68.609375 48.1875 
Q 61.625 48.1875 57.5625 43.546875 
Q 53.515625 38.921875 53.515625 30.90625 
L 53.515625 0 
L 44.484375 0 
L 44.484375 32.71875 
Q 44.484375 40.625 41.703125 44.40625 
Q 38.921875 48.1875 33.109375 48.1875 
Q 26.21875 48.1875 22.15625 43.53125 
Q 18.109375 38.875 18.109375 30.90625 
L 18.109375 0 
L 9.078125 0 
L 9.078125 54.6875 
L 18.109375 54.6875 
L 18.109375 46.1875 
Q 21.1875 51.21875 25.484375 53.609375 
Q 29.78125 56 35.6875 56 
Q 41.65625 56 45.828125 52.96875 
Q 50 49.953125 52 44.1875 
z
" id="DejaVuSans-109"/>
      <path id="DejaVuSans-32"/>
      <path d="M 8.59375 75.984375 
L 29.296875 75.984375 
L 29.296875 69 
L 17.578125 69 
L 17.578125 -6.203125 
L 29.296875 -6.203125 
L 29.296875 -13.1875 
L 8.59375 -13.1875 
z
" id="DejaVuSans-91"/>
      <path d="M 9.8125 72.90625 
L 24.515625 72.90625 
L 43.109375 23.296875 
L 61.8125 72.90625 
L 76.515625 72.90625 
L 76.515625 0 
L 66.890625 0 
L 66.890625 64.015625 
L 48.09375 14.015625 
L 38.1875 14.015625 
L 19.390625 64.015625 
L 19.390625 0 
L 9.8125 0 
z
" id="DejaVuSans-77"/>
      <path d="M -0.296875 72.90625 
L 61.375 72.90625 
L 61.375 64.59375 
L 35.5 64.59375 
L 35.5 0 
L 25.59375 0 
L 25.59375 64.59375 
L -0.296875 64.59375 
z
" id="DejaVuSans-84"/>
      <path d="M 8.6875 72.90625 
L 18.609375 72.90625 
L 18.609375 28.609375 
Q 18.609375 16.890625 22.84375 11.734375 
Q 27.09375 6.59375 36.625 6.59375 
Q 46.09375 6.59375 50.34375 11.734375 
Q 54.59375 16.890625 54.59375 28.609375 
L 54.59375 72.90625 
L 64.5 72.90625 
L 64.5 27.390625 
Q 64.5 13.140625 57.4375 5.859375 
Q 50.390625 -1.421875 36.625 -1.421875 
Q 22.796875 -1.421875 15.734375 5.859375 
Q 8.6875 13.140625 8.6875 27.390625 
z
" id="DejaVuSans-85"/>
      <path d="M 30.421875 75.984375 
L 30.421875 -13.1875 
L 9.71875 -13.1875 
L 9.71875 -6.203125 
L 21.390625 -6.203125 
L 21.390625 69 
L 9.71875 69 
L 9.71875 75.984375 
z
" id="DejaVuSans-93"/>
     </defs>
     <g transform="translate(227.672437 226.224375)scale(0.144 -0.144)">
      <use xlink:href="#DejaVuSans-108"/>
      <use x="27.783203" xlink:href="#DejaVuSans-101"/>
      <use x="89.306641" xlink:href="#DejaVuSans-97"/>
      <use x="150.585938" xlink:href="#DejaVuSans-100"/>
      <use x="214.0625" xlink:href="#DejaVuSans-116"/>
      <use x="253.271484" xlink:href="#DejaVuSans-105"/>
      <use x="281.054688" xlink:href="#DejaVuSans-109"/>
      <use x="378.466797" xlink:href="#DejaVuSans-101"/>
      <use x="439.990234" xlink:href="#DejaVuSans-32"/>
      <use x="471.777344" xlink:href="#DejaVuSans-91"/>
      <use x="510.791016" xlink:href="#DejaVuSans-77"/>
      <use x="597.070312" xlink:href="#DejaVuSans-84"/>
      <use x="658.154297" xlink:href="#DejaVuSans-85"/>
      <use x="731.347656" xlink:href="#DejaVuSans-93"/>
     </g>
    </g>
   </g>
   <g id="matplotlib.axis_2">
    <g id="ytick_1">
     <g id="line2d_10">
      <defs>
       <path d="M 0 0 
L -4.8 0 
" id="mee86504c43" style="stroke:#000000;"/>
      </defs>
      <g>
       <use style="stroke:#000000;" x="73.888313" xlink:href="#mee86504c43" y="173.424727"/>
      </g>
     </g>
     <g id="text_10">
      <!-- −1.00 -->
      <defs>
       <path d="M 10.59375 35.5 
L 73.1875 35.5 
L 73.1875 27.203125 
L 10.59375 27.203125 
z
" id="DejaVuSans-8722"/>
      </defs>
      <g transform="translate(25.1365 178.439695)scale(0.132 -0.132)">
       <use xlink:href="#DejaVuSans-8722"/>
       <use x="83.789062" xlink:href="#DejaVuSans-49"/>
       <use x="147.412109" xlink:href="#DejaVuSans-46"/>
       <use x="179.199219" xlink:href="#DejaVuSans-48"/>
       <use x="242.822266" xlink:href="#DejaVuSans-48"/>
      </g>
     </g>
    </g>
    <g id="ytick_2">
     <g id="line2d_11">
      <g>
       <use style="stroke:#000000;" x="73.888313" xlink:href="#mee86504c43" y="144.614754"/>
      </g>
     </g>
     <g id="text_11">
      <!-- −0.75 -->
      <g transform="translate(25.1365 149.629723)scale(0.132 -0.132)">
       <use xlink:href="#DejaVuSans-8722"/>
       <use x="83.789062" xlink:href="#DejaVuSans-48"/>
       <use x="147.412109" xlink:href="#DejaVuSans-46"/>
       <use x="179.199219" xlink:href="#DejaVuSans-55"/>
       <use x="242.822266" xlink:href="#DejaVuSans-53"/>
      </g>
     </g>
    </g>
    <g id="ytick_3">
     <g id="line2d_12">
      <g>
       <use style="stroke:#000000;" x="73.888313" xlink:href="#mee86504c43" y="115.804781"/>
      </g>
     </g>
     <g id="text_12">
      <!-- −0.50 -->
      <g transform="translate(25.1365 120.81975)scale(0.132 -0.132)">
       <use xlink:href="#DejaVuSans-8722"/>
       <use x="83.789062" xlink:href="#DejaVuSans-48"/>
       <use x="147.412109" xlink:href="#DejaVuSans-46"/>
       <use x="179.199219" xlink:href="#DejaVuSans-53"/>
       <use x="242.822266" xlink:href="#DejaVuSans-48"/>
      </g>
     </g>
    </g>
    <g id="ytick_4">
     <g id="line2d_13">
      <g>
       <use style="stroke:#000000;" x="73.888313" xlink:href="#mee86504c43" y="86.994809"/>
      </g>
     </g>
     <g id="text_13">
      <!-- −0.25 -->
      <g transform="translate(25.1365 92.009778)scale(0.132 -0.132)">
       <use xlink:href="#DejaVuSans-8722"/>
       <use x="83.789062" xlink:href="#DejaVuSans-48"/>
       <use x="147.412109" xlink:href="#DejaVuSans-46"/>
       <use x="179.199219" xlink:href="#DejaVuSans-50"/>
       <use x="242.822266" xlink:href="#DejaVuSans-53"/>
      </g>
     </g>
    </g>
    <g id="ytick_5">
     <g id="line2d_14">
      <g>
       <use style="stroke:#000000;" x="73.888313" xlink:href="#mee86504c43" y="58.184836"/>
      </g>
     </g>
     <g id="text_14">
      <!-- 0.00 -->
      <g transform="translate(36.197688 63.199805)scale(0.132 -0.132)">
       <use xlink:href="#DejaVuSans-48"/>
       <use x="63.623047" xlink:href="#DejaVuSans-46"/>
       <use x="95.410156" xlink:href="#DejaVuSans-48"/>
       <use x="159.033203" xlink:href="#DejaVuSans-48"/>
      </g>
     </g>
    </g>
    <g id="ytick_6">
     <g id="line2d_15">
      <g>
       <use style="stroke:#000000;" x="73.888313" xlink:href="#mee86504c43" y="29.374864"/>
      </g>
     </g>
     <g id="text_15">
      <!-- 0.25 -->
      <g transform="translate(36.197688 34.389832)scale(0.132 -0.132)">
       <use xlink:href="#DejaVuSans-48"/>
       <use x="63.623047" xlink:href="#DejaVuSans-46"/>
       <use x="95.410156" xlink:href="#DejaVuSans-50"/>
       <use x="159.033203" xlink:href="#DejaVuSans-53"/>
      </g>
     </g>
    </g>
    <g id="text_16">
     <!-- spread-error correlation -->
     <defs>
      <path d="M 44.28125 53.078125 
L 44.28125 44.578125 
Q 40.484375 46.53125 36.375 47.5 
Q 32.28125 48.484375 27.875 48.484375 
Q 21.1875 48.484375 17.84375 46.4375 
Q 14.5 44.390625 14.5 40.28125 
Q 14.5 37.15625 16.890625 35.375 
Q 19.28125 33.59375 26.515625 31.984375 
L 29.59375 31.296875 
Q 39.15625 29.25 43.1875 25.515625 
Q 47.21875 21.78125 47.21875 15.09375 
Q 47.21875 7.46875 41.1875 3.015625 
Q 35.15625 -1.421875 24.609375 -1.421875 
Q 20.21875 -1.421875 15.453125 -0.5625 
Q 10.6875 0.296875 5.421875 2 
L 5.421875 11.28125 
Q 10.40625 8.6875 15.234375 7.390625 
Q 20.0625 6.109375 24.8125 6.109375 
Q 31.15625 6.109375 34.5625 8.28125 
Q 37.984375 10.453125 37.984375 14.40625 
Q 37.984375 18.0625 35.515625 20.015625 
Q 33.0625 21.96875 24.703125 23.78125 
L 21.578125 24.515625 
Q 13.234375 26.265625 9.515625 29.90625 
Q 5.8125 33.546875 5.8125 39.890625 
Q 5.8125 47.609375 11.28125 51.796875 
Q 16.75 56 26.8125 56 
Q 31.78125 56 36.171875 55.265625 
Q 40.578125 54.546875 44.28125 53.078125 
z
" id="DejaVuSans-115"/>
      <path d="M 18.109375 8.203125 
L 18.109375 -20.796875 
L 9.078125 -20.796875 
L 9.078125 54.6875 
L 18.109375 54.6875 
L 18.109375 46.390625 
Q 20.953125 51.265625 25.265625 53.625 
Q 29.59375 56 35.59375 56 
Q 45.5625 56 51.78125 48.09375 
Q 58.015625 40.1875 58.015625 27.296875 
Q 58.015625 14.40625 51.78125 6.484375 
Q 45.5625 -1.421875 35.59375 -1.421875 
Q 29.59375 -1.421875 25.265625 0.953125 
Q 20.953125 3.328125 18.109375 8.203125 
z
M 48.6875 27.296875 
Q 48.6875 37.203125 44.609375 42.84375 
Q 40.53125 48.484375 33.40625 48.484375 
Q 26.265625 48.484375 22.1875 42.84375 
Q 18.109375 37.203125 18.109375 27.296875 
Q 18.109375 17.390625 22.1875 11.75 
Q 26.265625 6.109375 33.40625 6.109375 
Q 40.53125 6.109375 44.609375 11.75 
Q 48.6875 17.390625 48.6875 27.296875 
z
" id="DejaVuSans-112"/>
      <path d="M 41.109375 46.296875 
Q 39.59375 47.171875 37.8125 47.578125 
Q 36.03125 48 33.890625 48 
Q 26.265625 48 22.1875 43.046875 
Q 18.109375 38.09375 18.109375 28.8125 
L 18.109375 0 
L 9.078125 0 
L 9.078125 54.6875 
L 18.109375 54.6875 
L 18.109375 46.1875 
Q 20.953125 51.171875 25.484375 53.578125 
Q 30.03125 56 36.53125 56 
Q 37.453125 56 38.578125 55.875 
Q 39.703125 55.765625 41.0625 55.515625 
z
" id="DejaVuSans-114"/>
      <path d="M 4.890625 31.390625 
L 31.203125 31.390625 
L 31.203125 23.390625 
L 4.890625 23.390625 
z
" id="DejaVuSans-45"/>
      <path d="M 30.609375 48.390625 
Q 23.390625 48.390625 19.1875 42.75 
Q 14.984375 37.109375 14.984375 27.296875 
Q 14.984375 17.484375 19.15625 11.84375 
Q 23.34375 6.203125 30.609375 6.203125 
Q 37.796875 6.203125 41.984375 11.859375 
Q 46.1875 17.53125 46.1875 27.296875 
Q 46.1875 37.015625 41.984375 42.703125 
Q 37.796875 48.390625 30.609375 48.390625 
z
M 30.609375 56 
Q 42.328125 56 49.015625 48.375 
Q 55.71875 40.765625 55.71875 27.296875 
Q 55.71875 13.875 49.015625 6.21875 
Q 42.328125 -1.421875 30.609375 -1.421875 
Q 18.84375 -1.421875 12.171875 6.21875 
Q 5.515625 13.875 5.515625 27.296875 
Q 5.515625 40.765625 12.171875 48.375 
Q 18.84375 56 30.609375 56 
z
" id="DejaVuSans-111"/>
      <path d="M 48.78125 52.59375 
L 48.78125 44.1875 
Q 44.96875 46.296875 41.140625 47.34375 
Q 37.3125 48.390625 33.40625 48.390625 
Q 24.65625 48.390625 19.8125 42.84375 
Q 14.984375 37.3125 14.984375 27.296875 
Q 14.984375 17.28125 19.8125 11.734375 
Q 24.65625 6.203125 33.40625 6.203125 
Q 37.3125 6.203125 41.140625 7.25 
Q 44.96875 8.296875 48.78125 10.40625 
L 48.78125 2.09375 
Q 45.015625 0.34375 40.984375 -0.53125 
Q 36.96875 -1.421875 32.421875 -1.421875 
Q 20.0625 -1.421875 12.78125 6.34375 
Q 5.515625 14.109375 5.515625 27.296875 
Q 5.515625 40.671875 12.859375 48.328125 
Q 20.21875 56 33.015625 56 
Q 37.15625 56 41.109375 55.140625 
Q 45.0625 54.296875 48.78125 52.59375 
z
" id="DejaVuSans-99"/>
      <path d="M 54.890625 33.015625 
L 54.890625 0 
L 45.90625 0 
L 45.90625 32.71875 
Q 45.90625 40.484375 42.875 44.328125 
Q 39.84375 48.1875 33.796875 48.1875 
Q 26.515625 48.1875 22.3125 43.546875 
Q 18.109375 38.921875 18.109375 30.90625 
L 18.109375 0 
L 9.078125 0 
L 9.078125 54.6875 
L 18.109375 54.6875 
L 18.109375 46.1875 
Q 21.34375 51.125 25.703125 53.5625 
Q 30.078125 56 35.796875 56 
Q 45.21875 56 50.046875 50.171875 
Q 54.890625 44.34375 54.890625 33.015625 
z
" id="DejaVuSans-110"/>
     </defs>
     <g transform="translate(18.14175 193.252875)rotate(-90)scale(0.144 -0.144)">
      <use xlink:href="#DejaVuSans-115"/>
      <use x="52.099609" xlink:href="#DejaVuSans-112"/>
      <use x="115.576172" xlink:href="#DejaVuSans-114"/>
      <use x="156.658203" xlink:href="#DejaVuSans-101"/>
      <use x="218.181641" xlink:href="#DejaVuSans-97"/>
      <use x="279.460938" xlink:href="#DejaVuSans-100"/>
      <use x="342.9375" xlink:href="#DejaVuSans-45"/>
      <use x="379.021484" xlink:href="#DejaVuSans-101"/>
      <use x="440.544922" xlink:href="#DejaVuSans-114"/>
      <use x="481.642578" xlink:href="#DejaVuSans-114"/>
      <use x="522.724609" xlink:href="#DejaVuSans-111"/>
      <use x="583.90625" xlink:href="#DejaVuSans-114"/>
      <use x="625.019531" xlink:href="#DejaVuSans-32"/>
      <use x="656.806641" xlink:href="#DejaVuSans-99"/>
      <use x="711.787109" xlink:href="#DejaVuSans-111"/>
      <use x="772.96875" xlink:href="#DejaVuSans-114"/>
      <use x="814.066406" xlink:href="#DejaVuSans-114"/>
      <use x="855.148438" xlink:href="#DejaVuSans-101"/>
      <use x="916.671875" xlink:href="#DejaVuSans-108"/>
      <use x="944.455078" xlink:href="#DejaVuSans-97"/>
      <use x="1005.734375" xlink:href="#DejaVuSans-116"/>
      <use x="1044.943359" xlink:href="#DejaVuSans-105"/>
      <use x="1072.726562" xlink:href="#DejaVuSans-111"/>
      <use x="1133.908203" xlink:href="#DejaVuSans-110"/>
     </g>
    </g>
   </g>
   <g id="line2d_16">
    <path clip-path="url(#pa20e20bb5f)" d="M 92.91104 58.643462 
L 112.934963 84.369585 
L 132.958887 106.870746 
L 152.98281 128.497958 
L 173.006734 142.751449 
L 193.030657 149.822075 
L 213.05458 150.969618 
L 233.078504 151.378362 
L 253.102427 149.525159 
L 273.126351 144.225777 
L 293.150274 137.907458 
L 313.174198 133.187088 
L 333.198121 127.394086 
L 353.222045 122.035408 
L 373.245968 117.477542 
L 393.269891 111.771886 
L 413.293815 106.952388 
L 433.317738 105.694612 
L 453.341662 104.850536 
L 473.365585 101.842634 
" style="fill:none;stroke:#1b9e77;stroke-linecap:square;stroke-width:2.5;"/>
   </g>
   <g id="line2d_17">
    <path clip-path="url(#pa20e20bb5f)" d="M 92.91104 174.56883 
L 112.934963 171.970586 
L 132.958887 155.538647 
L 152.98281 136.253663 
L 173.006734 128.987376 
L 193.030657 129.123775 
L 213.05458 131.636393 
L 233.078504 136.709736 
L 253.102427 140.616217 
L 273.126351 139.792256 
L 293.150274 136.8025 
L 313.174198 134.729337 
L 333.198121 130.788534 
L 353.222045 127.85477 
L 373.245968 126.086582 
L 393.269891 123.107019 
L 413.293815 117.99528 
L 433.317738 116.945665 
L 453.341662 118.616986 
L 473.365585 116.921722 
" style="fill:none;stroke:#7570b3;stroke-linecap:square;stroke-width:2.5;"/>
   </g>
   <g id="line2d_18">
    <path clip-path="url(#pa20e20bb5f)" d="M 92.91104 174.110204 
L 112.934963 145.785837 
L 132.958887 106.852737 
L 152.98281 65.940541 
L 173.006734 44.420763 
L 193.030657 37.486537 
L 213.05458 38.851611 
L 233.078504 43.51621 
L 253.102427 49.275894 
L 273.126351 53.751315 
L 293.150274 57.079879 
L 313.174198 59.727085 
L 333.198121 61.579284 
L 353.222045 64.004198 
L 373.245968 66.793876 
L 393.269891 69.519969 
L 413.293815 69.227728 
L 433.317738 69.43589 
L 453.341662 71.951286 
L 473.365585 73.263924 
" style="fill:none;stroke:#d95f02;stroke-linecap:square;stroke-width:2.5;"/>
   </g>
   <g id="patch_3">
    <path d="M 73.888313 190.2075 
L 73.888313 23.8875 
" style="fill:none;stroke:#000000;stroke-linecap:square;stroke-linejoin:miter;"/>
   </g>
   <g id="patch_4">
    <path d="M 73.888313 190.2075 
L 492.388312 190.2075 
" style="fill:none;stroke:#000000;stroke-linecap:square;stroke-linejoin:miter;"/>
   </g>
   <g id="text_17">
    <!-- n_ens:20 -->
    <defs>
     <path d="M 50.984375 -16.609375 
L 50.984375 -23.578125 
L -0.984375 -23.578125 
L -0.984375 -16.609375 
z
" id="DejaVuSans-95"/>
     <path d="M 11.71875 12.40625 
L 22.015625 12.40625 
L 22.015625 0 
L 11.71875 0 
z
M 11.71875 51.703125 
L 22.015625 51.703125 
L 22.015625 39.3125 
L 11.71875 39.3125 
z
" id="DejaVuSans-58"/>
    </defs>
    <g transform="translate(250.643812 17.8875)scale(0.144 -0.144)">
     <use xlink:href="#DejaVuSans-110"/>
     <use x="63.378906" xlink:href="#DejaVuSans-95"/>
     <use x="113.378906" xlink:href="#DejaVuSans-101"/>
     <use x="174.902344" xlink:href="#DejaVuSans-110"/>
     <use x="238.28125" xlink:href="#DejaVuSans-115"/>
     <use x="290.380859" xlink:href="#DejaVuSans-58"/>
     <use x="324.072266" xlink:href="#DejaVuSans-50"/>
     <use x="387.695312" xlink:href="#DejaVuSans-48"/>
    </g>
   </g>
   <g id="legend_1">
    <g id="patch_5">
     <path d="M 372.863641 184.2099 
L 483.991672 184.2099 
Q 486.390712 184.2099 486.390712 181.81086 
L 486.390712 139.786427 
Q 486.390712 137.387386 483.991672 137.387386 
L 372.863641 137.387386 
Q 370.464601 137.387386 370.464601 139.786427 
L 370.464601 181.81086 
Q 370.464601 184.2099 372.863641 184.2099 
z
" style="fill:#ffffff;opacity:0.4;stroke:#cccccc;stroke-linejoin:miter;stroke-width:0.8;"/>
    </g>
    <g id="line2d_19">
     <path d="M 375.262681 147.101624 
L 399.253082 147.101624 
" style="fill:none;stroke:#1b9e77;stroke-linecap:square;stroke-width:2.5;"/>
    </g>
    <g id="line2d_20"/>
    <g id="text_18">
     <!-- svd-rand -->
     <defs>
      <path d="M 2.984375 54.6875 
L 12.5 54.6875 
L 29.59375 8.796875 
L 46.6875 54.6875 
L 56.203125 54.6875 
L 35.6875 0 
L 23.484375 0 
z
" id="DejaVuSans-118"/>
     </defs>
     <g transform="translate(408.849242 151.299944)scale(0.119952 -0.119952)">
      <use xlink:href="#DejaVuSans-115"/>
      <use x="52.099609" xlink:href="#DejaVuSans-118"/>
      <use x="111.279297" xlink:href="#DejaVuSans-100"/>
      <use x="174.755859" xlink:href="#DejaVuSans-45"/>
      <use x="210.839844" xlink:href="#DejaVuSans-114"/>
      <use x="251.953125" xlink:href="#DejaVuSans-97"/>
      <use x="313.232422" xlink:href="#DejaVuSans-110"/>
      <use x="376.611328" xlink:href="#DejaVuSans-100"/>
     </g>
    </g>
    <g id="line2d_21">
     <path d="M 375.262681 159.910249 
L 399.253082 159.910249 
" style="fill:none;stroke:#7570b3;stroke-linecap:square;stroke-width:2.5;"/>
    </g>
    <g id="line2d_22"/>
    <g id="text_19">
     <!-- svd-netens -->
     <g transform="translate(408.849242 164.108569)scale(0.119952 -0.119952)">
      <use xlink:href="#DejaVuSans-115"/>
      <use x="52.099609" xlink:href="#DejaVuSans-118"/>
      <use x="111.279297" xlink:href="#DejaVuSans-100"/>
      <use x="174.755859" xlink:href="#DejaVuSans-45"/>
      <use x="210.839844" xlink:href="#DejaVuSans-110"/>
      <use x="274.21875" xlink:href="#DejaVuSans-101"/>
      <use x="335.742188" xlink:href="#DejaVuSans-116"/>
      <use x="374.951172" xlink:href="#DejaVuSans-101"/>
      <use x="436.474609" xlink:href="#DejaVuSans-110"/>
      <use x="499.853516" xlink:href="#DejaVuSans-115"/>
     </g>
    </g>
    <g id="line2d_23">
     <path d="M 375.262681 172.718873 
L 399.253082 172.718873 
" style="fill:none;stroke:#d95f02;stroke-linecap:square;stroke-width:2.5;"/>
    </g>
    <g id="line2d_24"/>
    <g id="text_20">
     <!-- rand-netens -->
     <g transform="translate(408.849242 176.917193)scale(0.119952 -0.119952)">
      <use xlink:href="#DejaVuSans-114"/>
      <use x="41.113281" xlink:href="#DejaVuSans-97"/>
      <use x="102.392578" xlink:href="#DejaVuSans-110"/>
      <use x="165.771484" xlink:href="#DejaVuSans-100"/>
      <use x="229.248047" xlink:href="#DejaVuSans-45"/>
      <use x="265.332031" xlink:href="#DejaVuSans-110"/>
      <use x="328.710938" xlink:href="#DejaVuSans-101"/>
      <use x="390.234375" xlink:href="#DejaVuSans-116"/>
      <use x="429.443359" xlink:href="#DejaVuSans-101"/>
      <use x="490.966797" xlink:href="#DejaVuSans-110"/>
      <use x="554.345703" xlink:href="#DejaVuSans-115"/>
     </g>
    </g>
   </g>
  </g>
 </g>
 <defs>
  <clipPath id="pa20e20bb5f">
   <rect height="166.32" width="418.5" x="73.888313" y="23.8875"/>
  </clipPath>
 </defs>
</svg>
