<?xml version="1.0" encoding="utf-8" standalone="no"?>
<!DOCTYPE svg PUBLIC "-//W3C//DTD SVG 1.1//EN"
  "http://www.w3.org/Graphics/SVG/1.1/DTD/svg11.dtd">
<!-- Created with matplotlib (https://matplotlib.org/) -->
<svg height="236.419125pt" version="1.1" viewBox="0 0 491.653313 236.419125" width="491.653313pt" xmlns="http://www.w3.org/2000/svg" xmlns:xlink="http://www.w3.org/1999/xlink">
 <defs>
  <style type="text/css">
*{stroke-linecap:butt;stroke-linejoin:round;}
  </style>
 </defs>
 <g id="figure_1">
  <g id="patch_1">
   <path d="M 0 236.419125 
L 491.653313 236.419125 
L 491.653313 0 
L 0 0 
z
" style="fill:#ffffff;"/>
  </g>
  <g id="axes_1">
   <g id="patch_2">
    <path d="M 65.953313 190.2075 
L 484.453313 190.2075 
L 484.453313 23.8875 
L 65.953313 23.8875 
z
" style="fill:#ffffff;"/>
   </g>
   <g id="line2d_1">
    <path clip-path="url(#p5eb3680364)" d="M 65.953313 52.13561 
L 484.453313 52.13561 
" style="fill:none;stroke:#000000;stroke-linecap:square;"/>
   </g>
   <g id="PolyCollection_1">
    <defs>
     <path d="M 84.97604 -184.337766 
L 84.97604 -184.337167 
L 103.998767 -184.281225 
L 123.021494 -184.274994 
L 142.044222 -184.266234 
L 161.066949 -184.255367 
L 180.089676 -184.242067 
L 199.112403 -184.226747 
L 218.135131 -184.213087 
L 237.157858 -184.204837 
L 256.180585 -184.21382 
L 275.203313 -184.250785 
L 294.22604 -184.316558 
L 313.248767 -184.406521 
L 332.271494 -184.537149 
L 351.294222 -184.69566 
L 370.316949 -184.845797 
L 389.339676 -184.999219 
L 408.362403 -185.196555 
L 427.385131 -185.388434 
L 446.407858 -185.575531 
L 465.430585 -185.801351 
L 465.430585 -186.029615 
L 465.430585 -186.029615 
L 446.407858 -185.78396 
L 427.385131 -185.587159 
L 408.362403 -185.372075 
L 389.339676 -185.165508 
L 370.316949 -184.985324 
L 351.294222 -184.815282 
L 332.271494 -184.636814 
L 313.248767 -184.493511 
L 294.22604 -184.384378 
L 275.203313 -184.302967 
L 256.180585 -184.24635 
L 237.157858 -184.223239 
L 218.135131 -184.222345 
L 199.112403 -184.231604 
L 180.089676 -184.244387 
L 161.066949 -184.256653 
L 142.044222 -184.266969 
L 123.021494 -184.275319 
L 103.998767 -184.281337 
L 84.97604 -184.337766 
z
" id="m53056352b2" style="stroke:#1b9e77;stroke-opacity:0.5;stroke-width:0.8;"/>
    </defs>
    <g clip-path="url(#p5eb3680364)">
     <use style="fill:#1b9e77;fill-opacity:0.5;stroke:#1b9e77;stroke-opacity:0.5;stroke-width:0.8;" x="0" xlink:href="#m53056352b2" y="236.419125"/>
    </g>
   </g>
   <g id="PolyCollection_2">
    <defs>
     <path d="M 84.97604 -184.260982 
L 84.97604 -184.260287 
L 103.998767 -187.33869 
L 123.021494 -190.663847 
L 142.044222 -193.643187 
L 161.066949 -196.283851 
L 180.089676 -198.159144 
L 199.112403 -198.989355 
L 218.135131 -198.294074 
L 237.157858 -196.3539 
L 256.180585 -193.815167 
L 275.203313 -192.012665 
L 294.22604 -191.425214 
L 313.248767 -192.013495 
L 332.271494 -193.352824 
L 351.294222 -195.358592 
L 370.316949 -197.417772 
L 389.339676 -199.270963 
L 408.362403 -200.964939 
L 427.385131 -202.328304 
L 446.407858 -203.399089 
L 465.430585 -204.049131 
L 465.430585 -204.971625 
L 465.430585 -204.971625 
L 446.407858 -204.350332 
L 427.385131 -203.397667 
L 408.362403 -202.140868 
L 389.339676 -200.560808 
L 370.316949 -198.672513 
L 351.294222 -196.517584 
L 332.271494 -194.510118 
L 313.248767 -193.144824 
L 294.22604 -192.696859 
L 275.203313 -193.277069 
L 256.180585 -194.998568 
L 237.157858 -197.531774 
L 218.135131 -199.448806 
L 199.112403 -200.004044 
L 180.089676 -199.039027 
L 161.066949 -196.983359 
L 142.044222 -194.167278 
L 123.021494 -191.031227 
L 103.998767 -187.538584 
L 84.97604 -184.260982 
z
" id="m8ed8eda35a" style="stroke:#7570b3;stroke-opacity:0.5;stroke-width:0.8;"/>
    </defs>
    <g clip-path="url(#p5eb3680364)">
     <use style="fill:#7570b3;fill-opacity:0.5;stroke:#7570b3;stroke-opacity:0.5;stroke-width:0.8;" x="0" xlink:href="#m8ed8eda35a" y="236.419125"/>
    </g>
   </g>
   <g id="PolyCollection_3">
    <defs>
     <path d="M 84.97604 -184.206889 
L 84.97604 -184.206493 
L 103.998767 -187.343497 
L 123.021494 -190.680772 
L 142.044222 -193.673284 
L 161.066949 -196.292044 
L 180.089676 -198.205859 
L 199.112403 -199.004977 
L 218.135131 -198.350032 
L 237.157858 -196.36825 
L 256.180585 -193.867203 
L 275.203313 -192.061423 
L 294.22604 -191.436752 
L 313.248767 -191.780943 
L 332.271494 -193.100159 
L 351.294222 -194.864068 
L 370.316949 -196.811408 
L 389.339676 -198.524885 
L 408.362403 -199.977034 
L 427.385131 -201.19765 
L 446.407858 -201.991251 
L 465.430585 -202.451775 
L 465.430585 -203.326536 
L 465.430585 -203.326536 
L 446.407858 -202.950385 
L 427.385131 -202.186024 
L 408.362403 -201.122088 
L 389.339676 -199.751409 
L 370.316949 -197.985824 
L 351.294222 -196.056827 
L 332.271494 -194.181259 
L 313.248767 -192.998606 
L 294.22604 -192.596982 
L 275.203313 -193.239993 
L 256.180585 -195.091867 
L 237.157858 -197.611914 
L 218.135131 -199.468945 
L 199.112403 -200.073125 
L 180.089676 -199.10644 
L 161.066949 -196.985311 
L 142.044222 -194.171978 
L 123.021494 -191.046489 
L 103.998767 -187.54652 
L 84.97604 -184.206889 
z
" id="me393263097" style="stroke:#d95f02;stroke-opacity:0.5;stroke-width:0.8;"/>
    </defs>
    <g clip-path="url(#p5eb3680364)">
     <use style="fill:#d95f02;fill-opacity:0.5;stroke:#d95f02;stroke-opacity:0.5;stroke-width:0.8;" x="0" xlink:href="#me393263097" y="236.419125"/>
    </g>
   </g>
   <g id="PolyCollection_4">
    <path clip-path="url(#p5eb3680364)" d="M 84.97604 56.934499 
L 84.97604 57.251421 
L 103.998767 59.101524 
L 123.021494 59.898702 
L 142.044222 60.060317 
L 161.066949 60.670117 
L 180.089676 61.706878 
L 199.112403 63.031562 
L 218.135131 64.494258 
L 237.157858 65.932357 
L 256.180585 67.374814 
L 275.203313 68.726125 
L 294.22604 70.130312 
L 313.248767 71.649619 
L 332.271494 73.092836 
L 351.294222 74.404794 
L 370.316949 75.704178 
L 389.339676 76.953191 
L 408.362403 78.142027 
L 427.385131 79.251428 
L 446.407858 80.281866 
L 465.430585 81.259772 
L 465.430585 79.510408 
L 465.430585 79.510408 
L 446.407858 78.680911 
L 427.385131 77.682873 
L 408.362403 76.643257 
L 389.339676 75.569501 
L 370.316949 74.456633 
L 351.294222 73.264223 
L 332.271494 71.95793 
L 313.248767 70.646085 
L 294.22604 69.246657 
L 275.203313 67.939061 
L 256.180585 66.666455 
L 237.157858 65.31317 
L 218.135131 63.917493 
L 199.112403 62.511151 
L 180.089676 61.229596 
L 161.066949 60.234646 
L 142.044222 59.671076 
L 123.021494 59.556852 
L 103.998767 58.820377 
L 84.97604 56.934499 
z
" style="fill:#1b9e77;fill-opacity:0.5;stroke:#1b9e77;stroke-dasharray:2.96,1.28;stroke-dashoffset:0;stroke-opacity:0.5;stroke-width:0.8;"/>
   </g>
   <g id="PolyCollection_5">
    <path clip-path="url(#p5eb3680364)" d="M 84.97604 36.412651 
L 84.97604 36.732796 
L 103.998767 71.140264 
L 123.021494 81.892607 
L 142.044222 89.293227 
L 161.066949 97.780934 
L 180.089676 107.256091 
L 199.112403 117.084735 
L 218.135131 126.604839 
L 237.157858 135.406681 
L 256.180585 143.220442 
L 275.203313 150.155363 
L 294.22604 156.237367 
L 313.248767 161.491525 
L 332.271494 166.014573 
L 351.294222 170.073507 
L 370.316949 173.478807 
L 389.339676 176.268237 
L 408.362403 178.511562 
L 427.385131 180.178141 
L 446.407858 181.622815 
L 465.430585 182.6475 
L 465.430585 181.207942 
L 465.430585 181.207942 
L 446.407858 180.219987 
L 427.385131 178.85804 
L 408.362403 177.148251 
L 389.339676 175.056511 
L 370.316949 172.293619 
L 351.294222 168.926421 
L 332.271494 164.924257 
L 313.248767 160.441328 
L 294.22604 155.2054 
L 275.203313 149.168875 
L 256.180585 142.274657 
L 237.157858 134.552014 
L 218.135131 125.890317 
L 199.112403 116.486918 
L 180.089676 106.737666 
L 161.066949 97.307632 
L 142.044222 88.889628 
L 123.021494 81.541904 
L 103.998767 70.81432 
L 84.97604 36.412651 
z
" style="fill:#7570b3;fill-opacity:0.5;stroke:#7570b3;stroke-dasharray:2.96,1.28;stroke-dashoffset:0;stroke-opacity:0.5;stroke-width:0.8;"/>
   </g>
   <g id="PolyCollection_6">
    <path clip-path="url(#p5eb3680364)" d="M 84.97604 31.610158 
L 84.97604 31.610472 
L 103.998767 64.199129 
L 123.021494 74.164176 
L 142.044222 81.42274 
L 161.066949 89.292167 
L 180.089676 97.800647 
L 199.112403 106.33043 
L 218.135131 114.407283 
L 237.157858 121.739103 
L 256.180585 128.141908 
L 275.203313 133.695261 
L 294.22604 138.393941 
L 313.248767 142.195494 
L 332.271494 145.359575 
L 351.294222 148.089903 
L 370.316949 150.290856 
L 389.339676 151.924283 
L 408.362403 153.009629 
L 427.385131 153.715447 
L 446.407858 154.165529 
L 465.430585 154.348715 
L 465.430585 153.072065 
L 465.430585 153.072065 
L 446.407858 153.015302 
L 427.385131 152.683958 
L 408.362403 152.171733 
L 389.339676 151.207815 
L 370.316949 149.647229 
L 351.294222 147.536898 
L 332.271494 144.887272 
L 313.248767 141.720605 
L 294.22604 137.923294 
L 275.203313 133.223618 
L 256.180585 127.664832 
L 237.157858 121.246613 
L 218.135131 113.987072 
L 199.112403 106.006267 
L 180.089676 97.572733 
L 161.066949 89.150529 
L 142.044222 81.321761 
L 123.021494 74.071251 
L 103.998767 64.10202 
L 84.97604 31.610158 
z
" style="fill:#d95f02;fill-opacity:0.5;stroke:#d95f02;stroke-dasharray:2.96,1.28;stroke-dashoffset:0;stroke-opacity:0.5;stroke-width:0.8;"/>
   </g>
   <g id="matplotlib.axis_1">
    <g id="xtick_1">
     <g id="line2d_2">
      <defs>
       <path d="M 0 0 
L 0 4.8 
" id="m742accf3f8" style="stroke:#000000;"/>
      </defs>
      <g>
       <use style="stroke:#000000;" x="84.97604" xlink:href="#m742accf3f8" y="190.2075"/>
      </g>
     </g>
     <g id="text_1">
      <!-- 0.00 -->
      <defs>
       <path d="M 31.78125 66.40625 
Q 24.171875 66.40625 20.328125 58.90625 
Q 16.5 51.421875 16.5 36.375 
Q 16.5 21.390625 20.328125 13.890625 
Q 24.171875 6.390625 31.78125 6.390625 
Q 39.453125 6.390625 43.28125 13.890625 
Q 47.125 21.390625 47.125 36.375 
Q 47.125 51.421875 43.28125 58.90625 
Q 39.453125 66.40625 31.78125 66.40625 
z
M 31.78125 74.21875 
Q 44.046875 74.21875 50.515625 64.515625 
Q 56.984375 54.828125 56.984375 36.375 
Q 56.984375 17.96875 50.515625 8.265625 
Q 44.046875 -1.421875 31.78125 -1.421875 
Q 19.53125 -1.421875 13.0625 8.265625 
Q 6.59375 17.96875 6.59375 36.375 
Q 6.59375 54.828125 13.0625 64.515625 
Q 19.53125 74.21875 31.78125 74.21875 
z
" id="DejaVuSans-48"/>
       <path d="M 10.6875 12.40625 
L 21 12.40625 
L 21 0 
L 10.6875 0 
z
" id="DejaVuSans-46"/>
      </defs>
      <g transform="translate(70.280727 208.537437)scale(0.132 -0.132)">
       <use xlink:href="#DejaVuSans-48"/>
       <use x="63.623047" xlink:href="#DejaVuSans-46"/>
       <use x="95.410156" xlink:href="#DejaVuSans-48"/>
       <use x="159.033203" xlink:href="#DejaVuSans-48"/>
      </g>
     </g>
    </g>
    <g id="xtick_2">
     <g id="line2d_3">
      <g>
       <use style="stroke:#000000;" x="132.532858" xlink:href="#m742accf3f8" y="190.2075"/>
      </g>
     </g>
     <g id="text_2">
      <!-- 0.25 -->
      <defs>
       <path d="M 19.1875 8.296875 
L 53.609375 8.296875 
L 53.609375 0 
L 7.328125 0 
L 7.328125 8.296875 
Q 12.9375 14.109375 22.625 23.890625 
Q 32.328125 33.6875 34.8125 36.53125 
Q 39.546875 41.84375 41.421875 45.53125 
Q 43.3125 49.21875 43.3125 52.78125 
Q 43.3125 58.59375 39.234375 62.25 
Q 35.15625 65.921875 28.609375 65.921875 
Q 23.96875 65.921875 18.8125 64.3125 
Q 13.671875 62.703125 7.8125 59.421875 
L 7.8125 69.390625 
Q 13.765625 71.78125 18.9375 73 
Q 24.125 74.21875 28.421875 74.21875 
Q 39.75 74.21875 46.484375 68.546875 
Q 53.21875 62.890625 53.21875 53.421875 
Q 53.21875 48.921875 51.53125 44.890625 
Q 49.859375 40.875 45.40625 35.40625 
Q 44.1875 33.984375 37.640625 27.21875 
Q 31.109375 20.453125 19.1875 8.296875 
z
" id="DejaVuSans-50"/>
       <path d="M 10.796875 72.90625 
L 49.515625 72.90625 
L 49.515625 64.59375 
L 19.828125 64.59375 
L 19.828125 46.734375 
Q 21.96875 47.46875 24.109375 47.828125 
Q 26.265625 48.1875 28.421875 48.1875 
Q 40.625 48.1875 47.75 41.5 
Q 54.890625 34.8125 54.890625 23.390625 
Q 54.890625 11.625 47.5625 5.09375 
Q 40.234375 -1.421875 26.90625 -1.421875 
Q 22.3125 -1.421875 17.546875 -0.640625 
Q 12.796875 0.140625 7.71875 1.703125 
L 7.71875 11.625 
Q 12.109375 9.234375 16.796875 8.0625 
Q 21.484375 6.890625 26.703125 6.890625 
Q 35.15625 6.890625 40.078125 11.328125 
Q 45.015625 15.765625 45.015625 23.390625 
Q 45.015625 31 40.078125 35.4375 
Q 35.15625 39.890625 26.703125 39.890625 
Q 22.75 39.890625 18.8125 39.015625 
Q 14.890625 38.140625 10.796875 36.28125 
z
" id="DejaVuSans-53"/>
      </defs>
      <g transform="translate(117.837545 208.537437)scale(0.132 -0.132)">
       <use xlink:href="#DejaVuSans-48"/>
       <use x="63.623047" xlink:href="#DejaVuSans-46"/>
       <use x="95.410156" xlink:href="#DejaVuSans-50"/>
       <use x="159.033203" xlink:href="#DejaVuSans-53"/>
      </g>
     </g>
    </g>
    <g id="xtick_3">
     <g id="line2d_4">
      <g>
       <use style="stroke:#000000;" x="180.089676" xlink:href="#m742accf3f8" y="190.2075"/>
      </g>
     </g>
     <g id="text_3">
      <!-- 0.50 -->
      <g transform="translate(165.394364 208.537437)scale(0.132 -0.132)">
       <use xlink:href="#DejaVuSans-48"/>
       <use x="63.623047" xlink:href="#DejaVuSans-46"/>
       <use x="95.410156" xlink:href="#DejaVuSans-53"/>
       <use x="159.033203" xlink:href="#DejaVuSans-48"/>
      </g>
     </g>
    </g>
    <g id="xtick_4">
     <g id="line2d_5">
      <g>
       <use style="stroke:#000000;" x="227.646494" xlink:href="#m742accf3f8" y="190.2075"/>
      </g>
     </g>
     <g id="text_4">
      <!-- 0.75 -->
      <defs>
       <path d="M 8.203125 72.90625 
L 55.078125 72.90625 
L 55.078125 68.703125 
L 28.609375 0 
L 18.3125 0 
L 43.21875 64.59375 
L 8.203125 64.59375 
z
" id="DejaVuSans-55"/>
      </defs>
      <g transform="translate(212.951182 208.537437)scale(0.132 -0.132)">
       <use xlink:href="#DejaVuSans-48"/>
       <use x="63.623047" xlink:href="#DejaVuSans-46"/>
       <use x="95.410156" xlink:href="#DejaVuSans-55"/>
       <use x="159.033203" xlink:href="#DejaVuSans-53"/>
      </g>
     </g>
    </g>
    <g id="xtick_5">
     <g id="line2d_6">
      <g>
       <use style="stroke:#000000;" x="275.203313" xlink:href="#m742accf3f8" y="190.2075"/>
      </g>
     </g>
     <g id="text_5">
      <!-- 1.00 -->
      <defs>
       <path d="M 12.40625 8.296875 
L 28.515625 8.296875 
L 28.515625 63.921875 
L 10.984375 60.40625 
L 10.984375 69.390625 
L 28.421875 72.90625 
L 38.28125 72.90625 
L 38.28125 8.296875 
L 54.390625 8.296875 
L 54.390625 0 
L 12.40625 0 
z
" id="DejaVuSans-49"/>
      </defs>
      <g transform="translate(260.508 208.537437)scale(0.132 -0.132)">
       <use xlink:href="#DejaVuSans-49"/>
       <use x="63.623047" xlink:href="#DejaVuSans-46"/>
       <use x="95.410156" xlink:href="#DejaVuSans-48"/>
       <use x="159.033203" xlink:href="#DejaVuSans-48"/>
      </g>
     </g>
    </g>
    <g id="xtick_6">
     <g id="line2d_7">
      <g>
       <use style="stroke:#000000;" x="322.760131" xlink:href="#m742accf3f8" y="190.2075"/>
      </g>
     </g>
     <g id="text_6">
      <!-- 1.25 -->
      <g transform="translate(308.064818 208.537437)scale(0.132 -0.132)">
       <use xlink:href="#DejaVuSans-49"/>
       <use x="63.623047" xlink:href="#DejaVuSans-46"/>
       <use x="95.410156" xlink:href="#DejaVuSans-50"/>
       <use x="159.033203" xlink:href="#DejaVuSans-53"/>
      </g>
     </g>
    </g>
    <g id="xtick_7">
     <g id="line2d_8">
      <g>
       <use style="stroke:#000000;" x="370.316949" xlink:href="#m742accf3f8" y="190.2075"/>
      </g>
     </g>
     <g id="text_7">
      <!-- 1.50 -->
      <g transform="translate(355.621636 208.537437)scale(0.132 -0.132)">
       <use xlink:href="#DejaVuSans-49"/>
       <use x="63.623047" xlink:href="#DejaVuSans-46"/>
       <use x="95.410156" xlink:href="#DejaVuSans-53"/>
       <use x="159.033203" xlink:href="#DejaVuSans-48"/>
      </g>
     </g>
    </g>
    <g id="xtick_8">
     <g id="line2d_9">
      <g>
       <use style="stroke:#000000;" x="417.873767" xlink:href="#m742accf3f8" y="190.2075"/>
      </g>
     </g>
     <g id="text_8">
      <!-- 1.75 -->
      <g transform="translate(403.178455 208.537437)scale(0.132 -0.132)">
       <use xlink:href="#DejaVuSans-49"/>
       <use x="63.623047" xlink:href="#DejaVuSans-46"/>
       <use x="95.410156" xlink:href="#DejaVuSans-55"/>
       <use x="159.033203" xlink:href="#DejaVuSans-53"/>
      </g>
     </g>
    </g>
    <g id="xtick_9">
     <g id="line2d_10">
      <g>
       <use style="stroke:#000000;" x="465.430585" xlink:href="#m742accf3f8" y="190.2075"/>
      </g>
     </g>
     <g id="text_9">
      <!-- 2.00 -->
      <g transform="translate(450.735273 208.537437)scale(0.132 -0.132)">
       <use xlink:href="#DejaVuSans-50"/>
       <use x="63.623047" xlink:href="#DejaVuSans-46"/>
       <use x="95.410156" xlink:href="#DejaVuSans-48"/>
       <use x="159.033203" xlink:href="#DejaVuSans-48"/>
      </g>
     </g>
    </g>
    <g id="text_10">
     <!-- leadtime [MTU] -->
     <defs>
      <path d="M 9.421875 75.984375 
L 18.40625 75.984375 
L 18.40625 0 
L 9.421875 0 
z
" id="DejaVuSans-108"/>
      <path d="M 56.203125 29.59375 
L 56.203125 25.203125 
L 14.890625 25.203125 
Q 15.484375 15.921875 20.484375 11.0625 
Q 25.484375 6.203125 34.421875 6.203125 
Q 39.59375 6.203125 44.453125 7.46875 
Q 49.3125 8.734375 54.109375 11.28125 
L 54.109375 2.78125 
Q 49.265625 0.734375 44.1875 -0.34375 
Q 39.109375 -1.421875 33.890625 -1.421875 
Q 20.796875 -1.421875 13.15625 6.1875 
Q 5.515625 13.8125 5.515625 26.8125 
Q 5.515625 40.234375 12.765625 48.109375 
Q 20.015625 56 32.328125 56 
Q 43.359375 56 49.78125 48.890625 
Q 56.203125 41.796875 56.203125 29.59375 
z
M 47.21875 32.234375 
Q 47.125 39.59375 43.09375 43.984375 
Q 39.0625 48.390625 32.421875 48.390625 
Q 24.90625 48.390625 20.390625 44.140625 
Q 15.875 39.890625 15.1875 32.171875 
z
" id="DejaVuSans-101"/>
      <path d="M 34.28125 27.484375 
Q 23.390625 27.484375 19.1875 25 
Q 14.984375 22.515625 14.984375 16.5 
Q 14.984375 11.71875 18.140625 8.90625 
Q 21.296875 6.109375 26.703125 6.109375 
Q 34.1875 6.109375 38.703125 11.40625 
Q 43.21875 16.703125 43.21875 25.484375 
L 43.21875 27.484375 
z
M 52.203125 31.203125 
L 52.203125 0 
L 43.21875 0 
L 43.21875 8.296875 
Q 40.140625 3.328125 35.546875 0.953125 
Q 30.953125 -1.421875 24.3125 -1.421875 
Q 15.921875 -1.421875 10.953125 3.296875 
Q 6 8.015625 6 15.921875 
Q 6 25.140625 12.171875 29.828125 
Q 18.359375 34.515625 30.609375 34.515625 
L 43.21875 34.515625 
L 43.21875 35.40625 
Q 43.21875 41.609375 39.140625 45 
Q 35.0625 48.390625 27.6875 48.390625 
Q 23 48.390625 18.546875 47.265625 
Q 14.109375 46.140625 10.015625 43.890625 
L 10.015625 52.203125 
Q 14.9375 54.109375 19.578125 55.046875 
Q 24.21875 56 28.609375 56 
Q 40.484375 56 46.34375 49.84375 
Q 52.203125 43.703125 52.203125 31.203125 
z
" id="DejaVuSans-97"/>
      <path d="M 45.40625 46.390625 
L 45.40625 75.984375 
L 54.390625 75.984375 
L 54.390625 0 
L 45.40625 0 
L 45.40625 8.203125 
Q 42.578125 3.328125 38.25 0.953125 
Q 33.9375 -1.421875 27.875 -1.421875 
Q 17.96875 -1.421875 11.734375 6.484375 
Q 5.515625 14.40625 5.515625 27.296875 
Q 5.515625 40.1875 11.734375 48.09375 
Q 17.96875 56 27.875 56 
Q 33.9375 56 38.25 53.625 
Q 42.578125 51.265625 45.40625 46.390625 
z
M 14.796875 27.296875 
Q 14.796875 17.390625 18.875 11.75 
Q 22.953125 6.109375 30.078125 6.109375 
Q 37.203125 6.109375 41.296875 11.75 
Q 45.40625 17.390625 45.40625 27.296875 
Q 45.40625 37.203125 41.296875 42.84375 
Q 37.203125 48.484375 30.078125 48.484375 
Q 22.953125 48.484375 18.875 42.84375 
Q 14.796875 37.203125 14.796875 27.296875 
z
" id="DejaVuSans-100"/>
      <path d="M 18.3125 70.21875 
L 18.3125 54.6875 
L 36.8125 54.6875 
L 36.8125 47.703125 
L 18.3125 47.703125 
L 18.3125 18.015625 
Q 18.3125 11.328125 20.140625 9.421875 
Q 21.96875 7.515625 27.59375 7.515625 
L 36.8125 7.515625 
L 36.8125 0 
L 27.59375 0 
Q 17.1875 0 13.234375 3.875 
Q 9.28125 7.765625 9.28125 18.015625 
L 9.28125 47.703125 
L 2.6875 47.703125 
L 2.6875 54.6875 
L 9.28125 54.6875 
L 9.28125 70.21875 
z
" id="DejaVuSans-116"/>
      <path d="M 9.421875 54.6875 
L 18.40625 54.6875 
L 18.40625 0 
L 9.421875 0 
z
M 9.421875 75.984375 
L 18.40625 75.984375 
L 18.40625 64.59375 
L 9.421875 64.59375 
z
" id="DejaVuSans-105"/>
      <path d="M 52 44.1875 
Q 55.375 50.25 60.0625 53.125 
Q 64.75 56 71.09375 56 
Q 79.640625 56 84.28125 50.015625 
Q 88.921875 44.046875 88.921875 33.015625 
L 88.921875 0 
L 79.890625 0 
L 79.890625 32.71875 
Q 79.890625 40.578125 77.09375 44.375 
Q 74.3125 48.1875 68.609375 48.1875 
Q 61.625 48.1875 57.5625 43.546875 
Q 53.515625 38.921875 53.515625 30.90625 
L 53.515625 0 
L 44.484375 0 
L 44.484375 32.71875 
Q 44.484375 40.625 41.703125 44.40625 
Q 38.921875 48.1875 33.109375 48.1875 
Q 26.21875 48.1875 22.15625 43.53125 
Q 18.109375 38.875 18.109375 30.90625 
L 18.109375 0 
L 9.078125 0 
L 9.078125 54.6875 
L 18.109375 54.6875 
L 18.109375 46.1875 
Q 21.1875 51.21875 25.484375 53.609375 
Q 29.78125 56 35.6875 56 
Q 41.65625 56 45.828125 52.96875 
Q 50 49.953125 52 44.1875 
z
" id="DejaVuSans-109"/>
      <path id="DejaVuSans-32"/>
      <path d="M 8.59375 75.984375 
L 29.296875 75.984375 
L 29.296875 69 
L 17.578125 69 
L 17.578125 -6.203125 
L 29.296875 -6.203125 
L 29.296875 -13.1875 
L 8.59375 -13.1875 
z
" id="DejaVuSans-91"/>
      <path d="M 9.8125 72.90625 
L 24.515625 72.90625 
L 43.109375 23.296875 
L 61.8125 72.90625 
L 76.515625 72.90625 
L 76.515625 0 
L 66.890625 0 
L 66.890625 64.015625 
L 48.09375 14.015625 
L 38.1875 14.015625 
L 19.390625 64.015625 
L 19.390625 0 
L 9.8125 0 
z
" id="DejaVuSans-77"/>
      <path d="M -0.296875 72.90625 
L 61.375 72.90625 
L 61.375 64.59375 
L 35.5 64.59375 
L 35.5 0 
L 25.59375 0 
L 25.59375 64.59375 
L -0.296875 64.59375 
z
" id="DejaVuSans-84"/>
      <path d="M 8.6875 72.90625 
L 18.609375 72.90625 
L 18.609375 28.609375 
Q 18.609375 16.890625 22.84375 11.734375 
Q 27.09375 6.59375 36.625 6.59375 
Q 46.09375 6.59375 50.34375 11.734375 
Q 54.59375 16.890625 54.59375 28.609375 
L 54.59375 72.90625 
L 64.5 72.90625 
L 64.5 27.390625 
Q 64.5 13.140625 57.4375 5.859375 
Q 50.390625 -1.421875 36.625 -1.421875 
Q 22.796875 -1.421875 15.734375 5.859375 
Q 8.6875 13.140625 8.6875 27.390625 
z
" id="DejaVuSans-85"/>
      <path d="M 30.421875 75.984375 
L 30.421875 -13.1875 
L 9.71875 -13.1875 
L 9.71875 -6.203125 
L 21.390625 -6.203125 
L 21.390625 69 
L 9.71875 69 
L 9.71875 75.984375 
z
" id="DejaVuSans-93"/>
     </defs>
     <g transform="translate(219.737438 226.224375)scale(0.144 -0.144)">
      <use xlink:href="#DejaVuSans-108"/>
      <use x="27.783203" xlink:href="#DejaVuSans-101"/>
      <use x="89.306641" xlink:href="#DejaVuSans-97"/>
      <use x="150.585938" xlink:href="#DejaVuSans-100"/>
      <use x="214.0625" xlink:href="#DejaVuSans-116"/>
      <use x="253.271484" xlink:href="#DejaVuSans-105"/>
      <use x="281.054688" xlink:href="#DejaVuSans-109"/>
      <use x="378.466797" xlink:href="#DejaVuSans-101"/>
      <use x="439.990234" xlink:href="#DejaVuSans-32"/>
      <use x="471.777344" xlink:href="#DejaVuSans-91"/>
      <use x="510.791016" xlink:href="#DejaVuSans-77"/>
      <use x="597.070312" xlink:href="#DejaVuSans-84"/>
      <use x="658.154297" xlink:href="#DejaVuSans-85"/>
      <use x="731.347656" xlink:href="#DejaVuSans-93"/>
     </g>
    </g>
   </g>
   <g id="matplotlib.axis_2">
    <g id="ytick_1">
     <g id="line2d_11">
      <defs>
       <path d="M 0 0 
L -4.8 0 
" id="medb6b9267f" style="stroke:#000000;"/>
      </defs>
      <g>
       <use style="stroke:#000000;" x="65.953313" xlink:href="#medb6b9267f" y="175.659091"/>
      </g>
     </g>
     <g id="text_11">
      <!-- −0.6 -->
      <defs>
       <path d="M 10.59375 35.5 
L 73.1875 35.5 
L 73.1875 27.203125 
L 10.59375 27.203125 
z
" id="DejaVuSans-8722"/>
       <path d="M 33.015625 40.375 
Q 26.375 40.375 22.484375 35.828125 
Q 18.609375 31.296875 18.609375 23.390625 
Q 18.609375 15.53125 22.484375 10.953125 
Q 26.375 6.390625 33.015625 6.390625 
Q 39.65625 6.390625 43.53125 10.953125 
Q 47.40625 15.53125 47.40625 23.390625 
Q 47.40625 31.296875 43.53125 35.828125 
Q 39.65625 40.375 33.015625 40.375 
z
M 52.59375 71.296875 
L 52.59375 62.3125 
Q 48.875 64.0625 45.09375 64.984375 
Q 41.3125 65.921875 37.59375 65.921875 
Q 27.828125 65.921875 22.671875 59.328125 
Q 17.53125 52.734375 16.796875 39.40625 
Q 19.671875 43.65625 24.015625 45.921875 
Q 28.375 48.1875 33.59375 48.1875 
Q 44.578125 48.1875 50.953125 41.515625 
Q 57.328125 34.859375 57.328125 23.390625 
Q 57.328125 12.15625 50.6875 5.359375 
Q 44.046875 -1.421875 33.015625 -1.421875 
Q 20.359375 -1.421875 13.671875 8.265625 
Q 6.984375 17.96875 6.984375 36.375 
Q 6.984375 53.65625 15.1875 63.9375 
Q 23.390625 74.21875 37.203125 74.21875 
Q 40.921875 74.21875 44.703125 73.484375 
Q 48.484375 72.75 52.59375 71.296875 
z
" id="DejaVuSans-54"/>
      </defs>
      <g transform="translate(25.6 180.67406)scale(0.132 -0.132)">
       <use xlink:href="#DejaVuSans-8722"/>
       <use x="83.789062" xlink:href="#DejaVuSans-48"/>
       <use x="147.412109" xlink:href="#DejaVuSans-46"/>
       <use x="179.199219" xlink:href="#DejaVuSans-54"/>
      </g>
     </g>
    </g>
    <g id="ytick_2">
     <g id="line2d_12">
      <g>
       <use style="stroke:#000000;" x="65.953313" xlink:href="#medb6b9267f" y="134.484597"/>
      </g>
     </g>
     <g id="text_12">
      <!-- −0.4 -->
      <defs>
       <path d="M 37.796875 64.3125 
L 12.890625 25.390625 
L 37.796875 25.390625 
z
M 35.203125 72.90625 
L 47.609375 72.90625 
L 47.609375 25.390625 
L 58.015625 25.390625 
L 58.015625 17.1875 
L 47.609375 17.1875 
L 47.609375 0 
L 37.796875 0 
L 37.796875 17.1875 
L 4.890625 17.1875 
L 4.890625 26.703125 
z
" id="DejaVuSans-52"/>
      </defs>
      <g transform="translate(25.6 139.499566)scale(0.132 -0.132)">
       <use xlink:href="#DejaVuSans-8722"/>
       <use x="83.789062" xlink:href="#DejaVuSans-48"/>
       <use x="147.412109" xlink:href="#DejaVuSans-46"/>
       <use x="179.199219" xlink:href="#DejaVuSans-52"/>
      </g>
     </g>
    </g>
    <g id="ytick_3">
     <g id="line2d_13">
      <g>
       <use style="stroke:#000000;" x="65.953313" xlink:href="#medb6b9267f" y="93.310104"/>
      </g>
     </g>
     <g id="text_13">
      <!-- −0.2 -->
      <g transform="translate(25.6 98.325073)scale(0.132 -0.132)">
       <use xlink:href="#DejaVuSans-8722"/>
       <use x="83.789062" xlink:href="#DejaVuSans-48"/>
       <use x="147.412109" xlink:href="#DejaVuSans-46"/>
       <use x="179.199219" xlink:href="#DejaVuSans-50"/>
      </g>
     </g>
    </g>
    <g id="ytick_4">
     <g id="line2d_14">
      <g>
       <use style="stroke:#000000;" x="65.953313" xlink:href="#medb6b9267f" y="52.13561"/>
      </g>
     </g>
     <g id="text_14">
      <!-- 0.0 -->
      <g transform="translate(36.661188 57.150579)scale(0.132 -0.132)">
       <use xlink:href="#DejaVuSans-48"/>
       <use x="63.623047" xlink:href="#DejaVuSans-46"/>
       <use x="95.410156" xlink:href="#DejaVuSans-48"/>
      </g>
     </g>
    </g>
    <g id="text_15">
     <!-- rmse | spread -->
     <defs>
      <path d="M 41.109375 46.296875 
Q 39.59375 47.171875 37.8125 47.578125 
Q 36.03125 48 33.890625 48 
Q 26.265625 48 22.1875 43.046875 
Q 18.109375 38.09375 18.109375 28.8125 
L 18.109375 0 
L 9.078125 0 
L 9.078125 54.6875 
L 18.109375 54.6875 
L 18.109375 46.1875 
Q 20.953125 51.171875 25.484375 53.578125 
Q 30.03125 56 36.53125 56 
Q 37.453125 56 38.578125 55.875 
Q 39.703125 55.765625 41.0625 55.515625 
z
" id="DejaVuSans-114"/>
      <path d="M 44.28125 53.078125 
L 44.28125 44.578125 
Q 40.484375 46.53125 36.375 47.5 
Q 32.28125 48.484375 27.875 48.484375 
Q 21.1875 48.484375 17.84375 46.4375 
Q 14.5 44.390625 14.5 40.28125 
Q 14.5 37.15625 16.890625 35.375 
Q 19.28125 33.59375 26.515625 31.984375 
L 29.59375 31.296875 
Q 39.15625 29.25 43.1875 25.515625 
Q 47.21875 21.78125 47.21875 15.09375 
Q 47.21875 7.46875 41.1875 3.015625 
Q 35.15625 -1.421875 24.609375 -1.421875 
Q 20.21875 -1.421875 15.453125 -0.5625 
Q 10.6875 0.296875 5.421875 2 
L 5.421875 11.28125 
Q 10.40625 8.6875 15.234375 7.390625 
Q 20.0625 6.109375 24.8125 6.109375 
Q 31.15625 6.109375 34.5625 8.28125 
Q 37.984375 10.453125 37.984375 14.40625 
Q 37.984375 18.0625 35.515625 20.015625 
Q 33.0625 21.96875 24.703125 23.78125 
L 21.578125 24.515625 
Q 13.234375 26.265625 9.515625 29.90625 
Q 5.8125 33.546875 5.8125 39.890625 
Q 5.8125 47.609375 11.28125 51.796875 
Q 16.75 56 26.8125 56 
Q 31.78125 56 36.171875 55.265625 
Q 40.578125 54.546875 44.28125 53.078125 
z
" id="DejaVuSans-115"/>
      <path d="M 21 76.421875 
L 21 -23.578125 
L 12.703125 -23.578125 
L 12.703125 76.421875 
z
" id="DejaVuSans-124"/>
      <path d="M 18.109375 8.203125 
L 18.109375 -20.796875 
L 9.078125 -20.796875 
L 9.078125 54.6875 
L 18.109375 54.6875 
L 18.109375 46.390625 
Q 20.953125 51.265625 25.265625 53.625 
Q 29.59375 56 35.59375 56 
Q 45.5625 56 51.78125 48.09375 
Q 58.015625 40.1875 58.015625 27.296875 
Q 58.015625 14.40625 51.78125 6.484375 
Q 45.5625 -1.421875 35.59375 -1.421875 
Q 29.59375 -1.421875 25.265625 0.953125 
Q 20.953125 3.328125 18.109375 8.203125 
z
M 48.6875 27.296875 
Q 48.6875 37.203125 44.609375 42.84375 
Q 40.53125 48.484375 33.40625 48.484375 
Q 26.265625 48.484375 22.1875 42.84375 
Q 18.109375 37.203125 18.109375 27.296875 
Q 18.109375 17.390625 22.1875 11.75 
Q 26.265625 6.109375 33.40625 6.109375 
Q 40.53125 6.109375 44.609375 11.75 
Q 48.6875 17.390625 48.6875 27.296875 
z
" id="DejaVuSans-112"/>
     </defs>
     <g transform="translate(18.20475 156.895125)rotate(-90)scale(0.144 -0.144)">
      <use xlink:href="#DejaVuSans-114"/>
      <use x="41.097656" xlink:href="#DejaVuSans-109"/>
      <use x="138.509766" xlink:href="#DejaVuSans-115"/>
      <use x="190.609375" xlink:href="#DejaVuSans-101"/>
      <use x="252.132812" xlink:href="#DejaVuSans-32"/>
      <use x="283.919922" xlink:href="#DejaVuSans-124"/>
      <use x="317.611328" xlink:href="#DejaVuSans-32"/>
      <use x="349.398438" xlink:href="#DejaVuSans-115"/>
      <use x="401.498047" xlink:href="#DejaVuSans-112"/>
      <use x="464.974609" xlink:href="#DejaVuSans-114"/>
      <use x="506.056641" xlink:href="#DejaVuSans-101"/>
      <use x="567.580078" xlink:href="#DejaVuSans-97"/>
      <use x="628.859375" xlink:href="#DejaVuSans-100"/>
     </g>
    </g>
   </g>
   <g id="line2d_15">
    <path clip-path="url(#p5eb3680364)" d="M 84.97604 52.081668 
L 103.998767 52.137845 
L 123.021494 52.143971 
L 142.044222 52.15253 
L 161.066949 52.163112 
L 180.089676 52.17587 
L 199.112403 52.189982 
L 218.135131 52.201681 
L 237.157858 52.205597 
L 256.180585 52.189835 
L 275.203313 52.143142 
L 294.22604 52.067508 
L 313.248767 51.968974 
L 332.271494 51.833726 
L 351.294222 51.667754 
L 370.316949 51.501358 
L 389.339676 51.331495 
L 408.362403 51.134001 
L 427.385131 50.9353 
L 446.407858 50.737392 
L 465.430585 50.507882 
" style="fill:none;stroke:#1b9e77;stroke-linecap:square;stroke-width:2.5;"/>
   </g>
   <g id="line2d_16">
    <path clip-path="url(#p5eb3680364)" d="M 84.97604 52.158485 
L 103.998767 48.97859 
L 123.021494 45.569814 
L 142.044222 42.516686 
L 161.066949 39.802395 
L 180.089676 37.812939 
L 199.112403 36.933676 
L 218.135131 37.54917 
L 237.157858 39.505417 
L 256.180585 42.006436 
L 275.203313 43.792965 
L 294.22604 44.336044 
L 313.248767 43.865529 
L 332.271494 42.461455 
L 351.294222 40.478366 
L 370.316949 38.375199 
L 389.339676 36.472001 
L 408.362403 34.870885 
L 427.385131 33.535787 
L 446.407858 32.535857 
L 465.430585 31.904851 
" style="fill:none;stroke:#7570b3;stroke-linecap:square;stroke-width:2.5;"/>
   </g>
   <g id="line2d_17">
    <path clip-path="url(#p5eb3680364)" d="M 84.97604 52.212427 
L 103.998767 48.976355 
L 123.021494 45.561453 
L 142.044222 42.499766 
L 161.066949 39.774893 
L 180.089676 37.772679 
L 199.112403 36.879304 
L 218.135131 37.4831 
L 237.157858 39.43543 
L 256.180585 41.952211 
L 275.203313 43.785434 
L 294.22604 44.404146 
L 313.248767 44.032166 
L 332.271494 42.76334 
L 351.294222 40.946223 
L 370.316949 39.009452 
L 389.339676 37.276116 
L 408.362403 35.872494 
L 427.385131 34.736098 
L 446.407858 33.934075 
L 465.430585 33.532579 
" style="fill:none;stroke:#d95f02;stroke-linecap:square;stroke-width:2.5;"/>
   </g>
   <g id="line2d_18">
    <path clip-path="url(#p5eb3680364)" d="M 84.97604 57.097874 
L 103.998767 58.957381 
L 123.021494 59.730819 
L 142.044222 59.85607 
L 161.066949 60.442424 
L 180.089676 61.454187 
L 199.112403 62.758597 
L 218.135131 64.199017 
L 237.157858 65.627633 
L 256.180585 67.004621 
L 275.203313 68.339179 
L 294.22604 69.714404 
L 313.248767 71.128814 
L 332.271494 72.508315 
L 351.294222 73.835163 
L 370.316949 75.048194 
L 389.339676 76.257343 
L 408.362403 77.409077 
L 427.385131 78.494371 
L 446.407858 79.479326 
L 465.430585 80.386397 
" style="fill:none;stroke:#1b9e77;stroke-dasharray:9.25,4;stroke-dashoffset:0;stroke-width:2.5;"/>
   </g>
   <g id="line2d_19">
    <path clip-path="url(#p5eb3680364)" d="M 84.97604 36.572576 
L 103.998767 70.972321 
L 123.021494 81.714462 
L 142.044222 89.093314 
L 161.066949 97.525935 
L 180.089676 107.004164 
L 199.112403 116.788595 
L 218.135131 126.257111 
L 237.157858 134.982484 
L 256.180585 142.76558 
L 275.203313 149.661482 
L 294.22604 155.73285 
L 313.248767 160.94971 
L 332.271494 165.490699 
L 351.294222 169.510499 
L 370.316949 172.880004 
L 389.339676 175.682112 
L 408.362403 177.849383 
L 427.385131 179.554446 
L 446.407858 180.926318 
L 465.430585 181.930001 
" style="fill:none;stroke:#7570b3;stroke-dasharray:9.25,4;stroke-dashoffset:0;stroke-width:2.5;"/>
   </g>
   <g id="line2d_20">
    <path clip-path="url(#p5eb3680364)" d="M 84.97604 31.610313 
L 103.998767 64.150551 
L 123.021494 74.119254 
L 142.044222 81.372854 
L 161.066949 89.219121 
L 180.089676 97.685588 
L 199.112403 106.165608 
L 218.135131 114.193704 
L 237.157858 121.490461 
L 256.180585 127.896569 
L 275.203313 133.457912 
L 294.22604 138.154056 
L 313.248767 141.956506 
L 332.271494 145.117995 
L 351.294222 147.810946 
L 370.316949 149.96742 
L 389.339676 151.56038 
L 408.362403 152.575916 
L 427.385131 153.195686 
L 446.407858 153.582603 
L 465.430585 153.679214 
" style="fill:none;stroke:#d95f02;stroke-dasharray:9.25,4;stroke-dashoffset:0;stroke-width:2.5;"/>
   </g>
   <g id="patch_3">
    <path d="M 65.953313 190.2075 
L 65.953313 23.8875 
" style="fill:none;stroke:#000000;stroke-linecap:square;stroke-linejoin:miter;"/>
   </g>
   <g id="patch_4">
    <path d="M 65.953313 190.2075 
L 484.453313 190.2075 
" style="fill:none;stroke:#000000;stroke-linecap:square;stroke-linejoin:miter;"/>
   </g>
   <g id="text_16">
    <!-- n_ens:20 -->
    <defs>
     <path d="M 54.890625 33.015625 
L 54.890625 0 
L 45.90625 0 
L 45.90625 32.71875 
Q 45.90625 40.484375 42.875 44.328125 
Q 39.84375 48.1875 33.796875 48.1875 
Q 26.515625 48.1875 22.3125 43.546875 
Q 18.109375 38.921875 18.109375 30.90625 
L 18.109375 0 
L 9.078125 0 
L 9.078125 54.6875 
L 18.109375 54.6875 
L 18.109375 46.1875 
Q 21.34375 51.125 25.703125 53.5625 
Q 30.078125 56 35.796875 56 
Q 45.21875 56 50.046875 50.171875 
Q 54.890625 44.34375 54.890625 33.015625 
z
" id="DejaVuSans-110"/>
     <path d="M 50.984375 -16.609375 
L 50.984375 -23.578125 
L -0.984375 -23.578125 
L -0.984375 -16.609375 
z
" id="DejaVuSans-95"/>
     <path d="M 11.71875 12.40625 
L 22.015625 12.40625 
L 22.015625 0 
L 11.71875 0 
z
M 11.71875 51.703125 
L 22.015625 51.703125 
L 22.015625 39.3125 
L 11.71875 39.3125 
z
" id="DejaVuSans-58"/>
    </defs>
    <g transform="translate(242.708813 17.8875)scale(0.144 -0.144)">
     <use xlink:href="#DejaVuSans-110"/>
     <use x="63.378906" xlink:href="#DejaVuSans-95"/>
     <use x="113.378906" xlink:href="#DejaVuSans-101"/>
     <use x="174.902344" xlink:href="#DejaVuSans-110"/>
     <use x="238.28125" xlink:href="#DejaVuSans-115"/>
     <use x="290.380859" xlink:href="#DejaVuSans-58"/>
     <use x="324.072266" xlink:href="#DejaVuSans-50"/>
     <use x="387.695312" xlink:href="#DejaVuSans-48"/>
    </g>
   </g>
   <g id="legend_1">
    <g id="patch_5">
     <path d="M 74.349953 184.2099 
L 230.428121 184.2099 
Q 232.827161 184.2099 232.827161 181.81086 
L 232.827161 101.360553 
Q 232.827161 98.961513 230.428121 98.961513 
L 74.349953 98.961513 
Q 71.950913 98.961513 71.950913 101.360553 
L 71.950913 181.81086 
Q 71.950913 184.2099 74.349953 184.2099 
z
" style="fill:#ffffff;opacity:0.4;stroke:#cccccc;stroke-linejoin:miter;stroke-width:0.8;"/>
    </g>
    <g id="line2d_21">
     <path d="M 76.748993 108.675751 
L 100.739393 108.675751 
" style="fill:none;stroke:#1b9e77;stroke-linecap:square;stroke-width:2.5;"/>
    </g>
    <g id="line2d_22"/>
    <g id="text_17">
     <!-- rmse svd-rand -->
     <defs>
      <path d="M 2.984375 54.6875 
L 12.5 54.6875 
L 29.59375 8.796875 
L 46.6875 54.6875 
L 56.203125 54.6875 
L 35.6875 0 
L 23.484375 0 
z
" id="DejaVuSans-118"/>
      <path d="M 4.890625 31.390625 
L 31.203125 31.390625 
L 31.203125 23.390625 
L 4.890625 23.390625 
z
" id="DejaVuSans-45"/>
     </defs>
     <g transform="translate(110.335553 112.874071)scale(0.119952 -0.119952)">
      <use xlink:href="#DejaVuSans-114"/>
      <use x="41.097656" xlink:href="#DejaVuSans-109"/>
      <use x="138.509766" xlink:href="#DejaVuSans-115"/>
      <use x="190.609375" xlink:href="#DejaVuSans-101"/>
      <use x="252.132812" xlink:href="#DejaVuSans-32"/>
      <use x="283.919922" xlink:href="#DejaVuSans-115"/>
      <use x="336.019531" xlink:href="#DejaVuSans-118"/>
      <use x="395.199219" xlink:href="#DejaVuSans-100"/>
      <use x="458.675781" xlink:href="#DejaVuSans-45"/>
      <use x="494.759766" xlink:href="#DejaVuSans-114"/>
      <use x="535.873047" xlink:href="#DejaVuSans-97"/>
      <use x="597.152344" xlink:href="#DejaVuSans-110"/>
      <use x="660.53125" xlink:href="#DejaVuSans-100"/>
     </g>
    </g>
    <g id="line2d_23">
     <path d="M 76.748993 121.484375 
L 100.739393 121.484375 
" style="fill:none;stroke:#7570b3;stroke-linecap:square;stroke-width:2.5;"/>
    </g>
    <g id="line2d_24"/>
    <g id="text_18">
     <!-- rmse svd-netens -->
     <g transform="translate(110.335553 125.682695)scale(0.119952 -0.119952)">
      <use xlink:href="#DejaVuSans-114"/>
      <use x="41.097656" xlink:href="#DejaVuSans-109"/>
      <use x="138.509766" xlink:href="#DejaVuSans-115"/>
      <use x="190.609375" xlink:href="#DejaVuSans-101"/>
      <use x="252.132812" xlink:href="#DejaVuSans-32"/>
      <use x="283.919922" xlink:href="#DejaVuSans-115"/>
      <use x="336.019531" xlink:href="#DejaVuSans-118"/>
      <use x="395.199219" xlink:href="#DejaVuSans-100"/>
      <use x="458.675781" xlink:href="#DejaVuSans-45"/>
      <use x="494.759766" xlink:href="#DejaVuSans-110"/>
      <use x="558.138672" xlink:href="#DejaVuSans-101"/>
      <use x="619.662109" xlink:href="#DejaVuSans-116"/>
      <use x="658.871094" xlink:href="#DejaVuSans-101"/>
      <use x="720.394531" xlink:href="#DejaVuSans-110"/>
      <use x="783.773438" xlink:href="#DejaVuSans-115"/>
     </g>
    </g>
    <g id="line2d_25">
     <path d="M 76.748993 134.293 
L 100.739393 134.293 
" style="fill:none;stroke:#d95f02;stroke-linecap:square;stroke-width:2.5;"/>
    </g>
    <g id="line2d_26"/>
    <g id="text_19">
     <!-- rmse rand-netens -->
     <g transform="translate(110.335553 138.49132)scale(0.119952 -0.119952)">
      <use xlink:href="#DejaVuSans-114"/>
      <use x="41.097656" xlink:href="#DejaVuSans-109"/>
      <use x="138.509766" xlink:href="#DejaVuSans-115"/>
      <use x="190.609375" xlink:href="#DejaVuSans-101"/>
      <use x="252.132812" xlink:href="#DejaVuSans-32"/>
      <use x="283.919922" xlink:href="#DejaVuSans-114"/>
      <use x="325.033203" xlink:href="#DejaVuSans-97"/>
      <use x="386.3125" xlink:href="#DejaVuSans-110"/>
      <use x="449.691406" xlink:href="#DejaVuSans-100"/>
      <use x="513.167969" xlink:href="#DejaVuSans-45"/>
      <use x="549.251953" xlink:href="#DejaVuSans-110"/>
      <use x="612.630859" xlink:href="#DejaVuSans-101"/>
      <use x="674.154297" xlink:href="#DejaVuSans-116"/>
      <use x="713.363281" xlink:href="#DejaVuSans-101"/>
      <use x="774.886719" xlink:href="#DejaVuSans-110"/>
      <use x="838.265625" xlink:href="#DejaVuSans-115"/>
     </g>
    </g>
    <g id="line2d_27">
     <path d="M 76.748993 147.101624 
L 100.739393 147.101624 
" style="fill:none;stroke:#1b9e77;stroke-dasharray:9.25,4;stroke-dashoffset:0;stroke-width:2.5;"/>
    </g>
    <g id="line2d_28"/>
    <g id="text_20">
     <!-- spread svd-rand -->
     <g transform="translate(110.335553 151.299944)scale(0.119952 -0.119952)">
      <use xlink:href="#DejaVuSans-115"/>
      <use x="52.099609" xlink:href="#DejaVuSans-112"/>
      <use x="115.576172" xlink:href="#DejaVuSans-114"/>
      <use x="156.658203" xlink:href="#DejaVuSans-101"/>
      <use x="218.181641" xlink:href="#DejaVuSans-97"/>
      <use x="279.460938" xlink:href="#DejaVuSans-100"/>
      <use x="342.9375" xlink:href="#DejaVuSans-32"/>
      <use x="374.724609" xlink:href="#DejaVuSans-115"/>
      <use x="426.824219" xlink:href="#DejaVuSans-118"/>
      <use x="486.003906" xlink:href="#DejaVuSans-100"/>
      <use x="549.480469" xlink:href="#DejaVuSans-45"/>
      <use x="585.564453" xlink:href="#DejaVuSans-114"/>
      <use x="626.677734" xlink:href="#DejaVuSans-97"/>
      <use x="687.957031" xlink:href="#DejaVuSans-110"/>
      <use x="751.335938" xlink:href="#DejaVuSans-100"/>
     </g>
    </g>
    <g id="line2d_29">
     <path d="M 76.748993 159.910249 
L 100.739393 159.910249 
" style="fill:none;stroke:#7570b3;stroke-dasharray:9.25,4;stroke-dashoffset:0;stroke-width:2.5;"/>
    </g>
    <g id="line2d_30"/>
    <g id="text_21">
     <!-- spread svd-netens -->
     <g transform="translate(110.335553 164.108569)scale(0.119952 -0.119952)">
      <use xlink:href="#DejaVuSans-115"/>
      <use x="52.099609" xlink:href="#DejaVuSans-112"/>
      <use x="115.576172" xlink:href="#DejaVuSans-114"/>
      <use x="156.658203" xlink:href="#DejaVuSans-101"/>
      <use x="218.181641" xlink:href="#DejaVuSans-97"/>
      <use x="279.460938" xlink:href="#DejaVuSans-100"/>
      <use x="342.9375" xlink:href="#DejaVuSans-32"/>
      <use x="374.724609" xlink:href="#DejaVuSans-115"/>
      <use x="426.824219" xlink:href="#DejaVuSans-118"/>
      <use x="486.003906" xlink:href="#DejaVuSans-100"/>
      <use x="549.480469" xlink:href="#DejaVuSans-45"/>
      <use x="585.564453" xlink:href="#DejaVuSans-110"/>
      <use x="648.943359" xlink:href="#DejaVuSans-101"/>
      <use x="710.466797" xlink:href="#DejaVuSans-116"/>
      <use x="749.675781" xlink:href="#DejaVuSans-101"/>
      <use x="811.199219" xlink:href="#DejaVuSans-110"/>
      <use x="874.578125" xlink:href="#DejaVuSans-115"/>
     </g>
    </g>
    <g id="line2d_31">
     <path d="M 76.748993 172.718873 
L 100.739393 172.718873 
" style="fill:none;stroke:#d95f02;stroke-dasharray:9.25,4;stroke-dashoffset:0;stroke-width:2.5;"/>
    </g>
    <g id="line2d_32"/>
    <g id="text_22">
     <!-- spread rand-netens -->
     <g transform="translate(110.335553 176.917193)scale(0.119952 -0.119952)">
      <use xlink:href="#DejaVuSans-115"/>
      <use x="52.099609" xlink:href="#DejaVuSans-112"/>
      <use x="115.576172" xlink:href="#DejaVuSans-114"/>
      <use x="156.658203" xlink:href="#DejaVuSans-101"/>
      <use x="218.181641" xlink:href="#DejaVuSans-97"/>
      <use x="279.460938" xlink:href="#DejaVuSans-100"/>
      <use x="342.9375" xlink:href="#DejaVuSans-32"/>
      <use x="374.724609" xlink:href="#DejaVuSans-114"/>
      <use x="415.837891" xlink:href="#DejaVuSans-97"/>
      <use x="477.117188" xlink:href="#DejaVuSans-110"/>
      <use x="540.496094" xlink:href="#DejaVuSans-100"/>
      <use x="603.972656" xlink:href="#DejaVuSans-45"/>
      <use x="640.056641" xlink:href="#DejaVuSans-110"/>
      <use x="703.435547" xlink:href="#DejaVuSans-101"/>
      <use x="764.958984" xlink:href="#DejaVuSans-116"/>
      <use x="804.167969" xlink:href="#DejaVuSans-101"/>
      <use x="865.691406" xlink:href="#DejaVuSans-110"/>
      <use x="929.070312" xlink:href="#DejaVuSans-115"/>
     </g>
    </g>
   </g>
  </g>
 </g>
 <defs>
  <clipPath id="p5eb3680364">
   <rect height="166.32" width="418.5" x="65.953313" y="23.8875"/>
  </clipPath>
 </defs>
</svg>
